<svg xmlns="http://www.w3.org/2000/svg" width="529" height="89" viewBox="0 0 529 89" fill="none"><rect width="529" height="89" rx="14" fill="white"></rect><rect x="227" y="23" width="119" height="17" rx="5.92278" fill="#F9AF30"></rect><rect x="240" y="51" width="86" height="17" rx="5.92278" fill="#F9AF30"></rect><rect x="465.871" y="50.9343" width="46.3951" height="16.7812" rx="5.92278" fill="#F9AF30"></rect><path d="M196.222 26.9L193.18 36H191.815L189.332 28.733L186.849 36H185.458L182.416 26.9H183.755L186.212 34.297L188.773 26.9H189.969L192.478 34.336L194.987 26.9H196.222ZM201.5 29.045C202.375 29.045 203.068 29.3007 203.58 29.812C204.1 30.3147 204.36 31.0557 204.36 32.035V36H203.112V32.178C203.112 31.5107 202.951 31.008 202.631 30.67C202.31 30.332 201.851 30.163 201.253 30.163C200.577 30.163 200.044 30.3623 199.654 30.761C199.264 31.151 199.069 31.7143 199.069 32.451V36H197.821V26.354H199.069V30.085C199.329 29.7557 199.667 29.5 200.083 29.318C200.507 29.136 200.98 29.045 201.5 29.045ZM212.934 32.594C212.934 32.6893 212.926 32.815 212.908 32.971H207.318C207.396 33.5777 207.661 34.0673 208.111 34.44C208.571 34.804 209.138 34.986 209.814 34.986C210.638 34.986 211.301 34.7087 211.803 34.154L212.492 34.96C212.18 35.324 211.79 35.6013 211.322 35.792C210.863 35.9827 210.347 36.078 209.775 36.078C209.047 36.078 208.402 35.9307 207.838 35.636C207.275 35.3327 206.837 34.9123 206.525 34.375C206.222 33.8377 206.07 33.231 206.07 32.555C206.07 31.8877 206.218 31.2853 206.512 30.748C206.816 30.2107 207.227 29.7947 207.747 29.5C208.276 29.1967 208.87 29.045 209.528 29.045C210.187 29.045 210.772 29.1967 211.283 29.5C211.803 29.7947 212.206 30.2107 212.492 30.748C212.787 31.2853 212.934 31.9007 212.934 32.594ZM209.528 30.098C208.93 30.098 208.428 30.28 208.02 30.644C207.622 31.008 207.388 31.4847 207.318 32.074H211.738C211.669 31.4933 211.431 31.021 211.023 30.657C210.625 30.2843 210.126 30.098 209.528 30.098ZM218.346 29.045C219.222 29.045 219.915 29.3007 220.426 29.812C220.946 30.3147 221.206 31.0557 221.206 32.035V36H219.958V32.178C219.958 31.5107 219.798 31.008 219.477 30.67C219.157 30.332 218.697 30.163 218.099 30.163C217.423 30.163 216.89 30.3623 216.5 30.761C216.11 31.151 215.915 31.7143 215.915 32.451V36H214.667V29.11H215.863V30.15C216.115 29.7947 216.453 29.5217 216.877 29.331C217.311 29.1403 217.8 29.045 218.346 29.045ZM230.68 26.9H234.515C235.477 26.9 236.331 27.0907 237.076 27.472C237.822 27.8533 238.398 28.3907 238.805 29.084C239.221 29.7687 239.429 30.5573 239.429 31.45C239.429 32.3427 239.221 33.1357 238.805 33.829C238.398 34.5137 237.822 35.0467 237.076 35.428C236.331 35.8093 235.477 36 234.515 36H230.68V26.9ZM234.437 34.869C235.174 34.869 235.82 34.726 236.374 34.44C236.938 34.154 237.371 33.7553 237.674 33.244C237.978 32.724 238.129 32.126 238.129 31.45C238.129 30.774 237.978 30.1803 237.674 29.669C237.371 29.149 236.938 28.746 236.374 28.46C235.82 28.174 235.174 28.031 234.437 28.031H231.98V34.869H234.437ZM244.19 36.078C243.505 36.078 242.89 35.9263 242.344 35.623C241.798 35.3197 241.369 34.9037 241.057 34.375C240.753 33.8377 240.602 33.231 240.602 32.555C240.602 31.879 240.753 31.2767 241.057 30.748C241.369 30.2107 241.798 29.7947 242.344 29.5C242.89 29.1967 243.505 29.045 244.19 29.045C244.874 29.045 245.485 29.1967 246.023 29.5C246.569 29.7947 246.993 30.2107 247.297 30.748C247.609 31.2767 247.765 31.879 247.765 32.555C247.765 33.231 247.609 33.8377 247.297 34.375C246.993 34.9037 246.569 35.3197 246.023 35.623C245.485 35.9263 244.874 36.078 244.19 36.078ZM244.19 34.986C244.632 34.986 245.026 34.8863 245.373 34.687C245.728 34.479 246.005 34.193 246.205 33.829C246.404 33.4563 246.504 33.0317 246.504 32.555C246.504 32.0783 246.404 31.658 246.205 31.294C246.005 30.9213 245.728 30.6353 245.373 30.436C245.026 30.2367 244.632 30.137 244.19 30.137C243.748 30.137 243.349 30.2367 242.994 30.436C242.647 30.6353 242.37 30.9213 242.162 31.294C241.962 31.658 241.863 32.0783 241.863 32.555C241.863 33.0317 241.962 33.4563 242.162 33.829C242.37 34.193 242.647 34.479 242.994 34.687C243.349 34.8863 243.748 34.986 244.19 34.986ZM256.082 29.11V35.064C256.082 36.2687 255.783 37.157 255.185 37.729C254.587 38.3097 253.694 38.6 252.507 38.6C251.857 38.6 251.237 38.509 250.648 38.327C250.058 38.1537 249.582 37.9023 249.218 37.573L249.816 36.611C250.136 36.8883 250.531 37.105 250.999 37.261C251.475 37.4257 251.965 37.508 252.468 37.508C253.274 37.508 253.867 37.3173 254.249 36.936C254.639 36.5547 254.834 35.974 254.834 35.194V34.648C254.539 35.0033 254.175 35.272 253.742 35.454C253.317 35.6273 252.853 35.714 252.351 35.714C251.692 35.714 251.094 35.5753 250.557 35.298C250.028 35.012 249.612 34.6177 249.309 34.115C249.005 33.6037 248.854 33.023 248.854 32.373C248.854 31.723 249.005 31.1467 249.309 30.644C249.612 30.1327 250.028 29.7383 250.557 29.461C251.094 29.1837 251.692 29.045 252.351 29.045C252.871 29.045 253.352 29.1403 253.794 29.331C254.244 29.5217 254.613 29.8033 254.899 30.176V29.11H256.082ZM252.494 34.622C252.944 34.622 253.347 34.5267 253.703 34.336C254.067 34.1453 254.348 33.881 254.548 33.543C254.756 33.1963 254.86 32.8063 254.86 32.373C254.86 31.7057 254.639 31.1683 254.197 30.761C253.755 30.345 253.187 30.137 252.494 30.137C251.792 30.137 251.22 30.345 250.778 30.761C250.336 31.1683 250.115 31.7057 250.115 32.373C250.115 32.8063 250.214 33.1963 250.414 33.543C250.622 33.881 250.903 34.1453 251.259 34.336C251.623 34.5267 252.034 34.622 252.494 34.622ZM265.057 29.11V35.064C265.057 36.2687 264.758 37.157 264.16 37.729C263.562 38.3097 262.67 38.6 261.482 38.6C260.832 38.6 260.213 38.509 259.623 38.327C259.034 38.1537 258.557 37.9023 258.193 37.573L258.791 36.611C259.112 36.8883 259.506 37.105 259.974 37.261C260.451 37.4257 260.941 37.508 261.443 37.508C262.249 37.508 262.843 37.3173 263.224 36.936C263.614 36.5547 263.809 35.974 263.809 35.194V34.648C263.515 35.0033 263.151 35.272 262.717 35.454C262.293 35.6273 261.829 35.714 261.326 35.714C260.668 35.714 260.07 35.5753 259.532 35.298C259.004 35.012 258.588 34.6177 258.284 34.115C257.981 33.6037 257.829 33.023 257.829 32.373C257.829 31.723 257.981 31.1467 258.284 30.644C258.588 30.1327 259.004 29.7383 259.532 29.461C260.07 29.1837 260.668 29.045 261.326 29.045C261.846 29.045 262.327 29.1403 262.769 29.331C263.22 29.5217 263.588 29.8033 263.874 30.176V29.11H265.057ZM261.469 34.622C261.92 34.622 262.323 34.5267 262.678 34.336C263.042 34.1453 263.324 33.881 263.523 33.543C263.731 33.1963 263.835 32.8063 263.835 32.373C263.835 31.7057 263.614 31.1683 263.172 30.761C262.73 30.345 262.163 30.137 261.469 30.137C260.767 30.137 260.195 30.345 259.753 30.761C259.311 31.1683 259.09 31.7057 259.09 32.373C259.09 32.8063 259.19 33.1963 259.389 33.543C259.597 33.881 259.879 34.1453 260.234 34.336C260.598 34.5267 261.01 34.622 261.469 34.622ZM267.442 29.11H268.69V36H267.442V29.11ZM268.066 27.784C267.823 27.784 267.619 27.706 267.455 27.55C267.299 27.394 267.221 27.2033 267.221 26.978C267.221 26.7527 267.299 26.562 267.455 26.406C267.619 26.2413 267.823 26.159 268.066 26.159C268.308 26.159 268.508 26.237 268.664 26.393C268.828 26.5403 268.911 26.7267 268.911 26.952C268.911 27.186 268.828 27.3853 268.664 27.55C268.508 27.706 268.308 27.784 268.066 27.784ZM277.3 32.594C277.3 32.6893 277.291 32.815 277.274 32.971H271.684C271.762 33.5777 272.026 34.0673 272.477 34.44C272.936 34.804 273.504 34.986 274.18 34.986C275.003 34.986 275.666 34.7087 276.169 34.154L276.858 34.96C276.546 35.324 276.156 35.6013 275.688 35.792C275.228 35.9827 274.713 36.078 274.141 36.078C273.413 36.078 272.767 35.9307 272.204 35.636C271.64 35.3327 271.203 34.9123 270.891 34.375C270.587 33.8377 270.436 33.231 270.436 32.555C270.436 31.8877 270.583 31.2853 270.878 30.748C271.181 30.2107 271.593 29.7947 272.113 29.5C272.641 29.1967 273.235 29.045 273.894 29.045C274.552 29.045 275.137 29.1967 275.649 29.5C276.169 29.7947 276.572 30.2107 276.858 30.748C277.152 31.2853 277.3 31.9007 277.3 32.594ZM273.894 30.098C273.296 30.098 272.793 30.28 272.386 30.644C271.987 31.008 271.753 31.4847 271.684 32.074H276.104C276.034 31.4933 275.796 31.021 275.389 30.657C274.99 30.2843 274.492 30.098 273.894 30.098ZM282.706 26.9H286.541C287.503 26.9 288.356 27.0907 289.102 27.472C289.847 27.8533 290.423 28.3907 290.831 29.084C291.247 29.7687 291.455 30.5573 291.455 31.45C291.455 32.3427 291.247 33.1357 290.831 33.829C290.423 34.5137 289.847 35.0467 289.102 35.428C288.356 35.8093 287.503 36 286.541 36H282.706V26.9ZM286.463 34.869C287.199 34.869 287.845 34.726 288.4 34.44C288.963 34.154 289.396 33.7553 289.7 33.244C290.003 32.724 290.155 32.126 290.155 31.45C290.155 30.774 290.003 30.1803 289.7 29.669C289.396 29.149 288.963 28.746 288.4 28.46C287.845 28.174 287.199 28.031 286.463 28.031H284.006V34.869H286.463ZM299.491 32.594C299.491 32.6893 299.482 32.815 299.465 32.971H293.875C293.953 33.5777 294.217 34.0673 294.668 34.44C295.127 34.804 295.695 34.986 296.371 34.986C297.194 34.986 297.857 34.7087 298.36 34.154L299.049 34.96C298.737 35.324 298.347 35.6013 297.879 35.792C297.42 35.9827 296.904 36.078 296.332 36.078C295.604 36.078 294.958 35.9307 294.395 35.636C293.832 35.3327 293.394 34.9123 293.082 34.375C292.779 33.8377 292.627 33.231 292.627 32.555C292.627 31.8877 292.774 31.2853 293.069 30.748C293.372 30.2107 293.784 29.7947 294.304 29.5C294.833 29.1967 295.426 29.045 296.085 29.045C296.744 29.045 297.329 29.1967 297.84 29.5C298.36 29.7947 298.763 30.2107 299.049 30.748C299.344 31.2853 299.491 31.9007 299.491 32.594ZM296.085 30.098C295.487 30.098 294.984 30.28 294.577 30.644C294.178 31.008 293.944 31.4847 293.875 32.074H298.295C298.226 31.4933 297.987 31.021 297.58 30.657C297.181 30.2843 296.683 30.098 296.085 30.098ZM304.903 29.045C305.778 29.045 306.472 29.3007 306.983 29.812C307.503 30.3147 307.763 31.0557 307.763 32.035V36H306.515V32.178C306.515 31.5107 306.355 31.008 306.034 30.67C305.713 30.332 305.254 30.163 304.656 30.163C303.98 30.163 303.447 30.3623 303.057 30.761C302.667 31.151 302.472 31.7143 302.472 32.451V36H301.224V29.11H302.42V30.15C302.671 29.7947 303.009 29.5217 303.434 29.331C303.867 29.1403 304.357 29.045 304.903 29.045ZM313.947 35.597C313.765 35.753 313.539 35.8743 313.271 35.961C313.002 36.039 312.725 36.078 312.439 36.078C311.745 36.078 311.208 35.8917 310.827 35.519C310.445 35.1463 310.255 34.6133 310.255 33.92V30.137H309.085V29.11H310.255V27.602H311.503V29.11H313.479V30.137H311.503V33.868C311.503 34.2407 311.594 34.5267 311.776 34.726C311.966 34.9253 312.235 35.025 312.582 35.025C312.963 35.025 313.288 34.9167 313.557 34.7L313.947 35.597ZM321.877 29.11V36H320.694V34.96C320.443 35.3153 320.109 35.5927 319.693 35.792C319.286 35.9827 318.84 36.078 318.354 36.078C317.436 36.078 316.712 35.8267 316.183 35.324C315.655 34.8127 315.39 34.063 315.39 33.075V29.11H316.638V32.932C316.638 33.5993 316.799 34.1063 317.119 34.453C317.44 34.791 317.899 34.96 318.497 34.96C319.156 34.96 319.676 34.7607 320.057 34.362C320.439 33.9633 320.629 33.4 320.629 32.672V29.11H321.877ZM325.449 30.267C325.666 29.8683 325.987 29.565 326.411 29.357C326.836 29.149 327.352 29.045 327.958 29.045V30.254C327.889 30.2453 327.794 30.241 327.672 30.241C326.996 30.241 326.463 30.4447 326.073 30.852C325.692 31.2507 325.501 31.8227 325.501 32.568V36H324.253V29.11H325.449V30.267ZM335.66 32.594C335.66 32.6893 335.651 32.815 335.634 32.971H330.044C330.122 33.5777 330.386 34.0673 330.837 34.44C331.296 34.804 331.864 34.986 332.54 34.986C333.363 34.986 334.026 34.7087 334.529 34.154L335.218 34.96C334.906 35.324 334.516 35.6013 334.048 35.792C333.589 35.9827 333.073 36.078 332.501 36.078C331.773 36.078 331.127 35.9307 330.564 35.636C330.001 35.3327 329.563 34.9123 329.251 34.375C328.948 33.8377 328.796 33.231 328.796 32.555C328.796 31.8877 328.943 31.2853 329.238 30.748C329.541 30.2107 329.953 29.7947 330.473 29.5C331.002 29.1967 331.595 29.045 332.254 29.045C332.913 29.045 333.498 29.1967 334.009 29.5C334.529 29.7947 334.932 30.2107 335.218 30.748C335.513 31.2853 335.66 31.9007 335.66 32.594ZM332.254 30.098C331.656 30.098 331.153 30.28 330.746 30.644C330.347 31.008 330.113 31.4847 330.044 32.074H334.464C334.395 31.4933 334.156 31.021 333.749 30.657C333.35 30.2843 332.852 30.098 332.254 30.098ZM339.369 36.078C338.806 36.078 338.264 36.0043 337.744 35.857C337.224 35.701 336.817 35.506 336.522 35.272L337.042 34.284C337.345 34.5007 337.714 34.674 338.147 34.804C338.58 34.934 339.018 34.999 339.46 34.999C340.552 34.999 341.098 34.687 341.098 34.063C341.098 33.855 341.024 33.6903 340.877 33.569C340.73 33.4477 340.543 33.361 340.318 33.309C340.101 33.2483 339.789 33.1833 339.382 33.114C338.827 33.0273 338.372 32.9277 338.017 32.815C337.67 32.7023 337.371 32.5117 337.12 32.243C336.869 31.9743 336.743 31.5973 336.743 31.112C336.743 30.488 337.003 29.9897 337.523 29.617C338.043 29.2357 338.741 29.045 339.616 29.045C340.075 29.045 340.535 29.1013 340.994 29.214C341.453 29.3267 341.83 29.4783 342.125 29.669L341.592 30.657C341.029 30.293 340.366 30.111 339.603 30.111C339.074 30.111 338.671 30.1977 338.394 30.371C338.117 30.5443 337.978 30.774 337.978 31.06C337.978 31.2853 338.056 31.463 338.212 31.593C338.368 31.723 338.559 31.8183 338.784 31.879C339.018 31.9397 339.343 32.009 339.759 32.087C340.314 32.1823 340.76 32.2863 341.098 32.399C341.445 32.503 341.739 32.685 341.982 32.945C342.225 33.205 342.346 33.569 342.346 34.037C342.346 34.661 342.077 35.1593 341.54 35.532C341.011 35.896 340.288 36.078 339.369 36.078ZM187.434 64.156C186.507 64.156 185.666 63.9567 184.912 63.558C184.167 63.1507 183.577 62.5917 183.144 61.881C182.719 61.1617 182.507 60.3513 182.507 59.45C182.507 58.5487 182.719 57.7427 183.144 57.032C183.577 56.3127 184.167 55.7537 184.912 55.355C185.666 54.9477 186.511 54.744 187.447 54.744C188.236 54.744 188.946 54.8827 189.579 55.16C190.22 55.4373 190.758 55.836 191.191 56.356L189.839 57.604C189.224 56.8933 188.461 56.538 187.551 56.538C186.988 56.538 186.485 56.6637 186.043 56.915C185.601 57.1577 185.254 57.5 185.003 57.942C184.76 58.384 184.639 58.8867 184.639 59.45C184.639 60.0133 184.76 60.516 185.003 60.958C185.254 61.4 185.601 61.7467 186.043 61.998C186.485 62.2407 186.988 62.362 187.551 62.362C188.461 62.362 189.224 62.0023 189.839 61.283L191.191 62.531C190.758 63.0597 190.22 63.4627 189.579 63.74C188.938 64.0173 188.223 64.156 187.434 64.156ZM196.721 56.902C197.588 56.902 198.286 57.162 198.814 57.682C199.352 58.202 199.62 58.9733 199.62 59.996V64H197.592V60.308C197.592 59.7533 197.471 59.3417 197.228 59.073C196.986 58.7957 196.635 58.657 196.175 58.657C195.664 58.657 195.257 58.8173 194.953 59.138C194.65 59.45 194.498 59.918 194.498 60.542V64H192.47V54.354H194.498V57.734C194.767 57.4653 195.092 57.2617 195.473 57.123C195.855 56.9757 196.271 56.902 196.721 56.902ZM204.279 56.902C205.363 56.902 206.195 57.162 206.775 57.682C207.356 58.1933 207.646 58.969 207.646 60.009V64H205.748V63.129C205.367 63.779 204.656 64.104 203.616 64.104C203.079 64.104 202.611 64.013 202.212 63.831C201.822 63.649 201.523 63.3977 201.315 63.077C201.107 62.7563 201.003 62.3923 201.003 61.985C201.003 61.335 201.246 60.8237 201.731 60.451C202.225 60.0783 202.984 59.892 204.006 59.892H205.618C205.618 59.45 205.484 59.112 205.215 58.878C204.947 58.6353 204.544 58.514 204.006 58.514C203.634 58.514 203.265 58.5747 202.901 58.696C202.546 58.8087 202.243 58.9647 201.991 59.164L201.263 57.747C201.645 57.4783 202.1 57.2703 202.628 57.123C203.166 56.9757 203.716 56.902 204.279 56.902ZM204.123 62.739C204.47 62.739 204.778 62.661 205.046 62.505C205.315 62.3403 205.506 62.102 205.618 61.79V61.075H204.227C203.395 61.075 202.979 61.348 202.979 61.894C202.979 62.154 203.079 62.362 203.278 62.518C203.486 62.6653 203.768 62.739 204.123 62.739ZM213.733 56.902C214.6 56.902 215.297 57.162 215.826 57.682C216.363 58.202 216.632 58.9733 216.632 59.996V64H214.604V60.308C214.604 59.7533 214.483 59.3417 214.24 59.073C213.997 58.7957 213.646 58.657 213.187 58.657C212.676 58.657 212.268 58.8173 211.965 59.138C211.662 59.45 211.51 59.918 211.51 60.542V64H209.482V57.006H211.419V57.825C211.688 57.5303 212.021 57.305 212.42 57.149C212.819 56.9843 213.256 56.902 213.733 56.902ZM222.721 56.902C223.588 56.902 224.286 57.162 224.814 57.682C225.352 58.202 225.62 58.9733 225.62 59.996V64H223.592V60.308C223.592 59.7533 223.471 59.3417 223.228 59.073C222.986 58.7957 222.635 58.657 222.175 58.657C221.664 58.657 221.257 58.8173 220.953 59.138C220.65 59.45 220.498 59.918 220.498 60.542V64H218.47V57.006H220.407V57.825C220.676 57.5303 221.01 57.305 221.408 57.149C221.807 56.9843 222.245 56.902 222.721 56.902ZM234.386 60.529C234.386 60.555 234.373 60.737 234.347 61.075H229.056C229.151 61.5083 229.376 61.8507 229.732 62.102C230.087 62.3533 230.529 62.479 231.058 62.479C231.422 62.479 231.742 62.427 232.02 62.323C232.306 62.2103 232.57 62.037 232.813 61.803L233.892 62.973C233.233 63.727 232.271 64.104 231.006 64.104C230.217 64.104 229.519 63.9523 228.913 63.649C228.306 63.337 227.838 62.908 227.509 62.362C227.179 61.816 227.015 61.1963 227.015 60.503C227.015 59.8183 227.175 59.203 227.496 58.657C227.825 58.1023 228.271 57.6733 228.835 57.37C229.407 57.058 230.044 56.902 230.746 56.902C231.43 56.902 232.05 57.0493 232.605 57.344C233.159 57.6387 233.593 58.0633 233.905 58.618C234.225 59.164 234.386 59.801 234.386 60.529ZM230.759 58.436C230.299 58.436 229.914 58.566 229.602 58.826C229.29 59.086 229.099 59.4413 229.03 59.892H232.475C232.405 59.45 232.215 59.099 231.903 58.839C231.591 58.5703 231.209 58.436 230.759 58.436ZM235.736 54.354H237.764V64H235.736V54.354ZM250.075 54.354V64H248.879V62.908C248.601 63.2893 248.25 63.5797 247.826 63.779C247.401 63.9783 246.933 64.078 246.422 64.078C245.754 64.078 245.156 63.9307 244.628 63.636C244.099 63.3413 243.683 62.9297 243.38 62.401C243.085 61.8637 242.938 61.2483 242.938 60.555C242.938 59.8617 243.085 59.2507 243.38 58.722C243.683 58.1933 244.099 57.7817 244.628 57.487C245.156 57.1923 245.754 57.045 246.422 57.045C246.916 57.045 247.371 57.1403 247.787 57.331C248.203 57.513 248.549 57.786 248.827 58.15V54.354H250.075ZM246.526 62.986C246.959 62.986 247.353 62.8863 247.709 62.687C248.064 62.479 248.341 62.193 248.541 61.829C248.74 61.4563 248.84 61.0317 248.84 60.555C248.84 60.0783 248.74 59.658 248.541 59.294C248.341 58.9213 248.064 58.6353 247.709 58.436C247.353 58.2367 246.959 58.137 246.526 58.137C246.084 58.137 245.685 58.2367 245.33 58.436C244.983 58.6353 244.706 58.9213 244.498 59.294C244.298 59.658 244.199 60.0783 244.199 60.555C244.199 61.0317 244.298 61.4563 244.498 61.829C244.706 62.193 244.983 62.479 245.33 62.687C245.685 62.8863 246.084 62.986 246.526 62.986ZM252.436 57.11H253.684V64H252.436V57.11ZM253.06 55.784C252.817 55.784 252.614 55.706 252.449 55.55C252.293 55.394 252.215 55.2033 252.215 54.978C252.215 54.7527 252.293 54.562 252.449 54.406C252.614 54.2413 252.817 54.159 253.06 54.159C253.303 54.159 253.502 54.237 253.658 54.393C253.823 54.5403 253.905 54.7267 253.905 54.952C253.905 55.186 253.823 55.3853 253.658 55.55C253.502 55.706 253.303 55.784 253.06 55.784ZM257.263 58.267C257.479 57.8683 257.8 57.565 258.225 57.357C258.649 57.149 259.165 57.045 259.772 57.045V58.254C259.702 58.2453 259.607 58.241 259.486 58.241C258.81 58.241 258.277 58.4447 257.887 58.852C257.505 59.2507 257.315 59.8227 257.315 60.568V64H256.067V57.11H257.263V58.267ZM267.473 60.594C267.473 60.6893 267.465 60.815 267.447 60.971H261.857C261.935 61.5777 262.2 62.0673 262.65 62.44C263.11 62.804 263.677 62.986 264.353 62.986C265.177 62.986 265.84 62.7087 266.342 62.154L267.031 62.96C266.719 63.324 266.329 63.6013 265.861 63.792C265.402 63.9827 264.886 64.078 264.314 64.078C263.586 64.078 262.941 63.9307 262.377 63.636C261.814 63.3327 261.376 62.9123 261.064 62.375C260.761 61.8377 260.609 61.231 260.609 60.555C260.609 59.8877 260.757 59.2853 261.051 58.748C261.355 58.2107 261.766 57.7947 262.286 57.5C262.815 57.1967 263.409 57.045 264.067 57.045C264.726 57.045 265.311 57.1967 265.822 57.5C266.342 57.7947 266.745 58.2107 267.031 58.748C267.326 59.2853 267.473 59.9007 267.473 60.594ZM264.067 58.098C263.469 58.098 262.967 58.28 262.559 58.644C262.161 59.008 261.927 59.4847 261.857 60.074H266.277C266.208 59.4933 265.97 59.021 265.562 58.657C265.164 58.2843 264.665 58.098 264.067 58.098ZM272.209 64.078C271.507 64.078 270.879 63.9263 270.324 63.623C269.778 63.3197 269.349 62.9037 269.037 62.375C268.725 61.8377 268.569 61.231 268.569 60.555C268.569 59.879 268.725 59.2767 269.037 58.748C269.349 58.2107 269.778 57.7947 270.324 57.5C270.879 57.1967 271.507 57.045 272.209 57.045C272.833 57.045 273.388 57.1707 273.873 57.422C274.367 57.6733 274.749 58.0373 275.017 58.514L274.068 59.125C273.852 58.7957 273.583 58.5487 273.262 58.384C272.942 58.2193 272.586 58.137 272.196 58.137C271.746 58.137 271.338 58.2367 270.974 58.436C270.619 58.6353 270.337 58.9213 270.129 59.294C269.93 59.658 269.83 60.0783 269.83 60.555C269.83 61.0403 269.93 61.4693 270.129 61.842C270.337 62.206 270.619 62.4877 270.974 62.687C271.338 62.8863 271.746 62.986 272.196 62.986C272.586 62.986 272.942 62.9037 273.262 62.739C273.583 62.5743 273.852 62.3273 274.068 61.998L275.017 62.596C274.749 63.0727 274.367 63.441 273.873 63.701C273.388 63.9523 272.833 64.078 272.209 64.078ZM280.596 63.597C280.414 63.753 280.189 63.8743 279.92 63.961C279.651 64.039 279.374 64.078 279.088 64.078C278.395 64.078 277.857 63.8917 277.476 63.519C277.095 63.1463 276.904 62.6133 276.904 61.92V58.137H275.734V57.11H276.904V55.602H278.152V57.11H280.128V58.137H278.152V61.868C278.152 62.2407 278.243 62.5267 278.425 62.726C278.616 62.9253 278.884 63.025 279.231 63.025C279.612 63.025 279.937 62.9167 280.206 62.7L280.596 63.597ZM291.823 60.594C291.823 60.6893 291.814 60.815 291.797 60.971H286.207C286.285 61.5777 286.549 62.0673 287 62.44C287.459 62.804 288.027 62.986 288.703 62.986C289.526 62.986 290.189 62.7087 290.692 62.154L291.381 62.96C291.069 63.324 290.679 63.6013 290.211 63.792C289.752 63.9827 289.236 64.078 288.664 64.078C287.936 64.078 287.29 63.9307 286.727 63.636C286.164 63.3327 285.726 62.9123 285.414 62.375C285.111 61.8377 284.959 61.231 284.959 60.555C284.959 59.8877 285.106 59.2853 285.401 58.748C285.704 58.2107 286.116 57.7947 286.636 57.5C287.165 57.1967 287.758 57.045 288.417 57.045C289.076 57.045 289.661 57.1967 290.172 57.5C290.692 57.7947 291.095 58.2107 291.381 58.748C291.676 59.2853 291.823 59.9007 291.823 60.594ZM288.417 58.098C287.819 58.098 287.316 58.28 286.909 58.644C286.51 59.008 286.276 59.4847 286.207 60.074H290.627C290.558 59.4933 290.319 59.021 289.912 58.657C289.513 58.2843 289.015 58.098 288.417 58.098ZM302.175 57.045C303.042 57.045 303.726 57.2963 304.229 57.799C304.74 58.3017 304.996 59.047 304.996 60.035V64H303.748V60.178C303.748 59.5107 303.592 59.008 303.28 58.67C302.977 58.332 302.539 58.163 301.967 58.163C301.334 58.163 300.832 58.3623 300.459 58.761C300.086 59.151 299.9 59.7143 299.9 60.451V64H298.652V60.178C298.652 59.5107 298.496 59.008 298.184 58.67C297.881 58.332 297.443 58.163 296.871 58.163C296.238 58.163 295.736 58.3623 295.363 58.761C294.99 59.151 294.804 59.7143 294.804 60.451V64H293.556V57.11H294.752V58.137C295.003 57.7817 295.333 57.513 295.74 57.331C296.147 57.1403 296.611 57.045 297.131 57.045C297.668 57.045 298.145 57.1533 298.561 57.37C298.977 57.5867 299.298 57.903 299.523 58.319C299.783 57.9203 300.143 57.6083 300.602 57.383C301.07 57.1577 301.594 57.045 302.175 57.045ZM309.801 57.045C310.755 57.045 311.483 57.279 311.985 57.747C312.497 58.215 312.752 58.9127 312.752 59.84V64H311.569V63.09C311.361 63.4107 311.062 63.6577 310.672 63.831C310.291 63.9957 309.836 64.078 309.307 64.078C308.536 64.078 307.916 63.8917 307.448 63.519C306.989 63.1463 306.759 62.6567 306.759 62.05C306.759 61.4433 306.98 60.958 307.422 60.594C307.864 60.2213 308.566 60.035 309.528 60.035H311.504V59.788C311.504 59.2507 311.348 58.839 311.036 58.553C310.724 58.267 310.265 58.124 309.658 58.124C309.251 58.124 308.852 58.1933 308.462 58.332C308.072 58.462 307.743 58.6397 307.474 58.865L306.954 57.929C307.31 57.643 307.734 57.4263 308.228 57.279C308.722 57.123 309.247 57.045 309.801 57.045ZM309.515 63.116C309.992 63.116 310.404 63.012 310.75 62.804C311.097 62.5873 311.348 62.284 311.504 61.894V60.932H309.58C308.523 60.932 307.994 61.2873 307.994 61.998C307.994 62.3447 308.129 62.6177 308.397 62.817C308.666 63.0163 309.039 63.116 309.515 63.116ZM315.062 57.11H316.31V64H315.062V57.11ZM315.686 55.784C315.443 55.784 315.24 55.706 315.075 55.55C314.919 55.394 314.841 55.2033 314.841 54.978C314.841 54.7527 314.919 54.562 315.075 54.406C315.24 54.2413 315.443 54.159 315.686 54.159C315.929 54.159 316.128 54.237 316.284 54.393C316.449 54.5403 316.531 54.7267 316.531 54.952C316.531 55.186 316.449 55.3853 316.284 55.55C316.128 55.706 315.929 55.784 315.686 55.784ZM318.693 54.354H319.941V64H318.693V54.354ZM477.244 59.398H478.492V62.947C478.042 63.3197 477.517 63.6057 476.919 63.805C476.321 64.0043 475.697 64.104 475.047 64.104C474.129 64.104 473.301 63.9047 472.564 63.506C471.828 63.0987 471.247 62.544 470.822 61.842C470.406 61.1313 470.198 60.334 470.198 59.45C470.198 58.566 470.406 57.7687 470.822 57.058C471.247 56.3473 471.828 55.7927 472.564 55.394C473.31 54.9953 474.146 54.796 475.073 54.796C475.801 54.796 476.46 54.9173 477.049 55.16C477.647 55.394 478.154 55.7407 478.57 56.2L477.764 57.006C477.036 56.304 476.157 55.953 475.125 55.953C474.432 55.953 473.808 56.1047 473.253 56.408C472.707 56.7027 472.278 57.1187 471.966 57.656C471.654 58.1847 471.498 58.7827 471.498 59.45C471.498 60.1087 471.654 60.7067 471.966 61.244C472.278 61.7727 472.707 62.1887 473.253 62.492C473.808 62.7953 474.428 62.947 475.112 62.947C475.927 62.947 476.638 62.752 477.244 62.362V59.398ZM487.221 57.11V64H486.038V62.96C485.787 63.3153 485.453 63.5927 485.037 63.792C484.63 63.9827 484.184 64.078 483.698 64.078C482.78 64.078 482.056 63.8267 481.527 63.324C480.999 62.8127 480.734 62.063 480.734 61.075V57.11H481.982V60.932C481.982 61.5993 482.143 62.1063 482.463 62.453C482.784 62.791 483.243 62.96 483.841 62.96C484.5 62.96 485.02 62.7607 485.401 62.362C485.783 61.9633 485.973 61.4 485.973 60.672V57.11H487.221ZM495.824 60.594C495.824 60.6893 495.815 60.815 495.798 60.971H490.208C490.286 61.5777 490.55 62.0673 491.001 62.44C491.46 62.804 492.028 62.986 492.704 62.986C493.527 62.986 494.19 62.7087 494.693 62.154L495.382 62.96C495.07 63.324 494.68 63.6013 494.212 63.792C493.753 63.9827 493.237 64.078 492.665 64.078C491.937 64.078 491.291 63.9307 490.728 63.636C490.165 63.3327 489.727 62.9123 489.415 62.375C489.112 61.8377 488.96 61.231 488.96 60.555C488.96 59.8877 489.107 59.2853 489.402 58.748C489.705 58.2107 490.117 57.7947 490.637 57.5C491.166 57.1967 491.759 57.045 492.418 57.045C493.077 57.045 493.662 57.1967 494.173 57.5C494.693 57.7947 495.096 58.2107 495.382 58.748C495.677 59.2853 495.824 59.9007 495.824 60.594ZM492.418 58.098C491.82 58.098 491.317 58.28 490.91 58.644C490.511 59.008 490.277 59.4847 490.208 60.074H494.628C494.559 59.4933 494.32 59.021 493.913 58.657C493.514 58.2843 493.016 58.098 492.418 58.098ZM499.533 64.078C498.97 64.078 498.428 64.0043 497.908 63.857C497.388 63.701 496.981 63.506 496.686 63.272L497.206 62.284C497.509 62.5007 497.878 62.674 498.311 62.804C498.744 62.934 499.182 62.999 499.624 62.999C500.716 62.999 501.262 62.687 501.262 62.063C501.262 61.855 501.188 61.6903 501.041 61.569C500.894 61.4477 500.707 61.361 500.482 61.309C500.265 61.2483 499.953 61.1833 499.546 61.114C498.991 61.0273 498.536 60.9277 498.181 60.815C497.834 60.7023 497.535 60.5117 497.284 60.243C497.033 59.9743 496.907 59.5973 496.907 59.112C496.907 58.488 497.167 57.9897 497.687 57.617C498.207 57.2357 498.905 57.045 499.78 57.045C500.239 57.045 500.699 57.1013 501.158 57.214C501.617 57.3267 501.994 57.4783 502.289 57.669L501.756 58.657C501.193 58.293 500.53 58.111 499.767 58.111C499.238 58.111 498.835 58.1977 498.558 58.371C498.281 58.5443 498.142 58.774 498.142 59.06C498.142 59.2853 498.22 59.463 498.376 59.593C498.532 59.723 498.723 59.8183 498.948 59.879C499.182 59.9397 499.507 60.009 499.923 60.087C500.478 60.1823 500.924 60.2863 501.262 60.399C501.609 60.503 501.903 60.685 502.146 60.945C502.389 61.205 502.51 61.569 502.51 62.037C502.51 62.661 502.241 63.1593 501.704 63.532C501.175 63.896 500.452 64.078 499.533 64.078ZM507.944 63.597C507.762 63.753 507.536 63.8743 507.268 63.961C506.999 64.039 506.722 64.078 506.436 64.078C505.742 64.078 505.205 63.8917 504.824 63.519C504.442 63.1463 504.252 62.6133 504.252 61.92V58.137H503.082V57.11H504.252V55.602H505.5V57.11H507.476V58.137H505.5V61.868C505.5 62.2407 505.591 62.5267 505.773 62.726C505.963 62.9253 506.232 63.025 506.579 63.025C506.96 63.025 507.285 62.9167 507.554 62.7L507.944 63.597Z" fill="url(#paint0_angular_338_302)"></path><path d="M350.888 29.11H352.136V36H350.888V29.11ZM351.512 27.784C351.269 27.784 351.066 27.706 350.901 27.55C350.745 27.394 350.667 27.2033 350.667 26.978C350.667 26.7527 350.745 26.562 350.901 26.406C351.066 26.2413 351.269 26.159 351.512 26.159C351.755 26.159 351.954 26.237 352.11 26.393C352.275 26.5403 352.357 26.7267 352.357 26.952C352.357 27.186 352.275 27.3853 352.11 27.55C351.954 27.706 351.755 27.784 351.512 27.784ZM356.495 36.078C355.932 36.078 355.39 36.0043 354.87 35.857C354.35 35.701 353.943 35.506 353.648 35.272L354.168 34.284C354.471 34.5007 354.84 34.674 355.273 34.804C355.706 34.934 356.144 34.999 356.586 34.999C357.678 34.999 358.224 34.687 358.224 34.063C358.224 33.855 358.15 33.6903 358.003 33.569C357.856 33.4477 357.669 33.361 357.444 33.309C357.227 33.2483 356.915 33.1833 356.508 33.114C355.953 33.0273 355.498 32.9277 355.143 32.815C354.796 32.7023 354.497 32.5117 354.246 32.243C353.995 31.9743 353.869 31.5973 353.869 31.112C353.869 30.488 354.129 29.9897 354.649 29.617C355.169 29.2357 355.867 29.045 356.742 29.045C357.201 29.045 357.661 29.1013 358.12 29.214C358.579 29.3267 358.956 29.4783 359.251 29.669L358.718 30.657C358.155 30.293 357.492 30.111 356.729 30.111C356.2 30.111 355.797 30.1977 355.52 30.371C355.243 30.5443 355.104 30.774 355.104 31.06C355.104 31.2853 355.182 31.463 355.338 31.593C355.494 31.723 355.685 31.8183 355.91 31.879C356.144 31.9397 356.469 32.009 356.885 32.087C357.44 32.1823 357.886 32.2863 358.224 32.399C358.571 32.503 358.865 32.685 359.108 32.945C359.351 33.205 359.472 33.569 359.472 34.037C359.472 34.661 359.203 35.1593 358.666 35.532C358.137 35.896 357.414 36.078 356.495 36.078ZM368.964 36.156C368.037 36.156 367.196 35.9567 366.442 35.558C365.697 35.1507 365.108 34.5917 364.674 33.881C364.25 33.1617 364.037 32.3513 364.037 31.45C364.037 30.5487 364.25 29.7427 364.674 29.032C365.108 28.3127 365.697 27.7537 366.442 27.355C367.196 26.9477 368.041 26.744 368.977 26.744C369.766 26.744 370.477 26.8827 371.109 27.16C371.751 27.4373 372.288 27.836 372.721 28.356L371.369 29.604C370.754 28.8933 369.991 28.538 369.081 28.538C368.518 28.538 368.015 28.6637 367.573 28.915C367.131 29.1577 366.785 29.5 366.533 29.942C366.291 30.384 366.169 30.8867 366.169 31.45C366.169 32.0133 366.291 32.516 366.533 32.958C366.785 33.4 367.131 33.7467 367.573 33.998C368.015 34.2407 368.518 34.362 369.081 34.362C369.991 34.362 370.754 34.0023 371.369 33.283L372.721 34.531C372.288 35.0597 371.751 35.4627 371.109 35.74C370.468 36.0173 369.753 36.156 368.964 36.156ZM376.771 28.902C377.854 28.902 378.686 29.162 379.267 29.682C379.847 30.1933 380.138 30.969 380.138 32.009V36H378.24V35.129C377.858 35.779 377.148 36.104 376.108 36.104C375.57 36.104 375.102 36.013 374.704 35.831C374.314 35.649 374.015 35.3977 373.807 35.077C373.599 34.7563 373.495 34.3923 373.495 33.985C373.495 33.335 373.737 32.8237 374.223 32.451C374.717 32.0783 375.475 31.892 376.498 31.892H378.11C378.11 31.45 377.975 31.112 377.707 30.878C377.438 30.6353 377.035 30.514 376.498 30.514C376.125 30.514 375.757 30.5747 375.393 30.696C375.037 30.8087 374.734 30.9647 374.483 31.164L373.755 29.747C374.136 29.4783 374.591 29.2703 375.12 29.123C375.657 28.9757 376.207 28.902 376.771 28.902ZM376.615 34.739C376.961 34.739 377.269 34.661 377.538 34.505C377.806 34.3403 377.997 34.102 378.11 33.79V33.075H376.719C375.887 33.075 375.471 33.348 375.471 33.894C375.471 34.154 375.57 34.362 375.77 34.518C375.978 34.6653 376.259 34.739 376.615 34.739ZM390.93 28.902C391.805 28.902 392.499 29.162 393.01 29.682C393.53 30.1933 393.79 30.9647 393.79 31.996V36H391.762V32.308C391.762 31.7533 391.645 31.3417 391.411 31.073C391.186 30.7957 390.861 30.657 390.436 30.657C389.959 30.657 389.582 30.813 389.305 31.125C389.028 31.4283 388.889 31.8833 388.889 32.49V36H386.861V32.308C386.861 31.2073 386.419 30.657 385.535 30.657C385.067 30.657 384.694 30.813 384.417 31.125C384.14 31.4283 384.001 31.8833 384.001 32.49V36H381.973V29.006H383.91V29.812C384.17 29.5173 384.486 29.292 384.859 29.136C385.24 28.98 385.656 28.902 386.107 28.902C386.601 28.902 387.047 29.0017 387.446 29.201C387.845 29.3917 388.165 29.6733 388.408 30.046C388.694 29.682 389.054 29.4003 389.487 29.201C389.929 29.0017 390.41 28.902 390.93 28.902ZM399.742 28.902C400.392 28.902 400.981 29.0537 401.51 29.357C402.047 29.6517 402.468 30.072 402.771 30.618C403.074 31.1553 403.226 31.7837 403.226 32.503C403.226 33.2223 403.074 33.855 402.771 34.401C402.468 34.9383 402.047 35.3587 401.51 35.662C400.981 35.9567 400.392 36.104 399.742 36.104C398.849 36.104 398.147 35.8223 397.636 35.259V38.522H395.608V29.006H397.545V29.812C398.048 29.2053 398.78 28.902 399.742 28.902ZM399.391 34.44C399.911 34.44 400.336 34.2667 400.665 33.92C401.003 33.5647 401.172 33.0923 401.172 32.503C401.172 31.9137 401.003 31.4457 400.665 31.099C400.336 30.7437 399.911 30.566 399.391 30.566C398.871 30.566 398.442 30.7437 398.104 31.099C397.775 31.4457 397.61 31.9137 397.61 32.503C397.61 33.0923 397.775 33.5647 398.104 33.92C398.442 34.2667 398.871 34.44 399.391 34.44ZM407.29 28.902C408.374 28.902 409.206 29.162 409.786 29.682C410.367 30.1933 410.657 30.969 410.657 32.009V36H408.759V35.129C408.378 35.779 407.667 36.104 406.627 36.104C406.09 36.104 405.622 36.013 405.223 35.831C404.833 35.649 404.534 35.3977 404.326 35.077C404.118 34.7563 404.014 34.3923 404.014 33.985C404.014 33.335 404.257 32.8237 404.742 32.451C405.236 32.0783 405.995 31.892 407.017 31.892H408.629C408.629 31.45 408.495 31.112 408.226 30.878C407.958 30.6353 407.555 30.514 407.017 30.514C406.645 30.514 406.276 30.5747 405.912 30.696C405.557 30.8087 405.254 30.9647 405.002 31.164L404.274 29.747C404.656 29.4783 405.111 29.2703 405.639 29.123C406.177 28.9757 406.727 28.902 407.29 28.902ZM407.134 34.739C407.481 34.739 407.789 34.661 408.057 34.505C408.326 34.3403 408.517 34.102 408.629 33.79V33.075H407.238C406.406 33.075 405.99 33.348 405.99 33.894C405.99 34.154 406.09 34.362 406.289 34.518C406.497 34.6653 406.779 34.739 407.134 34.739ZM412.493 29.006H414.521V36H412.493V29.006ZM413.507 28.031C413.134 28.031 412.831 27.9227 412.597 27.706C412.363 27.4893 412.246 27.2207 412.246 26.9C412.246 26.5793 412.363 26.3107 412.597 26.094C412.831 25.8773 413.134 25.769 413.507 25.769C413.879 25.769 414.183 25.873 414.417 26.081C414.651 26.289 414.768 26.549 414.768 26.861C414.768 27.199 414.651 27.4807 414.417 27.706C414.183 27.9227 413.879 28.031 413.507 28.031ZM423.618 29.006V34.83C423.618 36.1127 423.284 37.066 422.617 37.69C421.949 38.314 420.974 38.626 419.692 38.626C419.016 38.626 418.374 38.5437 417.768 38.379C417.161 38.2143 416.658 37.976 416.26 37.664L417.066 36.208C417.36 36.4507 417.733 36.6413 418.184 36.78C418.634 36.9273 419.085 37.001 419.536 37.001C420.238 37.001 420.753 36.8407 421.083 36.52C421.421 36.208 421.59 35.7313 421.59 35.09V34.791C421.061 35.3717 420.324 35.662 419.38 35.662C418.738 35.662 418.149 35.5233 417.612 35.246C417.083 34.96 416.663 34.5613 416.351 34.05C416.039 33.5387 415.883 32.9493 415.883 32.282C415.883 31.6147 416.039 31.0253 416.351 30.514C416.663 30.0027 417.083 29.6083 417.612 29.331C418.149 29.045 418.738 28.902 419.38 28.902C420.394 28.902 421.165 29.2357 421.694 29.903V29.006H423.618ZM419.783 33.998C420.32 33.998 420.758 33.842 421.096 33.53C421.442 33.2093 421.616 32.7933 421.616 32.282C421.616 31.7707 421.442 31.359 421.096 31.047C420.758 30.7263 420.32 30.566 419.783 30.566C419.245 30.566 418.803 30.7263 418.457 31.047C418.11 31.359 417.937 31.7707 417.937 32.282C417.937 32.7933 418.11 33.2093 418.457 33.53C418.803 33.842 419.245 33.998 419.783 33.998ZM429.756 28.902C430.623 28.902 431.321 29.162 431.849 29.682C432.387 30.202 432.655 30.9733 432.655 31.996V36H430.627V32.308C430.627 31.7533 430.506 31.3417 430.263 31.073C430.021 30.7957 429.67 30.657 429.21 30.657C428.699 30.657 428.292 30.8173 427.988 31.138C427.685 31.45 427.533 31.918 427.533 32.542V36H425.505V29.006H427.442V29.825C427.711 29.5303 428.045 29.305 428.443 29.149C428.842 28.9843 429.28 28.902 429.756 28.902ZM434.949 34.648C434.559 34.648 434.26 34.947 434.26 35.35C434.26 35.688 434.455 35.935 434.728 36.013L434.286 37.898H434.91L435.456 36.104C435.586 35.74 435.638 35.571 435.638 35.35C435.638 34.96 435.352 34.648 434.949 34.648ZM443.407 29.045C444.36 29.045 445.088 29.279 445.591 29.747C446.102 30.215 446.358 30.9127 446.358 31.84V36H445.175V35.09C444.967 35.4107 444.668 35.6577 444.278 35.831C443.897 35.9957 443.442 36.078 442.913 36.078C442.142 36.078 441.522 35.8917 441.054 35.519C440.595 35.1463 440.365 34.6567 440.365 34.05C440.365 33.4433 440.586 32.958 441.028 32.594C441.47 32.2213 442.172 32.035 443.134 32.035H445.11V31.788C445.11 31.2507 444.954 30.839 444.642 30.553C444.33 30.267 443.871 30.124 443.264 30.124C442.857 30.124 442.458 30.1933 442.068 30.332C441.678 30.462 441.349 30.6397 441.08 30.865L440.56 29.929C440.915 29.643 441.34 29.4263 441.834 29.279C442.328 29.123 442.852 29.045 443.407 29.045ZM443.121 35.116C443.598 35.116 444.009 35.012 444.356 34.804C444.703 34.5873 444.954 34.284 445.11 33.894V32.932H443.186C442.129 32.932 441.6 33.2873 441.6 33.998C441.6 34.3447 441.734 34.6177 442.003 34.817C442.272 35.0163 442.644 35.116 443.121 35.116ZM452.346 29.045C453.222 29.045 453.915 29.3007 454.426 29.812C454.946 30.3147 455.206 31.0557 455.206 32.035V36H453.958V32.178C453.958 31.5107 453.798 31.008 453.477 30.67C453.157 30.332 452.697 30.163 452.099 30.163C451.423 30.163 450.89 30.3623 450.5 30.761C450.11 31.151 449.915 31.7143 449.915 32.451V36H448.667V29.11H449.863V30.15C450.115 29.7947 450.453 29.5217 450.877 29.331C451.311 29.1403 451.8 29.045 452.346 29.045ZM464.054 26.354V36H462.858V34.908C462.581 35.2893 462.23 35.5797 461.805 35.779C461.38 35.9783 460.912 36.078 460.401 36.078C459.734 36.078 459.136 35.9307 458.607 35.636C458.078 35.3413 457.662 34.9297 457.359 34.401C457.064 33.8637 456.917 33.2483 456.917 32.555C456.917 31.8617 457.064 31.2507 457.359 30.722C457.662 30.1933 458.078 29.7817 458.607 29.487C459.136 29.1923 459.734 29.045 460.401 29.045C460.895 29.045 461.35 29.1403 461.766 29.331C462.182 29.513 462.529 29.786 462.806 30.15V26.354H464.054ZM460.505 34.986C460.938 34.986 461.333 34.8863 461.688 34.687C462.043 34.479 462.321 34.193 462.52 33.829C462.719 33.4563 462.819 33.0317 462.819 32.555C462.819 32.0783 462.719 31.658 462.52 31.294C462.321 30.9213 462.043 30.6353 461.688 30.436C461.333 30.2367 460.938 30.137 460.505 30.137C460.063 30.137 459.664 30.2367 459.309 30.436C458.962 30.6353 458.685 30.9213 458.477 31.294C458.278 31.658 458.178 32.0783 458.178 32.555C458.178 33.0317 458.278 33.4563 458.477 33.829C458.685 34.193 458.962 34.479 459.309 34.687C459.664 34.8863 460.063 34.986 460.505 34.986ZM326.127 62.297C326.37 62.297 326.569 62.3837 326.725 62.557C326.89 62.7217 326.972 62.9297 326.972 63.181C326.972 63.311 326.955 63.4367 326.92 63.558C326.894 63.6793 326.838 63.8657 326.751 64.117L326.14 65.924H325.321L325.802 63.987C325.637 63.9263 325.503 63.8267 325.399 63.688C325.304 63.5407 325.256 63.3717 325.256 63.181C325.256 62.921 325.338 62.7087 325.503 62.544C325.668 62.3793 325.876 62.297 326.127 62.297ZM334.76 57.045C335.714 57.045 336.442 57.279 336.944 57.747C337.456 58.215 337.711 58.9127 337.711 59.84V64H336.528V63.09C336.32 63.4107 336.021 63.6577 335.631 63.831C335.25 63.9957 334.795 64.078 334.266 64.078C333.495 64.078 332.875 63.8917 332.407 63.519C331.948 63.1463 331.718 62.6567 331.718 62.05C331.718 61.4433 331.939 60.958 332.381 60.594C332.823 60.2213 333.525 60.035 334.487 60.035H336.463V59.788C336.463 59.2507 336.307 58.839 335.995 58.553C335.683 58.267 335.224 58.124 334.617 58.124C334.21 58.124 333.811 58.1933 333.421 58.332C333.031 58.462 332.702 58.6397 332.433 58.865L331.913 57.929C332.269 57.643 332.693 57.4263 333.187 57.279C333.681 57.123 334.206 57.045 334.76 57.045ZM334.474 63.116C334.951 63.116 335.363 63.012 335.709 62.804C336.056 62.5873 336.307 62.284 336.463 61.894V60.932H334.539C333.482 60.932 332.953 61.2873 332.953 61.998C332.953 62.3447 333.088 62.6177 333.356 62.817C333.625 63.0163 333.998 63.116 334.474 63.116ZM343.7 57.045C344.575 57.045 345.269 57.3007 345.78 57.812C346.3 58.3147 346.56 59.0557 346.56 60.035V64H345.312V60.178C345.312 59.5107 345.152 59.008 344.831 58.67C344.51 58.332 344.051 58.163 343.453 58.163C342.777 58.163 342.244 58.3623 341.854 58.761C341.464 59.151 341.269 59.7143 341.269 60.451V64H340.021V57.11H341.217V58.15C341.468 57.7947 341.806 57.5217 342.231 57.331C342.664 57.1403 343.154 57.045 343.7 57.045ZM355.408 54.354V64H354.212V62.908C353.934 63.2893 353.583 63.5797 353.159 63.779C352.734 63.9783 352.266 64.078 351.755 64.078C351.087 64.078 350.489 63.9307 349.961 63.636C349.432 63.3413 349.016 62.9297 348.713 62.401C348.418 61.8637 348.271 61.2483 348.271 60.555C348.271 59.8617 348.418 59.2507 348.713 58.722C349.016 58.1933 349.432 57.7817 349.961 57.487C350.489 57.1923 351.087 57.045 351.755 57.045C352.249 57.045 352.704 57.1403 353.12 57.331C353.536 57.513 353.882 57.786 354.16 58.15V54.354H355.408ZM351.859 62.986C352.292 62.986 352.686 62.8863 353.042 62.687C353.397 62.479 353.674 62.193 353.874 61.829C354.073 61.4563 354.173 61.0317 354.173 60.555C354.173 60.0783 354.073 59.658 353.874 59.294C353.674 58.9213 353.397 58.6353 353.042 58.436C352.686 58.2367 352.292 58.137 351.859 58.137C351.417 58.137 351.018 58.2367 350.663 58.436C350.316 58.6353 350.039 58.9213 349.831 59.294C349.631 59.658 349.532 60.0783 349.532 60.555C349.532 61.0317 349.631 61.4563 349.831 61.829C350.039 62.193 350.316 62.479 350.663 62.687C351.018 62.8863 351.417 62.986 351.859 62.986ZM364.263 64.078C363.561 64.078 362.933 63.9263 362.378 63.623C361.832 63.3197 361.403 62.9037 361.091 62.375C360.779 61.8377 360.623 61.231 360.623 60.555C360.623 59.879 360.779 59.2767 361.091 58.748C361.403 58.2107 361.832 57.7947 362.378 57.5C362.933 57.1967 363.561 57.045 364.263 57.045C364.887 57.045 365.442 57.1707 365.927 57.422C366.421 57.6733 366.802 58.0373 367.071 58.514L366.122 59.125C365.905 58.7957 365.637 58.5487 365.316 58.384C364.995 58.2193 364.64 58.137 364.25 58.137C363.799 58.137 363.392 58.2367 363.028 58.436C362.673 58.6353 362.391 58.9213 362.183 59.294C361.984 59.658 361.884 60.0783 361.884 60.555C361.884 61.0403 361.984 61.4693 362.183 61.842C362.391 62.206 362.673 62.4877 363.028 62.687C363.392 62.8863 363.799 62.986 364.25 62.986C364.64 62.986 364.995 62.9037 365.316 62.739C365.637 62.5743 365.905 62.3273 366.122 61.998L367.071 62.596C366.802 63.0727 366.421 63.441 365.927 63.701C365.442 63.9523 364.887 64.078 364.263 64.078ZM375.109 57.11V64H373.926V62.96C373.675 63.3153 373.341 63.5927 372.925 63.792C372.518 63.9827 372.071 64.078 371.586 64.078C370.667 64.078 369.944 63.8267 369.415 63.324C368.886 62.8127 368.622 62.063 368.622 61.075V57.11H369.87V60.932C369.87 61.5993 370.03 62.1063 370.351 62.453C370.672 62.791 371.131 62.96 371.729 62.96C372.388 62.96 372.908 62.7607 373.289 62.362C373.67 61.9633 373.861 61.4 373.861 60.672V57.11H375.109ZM379.461 64.078C378.897 64.078 378.356 64.0043 377.836 63.857C377.316 63.701 376.908 63.506 376.614 63.272L377.134 62.284C377.437 62.5007 377.805 62.674 378.239 62.804C378.672 62.934 379.11 62.999 379.552 62.999C380.644 62.999 381.19 62.687 381.19 62.063C381.19 61.855 381.116 61.6903 380.969 61.569C380.821 61.4477 380.635 61.361 380.41 61.309C380.193 61.2483 379.881 61.1833 379.474 61.114C378.919 61.0273 378.464 60.9277 378.109 60.815C377.762 60.7023 377.463 60.5117 377.212 60.243C376.96 59.9743 376.835 59.5973 376.835 59.112C376.835 58.488 377.095 57.9897 377.615 57.617C378.135 57.2357 378.832 57.045 379.708 57.045C380.167 57.045 380.626 57.1013 381.086 57.214C381.545 57.3267 381.922 57.4783 382.217 57.669L381.684 58.657C381.12 58.293 380.457 58.111 379.695 58.111C379.166 58.111 378.763 58.1977 378.486 58.371C378.208 58.5443 378.07 58.774 378.07 59.06C378.07 59.2853 378.148 59.463 378.304 59.593C378.46 59.723 378.65 59.8183 378.876 59.879C379.11 59.9397 379.435 60.009 379.851 60.087C380.405 60.1823 380.852 60.2863 381.19 60.399C381.536 60.503 381.831 60.685 382.074 60.945C382.316 61.205 382.438 61.569 382.438 62.037C382.438 62.661 382.169 63.1593 381.632 63.532C381.103 63.896 380.379 64.078 379.461 64.078ZM387.871 63.597C387.689 63.753 387.464 63.8743 387.195 63.961C386.927 64.039 386.649 64.078 386.363 64.078C385.67 64.078 385.133 63.8917 384.751 63.519C384.37 63.1463 384.179 62.6133 384.179 61.92V58.137H383.009V57.11H384.179V55.602H385.427V57.11H387.403V58.137H385.427V61.868C385.427 62.2407 385.518 62.5267 385.7 62.726C385.891 62.9253 386.16 63.025 386.506 63.025C386.888 63.025 387.213 62.9167 387.481 62.7L387.871 63.597ZM392.103 64.078C391.418 64.078 390.803 63.9263 390.257 63.623C389.711 63.3197 389.282 62.9037 388.97 62.375C388.666 61.8377 388.515 61.231 388.515 60.555C388.515 59.879 388.666 59.2767 388.97 58.748C389.282 58.2107 389.711 57.7947 390.257 57.5C390.803 57.1967 391.418 57.045 392.103 57.045C392.787 57.045 393.398 57.1967 393.936 57.5C394.482 57.7947 394.906 58.2107 395.21 58.748C395.522 59.2767 395.678 59.879 395.678 60.555C395.678 61.231 395.522 61.8377 395.21 62.375C394.906 62.9037 394.482 63.3197 393.936 63.623C393.398 63.9263 392.787 64.078 392.103 64.078ZM392.103 62.986C392.545 62.986 392.939 62.8863 393.286 62.687C393.641 62.479 393.918 62.193 394.118 61.829C394.317 61.4563 394.417 61.0317 394.417 60.555C394.417 60.0783 394.317 59.658 394.118 59.294C393.918 58.9213 393.641 58.6353 393.286 58.436C392.939 58.2367 392.545 58.137 392.103 58.137C391.661 58.137 391.262 58.2367 390.907 58.436C390.56 58.6353 390.283 58.9213 390.075 59.294C389.875 59.658 389.776 60.0783 389.776 60.555C389.776 61.0317 389.875 61.4563 390.075 61.829C390.283 62.193 390.56 62.479 390.907 62.687C391.262 62.8863 391.661 62.986 392.103 62.986ZM406.023 57.045C406.889 57.045 407.574 57.2963 408.077 57.799C408.588 58.3017 408.844 59.047 408.844 60.035V64H407.596V60.178C407.596 59.5107 407.44 59.008 407.128 58.67C406.824 58.332 406.387 58.163 405.815 58.163C405.182 58.163 404.679 58.3623 404.307 58.761C403.934 59.151 403.748 59.7143 403.748 60.451V64H402.5V60.178C402.5 59.5107 402.344 59.008 402.032 58.67C401.728 58.332 401.291 58.163 400.719 58.163C400.086 58.163 399.583 58.3623 399.211 58.761C398.838 59.151 398.652 59.7143 398.652 60.451V64H397.404V57.11H398.6V58.137C398.851 57.7817 399.18 57.513 399.588 57.331C399.995 57.1403 400.459 57.045 400.979 57.045C401.516 57.045 401.993 57.1533 402.409 57.37C402.825 57.5867 403.145 57.903 403.371 58.319C403.631 57.9203 403.99 57.6083 404.45 57.383C404.918 57.1577 405.442 57.045 406.023 57.045ZM417.405 60.594C417.405 60.6893 417.396 60.815 417.379 60.971H411.789C411.867 61.5777 412.131 62.0673 412.582 62.44C413.041 62.804 413.609 62.986 414.285 62.986C415.108 62.986 415.771 62.7087 416.274 62.154L416.963 62.96C416.651 63.324 416.261 63.6013 415.793 63.792C415.334 63.9827 414.818 64.078 414.246 64.078C413.518 64.078 412.872 63.9307 412.309 63.636C411.746 63.3327 411.308 62.9123 410.996 62.375C410.693 61.8377 410.541 61.231 410.541 60.555C410.541 59.8877 410.688 59.2853 410.983 58.748C411.286 58.2107 411.698 57.7947 412.218 57.5C412.747 57.1967 413.34 57.045 413.999 57.045C414.658 57.045 415.243 57.1967 415.754 57.5C416.274 57.7947 416.677 58.2107 416.963 58.748C417.258 59.2853 417.405 59.9007 417.405 60.594ZM413.999 58.098C413.401 58.098 412.898 58.28 412.491 58.644C412.092 59.008 411.858 59.4847 411.789 60.074H416.209C416.14 59.4933 415.901 59.021 415.494 58.657C415.095 58.2843 414.597 58.098 413.999 58.098ZM420.334 58.267C420.551 57.8683 420.871 57.565 421.296 57.357C421.721 57.149 422.236 57.045 422.843 57.045V58.254C422.774 58.2453 422.678 58.241 422.557 58.241C421.881 58.241 421.348 58.4447 420.958 58.852C420.577 59.2507 420.386 59.8227 420.386 60.568V64H419.138V57.11H420.334V58.267ZM426.408 64.078C425.845 64.078 425.303 64.0043 424.783 63.857C424.263 63.701 423.856 63.506 423.561 63.272L424.081 62.284C424.384 62.5007 424.753 62.674 425.186 62.804C425.619 62.934 426.057 62.999 426.499 62.999C427.591 62.999 428.137 62.687 428.137 62.063C428.137 61.855 428.063 61.6903 427.916 61.569C427.769 61.4477 427.582 61.361 427.357 61.309C427.14 61.2483 426.828 61.1833 426.421 61.114C425.866 61.0273 425.411 60.9277 425.056 60.815C424.709 60.7023 424.41 60.5117 424.159 60.243C423.908 59.9743 423.782 59.5973 423.782 59.112C423.782 58.488 424.042 57.9897 424.562 57.617C425.082 57.2357 425.78 57.045 426.655 57.045C427.114 57.045 427.574 57.1013 428.033 57.214C428.492 57.3267 428.869 57.4783 429.164 57.669L428.631 58.657C428.068 58.293 427.405 58.111 426.642 58.111C426.113 58.111 425.71 58.1977 425.433 58.371C425.156 58.5443 425.017 58.774 425.017 59.06C425.017 59.2853 425.095 59.463 425.251 59.593C425.407 59.723 425.598 59.8183 425.823 59.879C426.057 59.9397 426.382 60.009 426.798 60.087C427.353 60.1823 427.799 60.2863 428.137 60.399C428.484 60.503 428.778 60.685 429.021 60.945C429.264 61.205 429.385 61.569 429.385 62.037C429.385 62.661 429.116 63.1593 428.579 63.532C428.05 63.896 427.327 64.078 426.408 64.078ZM438.31 63.597C438.128 63.753 437.903 63.8743 437.634 63.961C437.365 64.039 437.088 64.078 436.802 64.078C436.109 64.078 435.571 63.8917 435.19 63.519C434.809 63.1463 434.618 62.6133 434.618 61.92V58.137H433.448V57.11H434.618V55.602H435.866V57.11H437.842V58.137H435.866V61.868C435.866 62.2407 435.957 62.5267 436.139 62.726C436.33 62.9253 436.598 63.025 436.945 63.025C437.326 63.025 437.651 62.9167 437.92 62.7L438.31 63.597ZM445.789 57.11L442.448 64.689C442.153 65.391 441.806 65.885 441.408 66.171C441.018 66.457 440.545 66.6 439.991 66.6C439.653 66.6 439.323 66.5437 439.003 66.431C438.691 66.327 438.431 66.171 438.223 65.963L438.756 65.027C439.111 65.365 439.523 65.534 439.991 65.534C440.294 65.534 440.545 65.4517 440.745 65.287C440.953 65.131 441.139 64.858 441.304 64.468L441.525 63.987L438.483 57.11H439.783L442.188 62.622L444.567 57.11H445.789ZM450.607 57.045C451.274 57.045 451.872 57.1923 452.401 57.487C452.929 57.7817 453.341 58.1933 453.636 58.722C453.939 59.2507 454.091 59.8617 454.091 60.555C454.091 61.2483 453.939 61.8637 453.636 62.401C453.341 62.9297 452.929 63.3413 452.401 63.636C451.872 63.9307 451.274 64.078 450.607 64.078C450.113 64.078 449.658 63.9827 449.242 63.792C448.834 63.6013 448.488 63.324 448.202 62.96V66.522H446.954V57.11H448.15V58.202C448.427 57.8207 448.778 57.5347 449.203 57.344C449.627 57.1447 450.095 57.045 450.607 57.045ZM450.503 62.986C450.945 62.986 451.339 62.8863 451.686 62.687C452.041 62.479 452.318 62.193 452.518 61.829C452.726 61.4563 452.83 61.0317 452.83 60.555C452.83 60.0783 452.726 59.658 452.518 59.294C452.318 58.9213 452.041 58.6353 451.686 58.436C451.339 58.2367 450.945 58.137 450.503 58.137C450.069 58.137 449.675 58.241 449.32 58.449C448.973 58.6483 448.696 58.93 448.488 59.294C448.288 59.658 448.189 60.0783 448.189 60.555C448.189 61.0317 448.288 61.4563 448.488 61.829C448.687 62.193 448.964 62.479 449.32 62.687C449.675 62.8863 450.069 62.986 450.503 62.986ZM462.042 60.594C462.042 60.6893 462.033 60.815 462.016 60.971H456.426C456.504 61.5777 456.768 62.0673 457.219 62.44C457.678 62.804 458.246 62.986 458.922 62.986C459.745 62.986 460.408 62.7087 460.911 62.154L461.6 62.96C461.288 63.324 460.898 63.6013 460.43 63.792C459.971 63.9827 459.455 64.078 458.883 64.078C458.155 64.078 457.509 63.9307 456.946 63.636C456.383 63.3327 455.945 62.9123 455.633 62.375C455.33 61.8377 455.178 61.231 455.178 60.555C455.178 59.8877 455.325 59.2853 455.62 58.748C455.923 58.2107 456.335 57.7947 456.855 57.5C457.384 57.1967 457.977 57.045 458.636 57.045C459.295 57.045 459.88 57.1967 460.391 57.5C460.911 57.7947 461.314 58.2107 461.6 58.748C461.895 59.2853 462.042 59.9007 462.042 60.594ZM458.636 58.098C458.038 58.098 457.535 58.28 457.128 58.644C456.729 59.008 456.495 59.4847 456.426 60.074H460.846C460.777 59.4933 460.538 59.021 460.131 58.657C459.732 58.2843 459.234 58.098 458.636 58.098Z" fill="#312C33"></path><path d="M13.5018 89C6.04495 89 4.8798e-07 82.9551 1.08993e-06 75.4982L6.09462e-06 13.5018C6.69657e-06 6.04494 6.04495 -1.023e-05 13.5018 -1.0052e-05L165 -6.43594e-06L165 89L13.5018 89Z" fill="#F9AF30"></path><path d="M104.894 69.112C103.905 69.112 103.013 68.8973 102.22 68.468C101.427 68.0293 100.801 67.4273 100.344 66.662C99.896 65.8967 99.672 65.0427 99.672 64.1C99.672 63.1573 99.896 62.3033 100.344 61.538C100.801 60.7727 101.427 60.1753 102.22 59.746C103.013 59.3073 103.905 59.088 104.894 59.088C105.874 59.088 106.761 59.3073 107.554 59.746C108.347 60.1753 108.968 60.7727 109.416 61.538C109.864 62.294 110.088 63.148 110.088 64.1C110.088 65.052 109.864 65.9107 109.416 66.676C108.968 67.432 108.347 68.0293 107.554 68.468C106.761 68.8973 105.874 69.112 104.894 69.112ZM104.894 67.866C105.613 67.866 106.257 67.7027 106.826 67.376C107.405 67.0493 107.857 66.6013 108.184 66.032C108.52 65.4533 108.688 64.8093 108.688 64.1C108.688 63.3907 108.52 62.7513 108.184 62.182C107.857 61.6033 107.405 61.1507 106.826 60.824C106.257 60.4973 105.613 60.334 104.894 60.334C104.175 60.334 103.522 60.4973 102.934 60.824C102.355 61.1507 101.898 61.6033 101.562 62.182C101.235 62.7513 101.072 63.3907 101.072 64.1C101.072 64.8093 101.235 65.4533 101.562 66.032C101.898 66.6013 102.355 67.0493 102.934 67.376C103.522 67.7027 104.175 67.866 104.894 67.866ZM118.598 61.58L115.35 69H113.978L110.73 61.58H112.13L114.678 67.53L117.282 61.58H118.598ZM126.353 65.332C126.353 65.4347 126.344 65.57 126.325 65.738H120.305C120.389 66.3913 120.674 66.9187 121.159 67.32C121.654 67.712 122.265 67.908 122.993 67.908C123.88 67.908 124.594 67.6093 125.135 67.012L125.877 67.88C125.541 68.272 125.121 68.5707 124.617 68.776C124.122 68.9813 123.567 69.084 122.951 69.084C122.167 69.084 121.472 68.9253 120.865 68.608C120.258 68.2813 119.787 67.8287 119.451 67.25C119.124 66.6713 118.961 66.018 118.961 65.29C118.961 64.5713 119.12 63.9227 119.437 63.344C119.764 62.7653 120.207 62.3173 120.767 62C121.336 61.6733 121.976 61.51 122.685 61.51C123.394 61.51 124.024 61.6733 124.575 62C125.135 62.3173 125.569 62.7653 125.877 63.344C126.194 63.9227 126.353 64.5853 126.353 65.332ZM122.685 62.644C122.041 62.644 121.5 62.84 121.061 63.232C120.632 63.624 120.38 64.1373 120.305 64.772H125.065C124.99 64.1467 124.734 63.638 124.295 63.246C123.866 62.8447 123.329 62.644 122.685 62.644ZM129.507 62.826C129.741 62.3967 130.086 62.07 130.543 61.846C131.001 61.622 131.556 61.51 132.209 61.51V62.812C132.135 62.8027 132.032 62.798 131.901 62.798C131.173 62.798 130.599 63.0173 130.179 63.456C129.769 63.8853 129.563 64.5013 129.563 65.304V69H128.219V61.58H129.507V62.826ZM136.554 61.51C137.581 61.51 138.365 61.762 138.906 62.266C139.457 62.77 139.732 63.5213 139.732 64.52V69H138.458V68.02C138.234 68.3653 137.912 68.6313 137.492 68.818C137.081 68.9953 136.591 69.084 136.022 69.084C135.191 69.084 134.524 68.8833 134.02 68.482C133.525 68.0807 133.278 67.5533 133.278 66.9C133.278 66.2467 133.516 65.724 133.992 65.332C134.468 64.9307 135.224 64.73 136.26 64.73H138.388V64.464C138.388 63.8853 138.22 63.442 137.884 63.134C137.548 62.826 137.053 62.672 136.4 62.672C135.961 62.672 135.532 62.7467 135.112 62.896C134.692 63.036 134.337 63.2273 134.048 63.47L133.488 62.462C133.871 62.154 134.328 61.9207 134.86 61.762C135.392 61.594 135.957 61.51 136.554 61.51ZM136.246 68.048C136.759 68.048 137.203 67.936 137.576 67.712C137.949 67.4787 138.22 67.152 138.388 66.732V65.696H136.316C135.177 65.696 134.608 66.0787 134.608 66.844C134.608 67.2173 134.753 67.5113 135.042 67.726C135.331 67.9407 135.733 68.048 136.246 68.048ZM142.219 58.612H143.563V69H142.219V58.612ZM146.129 58.612H147.473V69H146.129V58.612Z" fill="url(#paint1_angular_338_302)"></path><path d="M58.286 66.7469V69H47.7169V67.218L53.4111 61.8106C54.0529 61.1961 54.483 60.6635 54.7015 60.2129C54.9337 59.7486 55.0497 59.2912 55.0497 58.8406C55.0497 58.1714 54.8244 57.6594 54.3738 57.3043C53.9232 56.9493 53.2609 56.7718 52.387 56.7718C50.9259 56.7718 49.8061 57.2702 49.0278 58.267L47.1639 56.8332C47.7237 56.0822 48.4748 55.5019 49.417 55.0922C50.3728 54.6689 51.4379 54.4572 52.6123 54.4572C54.169 54.4572 55.4116 54.8259 56.3401 55.5633C57.2687 56.3007 57.733 57.3043 57.733 58.5743C57.733 59.3526 57.5691 60.0832 57.2414 60.7659C56.9137 61.4487 56.2855 62.227 55.357 63.101L51.5267 66.7469H58.286ZM72.304 65.7432H69.7642V69H67.1834V65.7432H59.318V63.8998L66.3845 54.6621H69.2316L62.5747 63.4901H67.2653V60.6021H69.7642V63.4901H72.304V65.7432ZM76.7123 62.235C75.6651 62.235 74.8203 61.865 74.178 61.125C73.5357 60.385 73.2146 59.4146 73.2146 58.2138C73.2146 57.013 73.5357 56.0426 74.178 55.3025C74.8203 54.5625 75.6651 54.1925 76.7123 54.1925C77.7595 54.1925 78.6042 54.5625 79.2465 55.3025C79.9028 56.0286 80.2309 56.999 80.2309 58.2138C80.2309 59.4285 79.9028 60.4059 79.2465 61.146C78.6042 61.872 77.7595 62.235 76.7123 62.235ZM85.5088 54.3391H87.5613L77.55 69H75.4975L85.5088 54.3391ZM76.7123 60.769C77.2847 60.769 77.7246 60.5456 78.0317 60.0987C78.3529 59.6519 78.5135 59.0236 78.5135 58.2138C78.5135 57.4039 78.3529 56.7756 78.0317 56.3288C77.7246 55.882 77.2847 55.6586 76.7123 55.6586C76.1677 55.6586 75.7279 55.889 75.3928 56.3497C75.0716 56.7966 74.9111 57.4179 74.9111 58.2138C74.9111 59.0097 75.0716 59.638 75.3928 60.0987C75.7279 60.5456 76.1677 60.769 76.7123 60.769ZM86.3256 69.1466C85.2784 69.1466 84.4337 68.7766 83.7914 68.0366C83.1491 67.2965 82.8279 66.3261 82.8279 65.1253C82.8279 63.9245 83.1491 62.9541 83.7914 62.2141C84.4337 61.4741 85.2784 61.1041 86.3256 61.1041C87.3728 61.1041 88.2176 61.4741 88.8599 62.2141C89.5161 62.9541 89.8442 63.9245 89.8442 65.1253C89.8442 66.3261 89.5161 67.2965 88.8599 68.0366C88.2176 68.7766 87.3728 69.1466 86.3256 69.1466ZM86.3256 67.6805C86.8841 67.6805 87.324 67.4571 87.6451 67.0103C87.9662 66.5495 88.1268 65.9212 88.1268 65.1253C88.1268 64.3295 87.9662 63.7081 87.6451 63.2613C87.324 62.8005 86.8841 62.5702 86.3256 62.5702C85.7671 62.5702 85.3273 62.7936 85.0061 63.2404C84.685 63.6872 84.5244 64.3155 84.5244 65.1253C84.5244 65.9352 84.685 66.5635 85.0061 67.0103C85.3273 67.4571 85.7671 67.6805 86.3256 67.6805Z" fill="url(#paint2_angular_338_302)"></path><circle cx="30.2414" cy="61.6047" r="10.2414" fill="white"></circle><path d="M30.2416 66.036L26.0628 59.389H34.4204L30.2416 66.036Z" fill="#F9AF30"></path><path d="M32.15 30.22C31.5025 32.04 30.89 33.4925 29.07 33.4925C26.2 33.4925 25.8325 29.9575 25.8325 28.1025C25.8325 27.105 25.9025 23.0625 28.895 23.0625C31.03 23.0625 31.4675 24.69 31.975 26.0375H32.605V23.045C31.5725 22.415 29.7525 22.275 29.0175 22.275C26.6375 22.275 25.0625 22.9575 24.0825 24.0425C23.0675 25.18 22.6825 26.72 22.6825 28.4175C22.6825 31.865 24.275 34.28 28.72 34.28C29.84 34.28 31.5725 34.1225 32.5875 33.4925L32.7975 30.22H32.15ZM41.4469 28.12C41.4469 27.0875 41.1319 25.7225 38.1569 25.7225C35.6544 25.7225 34.3419 26.72 34.3419 27.7875C34.3419 28.5575 35.4619 28.855 35.8994 28.855C36.2494 28.855 36.4594 28.575 36.5994 28.1725C37.0369 26.6675 37.5444 26.51 37.9819 26.51C38.4719 26.51 38.8919 26.8075 38.8919 27.735V28.5575C38.2969 28.9425 36.9494 29.38 35.9169 29.7125C34.5869 30.185 34.1319 30.85 34.1319 31.795C34.1319 33.0375 34.9544 34.21 36.6344 34.21C37.7019 34.21 38.3844 33.65 38.9794 33.265C39.1719 33.825 39.5394 34.21 40.3444 34.21C41.3419 34.21 42.1644 33.9475 42.6719 33.72L42.6369 33.125C42.4269 33.125 42.0594 33.1075 41.8844 33.02C41.6044 32.8975 41.4469 32.6175 41.4469 31.8125V28.12ZM38.8919 31.83C38.8919 32.6525 38.3844 32.88 37.9644 32.88C37.3694 32.88 36.7919 32.4075 36.7919 31.5325C36.7919 30.7625 37.0369 30.3425 37.4744 30.08C37.9644 29.7825 38.4894 29.59 38.8919 29.3975V31.83ZM46.7721 28.9075C46.7721 28.1025 46.9296 27.665 47.3146 27.665C47.5771 27.665 47.8221 27.84 48.1371 28.0675C48.3471 28.225 48.5396 28.4175 48.8721 28.4175C49.6771 28.4175 50.0971 27.6125 50.0971 26.93C50.0971 26.1775 49.6071 25.7225 48.9071 25.7225C48.1896 25.7225 47.6646 26.195 46.7196 27.1925L46.5271 25.74L43.2196 26.23V26.8425L43.7796 26.93C44.0246 26.9475 44.1646 27.105 44.1646 27.77V32.5825C44.1646 33.2475 44.0246 33.3175 43.1146 33.37V34H48.1546V33.37C46.9296 33.3 46.7721 33.2475 46.7721 32.5825V28.9075ZM55.7624 26.7725V25.9325H54.0999V23.8675H53.0849L51.5799 25.9325H50.5649V26.7725H51.4924V32.0575C51.4924 33.5275 52.5949 34.21 53.5574 34.21C54.2049 34.21 55.0274 33.93 55.9899 33.3175L55.8149 32.7925C55.6049 32.88 55.2724 32.95 55.1149 32.95C54.5374 32.95 54.0999 32.53 54.0999 31.445V26.7725H55.7624ZM69.7477 30.22C69.1002 32.04 68.4877 33.4925 66.6677 33.4925C63.7977 33.4925 63.4302 29.9575 63.4302 28.1025C63.4302 27.105 63.5002 23.0625 66.4927 23.0625C68.6277 23.0625 69.0652 24.69 69.5727 26.0375H70.2027V23.045C69.1702 22.415 67.3502 22.275 66.6152 22.275C64.2352 22.275 62.6602 22.9575 61.6802 24.0425C60.6652 25.18 60.2802 26.72 60.2802 28.4175C60.2802 31.865 61.8727 34.28 66.3177 34.28C67.4377 34.28 69.1702 34.1225 70.1852 33.4925L70.3952 30.22H69.7477ZM76.0166 25.7225C72.9541 25.7225 71.6941 27.35 71.6941 29.975C71.6941 32.6 72.9541 34.21 75.9991 34.21C79.0266 34.21 80.2866 32.6 80.2866 29.975C80.2866 27.35 79.0266 25.7225 76.0166 25.7225ZM74.4416 29.9925C74.4416 27.77 74.8791 26.51 75.9991 26.51C77.1016 26.51 77.5391 27.77 77.5391 29.975C77.5391 32.1625 77.1016 33.44 75.9991 33.44C74.8791 33.44 74.4416 32.1625 74.4416 29.9925ZM90.1845 28.2425C90.1845 26.72 89.397 25.7225 87.6995 25.7225C86.772 25.7225 86.002 26.2125 84.8995 26.8425L84.6895 25.74L81.3295 26.23V26.8425L81.907 26.93C82.152 26.9475 82.292 27.105 82.292 27.77V32.6175C82.292 33.265 82.1345 33.3175 81.242 33.37V34H85.722V33.37C85.2495 33.3175 84.8995 33.3175 84.8995 32.6525V28.7675C84.8995 28.4175 84.952 28.015 85.0745 27.7875C85.2495 27.385 85.652 27.035 86.3345 27.035C87.122 27.035 87.5595 27.525 87.5595 28.4525V32.7225C87.5595 33.3875 87.2095 33.3175 86.7545 33.37V34H91.2345V33.37C90.3245 33.3175 90.1845 33.2475 90.1845 32.5825V28.2425ZM96.5147 34C97.3022 31.8825 98.1247 29.38 99.0522 27.28C99.3147 26.685 99.5947 26.6325 100.26 26.58V25.9325H96.8122V26.58L97.6347 26.685C97.9322 26.72 97.9847 26.895 97.8972 27.21C97.5122 28.6975 96.9872 30.2375 96.4272 31.9175H96.3572C95.9722 30.7975 95.0972 28.3475 94.7122 27.14C94.6247 26.825 94.6422 26.7025 94.9397 26.65L95.5347 26.58V25.9325H91.0897V26.58C91.7022 26.615 91.9297 26.79 92.1222 27.2975C92.9272 29.415 93.8197 31.76 94.6247 34H96.5147ZM107.42 29.8875C108.05 29.8875 108.33 29.695 108.33 29.17C108.33 27.77 107.822 25.7225 104.62 25.7225C101.61 25.7225 100.525 27.6825 100.525 29.9575C100.525 32.1625 101.47 34.2275 104.585 34.21C106.545 34.21 107.63 33.265 108.207 31.8125L107.595 31.4625C107.105 32.4075 106.387 32.8975 105.425 32.8975C103.85 32.8975 103.272 31.6025 103.272 29.8875H107.42ZM103.255 29.065C103.255 27.805 103.605 26.51 104.585 26.51C105.495 26.51 105.705 27.735 105.705 28.5225C105.705 28.9775 105.565 29.065 105.197 29.065H103.255ZM112.841 28.9075C112.841 28.1025 112.999 27.665 113.384 27.665C113.646 27.665 113.891 27.84 114.206 28.0675C114.416 28.225 114.609 28.4175 114.941 28.4175C115.746 28.4175 116.166 27.6125 116.166 26.93C116.166 26.1775 115.676 25.7225 114.976 25.7225C114.259 25.7225 113.734 26.195 112.789 27.1925L112.596 25.74L109.289 26.23V26.8425L109.849 26.93C110.094 26.9475 110.234 27.105 110.234 27.77V32.5825C110.234 33.2475 110.094 33.3175 109.184 33.37V34H114.224V33.37C112.999 33.3 112.841 33.2475 112.841 32.5825V28.9075ZM122.829 28.5225V26.3175C122.129 25.8975 121.184 25.7225 120.309 25.7225C118.262 25.7225 117.019 26.7375 117.019 28.4C117.019 29.6075 117.632 30.325 119.417 31.025C120.204 31.34 121.079 31.7775 121.079 32.495C121.079 33.09 120.677 33.44 119.977 33.44C118.927 33.44 118.017 32.285 117.579 30.92H116.932L117.142 33.4225C117.772 34 118.997 34.21 119.907 34.21C121.937 34.21 123.389 33.3 123.389 31.4625C123.389 30.0975 122.637 29.4325 121.009 28.82C120.012 28.4525 119.294 28.05 119.294 27.4375C119.294 26.965 119.644 26.51 120.309 26.51C121.079 26.51 121.867 27.245 122.199 28.5225H122.829ZM126.413 22.205C125.468 22.205 124.978 22.8525 124.978 23.6225C124.978 24.3925 125.468 25.0575 126.395 25.0575C127.288 25.0575 127.83 24.3925 127.83 23.6225C127.83 22.8525 127.323 22.205 126.413 22.205ZM125.188 32.5825C125.188 33.2475 125.03 33.3175 124.138 33.37V34H128.845V33.37C127.935 33.3175 127.795 33.2475 127.795 32.5825V25.845L127.69 25.74L124.225 26.23V26.8425L124.803 26.93C125.048 26.9475 125.188 27.105 125.188 27.77V32.5825ZM134.002 25.7225C130.94 25.7225 129.68 27.35 129.68 29.975C129.68 32.6 130.94 34.21 133.985 34.21C137.012 34.21 138.272 32.6 138.272 29.975C138.272 27.35 137.012 25.7225 134.002 25.7225ZM132.427 29.9925C132.427 27.77 132.865 26.51 133.985 26.51C135.087 26.51 135.525 27.77 135.525 29.975C135.525 32.1625 135.087 33.44 133.985 33.44C132.865 33.44 132.427 32.1625 132.427 29.9925ZM148.17 28.2425C148.17 26.72 147.383 25.7225 145.685 25.7225C144.758 25.7225 143.988 26.2125 142.885 26.8425L142.675 25.74L139.315 26.23V26.8425L139.893 26.93C140.138 26.9475 140.278 27.105 140.278 27.77V32.6175C140.278 33.265 140.12 33.3175 139.228 33.37V34H143.708V33.37C143.235 33.3175 142.885 33.3175 142.885 32.6525V28.7675C142.885 28.4175 142.938 28.015 143.06 27.7875C143.235 27.385 143.638 27.035 144.32 27.035C145.108 27.035 145.545 27.525 145.545 28.4525V32.7225C145.545 33.3875 145.195 33.3175 144.74 33.37V34H149.22V33.37C148.31 33.3175 148.17 33.2475 148.17 32.5825V28.2425Z" fill="url(#paint3_angular_338_302)"></path><defs><radialGradient id="paint0_angular_338_302" cx="0" cy="0" r="1" gradientUnits="userSpaceOnUse" gradientTransform="translate(346.5 39.5) rotate(90) scale(22.5 164.5)"><stop stop-color="#312D33"></stop><stop offset="1" stop-color="#170028"></stop></radialGradient><radialGradient id="paint1_angular_338_302" cx="0" cy="0" r="1" gradientUnits="userSpaceOnUse" gradientTransform="translate(128.5 62.5) rotate(90) scale(8.5 29.5)"><stop stop-color="#312D33"></stop><stop offset="1" stop-color="#170028"></stop></radialGradient><radialGradient id="paint2_angular_338_302" cx="0" cy="0" r="1" gradientUnits="userSpaceOnUse" gradientTransform="translate(69.5 61.5) rotate(90) scale(11.5 22.5)"><stop stop-color="#312D33"></stop><stop offset="1" stop-color="#170028"></stop></radialGradient><radialGradient id="paint3_angular_338_302" cx="0" cy="0" r="1" gradientUnits="userSpaceOnUse" gradientTransform="translate(86.5 30.5) rotate(90) scale(19.5 64.5)"><stop stop-color="#312D33"></stop><stop offset="1" stop-color="#170028"></stop></radialGradient></defs></svg>