<svg xmlns="http://www.w3.org/2000/svg" width="1167" height="392" viewBox="0 0 1167 392" fill="none"><g opacity="0.1"><path d="M880.502 0L285.666 0.849957L0 392L1166.31 390.419L880.502 0ZM1137.71 354.245H1088.02L1068.12 324.394H1115.87L1137.71 354.245ZM598.509 67.0616L598.911 79.4369H567.21L567.613 67.0786L598.509 67.0616ZM567.66 66.3136L568.032 54.6012L598.121 54.6012L598.493 66.3136H567.66ZM599.407 94.2262L599.857 108.08H566.296L566.746 94.2262H599.407ZM566.777 93.3762L567.195 80.3039H598.958L599.376 93.3762H566.777ZM823.592 218.32L815.768 198.006H855.231L864.373 218.405L823.592 218.32ZM865.008 219.646L874.832 241.473L832.517 241.473L824.119 219.646H865.008ZM815.272 196.714L807.974 177.76H846.121L854.643 196.714H815.272ZM807.525 176.553L800.692 158.84H837.599L845.579 176.553H807.525ZM368.374 158.296L374.695 141.671H410.44L405.203 158.296L368.374 158.296ZM404.832 159.384L399.254 177.131L361.184 177.131L367.94 159.384L404.832 159.384ZM528.289 108.165H494.729L497.099 94.3112H529.776L528.289 108.165ZM530.412 109.1L564.065 109.1L563.523 123.788L528.909 123.788L530.412 109.1ZM495.101 93.4782H462.563L465.662 80.4059H497.425L495.101 93.4782ZM494.946 94.3622L492.513 108.216H458.937L462.284 94.3622H494.946ZM492.343 109.168L489.755 123.856H455.172L458.72 109.151L492.343 109.168ZM494.558 109.168H528.196L526.647 123.856H492.048L494.558 109.168ZM528.8 124.808L563.476 124.808L562.903 140.413H527.266L528.8 124.808ZM564.019 178.117H602.165L602.785 197.071H563.399L564.019 178.117ZM671.083 93.2572L668.775 80.1849L700.538 80.1849L703.637 93.2572L671.083 93.2572ZM703.9 94.0902L707.247 107.945L673.671 107.945L671.238 94.1072L703.9 94.0902ZM671.471 107.978H637.879L636.33 94.1412H669.023L671.471 107.978ZM637.26 123.652H602.661L602.119 108.981H635.757L637.26 123.652ZM602.708 124.689L637.383 124.604L638.933 140.209L603.296 140.209L602.708 124.689ZM637.972 108.964H671.626L674.151 123.652H639.537L637.972 108.964ZM673.841 108.964L707.479 108.964L711.027 123.635L676.429 123.635L673.841 108.964ZM709.695 108.964H743.333L747.888 123.635H713.305L709.695 108.964ZM709.462 108.012L706.054 94.1752H738.731L743.038 108.029L709.462 108.012ZM705.837 93.2912L702.629 80.2189H734.392L738.452 93.2912H705.837ZM702.428 79.3859L699.329 67.0276L730.348 66.8066L734.191 79.1649L702.428 79.3859ZM700.336 79.3859L668.635 79.3859L666.451 67.0276L697.346 67.0276L700.336 79.3859ZM668.93 93.3422H636.299L634.904 80.2699H666.683L668.93 93.3422ZM635.664 108.131H602.088L601.576 94.2942H634.254L635.664 108.131ZM602.119 176.944H564.065L564.638 159.214H601.545L602.119 176.944ZM564.096 108.131L530.505 108.131L531.915 94.2772L564.607 94.2772L564.096 108.131ZM529.869 93.4272H497.254L499.485 80.4059H531.248L529.869 93.4272ZM497.564 79.5729H465.863L468.838 67.1976H499.733L497.564 79.5729ZM463.771 79.5729L432.055 79.5729L435.897 67.2145L466.886 67.2145L463.771 79.5729ZM463.57 80.4059L460.347 93.4782L427.716 93.4782L431.791 80.4059L463.57 80.4059ZM460.13 94.3622L456.737 108.216L423.146 108.216L427.453 94.3622L460.13 94.3622ZM456.505 109.304L452.894 123.992L418.28 123.992L422.929 109.287L456.505 109.304ZM452.647 124.978L448.819 140.6H413.183L418.033 124.978L452.647 124.978ZM454.924 124.978H489.585L486.842 140.6H451.206L454.924 124.978ZM491.862 124.978H526.523L524.865 140.6H489.228L491.862 124.978ZM527.096 141.603H562.872L562.252 158.211H525.407L527.096 141.603ZM563.368 198.482H602.831L603.482 218.881H562.702L563.368 198.482ZM603.296 141.348L639.041 141.348L640.73 157.973L603.901 157.973L603.296 141.348ZM639.646 124.604H674.322L677.002 140.209H641.365L639.646 124.604ZM676.599 124.604L711.26 124.604L715.025 140.209H679.388L676.599 124.604ZM713.537 124.604H748.198L753.063 140.209H717.426L713.537 124.604ZM750.491 124.604H785.167L791.101 140.209H755.464L750.491 124.604ZM750.165 123.601L745.517 108.93H779.171L784.748 123.601H750.165ZM745.238 107.996L740.884 94.0052H773.562L778.845 107.859L745.238 107.996ZM740.59 93.2572L736.546 80.0659H768.325L773.298 93.1213L740.59 93.2572ZM736.205 79.3519L732.316 66.8066H763.305L767.953 79.1649L736.205 79.3519ZM732.053 66.1946L728.35 54.4992H758.455L762.917 66.2116L732.053 66.1946ZM730.023 66.1946H699.174L696.261 54.4142L726.351 54.4142L730.023 66.1946ZM697.144 66.1946L666.296 66.1946L664.235 54.4822H694.309L697.144 66.1946ZM666.528 79.4029H634.811L633.494 67.0276H664.405L666.528 79.4029ZM634.145 93.3592H601.53L601.05 80.3039H632.797L634.145 93.3592ZM601.499 158.041H564.669L565.212 141.433H600.957L601.499 158.041ZM564.623 93.4442L531.992 93.4442L533.34 80.3719L565.103 80.3719L564.623 93.4442ZM531.326 79.5729H499.625L501.748 67.1976H532.643L531.326 79.5729ZM499.857 66.4496H469.024L471.844 54.7372H501.918L499.857 66.4496ZM466.994 66.4496H436.13L439.771 54.7372L469.861 54.7372L466.994 66.4496ZM434.1 66.4496H403.251L407.713 54.7372H437.788L434.1 66.4496ZM433.837 67.2486L429.948 79.6239H398.247L402.895 67.2486H433.837ZM429.762 80.5079L425.64 93.5802H393.025L397.999 80.4909L429.762 80.5079ZM425.361 94.4642L420.992 108.318H387.416L392.576 94.5151L425.361 94.4642ZM420.713 109.27L416.065 123.958H381.482L387.06 109.253L420.713 109.27ZM415.77 124.944L410.843 140.566H375.207L381.141 124.944H415.77ZM412.796 141.603H448.556L444.466 158.228H407.62L412.796 141.603ZM450.911 141.603H486.656L483.728 158.228H446.898L450.911 141.603ZM489.011 141.603H524.756L522.975 158.228H486.145L489.011 141.603ZM525.283 159.299H562.206L561.555 177.029H523.47L525.283 159.299ZM562.655 220.156H603.529L604.241 242H561.942L562.655 220.156ZM603.978 159.197L640.885 159.197L642.698 176.927L604.629 176.927L603.978 159.197ZM641.412 141.382H677.188L680.039 158.007H643.194L641.412 141.382ZM679.543 141.382H715.288L719.301 157.99H682.471L679.543 141.382ZM717.643 141.382H753.388L758.548 157.99H721.718L717.643 141.382ZM755.743 141.382H791.504L797.826 157.99H760.98L755.743 141.382ZM798.275 159.078L805.015 176.791H766.93L761.337 158.891L798.275 159.078ZM800.258 157.939L793.875 141.093H829.62L837.103 157.701L800.258 157.939ZM793.456 140.26L787.444 124.672L822.105 124.672L829.139 140.26H793.456ZM787.057 123.669L781.479 108.76L815.117 108.76L821.717 123.431L787.057 123.669ZM781.045 108.063L775.715 94.0052H808.393L814.59 107.859L781.045 108.063ZM775.374 93.3252L770.354 80.2529H802.102L807.99 93.3082L775.374 93.3252ZM770.029 79.42L765.272 66.8066H796.168L801.73 79.1649L770.029 79.42ZM764.962 66.2626L760.454 54.5672L790.528 54.5672L795.811 66.2796L764.962 66.2626ZM760.159 53.8192L755.883 42.7188L785.198 42.7188L790.202 53.8192L760.159 53.8192ZM758.191 53.8192H728.133L724.631 42.7188H753.962L758.191 53.8192ZM726.165 53.8192L696.122 53.8192L693.395 42.7188L722.71 42.7188L726.165 53.8192ZM694.154 53.8192H664.126L662.174 42.5998H691.489L694.154 53.8192ZM662.267 54.6182L664.281 66.3306H633.417L632.177 54.6352L662.267 54.6182ZM632.735 79.3859H601.034L600.569 67.0276H631.465L632.735 79.3859ZM600.926 140.294H565.289L565.8 124.689H600.461L600.926 140.294ZM565.15 79.471L533.433 79.471L534.704 67.1126L565.614 67.1126L565.15 79.471ZM532.751 66.3646H501.902L503.917 54.6522L533.991 54.6522L532.751 66.3646ZM502.073 53.9382H472.045L474.726 42.8208H504.025L502.073 53.9382ZM470.062 53.9382L440.019 53.9382L443.474 42.8378L472.789 42.8378L470.062 53.9382ZM438.036 53.9382H408.008L412.238 42.8208H441.537L438.036 53.9382ZM406.04 53.9382L376.012 53.9382L381.002 42.8208L410.316 42.8208L406.04 53.9382ZM405.746 54.6862L401.237 66.4156H370.404L375.672 54.7032L405.746 54.6862ZM400.927 67.2145L396.17 79.5729H364.469L370.032 67.1976L400.927 67.2145ZM395.845 80.4229L390.825 93.4952H358.21L364.097 80.4059L395.845 80.4229ZM390.484 94.3792L385.154 108.233H351.578L357.776 94.3792H390.484ZM384.829 109.304L379.189 124.009H344.59L351.206 109.304H384.829ZM378.801 124.995L372.79 140.617H337.153L344.172 124.995H378.801ZM372.34 141.603L365.941 158.228H329.127L336.595 141.603H372.34ZM365.507 159.384L358.69 177.114H320.621L328.6 159.384H365.507ZM358.225 178.321L350.927 197.292H311.557L320.078 178.321H358.225ZM350.478 198.584L342.653 218.983H301.873L311.014 198.584H350.478ZM342.127 220.309L333.698 242.204H291.399L301.16 220.428L342.127 220.309ZM333.14 243.632L324.091 267.158H280.165L290.748 243.632H333.14ZM335.944 243.632L378.337 243.632L370.884 267.158H326.958L335.944 243.632ZM336.502 242.136L344.807 220.292L385.681 220.292L378.801 242.136L336.502 242.136ZM345.334 218.915L353.081 198.516L392.545 198.516L386.146 218.915L345.334 218.915ZM353.561 197.275L360.782 178.321L398.913 178.321L392.932 197.275L353.561 197.275ZM401.423 178.253H439.585L434.937 197.224H395.535L401.423 178.253ZM401.795 177.046L407.311 159.316H444.233L439.879 177.046H401.795ZM446.728 159.265H483.635L480.536 176.995H442.482L446.728 159.265ZM486.067 159.265H522.959L521.084 176.995H483.015L486.067 159.265ZM523.455 178.134H561.617L560.92 197.105H521.518L523.455 178.134ZM562.004 243.377H604.396L605.171 266.886H561.23L562.004 243.377ZM604.784 178.032L642.93 178.032L644.867 196.986L605.481 196.986L604.784 178.032ZM643.426 159.044H680.349L683.448 176.757H645.363L643.426 159.044ZM682.781 159.044H719.673L723.965 176.774H685.896L682.781 159.044ZM722.106 159.044H759.013L764.436 176.621H726.366L722.106 159.044ZM764.9 177.93L770.633 196.765H731.247L726.599 177.811L764.9 177.93ZM767.41 177.93H805.588L812.793 196.884H773.391L767.41 177.93ZM813.289 198.108L821.036 218.422H780.224L773.81 198.023L813.289 198.108ZM821.439 219.799L829.759 241.609H787.413L780.534 219.799H821.439ZM830.317 243.105L839.272 266.614H795.3L787.894 243.105H830.317ZM833.106 243.105L875.513 243.105L886.096 266.614H842.17L833.106 243.105ZM878.302 243.105H920.71L932.935 266.597H888.993L878.302 243.105ZM877.636 241.609L867.704 219.799L908.593 219.799L919.935 241.609H877.636ZM867.084 218.405L857.788 198.091L897.267 198.091L907.834 218.405L867.084 218.405ZM857.261 196.799L848.646 177.862L886.778 177.862L896.632 196.799L857.261 196.799ZM848.104 176.502L840.047 158.789L876.954 158.789L886.173 176.502L848.104 176.502ZM839.536 157.65L831.975 141.042H867.735L876.365 157.65L839.536 157.65ZM831.479 139.903L824.383 124.315H859.043L867.162 139.903H831.479ZM823.933 123.312L817.255 108.641H850.893L858.532 123.312H823.933ZM816.837 107.706L810.546 94.0052H843.208L850.413 107.843L816.837 107.706ZM810.143 92.9683L804.194 79.9129L835.957 79.9129L842.759 92.9852L810.143 92.9683ZM803.822 79.08L798.197 66.8066L829.093 66.8066L835.523 79.1649L803.822 79.08ZM797.841 65.9226L792.511 54.2102H822.601L828.674 65.9056L797.841 65.9226ZM792.17 53.4622L787.119 42.3618H816.434L822.198 53.4622H792.17ZM786.794 41.6479L782.006 31.1084L810.577 31.1084L816.062 41.6648L786.794 41.6479ZM784.872 41.6479L755.619 41.6479L751.544 31.0914L780.131 31.0914L784.872 41.6479ZM753.683 41.6479H724.414L721.083 31.1084L749.67 31.1084L753.683 41.6479ZM722.477 41.6479L693.224 41.6479L690.637 31.0914L719.208 31.0914L722.477 41.6479ZM691.303 41.6479H662.035L660.175 31.0914L688.747 31.0914L691.303 41.6479ZM660.237 42.4128L662.174 53.7172L632.131 53.7172L630.938 42.6168L660.237 42.4128ZM631.387 66.0076H600.538L600.12 54.2952H630.194L631.387 66.0076ZM600.399 123.499H565.816L566.296 108.828H599.919L600.399 123.499ZM565.645 66.3136L534.781 66.3136L535.974 54.6012H566.079L565.645 66.3136ZM534.068 53.9042L504.041 53.9042L505.962 42.7868L535.261 42.7868L534.068 53.9042ZM504.134 42.1239H474.881L477.422 31.5674L505.993 31.5674L504.134 42.1239ZM472.959 42.1239L443.675 42.1239L446.96 31.5674L475.547 31.5674L472.959 42.1239ZM441.754 42.1239H412.501L416.514 31.5674L445.07 31.5674L441.754 42.1239ZM410.564 42.1239L381.311 42.1239L386.068 31.5674L414.624 31.5674L410.564 42.1239ZM379.39 42.1239H350.106L355.591 31.5674L384.178 31.5674L379.39 42.1239ZM379.065 42.8378L373.983 54.1252H343.939L349.703 43.0078L379.065 42.8378ZM373.673 54.7372L368.358 66.4496H337.494L343.583 54.7372H373.673ZM367.986 67.2486L362.378 79.6239H330.645L337.076 67.2486H367.986ZM361.99 80.4569L356.056 93.5462H323.425L330.212 80.4739L361.99 80.4569ZM355.653 94.4302L349.362 108.284H315.771L322.96 94.4302H355.653ZM348.929 109.219L342.251 123.924L307.652 123.924L315.275 109.219H348.929ZM341.801 124.927L334.705 140.532H299.068L307.172 124.91L341.801 124.927ZM334.225 141.603L326.679 158.228H289.834L298.464 141.586L334.225 141.603ZM326.168 159.367L318.204 177.301H280.119L289.338 159.571L326.168 159.367ZM317.553 178.304L308.907 197.411H269.521L279.468 178.491L317.553 178.304ZM308.365 198.567L299.068 218.966H258.272L268.824 198.567H308.365ZM298.495 220.292L288.579 242.136H246.249L257.59 220.292H298.495ZM287.897 243.632L277.206 267.158L233.249 267.158L245.474 243.632H287.897ZM276.478 268.773L264.935 294.272L219.211 294.272L232.412 268.773L276.478 268.773ZM279.375 268.773H323.41L313.633 294.272H267.941L279.375 268.773ZM326.307 268.773H370.357L362.331 294.272H316.639L326.307 268.773ZM373.254 268.773H417.32L411.122 294.272H365.399L373.254 268.773ZM373.75 267.158L381.079 243.598H423.564L417.785 267.124L373.75 267.158ZM381.497 242.153L388.284 220.309H429.188L423.827 242.136L381.497 242.153ZM388.718 218.915L395.039 198.516H434.518L429.529 218.915H388.718ZM437.121 198.516H476.57L472.99 218.915H432.21L437.121 198.516ZM437.431 197.224L442.002 178.253H480.149L476.802 197.207L437.431 197.224ZM482.659 178.202H520.79L518.776 197.156H479.389L482.659 178.202ZM521.239 198.397H560.718L559.975 218.711H519.163L521.239 198.397ZM561.028 268.501H605.063L605.899 293.915H560.192L561.028 268.501ZM605.373 198.278L644.836 198.278L646.912 218.592L606.132 218.592L605.373 198.278ZM645.285 177.981H683.448L686.701 196.935H647.3L645.285 177.981ZM685.958 177.981H724.104L728.799 196.833H689.413L685.958 177.981ZM728.985 198.176L733.897 218.49H693.1L689.521 198.091L728.985 198.176ZM731.588 198.176H771.052L777.373 218.575H736.577L731.588 198.176ZM777.854 219.799L784.578 241.592H742.263L736.964 219.799H777.854ZM785.105 243.105L792.418 266.614H748.477L742.744 243.139L785.105 243.105ZM792.852 268.229L800.754 293.643H755.046L748.848 268.229H792.852ZM795.749 268.229H839.815L849.499 293.643H803.76L795.749 268.229ZM842.712 268.229H886.762L898.212 293.643H852.504L842.712 268.229ZM889.659 268.229H933.709L946.926 293.626H901.218L889.659 268.229ZM936.607 268.229H980.688L995.671 293.626H949.932L936.607 268.229ZM935.77 266.631L923.375 243.122H965.798L979.743 266.614L935.77 266.631ZM922.662 241.643L911.227 219.816H952.132L964.992 241.626L922.662 241.643ZM910.499 218.439L899.839 198.125H939.334L951.373 218.099L910.499 218.439ZM899.235 196.595L889.303 177.658H927.465L938.636 196.612L899.235 196.595ZM888.668 176.451L879.371 158.721L916.278 158.602L926.721 176.332L888.668 176.451ZM878.767 157.582L870.059 140.974L905.835 140.974L915.628 157.565L878.767 157.582ZM869.471 139.92L861.29 124.332H895.966L905.169 139.92L869.471 139.92ZM860.763 123.329L853.016 108.658H886.685L895.33 123.329H860.763ZM852.582 107.724L845.315 93.8692H878.008L886.22 107.605L852.582 107.724ZM844.835 92.9852L837.986 79.9299H869.765L877.512 93.0023L844.835 92.9852ZM837.553 79.097L831.138 66.8066H862.126L869.409 79.1649L837.553 79.097ZM830.658 65.9396L824.46 54.2442L854.565 54.2442L861.476 65.9396H830.658ZM824.119 53.4793L818.293 42.3788L847.624 42.3788L854.178 53.4793L824.119 53.4793ZM817.921 41.6819L812.468 31.1084L841.07 31.1084L847.267 41.6479L817.921 41.6819ZM812.034 30.4454L806.781 20.4159L834.671 20.4159L840.589 30.4454L812.034 30.4454ZM810.159 30.4454L781.634 30.4454L777.079 20.4159L804.968 20.4159L810.159 30.4454ZM779.759 30.4454L751.235 30.4454L747.361 20.4159L775.251 20.4159L779.759 30.4454ZM749.344 30.4454L720.804 30.4454L717.705 20.4159L745.595 20.4159L749.344 30.4454ZM718.929 30.4454L690.404 30.4454L687.941 20.4159L715.83 20.4159L718.929 30.4454ZM688.514 30.4454L659.989 30.4454L658.223 20.4159L686.113 20.4159L688.514 30.4454ZM658.239 31.1764L660.051 41.7329L630.767 41.7329L629.652 31.1934L658.239 31.1764ZM630.055 53.5983H600.027L599.609 42.4978H628.924L630.055 53.5983ZM566.033 53.6832H535.99L537.121 42.5828H566.451L566.033 53.6832ZM535.277 41.9029L506.008 41.9029L507.821 31.3464L536.392 31.3464L535.277 41.9029ZM506.07 30.7174L477.546 30.7174L479.963 20.6709L507.852 20.6709L506.07 30.7174ZM475.671 30.7174L447.131 30.7174L450.229 20.6709L478.119 20.6709L475.671 30.7174ZM445.24 30.7174L416.716 30.7174L420.543 20.6709H448.432L445.24 30.7174ZM414.841 30.7174L386.378 31.1084L390.902 21.0619H418.792L414.841 30.7174ZM384.441 30.7174L355.901 30.7174L361.123 20.6709H389.012L384.441 30.7174ZM354.026 30.7174L325.501 30.7174L331.42 20.6709L359.31 20.6709L354.026 30.7174ZM353.67 31.4144L348.138 41.9709L318.885 41.9709L325.083 31.4144L353.67 31.4144ZM347.828 43.0078L342.003 54.1252H311.975L318.529 43.0078L347.828 43.0078ZM341.631 54.9072L335.433 66.6196L304.584 66.6196L311.495 54.8902L341.631 54.9072ZM335.077 67.4185L328.6 79.7939L296.899 79.7939L304.181 67.4185L335.077 67.4185ZM328.151 80.6269L321.302 93.7162L288.765 93.7162L296.512 80.6439L328.151 80.6269ZM320.838 94.6002L313.555 108.471L279.98 108.471L288.145 94.6002L320.838 94.6002ZM313.091 109.389L305.343 124.094H270.745L279.406 109.389L313.091 109.389ZM304.879 125.097L296.698 140.702H261.061L270.249 125.08L304.879 125.097ZM296.14 141.773L287.432 158.398H250.618L260.41 141.773H296.14ZM286.843 159.537L277.547 177.284H239.493L249.936 159.537H286.843ZM276.912 178.491L266.98 197.462H227.609L238.781 178.491H276.912ZM266.314 198.754L255.654 219.153H214.873L226.85 198.754H266.314ZM254.925 220.479L243.491 242.323H201.192L214.052 220.479H254.925ZM242.716 243.802L230.321 267.345L186.503 267.396L200.371 243.87L242.716 243.802ZM229.546 268.943L216.237 294.442H170.544L185.512 268.943H229.546ZM215.322 296.142L200.897 323.697H153.284L169.46 296.295L215.322 296.142ZM218.328 296.142L264.176 296.142L251.579 323.629L203.95 323.629L218.328 296.142ZM267.181 296.142H312.998L302.384 323.494H254.786L267.181 296.142ZM316.019 296.142H361.82L353.127 323.494H305.514L316.019 296.142ZM364.841 296.142H410.673L403.902 323.494H356.257L364.841 296.142ZM413.694 296.142H459.495L454.661 323.68H407.047L413.694 296.142ZM414.113 294.442L420.31 268.943H464.345L459.867 294.442H414.113ZM420.636 267.396L426.291 243.598H468.698L464.546 267.124L420.636 267.396ZM426.663 242.085L431.931 220.241H472.82L468.977 242.085H426.663ZM475.5 220.19H516.39L514.05 241.898H471.735L475.5 220.19ZM475.748 218.796L479.235 198.397H518.698L516.529 218.796H475.748ZM519.132 220.122H560.037L559.153 241.898H516.823L519.132 220.122ZM560.269 295.666H606.085L606.984 323.188H559.37L560.269 295.666ZM606.302 220.003L647.176 220.003L649.407 241.83L607.108 241.83L606.302 220.003ZM647.563 198.227H687.042L690.544 218.626H649.732L647.563 198.227ZM690.776 219.884L694.526 241.711H652.196L649.779 219.952L690.776 219.884ZM693.472 219.884H734.346L739.614 241.711H697.315L693.472 219.884ZM739.955 243.139L745.626 266.648H701.684L697.547 243.139H739.955ZM746.013 268.263L752.211 293.677L706.503 293.677L702.025 268.263H746.013ZM752.567 295.462L759.214 322.984L711.6 322.984L706.751 295.462L752.567 295.462ZM755.588 295.462H801.405L809.973 322.984H762.344L755.588 295.462ZM804.426 295.462H850.273L860.747 322.984H813.103L804.426 295.462ZM853.279 295.462H899.095L911.491 322.984H863.877L853.279 295.462ZM902.117 295.462H947.933L962.25 322.984H914.636L902.117 295.462ZM950.954 295.462H996.802L1013.02 322.984H965.379L950.954 295.462ZM999.823 295.462H1045.64L1063.78 322.984H1016.17L999.823 295.462ZM998.785 293.762L983.694 268.348H1027.74L1044.49 293.745L998.785 293.762ZM982.733 266.75L968.788 243.258H1011.2L1026.69 266.75H982.733ZM967.889 241.762L954.936 219.952H995.826L1010.2 241.762H967.889ZM954.069 218.099L941.999 197.785H981.462L994.865 218.099H954.069ZM941.224 196.51L929.975 177.556H968.122L980.61 196.493L941.224 196.51ZM929.263 176.349L918.727 158.602H955.649L967.409 176.332L929.263 176.349ZM918.06 157.497L908.191 140.889H943.935L954.89 157.497H918.06ZM907.555 139.903L898.259 124.315H932.919L943.238 139.903H907.555ZM897.685 123.278L888.978 108.607H922.616L932.284 123.278H897.685ZM888.389 107.605L880.162 93.7672H912.839L922.011 107.605H888.389ZM879.635 92.8662L871.888 79.8109H903.651L912.265 92.8832L879.635 92.8662ZM871.376 78.978L864.032 66.6196H895.02L903.155 78.9609L871.376 78.978ZM863.629 65.8207L856.672 54.1252H886.747L894.494 65.8376L863.629 65.8207ZM856.223 53.3773L849.654 42.3448H878.953L886.282 53.4453L856.223 53.3773ZM849.204 41.5629L843.007 31.0234L871.578 31.0234L878.535 41.5799L849.204 41.5629ZM842.542 30.3434L836.576 20.3139L864.466 20.3139L871.082 30.3434L842.542 30.3434ZM836.205 19.668L830.518 10.1145L857.726 10.1145L864.032 19.668L836.205 19.668ZM834.361 19.668L806.471 19.668L801.467 10.1315L828.69 10.1315L834.361 19.668ZM804.689 19.668L776.8 19.668L772.446 10.1145L799.654 10.1145L804.689 19.668ZM775.018 19.668L747.129 19.668L743.456 10.1145L770.664 10.1145L775.018 19.668ZM745.362 19.668L717.473 19.668L714.451 10.1145L741.675 10.1145L745.362 19.668ZM715.675 19.668L687.786 19.668L685.446 10.1145L712.654 10.1145L715.675 19.668ZM686.02 19.668L658.13 19.668L656.441 10.1145L683.649 10.1145L686.02 19.668ZM658.13 30.3944L629.59 30.3944L628.521 20.3649L656.41 20.3649L658.13 30.3944ZM628.862 41.6648H599.609L599.206 31.1084L627.777 31.1084L628.862 41.6648ZM599.19 30.4794L598.818 20.45L626.708 20.45L627.731 30.4794L599.19 30.4794ZM566.901 30.4794L538.36 30.4794L539.383 20.45L567.272 20.45L566.901 30.4794ZM566.901 31.1594L566.513 41.6989H537.229L538.314 31.1424L566.901 31.1594ZM536.501 30.5134L507.976 30.5134L509.696 20.4839L537.586 20.4839L536.501 30.5134ZM507.976 19.872L480.087 19.872L482.442 10.7094L509.65 10.7094L507.976 19.872ZM478.32 19.872L450.431 19.872L453.406 10.3184L480.614 10.3184L478.32 19.872ZM448.649 19.872H420.76L424.385 10.3015L451.593 10.3015L448.649 19.872ZM418.978 19.872H391.166L395.458 10.3184L422.665 10.3184L418.978 19.872ZM389.322 19.872L361.432 19.872L366.406 10.3184L393.629 10.3184L389.322 19.872ZM359.651 19.872L331.761 19.872L337.401 10.3015L364.593 10.3015L359.651 19.872ZM329.995 19.872L302.105 19.872L308.396 10.3184L335.604 10.3184L329.995 19.872ZM329.607 20.5179L323.689 31.1084L295.164 31.1084L301.78 21.0619L329.607 20.5179ZM323.255 31.2444L317.057 41.8009H287.789L294.745 31.2274L323.255 31.2444ZM316.654 43.0928L310.069 54.2102L280.042 54.2102L287.355 43.0928H316.654ZM309.62 54.9922L302.663 66.7216L271.721 66.8066L279.468 55.0941L309.62 54.9922ZM302.198 67.5206L294.854 79.8959H263.153L271.303 67.5206H302.198ZM294.358 80.7289L286.611 93.8182H254.073L262.688 80.7459L294.358 80.7289ZM286.069 94.7022L277.857 108.556H244.281L253.407 94.6851L286.069 94.7022ZM277.299 109.491L268.576 124.196H233.993L243.661 109.491H277.299ZM268.003 125.199L258.706 140.804H223.069L233.358 125.182L268.003 125.199ZM258.117 141.875L248.248 158.5L211.294 158.602L222.248 141.977L258.117 141.875ZM247.581 159.639L236.968 177.301H198.914L210.597 159.554L247.581 159.639ZM236.332 178.593L225.084 197.564H185.713L198.201 178.593H236.332ZM224.325 198.856L212.255 219.255H171.474L184.861 198.856H224.325ZM211.294 220.547L198.341 242.391H156.042L170.42 220.547H211.294ZM197.458 243.887L183.513 267.43H139.571L155.066 243.904L197.458 243.887ZM182.599 269.096L167.507 294.595H121.815L138.564 269.096H182.599ZM166.485 296.295L150.138 323.85H102.54L120.669 296.295H166.485ZM149.023 325.737L131.251 355.69H81.5768L101.285 325.72L149.023 325.737ZM152.122 325.737H199.844L184.164 355.69H134.474L152.122 325.737ZM202.989 325.737L250.742 325.737L237.138 355.69H187.433L202.989 325.737ZM253.887 325.737H301.609L290.097 355.69L240.407 355.69L253.887 325.737ZM304.755 325.737H352.477L343.041 355.69H293.367L304.755 325.737ZM355.622 325.737H403.391L396.031 355.673H346.31L355.622 325.737ZM406.52 325.737H454.258L448.99 355.673H399.3L406.52 325.737ZM457.403 325.737H505.141L501.949 355.69H452.259L457.403 325.737ZM457.729 323.85L462.454 296.312H508.271L505.342 323.834L457.729 323.85ZM462.749 294.578L467.118 269.079H511.168L508.457 294.493L462.749 294.578ZM467.397 267.549L471.487 243.598H513.879L511.385 267.124L467.397 267.549ZM514.065 269.079H558.131L557.186 294.493H511.462L514.065 269.079ZM514.22 267.481L516.637 243.955H559.06L558.193 267.464L514.22 267.481ZM559.153 325.601H606.891L607.867 355.537H558.177L559.153 325.601ZM607.015 243.836L649.407 243.836L651.809 267.362H607.883L607.015 243.836ZM651.948 268.892L654.551 294.306H608.843L607.914 268.892H651.948ZM652.165 243.768H694.603L698.647 267.277H654.675L652.165 243.768ZM698.911 268.824L703.28 294.238H657.557L654.845 268.824H698.911ZM703.559 296.023L708.285 323.545H660.64L657.712 296.023H703.559ZM708.61 325.431L713.754 355.367H664.033L660.842 325.431H708.61ZM711.709 325.431L759.447 325.431L766.667 355.367L716.977 355.367L711.709 325.431ZM762.576 325.431H810.314L819.61 355.35H769.921L762.576 325.431ZM813.459 325.431H861.228L872.895 354.602H823.159L813.459 325.431ZM864.373 325.431H912.11L925.59 355.35H875.901L864.373 325.431ZM915.256 325.431H962.993L978.565 355.35H928.86L915.256 325.431ZM966.139 325.431H1013.91L1031.56 355.35H981.834L966.139 325.431ZM1017.05 325.346H1064.79L1084.53 355.248H1034.82L1017.05 325.346ZM1114.31 323.341H1066.68L1048.43 295.836H1094.24L1114.31 323.341ZM1092.97 294.085H1047.27L1030.41 268.688H1074.46L1092.97 294.085ZM1073.47 266.206H1029.53L1013.89 242.765H1056.3L1073.47 266.206ZM1055.26 241.218H1012.95L998.397 219.459H1039.29L1055.26 241.218ZM1038.34 218.099H997.545L984.065 197.7H1023.53L1038.34 218.099ZM1022.58 196.493H983.198L970.632 177.556H1008.78L1022.58 196.493ZM1007.9 176.349H969.826L958.113 158.602H995.035L1007.9 176.349ZM994.152 157.497H957.322L946.291 140.889H982.051L994.152 157.497ZM981.354 139.767H945.717L935.367 124.179H970.028L981.354 139.767ZM969.253 123.176H934.654L924.909 108.505L958.547 108.505L969.253 123.176ZM957.787 107.605L924.211 107.605L915.023 93.7672L947.701 93.7672L957.787 107.605ZM947.05 92.8832L914.435 92.8832L905.773 79.8109L937.536 79.8109L947.05 92.8832ZM936.917 78.995L905.216 78.995L897.019 66.6366H927.915L936.917 78.995ZM927.326 65.8376H896.492L888.745 54.1422L918.835 54.1422L927.326 65.8376ZM918.262 53.3942L888.219 53.3942L880.859 42.2938L910.158 42.2938L918.262 53.3942ZM909.647 41.5799L880.378 41.5799L873.391 31.0404L901.962 31.0404L909.647 41.5799ZM901.45 30.3604L872.926 30.3604L866.279 20.331L894.168 20.331L901.45 30.3604ZM893.703 19.685L865.814 19.685L859.477 10.1485L886.685 10.1485L893.703 19.685ZM879.666 0.424978L886.297 9.51947L859.136 9.51947L853.062 0.509953L879.666 0.424978ZM851.342 0.424978L857.339 9.53649L830.177 9.53649L824.739 0.509953L851.342 0.424978ZM823.019 0.424978L828.396 9.53649L801.203 9.53649L796.4 0.509953L823.019 0.424978ZM794.68 0.424978L799.421 9.53649L772.245 9.53649L768.077 0.509953L794.68 0.424978ZM766.357 0.424978L770.463 9.53649L743.302 9.53649L739.753 0.509953L766.357 0.424978ZM738.034 0.424978L741.504 9.51947L714.327 9.51947L711.446 0.407963L738.034 0.424978ZM709.695 0.424978L712.53 9.53649L685.369 9.53649L683.138 0.424978L709.695 0.424978ZM681.387 0.424978L683.587 9.53649L656.41 9.53649L654.861 0.407963L681.387 0.424978ZM656.379 19.753L628.49 19.753L627.467 10.1995L654.69 10.1995L656.379 19.753ZM653.064 0.475974L654.613 9.58748L627.436 9.58748L626.46 0.475974L653.064 0.475974ZM626.723 19.787L598.834 19.787L598.493 10.2335L625.685 10.2335L626.723 19.787ZM624.756 0.509953L625.685 9.62146L598.524 9.62146L598.183 0.509953L624.756 0.509953ZM569.875 0.594928L596.432 0.594928L596.742 9.72351L569.566 9.72351L569.875 0.594928ZM569.55 10.3184L596.758 10.3184L597.068 19.872L569.178 19.872L569.55 10.3184ZM569.225 20.5179L597.114 20.5179L597.455 30.5474L568.93 30.5474L569.225 20.5179ZM568.868 31.2444L597.439 31.2444L597.78 41.8009L568.527 41.8009L568.868 31.2444ZM568.496 42.4978L597.811 42.4978L598.168 53.5983L568.14 53.5983L568.496 42.4978ZM541.537 0.62896L568.125 0.62896L567.784 9.74047L540.607 9.74047L541.537 0.62896ZM567.768 10.3184L567.412 19.872L539.522 19.872L540.498 10.3015L567.768 10.3184ZM513.213 0.662939L539.786 0.662939L538.81 9.7745L511.648 9.7745L513.213 0.662939ZM538.748 10.3694L537.725 19.923L509.835 19.923L511.478 10.3694L538.748 10.3694ZM511.462 0.662939L509.913 9.79147L482.752 9.79147L484.952 0.679955L511.462 0.662939ZM483.155 0.662939L480.892 10.0635L453.716 10.0635L456.551 0.934932L483.155 0.662939ZM454.816 0.662939L451.949 9.79147L424.788 9.79147L428.212 1.01991L454.816 0.662939ZM426.508 0.662939L422.991 9.7745L395.829 9.7745L399.935 0.662939L426.508 0.662939ZM398.185 0.662939L394.048 9.79147L366.855 9.79147L371.597 0.662939L398.185 0.662939ZM369.846 0.662939L365.074 9.79147L337.912 9.79147L343.289 0.679955L369.846 0.662939ZM341.538 0.662939L336.13 9.7745L308.969 9.7745L314.965 0.645924L341.538 0.662939ZM286.642 0.662939L313.215 0.662939L307.172 9.79147L279.995 9.79147L286.642 0.662939ZM279.468 10.9644L306.692 10.9644L300.354 20.5349L272.465 20.5349L279.468 10.9644ZM272.047 21.1639L299.936 21.1639L293.289 31.1934H264.749L272.047 21.1639ZM264.299 31.8903L292.886 31.8903L285.883 42.4468L256.614 42.4468L264.299 31.8903ZM256.088 43.1608L285.418 43.1608L278.043 54.2782H248L256.088 43.1608ZM247.457 55.0602H277.547L269.8 66.7896H238.936L247.457 55.0602ZM238.347 67.5716H269.258L261.061 79.9469H229.345L238.347 67.5716ZM228.725 80.7799H260.503L251.827 93.8522H219.289L228.725 80.7799ZM218.561 94.7532H251.238L242.065 108.607H208.474L218.561 94.7532ZM207.792 109.559H241.43L231.7 124.264H197.086L207.792 109.559ZM196.373 125.25H231.033L220.59 140.838H184.954L196.373 125.25ZM184.226 141.943H219.986L208.923 158.602H172.078L184.226 141.943ZM171.288 159.707H208.211L196.451 177.454H158.381L171.288 159.707ZM157.498 178.661H195.66L183.095 197.632H143.693L157.498 178.661ZM142.748 198.941H182.227L168.747 219.34H127.951L142.748 198.941ZM126.944 220.666H167.833L153.361 242.51L111.031 242.51L126.944 220.666ZM109.9 244.006L152.323 244.006L136.736 267.532H92.7791L109.9 244.006ZM91.6015 269.096H135.667L118.809 294.595H73.1015L91.6015 269.096ZM71.8464 296.295H117.678L99.4106 323.834H51.7815L71.8464 296.295ZM50.4025 325.788H98.1555L78.3075 355.69H28.5867L50.4025 325.788ZM3.28476 390.538L27.0993 357.815H76.944L55.2522 390.538H3.28476ZM58.6764 390.453L80.2133 357.747H130.027L110.582 390.385L58.6764 390.453ZM114.053 390.453L133.312 357.73H183.126L165.989 390.453H114.053ZM169.413 390.453L186.457 357.73H236.302L221.443 390.436L169.413 390.453ZM224.82 390.453L239.524 357.492L289.354 357.492L276.772 390.198L224.82 390.453ZM280.181 390.453L292.576 357.747H342.39L332.148 390.096L280.181 390.453ZM335.557 390.368L345.721 357.662H395.566L387.54 390.368H335.557ZM390.964 390.368L398.851 357.662H448.665L442.916 390.368H390.964ZM446.34 390.368L451.949 357.662H501.779L498.292 389.79L446.34 390.368ZM553.715 389.79H501.732L505.063 357.101H554.924L553.715 389.79ZM555.001 355.044H505.28L508.379 325.091H556.148L555.001 355.044ZM508.518 323.273L511.338 295.734H557.17L556.148 323.255L508.518 323.273ZM557.108 389.79L558.177 357.084H608.007L609.076 389.79H557.108ZM609.014 295.598H654.83L657.65 323.12H610.036L609.014 295.598ZM610.098 325.023H657.836L660.935 354.959H611.245L610.098 325.023ZM612.5 389.79L611.291 357.101H661.105L664.452 389.79H612.5ZM667.876 389.79L664.39 357.101H714.25L719.859 389.79H667.876ZM723.283 389.79L717.519 357.101L767.349 357.101L775.282 389.484L723.283 389.79ZM778.659 389.79L770.633 356.795H820.462L830.627 389.484L778.659 389.79ZM834.051 389.79L823.732 357.101H873.592L885.987 389.79H834.051ZM889.458 389.79L876.877 357.118H926.706L941.425 389.79H889.458ZM944.85 389.79L929.991 357.118H979.82L996.864 389.79H944.85ZM1000.23 389.79L983.089 357.101H1032.95L1052.22 389.773L1000.23 389.79ZM1055.65 389.79L1036.23 357.118H1086.06L1107.62 389.79H1055.65ZM1089.35 357.05H1139.18L1163.01 389.722H1111.04L1089.35 357.05Z" fill="url(#paint0_angular_60_345)"></path><path d="M880.502 0L285.666 0.849957L0 392L1166.31 390.419L880.502 0ZM1137.71 354.245H1088.02L1068.12 324.394H1115.87L1137.71 354.245ZM598.509 67.0616L598.911 79.4369H567.21L567.613 67.0786L598.509 67.0616ZM567.66 66.3136L568.032 54.6012L598.121 54.6012L598.493 66.3136H567.66ZM599.407 94.2262L599.857 108.08H566.296L566.746 94.2262H599.407ZM566.777 93.3762L567.195 80.3039H598.958L599.376 93.3762H566.777ZM823.592 218.32L815.768 198.006H855.231L864.373 218.405L823.592 218.32ZM865.008 219.646L874.832 241.473L832.517 241.473L824.119 219.646H865.008ZM815.272 196.714L807.974 177.76H846.121L854.643 196.714H815.272ZM807.525 176.553L800.692 158.84H837.599L845.579 176.553H807.525ZM368.374 158.296L374.695 141.671H410.44L405.203 158.296L368.374 158.296ZM404.832 159.384L399.254 177.131L361.184 177.131L367.94 159.384L404.832 159.384ZM528.289 108.165H494.729L497.099 94.3112H529.776L528.289 108.165ZM530.412 109.1L564.065 109.1L563.523 123.788L528.909 123.788L530.412 109.1ZM495.101 93.4782H462.563L465.662 80.4059H497.425L495.101 93.4782ZM494.946 94.3622L492.513 108.216H458.937L462.284 94.3622H494.946ZM492.343 109.168L489.755 123.856H455.172L458.72 109.151L492.343 109.168ZM494.558 109.168H528.196L526.647 123.856H492.048L494.558 109.168ZM528.8 124.808L563.476 124.808L562.903 140.413H527.266L528.8 124.808ZM564.019 178.117H602.165L602.785 197.071H563.399L564.019 178.117ZM671.083 93.2572L668.775 80.1849L700.538 80.1849L703.637 93.2572L671.083 93.2572ZM703.9 94.0902L707.247 107.945L673.671 107.945L671.238 94.1072L703.9 94.0902ZM671.471 107.978H637.879L636.33 94.1412H669.023L671.471 107.978ZM637.26 123.652H602.661L602.119 108.981H635.757L637.26 123.652ZM602.708 124.689L637.383 124.604L638.933 140.209L603.296 140.209L602.708 124.689ZM637.972 108.964H671.626L674.151 123.652H639.537L637.972 108.964ZM673.841 108.964L707.479 108.964L711.027 123.635L676.429 123.635L673.841 108.964ZM709.695 108.964H743.333L747.888 123.635H713.305L709.695 108.964ZM709.462 108.012L706.054 94.1752H738.731L743.038 108.029L709.462 108.012ZM705.837 93.2912L702.629 80.2189H734.392L738.452 93.2912H705.837ZM702.428 79.3859L699.329 67.0276L730.348 66.8066L734.191 79.1649L702.428 79.3859ZM700.336 79.3859L668.635 79.3859L666.451 67.0276L697.346 67.0276L700.336 79.3859ZM668.93 93.3422H636.299L634.904 80.2699H666.683L668.93 93.3422ZM635.664 108.131H602.088L601.576 94.2942H634.254L635.664 108.131ZM602.119 176.944H564.065L564.638 159.214H601.545L602.119 176.944ZM564.096 108.131L530.505 108.131L531.915 94.2772L564.607 94.2772L564.096 108.131ZM529.869 93.4272H497.254L499.485 80.4059H531.248L529.869 93.4272ZM497.564 79.5729H465.863L468.838 67.1976H499.733L497.564 79.5729ZM463.771 79.5729L432.055 79.5729L435.897 67.2145L466.886 67.2145L463.771 79.5729ZM463.57 80.4059L460.347 93.4782L427.716 93.4782L431.791 80.4059L463.57 80.4059ZM460.13 94.3622L456.737 108.216L423.146 108.216L427.453 94.3622L460.13 94.3622ZM456.505 109.304L452.894 123.992L418.28 123.992L422.929 109.287L456.505 109.304ZM452.647 124.978L448.819 140.6H413.183L418.033 124.978L452.647 124.978ZM454.924 124.978H489.585L486.842 140.6H451.206L454.924 124.978ZM491.862 124.978H526.523L524.865 140.6H489.228L491.862 124.978ZM527.096 141.603H562.872L562.252 158.211H525.407L527.096 141.603ZM563.368 198.482H602.831L603.482 218.881H562.702L563.368 198.482ZM603.296 141.348L639.041 141.348L640.73 157.973L603.901 157.973L603.296 141.348ZM639.646 124.604H674.322L677.002 140.209H641.365L639.646 124.604ZM676.599 124.604L711.26 124.604L715.025 140.209H679.388L676.599 124.604ZM713.537 124.604H748.198L753.063 140.209H717.426L713.537 124.604ZM750.491 124.604H785.167L791.101 140.209H755.464L750.491 124.604ZM750.165 123.601L745.517 108.93H779.171L784.748 123.601H750.165ZM745.238 107.996L740.884 94.0052H773.562L778.845 107.859L745.238 107.996ZM740.59 93.2572L736.546 80.0659H768.325L773.298 93.1213L740.59 93.2572ZM736.205 79.3519L732.316 66.8066H763.305L767.953 79.1649L736.205 79.3519ZM732.053 66.1946L728.35 54.4992H758.455L762.917 66.2116L732.053 66.1946ZM730.023 66.1946H699.174L696.261 54.4142L726.351 54.4142L730.023 66.1946ZM697.144 66.1946L666.296 66.1946L664.235 54.4822H694.309L697.144 66.1946ZM666.528 79.4029H634.811L633.494 67.0276H664.405L666.528 79.4029ZM634.145 93.3592H601.53L601.05 80.3039H632.797L634.145 93.3592ZM601.499 158.041H564.669L565.212 141.433H600.957L601.499 158.041ZM564.623 93.4442L531.992 93.4442L533.34 80.3719L565.103 80.3719L564.623 93.4442ZM531.326 79.5729H499.625L501.748 67.1976H532.643L531.326 79.5729ZM499.857 66.4496H469.024L471.844 54.7372H501.918L499.857 66.4496ZM466.994 66.4496H436.13L439.771 54.7372L469.861 54.7372L466.994 66.4496ZM434.1 66.4496H403.251L407.713 54.7372H437.788L434.1 66.4496ZM433.837 67.2486L429.948 79.6239H398.247L402.895 67.2486H433.837ZM429.762 80.5079L425.64 93.5802H393.025L397.999 80.4909L429.762 80.5079ZM425.361 94.4642L420.992 108.318H387.416L392.576 94.5151L425.361 94.4642ZM420.713 109.27L416.065 123.958H381.482L387.06 109.253L420.713 109.27ZM415.77 124.944L410.843 140.566H375.207L381.141 124.944H415.77ZM412.796 141.603H448.556L444.466 158.228H407.62L412.796 141.603ZM450.911 141.603H486.656L483.728 158.228H446.898L450.911 141.603ZM489.011 141.603H524.756L522.975 158.228H486.145L489.011 141.603ZM525.283 159.299H562.206L561.555 177.029H523.47L525.283 159.299ZM562.655 220.156H603.529L604.241 242H561.942L562.655 220.156ZM603.978 159.197L640.885 159.197L642.698 176.927L604.629 176.927L603.978 159.197ZM641.412 141.382H677.188L680.039 158.007H643.194L641.412 141.382ZM679.543 141.382H715.288L719.301 157.99H682.471L679.543 141.382ZM717.643 141.382H753.388L758.548 157.99H721.718L717.643 141.382ZM755.743 141.382H791.504L797.826 157.99H760.98L755.743 141.382ZM798.275 159.078L805.015 176.791H766.93L761.337 158.891L798.275 159.078ZM800.258 157.939L793.875 141.093H829.62L837.103 157.701L800.258 157.939ZM793.456 140.26L787.444 124.672L822.105 124.672L829.139 140.26H793.456ZM787.057 123.669L781.479 108.76L815.117 108.76L821.717 123.431L787.057 123.669ZM781.045 108.063L775.715 94.0052H808.393L814.59 107.859L781.045 108.063ZM775.374 93.3252L770.354 80.2529H802.102L807.99 93.3082L775.374 93.3252ZM770.029 79.42L765.272 66.8066H796.168L801.73 79.1649L770.029 79.42ZM764.962 66.2626L760.454 54.5672L790.528 54.5672L795.811 66.2796L764.962 66.2626ZM760.159 53.8192L755.883 42.7188L785.198 42.7188L790.202 53.8192L760.159 53.8192ZM758.191 53.8192H728.133L724.631 42.7188H753.962L758.191 53.8192ZM726.165 53.8192L696.122 53.8192L693.395 42.7188L722.71 42.7188L726.165 53.8192ZM694.154 53.8192H664.126L662.174 42.5998H691.489L694.154 53.8192ZM662.267 54.6182L664.281 66.3306H633.417L632.177 54.6352L662.267 54.6182ZM632.735 79.3859H601.034L600.569 67.0276H631.465L632.735 79.3859ZM600.926 140.294H565.289L565.8 124.689H600.461L600.926 140.294ZM565.15 79.471L533.433 79.471L534.704 67.1126L565.614 67.1126L565.15 79.471ZM532.751 66.3646H501.902L503.917 54.6522L533.991 54.6522L532.751 66.3646ZM502.073 53.9382H472.045L474.726 42.8208H504.025L502.073 53.9382ZM470.062 53.9382L440.019 53.9382L443.474 42.8378L472.789 42.8378L470.062 53.9382ZM438.036 53.9382H408.008L412.238 42.8208H441.537L438.036 53.9382ZM406.04 53.9382L376.012 53.9382L381.002 42.8208L410.316 42.8208L406.04 53.9382ZM405.746 54.6862L401.237 66.4156H370.404L375.672 54.7032L405.746 54.6862ZM400.927 67.2145L396.17 79.5729H364.469L370.032 67.1976L400.927 67.2145ZM395.845 80.4229L390.825 93.4952H358.21L364.097 80.4059L395.845 80.4229ZM390.484 94.3792L385.154 108.233H351.578L357.776 94.3792H390.484ZM384.829 109.304L379.189 124.009H344.59L351.206 109.304H384.829ZM378.801 124.995L372.79 140.617H337.153L344.172 124.995H378.801ZM372.34 141.603L365.941 158.228H329.127L336.595 141.603H372.34ZM365.507 159.384L358.69 177.114H320.621L328.6 159.384H365.507ZM358.225 178.321L350.927 197.292H311.557L320.078 178.321H358.225ZM350.478 198.584L342.653 218.983H301.873L311.014 198.584H350.478ZM342.127 220.309L333.698 242.204H291.399L301.16 220.428L342.127 220.309ZM333.14 243.632L324.091 267.158H280.165L290.748 243.632H333.14ZM335.944 243.632L378.337 243.632L370.884 267.158H326.958L335.944 243.632ZM336.502 242.136L344.807 220.292L385.681 220.292L378.801 242.136L336.502 242.136ZM345.334 218.915L353.081 198.516L392.545 198.516L386.146 218.915L345.334 218.915ZM353.561 197.275L360.782 178.321L398.913 178.321L392.932 197.275L353.561 197.275ZM401.423 178.253H439.585L434.937 197.224H395.535L401.423 178.253ZM401.795 177.046L407.311 159.316H444.233L439.879 177.046H401.795ZM446.728 159.265H483.635L480.536 176.995H442.482L446.728 159.265ZM486.067 159.265H522.959L521.084 176.995H483.015L486.067 159.265ZM523.455 178.134H561.617L560.92 197.105H521.518L523.455 178.134ZM562.004 243.377H604.396L605.171 266.886H561.23L562.004 243.377ZM604.784 178.032L642.93 178.032L644.867 196.986L605.481 196.986L604.784 178.032ZM643.426 159.044H680.349L683.448 176.757H645.363L643.426 159.044ZM682.781 159.044H719.673L723.965 176.774H685.896L682.781 159.044ZM722.106 159.044H759.013L764.436 176.621H726.366L722.106 159.044ZM764.9 177.93L770.633 196.765H731.247L726.599 177.811L764.9 177.93ZM767.41 177.93H805.588L812.793 196.884H773.391L767.41 177.93ZM813.289 198.108L821.036 218.422H780.224L773.81 198.023L813.289 198.108ZM821.439 219.799L829.759 241.609H787.413L780.534 219.799H821.439ZM830.317 243.105L839.272 266.614H795.3L787.894 243.105H830.317ZM833.106 243.105L875.513 243.105L886.096 266.614H842.17L833.106 243.105ZM878.302 243.105H920.71L932.935 266.597H888.993L878.302 243.105ZM877.636 241.609L867.704 219.799L908.593 219.799L919.935 241.609H877.636ZM867.084 218.405L857.788 198.091L897.267 198.091L907.834 218.405L867.084 218.405ZM857.261 196.799L848.646 177.862L886.778 177.862L896.632 196.799L857.261 196.799ZM848.104 176.502L840.047 158.789L876.954 158.789L886.173 176.502L848.104 176.502ZM839.536 157.65L831.975 141.042H867.735L876.365 157.65L839.536 157.65ZM831.479 139.903L824.383 124.315H859.043L867.162 139.903H831.479ZM823.933 123.312L817.255 108.641H850.893L858.532 123.312H823.933ZM816.837 107.706L810.546 94.0052H843.208L850.413 107.843L816.837 107.706ZM810.143 92.9683L804.194 79.9129L835.957 79.9129L842.759 92.9852L810.143 92.9683ZM803.822 79.08L798.197 66.8066L829.093 66.8066L835.523 79.1649L803.822 79.08ZM797.841 65.9226L792.511 54.2102H822.601L828.674 65.9056L797.841 65.9226ZM792.17 53.4622L787.119 42.3618H816.434L822.198 53.4622H792.17ZM786.794 41.6479L782.006 31.1084L810.577 31.1084L816.062 41.6648L786.794 41.6479ZM784.872 41.6479L755.619 41.6479L751.544 31.0914L780.131 31.0914L784.872 41.6479ZM753.683 41.6479H724.414L721.083 31.1084L749.67 31.1084L753.683 41.6479ZM722.477 41.6479L693.224 41.6479L690.637 31.0914L719.208 31.0914L722.477 41.6479ZM691.303 41.6479H662.035L660.175 31.0914L688.747 31.0914L691.303 41.6479ZM660.237 42.4128L662.174 53.7172L632.131 53.7172L630.938 42.6168L660.237 42.4128ZM631.387 66.0076H600.538L600.12 54.2952H630.194L631.387 66.0076ZM600.399 123.499H565.816L566.296 108.828H599.919L600.399 123.499ZM565.645 66.3136L534.781 66.3136L535.974 54.6012H566.079L565.645 66.3136ZM534.068 53.9042L504.041 53.9042L505.962 42.7868L535.261 42.7868L534.068 53.9042ZM504.134 42.1239H474.881L477.422 31.5674L505.993 31.5674L504.134 42.1239ZM472.959 42.1239L443.675 42.1239L446.96 31.5674L475.547 31.5674L472.959 42.1239ZM441.754 42.1239H412.501L416.514 31.5674L445.07 31.5674L441.754 42.1239ZM410.564 42.1239L381.311 42.1239L386.068 31.5674L414.624 31.5674L410.564 42.1239ZM379.39 42.1239H350.106L355.591 31.5674L384.178 31.5674L379.39 42.1239ZM379.065 42.8378L373.983 54.1252H343.939L349.703 43.0078L379.065 42.8378ZM373.673 54.7372L368.358 66.4496H337.494L343.583 54.7372H373.673ZM367.986 67.2486L362.378 79.6239H330.645L337.076 67.2486H367.986ZM361.99 80.4569L356.056 93.5462H323.425L330.212 80.4739L361.99 80.4569ZM355.653 94.4302L349.362 108.284H315.771L322.96 94.4302H355.653ZM348.929 109.219L342.251 123.924L307.652 123.924L315.275 109.219H348.929ZM341.801 124.927L334.705 140.532H299.068L307.172 124.91L341.801 124.927ZM334.225 141.603L326.679 158.228H289.834L298.464 141.586L334.225 141.603ZM326.168 159.367L318.204 177.301H280.119L289.338 159.571L326.168 159.367ZM317.553 178.304L308.907 197.411H269.521L279.468 178.491L317.553 178.304ZM308.365 198.567L299.068 218.966H258.272L268.824 198.567H308.365ZM298.495 220.292L288.579 242.136H246.249L257.59 220.292H298.495ZM287.897 243.632L277.206 267.158L233.249 267.158L245.474 243.632H287.897ZM276.478 268.773L264.935 294.272L219.211 294.272L232.412 268.773L276.478 268.773ZM279.375 268.773H323.41L313.633 294.272H267.941L279.375 268.773ZM326.307 268.773H370.357L362.331 294.272H316.639L326.307 268.773ZM373.254 268.773H417.32L411.122 294.272H365.399L373.254 268.773ZM373.75 267.158L381.079 243.598H423.564L417.785 267.124L373.75 267.158ZM381.497 242.153L388.284 220.309H429.188L423.827 242.136L381.497 242.153ZM388.718 218.915L395.039 198.516H434.518L429.529 218.915H388.718ZM437.121 198.516H476.57L472.99 218.915H432.21L437.121 198.516ZM437.431 197.224L442.002 178.253H480.149L476.802 197.207L437.431 197.224ZM482.659 178.202H520.79L518.776 197.156H479.389L482.659 178.202ZM521.239 198.397H560.718L559.975 218.711H519.163L521.239 198.397ZM561.028 268.501H605.063L605.899 293.915H560.192L561.028 268.501ZM605.373 198.278L644.836 198.278L646.912 218.592L606.132 218.592L605.373 198.278ZM645.285 177.981H683.448L686.701 196.935H647.3L645.285 177.981ZM685.958 177.981H724.104L728.799 196.833H689.413L685.958 177.981ZM728.985 198.176L733.897 218.49H693.1L689.521 198.091L728.985 198.176ZM731.588 198.176H771.052L777.373 218.575H736.577L731.588 198.176ZM777.854 219.799L784.578 241.592H742.263L736.964 219.799H777.854ZM785.105 243.105L792.418 266.614H748.477L742.744 243.139L785.105 243.105ZM792.852 268.229L800.754 293.643H755.046L748.848 268.229H792.852ZM795.749 268.229H839.815L849.499 293.643H803.76L795.749 268.229ZM842.712 268.229H886.762L898.212 293.643H852.504L842.712 268.229ZM889.659 268.229H933.709L946.926 293.626H901.218L889.659 268.229ZM936.607 268.229H980.688L995.671 293.626H949.932L936.607 268.229ZM935.77 266.631L923.375 243.122H965.798L979.743 266.614L935.77 266.631ZM922.662 241.643L911.227 219.816H952.132L964.992 241.626L922.662 241.643ZM910.499 218.439L899.839 198.125H939.334L951.373 218.099L910.499 218.439ZM899.235 196.595L889.303 177.658H927.465L938.636 196.612L899.235 196.595ZM888.668 176.451L879.371 158.721L916.278 158.602L926.721 176.332L888.668 176.451ZM878.767 157.582L870.059 140.974L905.835 140.974L915.628 157.565L878.767 157.582ZM869.471 139.92L861.29 124.332H895.966L905.169 139.92L869.471 139.92ZM860.763 123.329L853.016 108.658H886.685L895.33 123.329H860.763ZM852.582 107.724L845.315 93.8692H878.008L886.22 107.605L852.582 107.724ZM844.835 92.9852L837.986 79.9299H869.765L877.512 93.0023L844.835 92.9852ZM837.553 79.097L831.138 66.8066H862.126L869.409 79.1649L837.553 79.097ZM830.658 65.9396L824.46 54.2442L854.565 54.2442L861.476 65.9396H830.658ZM824.119 53.4793L818.293 42.3788L847.624 42.3788L854.178 53.4793L824.119 53.4793ZM817.921 41.6819L812.468 31.1084L841.07 31.1084L847.267 41.6479L817.921 41.6819ZM812.034 30.4454L806.781 20.4159L834.671 20.4159L840.589 30.4454L812.034 30.4454ZM810.159 30.4454L781.634 30.4454L777.079 20.4159L804.968 20.4159L810.159 30.4454ZM779.759 30.4454L751.235 30.4454L747.361 20.4159L775.251 20.4159L779.759 30.4454ZM749.344 30.4454L720.804 30.4454L717.705 20.4159L745.595 20.4159L749.344 30.4454ZM718.929 30.4454L690.404 30.4454L687.941 20.4159L715.83 20.4159L718.929 30.4454ZM688.514 30.4454L659.989 30.4454L658.223 20.4159L686.113 20.4159L688.514 30.4454ZM658.239 31.1764L660.051 41.7329L630.767 41.7329L629.652 31.1934L658.239 31.1764ZM630.055 53.5983H600.027L599.609 42.4978H628.924L630.055 53.5983ZM566.033 53.6832H535.99L537.121 42.5828H566.451L566.033 53.6832ZM535.277 41.9029L506.008 41.9029L507.821 31.3464L536.392 31.3464L535.277 41.9029ZM506.07 30.7174L477.546 30.7174L479.963 20.6709L507.852 20.6709L506.07 30.7174ZM475.671 30.7174L447.131 30.7174L450.229 20.6709L478.119 20.6709L475.671 30.7174ZM445.24 30.7174L416.716 30.7174L420.543 20.6709H448.432L445.24 30.7174ZM414.841 30.7174L386.378 31.1084L390.902 21.0619H418.792L414.841 30.7174ZM384.441 30.7174L355.901 30.7174L361.123 20.6709H389.012L384.441 30.7174ZM354.026 30.7174L325.501 30.7174L331.42 20.6709L359.31 20.6709L354.026 30.7174ZM353.67 31.4144L348.138 41.9709L318.885 41.9709L325.083 31.4144L353.67 31.4144ZM347.828 43.0078L342.003 54.1252H311.975L318.529 43.0078L347.828 43.0078ZM341.631 54.9072L335.433 66.6196L304.584 66.6196L311.495 54.8902L341.631 54.9072ZM335.077 67.4185L328.6 79.7939L296.899 79.7939L304.181 67.4185L335.077 67.4185ZM328.151 80.6269L321.302 93.7162L288.765 93.7162L296.512 80.6439L328.151 80.6269ZM320.838 94.6002L313.555 108.471L279.98 108.471L288.145 94.6002L320.838 94.6002ZM313.091 109.389L305.343 124.094H270.745L279.406 109.389L313.091 109.389ZM304.879 125.097L296.698 140.702H261.061L270.249 125.08L304.879 125.097ZM296.14 141.773L287.432 158.398H250.618L260.41 141.773H296.14ZM286.843 159.537L277.547 177.284H239.493L249.936 159.537H286.843ZM276.912 178.491L266.98 197.462H227.609L238.781 178.491H276.912ZM266.314 198.754L255.654 219.153H214.873L226.85 198.754H266.314ZM254.925 220.479L243.491 242.323H201.192L214.052 220.479H254.925ZM242.716 243.802L230.321 267.345L186.503 267.396L200.371 243.87L242.716 243.802ZM229.546 268.943L216.237 294.442H170.544L185.512 268.943H229.546ZM215.322 296.142L200.897 323.697H153.284L169.46 296.295L215.322 296.142ZM218.328 296.142L264.176 296.142L251.579 323.629L203.95 323.629L218.328 296.142ZM267.181 296.142H312.998L302.384 323.494H254.786L267.181 296.142ZM316.019 296.142H361.82L353.127 323.494H305.514L316.019 296.142ZM364.841 296.142H410.673L403.902 323.494H356.257L364.841 296.142ZM413.694 296.142H459.495L454.661 323.68H407.047L413.694 296.142ZM414.113 294.442L420.31 268.943H464.345L459.867 294.442H414.113ZM420.636 267.396L426.291 243.598H468.698L464.546 267.124L420.636 267.396ZM426.663 242.085L431.931 220.241H472.82L468.977 242.085H426.663ZM475.5 220.19H516.39L514.05 241.898H471.735L475.5 220.19ZM475.748 218.796L479.235 198.397H518.698L516.529 218.796H475.748ZM519.132 220.122H560.037L559.153 241.898H516.823L519.132 220.122ZM560.269 295.666H606.085L606.984 323.188H559.37L560.269 295.666ZM606.302 220.003L647.176 220.003L649.407 241.83L607.108 241.83L606.302 220.003ZM647.563 198.227H687.042L690.544 218.626H649.732L647.563 198.227ZM690.776 219.884L694.526 241.711H652.196L649.779 219.952L690.776 219.884ZM693.472 219.884H734.346L739.614 241.711H697.315L693.472 219.884ZM739.955 243.139L745.626 266.648H701.684L697.547 243.139H739.955ZM746.013 268.263L752.211 293.677L706.503 293.677L702.025 268.263H746.013ZM752.567 295.462L759.214 322.984L711.6 322.984L706.751 295.462L752.567 295.462ZM755.588 295.462H801.405L809.973 322.984H762.344L755.588 295.462ZM804.426 295.462H850.273L860.747 322.984H813.103L804.426 295.462ZM853.279 295.462H899.095L911.491 322.984H863.877L853.279 295.462ZM902.117 295.462H947.933L962.25 322.984H914.636L902.117 295.462ZM950.954 295.462H996.802L1013.02 322.984H965.379L950.954 295.462ZM999.823 295.462H1045.64L1063.78 322.984H1016.17L999.823 295.462ZM998.785 293.762L983.694 268.348H1027.74L1044.49 293.745L998.785 293.762ZM982.733 266.75L968.788 243.258H1011.2L1026.69 266.75H982.733ZM967.889 241.762L954.936 219.952H995.826L1010.2 241.762H967.889ZM954.069 218.099L941.999 197.785H981.462L994.865 218.099H954.069ZM941.224 196.51L929.975 177.556H968.122L980.61 196.493L941.224 196.51ZM929.263 176.349L918.727 158.602H955.649L967.409 176.332L929.263 176.349ZM918.06 157.497L908.191 140.889H943.935L954.89 157.497H918.06ZM907.555 139.903L898.259 124.315H932.919L943.238 139.903H907.555ZM897.685 123.278L888.978 108.607H922.616L932.284 123.278H897.685ZM888.389 107.605L880.162 93.7672H912.839L922.011 107.605H888.389ZM879.635 92.8662L871.888 79.8109H903.651L912.265 92.8832L879.635 92.8662ZM871.376 78.978L864.032 66.6196H895.02L903.155 78.9609L871.376 78.978ZM863.629 65.8207L856.672 54.1252H886.747L894.494 65.8376L863.629 65.8207ZM856.223 53.3773L849.654 42.3448H878.953L886.282 53.4453L856.223 53.3773ZM849.204 41.5629L843.007 31.0234L871.578 31.0234L878.535 41.5799L849.204 41.5629ZM842.542 30.3434L836.576 20.3139L864.466 20.3139L871.082 30.3434L842.542 30.3434ZM836.205 19.668L830.518 10.1145L857.726 10.1145L864.032 19.668L836.205 19.668ZM834.361 19.668L806.471 19.668L801.467 10.1315L828.69 10.1315L834.361 19.668ZM804.689 19.668L776.8 19.668L772.446 10.1145L799.654 10.1145L804.689 19.668ZM775.018 19.668L747.129 19.668L743.456 10.1145L770.664 10.1145L775.018 19.668ZM745.362 19.668L717.473 19.668L714.451 10.1145L741.675 10.1145L745.362 19.668ZM715.675 19.668L687.786 19.668L685.446 10.1145L712.654 10.1145L715.675 19.668ZM686.02 19.668L658.13 19.668L656.441 10.1145L683.649 10.1145L686.02 19.668ZM658.13 30.3944L629.59 30.3944L628.521 20.3649L656.41 20.3649L658.13 30.3944ZM628.862 41.6648H599.609L599.206 31.1084L627.777 31.1084L628.862 41.6648ZM599.19 30.4794L598.818 20.45L626.708 20.45L627.731 30.4794L599.19 30.4794ZM566.901 30.4794L538.36 30.4794L539.383 20.45L567.272 20.45L566.901 30.4794ZM566.901 31.1594L566.513 41.6989H537.229L538.314 31.1424L566.901 31.1594ZM536.501 30.5134L507.976 30.5134L509.696 20.4839L537.586 20.4839L536.501 30.5134ZM507.976 19.872L480.087 19.872L482.442 10.7094L509.65 10.7094L507.976 19.872ZM478.32 19.872L450.431 19.872L453.406 10.3184L480.614 10.3184L478.32 19.872ZM448.649 19.872H420.76L424.385 10.3015L451.593 10.3015L448.649 19.872ZM418.978 19.872H391.166L395.458 10.3184L422.665 10.3184L418.978 19.872ZM389.322 19.872L361.432 19.872L366.406 10.3184L393.629 10.3184L389.322 19.872ZM359.651 19.872L331.761 19.872L337.401 10.3015L364.593 10.3015L359.651 19.872ZM329.995 19.872L302.105 19.872L308.396 10.3184L335.604 10.3184L329.995 19.872ZM329.607 20.5179L323.689 31.1084L295.164 31.1084L301.78 21.0619L329.607 20.5179ZM323.255 31.2444L317.057 41.8009H287.789L294.745 31.2274L323.255 31.2444ZM316.654 43.0928L310.069 54.2102L280.042 54.2102L287.355 43.0928H316.654ZM309.62 54.9922L302.663 66.7216L271.721 66.8066L279.468 55.0941L309.62 54.9922ZM302.198 67.5206L294.854 79.8959H263.153L271.303 67.5206H302.198ZM294.358 80.7289L286.611 93.8182H254.073L262.688 80.7459L294.358 80.7289ZM286.069 94.7022L277.857 108.556H244.281L253.407 94.6851L286.069 94.7022ZM277.299 109.491L268.576 124.196H233.993L243.661 109.491H277.299ZM268.003 125.199L258.706 140.804H223.069L233.358 125.182L268.003 125.199ZM258.117 141.875L248.248 158.5L211.294 158.602L222.248 141.977L258.117 141.875ZM247.581 159.639L236.968 177.301H198.914L210.597 159.554L247.581 159.639ZM236.332 178.593L225.084 197.564H185.713L198.201 178.593H236.332ZM224.325 198.856L212.255 219.255H171.474L184.861 198.856H224.325ZM211.294 220.547L198.341 242.391H156.042L170.42 220.547H211.294ZM197.458 243.887L183.513 267.43H139.571L155.066 243.904L197.458 243.887ZM182.599 269.096L167.507 294.595H121.815L138.564 269.096H182.599ZM166.485 296.295L150.138 323.85H102.54L120.669 296.295H166.485ZM149.023 325.737L131.251 355.69H81.5768L101.285 325.72L149.023 325.737ZM152.122 325.737H199.844L184.164 355.69H134.474L152.122 325.737ZM202.989 325.737L250.742 325.737L237.138 355.69H187.433L202.989 325.737ZM253.887 325.737H301.609L290.097 355.69L240.407 355.69L253.887 325.737ZM304.755 325.737H352.477L343.041 355.69H293.367L304.755 325.737ZM355.622 325.737H403.391L396.031 355.673H346.31L355.622 325.737ZM406.52 325.737H454.258L448.99 355.673H399.3L406.52 325.737ZM457.403 325.737H505.141L501.949 355.69H452.259L457.403 325.737ZM457.729 323.85L462.454 296.312H508.271L505.342 323.834L457.729 323.85ZM462.749 294.578L467.118 269.079H511.168L508.457 294.493L462.749 294.578ZM467.397 267.549L471.487 243.598H513.879L511.385 267.124L467.397 267.549ZM514.065 269.079H558.131L557.186 294.493H511.462L514.065 269.079ZM514.22 267.481L516.637 243.955H559.06L558.193 267.464L514.22 267.481ZM559.153 325.601H606.891L607.867 355.537H558.177L559.153 325.601ZM607.015 243.836L649.407 243.836L651.809 267.362H607.883L607.015 243.836ZM651.948 268.892L654.551 294.306H608.843L607.914 268.892H651.948ZM652.165 243.768H694.603L698.647 267.277H654.675L652.165 243.768ZM698.911 268.824L703.28 294.238H657.557L654.845 268.824H698.911ZM703.559 296.023L708.285 323.545H660.64L657.712 296.023H703.559ZM708.61 325.431L713.754 355.367H664.033L660.842 325.431H708.61ZM711.709 325.431L759.447 325.431L766.667 355.367L716.977 355.367L711.709 325.431ZM762.576 325.431H810.314L819.61 355.35H769.921L762.576 325.431ZM813.459 325.431H861.228L872.895 354.602H823.159L813.459 325.431ZM864.373 325.431H912.11L925.59 355.35H875.901L864.373 325.431ZM915.256 325.431H962.993L978.565 355.35H928.86L915.256 325.431ZM966.139 325.431H1013.91L1031.56 355.35H981.834L966.139 325.431ZM1017.05 325.346H1064.79L1084.53 355.248H1034.82L1017.05 325.346ZM1114.31 323.341H1066.68L1048.43 295.836H1094.24L1114.31 323.341ZM1092.97 294.085H1047.27L1030.41 268.688H1074.46L1092.97 294.085ZM1073.47 266.206H1029.53L1013.89 242.765H1056.3L1073.47 266.206ZM1055.26 241.218H1012.95L998.397 219.459H1039.29L1055.26 241.218ZM1038.34 218.099H997.545L984.065 197.7H1023.53L1038.34 218.099ZM1022.58 196.493H983.198L970.632 177.556H1008.78L1022.58 196.493ZM1007.9 176.349H969.826L958.113 158.602H995.035L1007.9 176.349ZM994.152 157.497H957.322L946.291 140.889H982.051L994.152 157.497ZM981.354 139.767H945.717L935.367 124.179H970.028L981.354 139.767ZM969.253 123.176H934.654L924.909 108.505L958.547 108.505L969.253 123.176ZM957.787 107.605L924.211 107.605L915.023 93.7672L947.701 93.7672L957.787 107.605ZM947.05 92.8832L914.435 92.8832L905.773 79.8109L937.536 79.8109L947.05 92.8832ZM936.917 78.995L905.216 78.995L897.019 66.6366H927.915L936.917 78.995ZM927.326 65.8376H896.492L888.745 54.1422L918.835 54.1422L927.326 65.8376ZM918.262 53.3942L888.219 53.3942L880.859 42.2938L910.158 42.2938L918.262 53.3942ZM909.647 41.5799L880.378 41.5799L873.391 31.0404L901.962 31.0404L909.647 41.5799ZM901.45 30.3604L872.926 30.3604L866.279 20.331L894.168 20.331L901.45 30.3604ZM893.703 19.685L865.814 19.685L859.477 10.1485L886.685 10.1485L893.703 19.685ZM879.666 0.424978L886.297 9.51947L859.136 9.51947L853.062 0.509953L879.666 0.424978ZM851.342 0.424978L857.339 9.53649L830.177 9.53649L824.739 0.509953L851.342 0.424978ZM823.019 0.424978L828.396 9.53649L801.203 9.53649L796.4 0.509953L823.019 0.424978ZM794.68 0.424978L799.421 9.53649L772.245 9.53649L768.077 0.509953L794.68 0.424978ZM766.357 0.424978L770.463 9.53649L743.302 9.53649L739.753 0.509953L766.357 0.424978ZM738.034 0.424978L741.504 9.51947L714.327 9.51947L711.446 0.407963L738.034 0.424978ZM709.695 0.424978L712.53 9.53649L685.369 9.53649L683.138 0.424978L709.695 0.424978ZM681.387 0.424978L683.587 9.53649L656.41 9.53649L654.861 0.407963L681.387 0.424978ZM656.379 19.753L628.49 19.753L627.467 10.1995L654.69 10.1995L656.379 19.753ZM653.064 0.475974L654.613 9.58748L627.436 9.58748L626.46 0.475974L653.064 0.475974ZM626.723 19.787L598.834 19.787L598.493 10.2335L625.685 10.2335L626.723 19.787ZM624.756 0.509953L625.685 9.62146L598.524 9.62146L598.183 0.509953L624.756 0.509953ZM569.875 0.594928L596.432 0.594928L596.742 9.72351L569.566 9.72351L569.875 0.594928ZM569.55 10.3184L596.758 10.3184L597.068 19.872L569.178 19.872L569.55 10.3184ZM569.225 20.5179L597.114 20.5179L597.455 30.5474L568.93 30.5474L569.225 20.5179ZM568.868 31.2444L597.439 31.2444L597.78 41.8009L568.527 41.8009L568.868 31.2444ZM568.496 42.4978L597.811 42.4978L598.168 53.5983L568.14 53.5983L568.496 42.4978ZM541.537 0.62896L568.125 0.62896L567.784 9.74047L540.607 9.74047L541.537 0.62896ZM567.768 10.3184L567.412 19.872L539.522 19.872L540.498 10.3015L567.768 10.3184ZM513.213 0.662939L539.786 0.662939L538.81 9.7745L511.648 9.7745L513.213 0.662939ZM538.748 10.3694L537.725 19.923L509.835 19.923L511.478 10.3694L538.748 10.3694ZM511.462 0.662939L509.913 9.79147L482.752 9.79147L484.952 0.679955L511.462 0.662939ZM483.155 0.662939L480.892 10.0635L453.716 10.0635L456.551 0.934932L483.155 0.662939ZM454.816 0.662939L451.949 9.79147L424.788 9.79147L428.212 1.01991L454.816 0.662939ZM426.508 0.662939L422.991 9.7745L395.829 9.7745L399.935 0.662939L426.508 0.662939ZM398.185 0.662939L394.048 9.79147L366.855 9.79147L371.597 0.662939L398.185 0.662939ZM369.846 0.662939L365.074 9.79147L337.912 9.79147L343.289 0.679955L369.846 0.662939ZM341.538 0.662939L336.13 9.7745L308.969 9.7745L314.965 0.645924L341.538 0.662939ZM286.642 0.662939L313.215 0.662939L307.172 9.79147L279.995 9.79147L286.642 0.662939ZM279.468 10.9644L306.692 10.9644L300.354 20.5349L272.465 20.5349L279.468 10.9644ZM272.047 21.1639L299.936 21.1639L293.289 31.1934H264.749L272.047 21.1639ZM264.299 31.8903L292.886 31.8903L285.883 42.4468L256.614 42.4468L264.299 31.8903ZM256.088 43.1608L285.418 43.1608L278.043 54.2782H248L256.088 43.1608ZM247.457 55.0602H277.547L269.8 66.7896H238.936L247.457 55.0602ZM238.347 67.5716H269.258L261.061 79.9469H229.345L238.347 67.5716ZM228.725 80.7799H260.503L251.827 93.8522H219.289L228.725 80.7799ZM218.561 94.7532H251.238L242.065 108.607H208.474L218.561 94.7532ZM207.792 109.559H241.43L231.7 124.264H197.086L207.792 109.559ZM196.373 125.25H231.033L220.59 140.838H184.954L196.373 125.25ZM184.226 141.943H219.986L208.923 158.602H172.078L184.226 141.943ZM171.288 159.707H208.211L196.451 177.454H158.381L171.288 159.707ZM157.498 178.661H195.66L183.095 197.632H143.693L157.498 178.661ZM142.748 198.941H182.227L168.747 219.34H127.951L142.748 198.941ZM126.944 220.666H167.833L153.361 242.51L111.031 242.51L126.944 220.666ZM109.9 244.006L152.323 244.006L136.736 267.532H92.7791L109.9 244.006ZM91.6015 269.096H135.667L118.809 294.595H73.1015L91.6015 269.096ZM71.8464 296.295H117.678L99.4106 323.834H51.7815L71.8464 296.295ZM50.4025 325.788H98.1555L78.3075 355.69H28.5867L50.4025 325.788ZM3.28476 390.538L27.0993 357.815H76.944L55.2522 390.538H3.28476ZM58.6764 390.453L80.2133 357.747H130.027L110.582 390.385L58.6764 390.453ZM114.053 390.453L133.312 357.73H183.126L165.989 390.453H114.053ZM169.413 390.453L186.457 357.73H236.302L221.443 390.436L169.413 390.453ZM224.82 390.453L239.524 357.492L289.354 357.492L276.772 390.198L224.82 390.453ZM280.181 390.453L292.576 357.747H342.39L332.148 390.096L280.181 390.453ZM335.557 390.368L345.721 357.662H395.566L387.54 390.368H335.557ZM390.964 390.368L398.851 357.662H448.665L442.916 390.368H390.964ZM446.34 390.368L451.949 357.662H501.779L498.292 389.79L446.34 390.368ZM553.715 389.79H501.732L505.063 357.101H554.924L553.715 389.79ZM555.001 355.044H505.28L508.379 325.091H556.148L555.001 355.044ZM508.518 323.273L511.338 295.734H557.17L556.148 323.255L508.518 323.273ZM557.108 389.79L558.177 357.084H608.007L609.076 389.79H557.108ZM609.014 295.598H654.83L657.65 323.12H610.036L609.014 295.598ZM610.098 325.023H657.836L660.935 354.959H611.245L610.098 325.023ZM612.5 389.79L611.291 357.101H661.105L664.452 389.79H612.5ZM667.876 389.79L664.39 357.101H714.25L719.859 389.79H667.876ZM723.283 389.79L717.519 357.101L767.349 357.101L775.282 389.484L723.283 389.79ZM778.659 389.79L770.633 356.795H820.462L830.627 389.484L778.659 389.79ZM834.051 389.79L823.732 357.101H873.592L885.987 389.79H834.051ZM889.458 389.79L876.877 357.118H926.706L941.425 389.79H889.458ZM944.85 389.79L929.991 357.118H979.82L996.864 389.79H944.85ZM1000.23 389.79L983.089 357.101H1032.95L1052.22 389.773L1000.23 389.79ZM1055.65 389.79L1036.23 357.118H1086.06L1107.62 389.79H1055.65ZM1089.35 357.05H1139.18L1163.01 389.722H1111.04L1089.35 357.05Z" fill="#B1B1B1"></path></g><defs><radialGradient id="paint0_angular_60_345" cx="0" cy="0" r="1" gradientUnits="userSpaceOnUse" gradientTransform="translate(583.157 195.749) scale(582.433 781.225)"><stop stop-color="#010E43"></stop><stop offset="0.0293297" stop-color="#061B6B"></stop><stop offset="0.0971067" stop-color="#032495"></stop><stop offset="0.30636" stop-color="#104ED3"></stop><stop offset="0.438695" stop-color="#005DE9"></stop><stop offset="0.776356" stop-color="#973CA5"></stop><stop offset="1" stop-color="#DC267F"></stop></radialGradient></defs></svg>