<svg xmlns="http://www.w3.org/2000/svg" width="46" height="46" viewBox="0 0 46 46" fill="none"><path fill-rule="evenodd" clip-rule="evenodd" d="M7.33258 38.8295C7.04702 38.5167 6.68477 38.284 6.28165 38.1542C5.84398 38.0106 5.37477 37.9928 4.92748 38.1029C4.4802 38.213 4.07282 38.4465 3.75179 38.7768C3.43075 39.1071 3.20895 39.521 3.11167 39.9712C3.01439 40.4215 3.04553 40.89 3.20156 41.3234C3.35758 41.7568 3.63221 42.1377 3.99415 42.4226C4.35609 42.7075 4.79079 42.885 5.24871 42.9349C5.70663 42.9848 6.16936 42.9051 6.58418 42.7048C6.99899 42.5045 7.34921 42.1918 7.59492 41.8021C8.37365 42.4673 9.19901 43.0758 10.0647 43.623C9.4101 44.5669 8.47761 45.2834 7.39692 45.6726C6.31622 46.0619 5.14107 46.1046 4.03496 45.7949C2.92885 45.4851 1.94678 44.8383 1.2254 43.9444C0.504019 43.0505 0.0791928 41.954 0.0100276 40.8075C-0.0591376 39.6609 0.230798 38.5213 0.839497 37.5471C1.4482 36.573 2.34539 35.8129 3.40624 35.3724C4.4671 34.9319 5.63887 34.8331 6.75852 35.0896C7.87817 35.3462 8.89002 35.9453 9.65329 36.8037C11.7379 38.8388 14.2653 40.3637 17.0377 41.2588C27.0206 44.4985 37.7534 39.0095 41.0102 28.9955C44.2669 18.9815 38.8105 8.24565 28.8307 5.00596C18.8508 1.76627 8.11339 7.25372 4.85818 17.2693C3.99842 19.9008 3.72302 22.6881 4.05118 25.437C4.37934 28.1859 5.30316 30.8301 6.75822 33.1852C5.41287 32.9058 4.27813 32.9788 3.35398 33.4041C1.99208 30.7941 1.16555 27.9382 0.922965 25.0043C0.68038 22.0703 1.02663 19.1175 1.94137 16.3193C5.72437 4.69394 18.1879 -1.68765 29.7807 2.08138C41.3734 5.85042 47.7069 18.3186 43.9332 29.9455C40.1595 41.5724 27.6881 47.9524 16.0939 44.1818C12.7932 43.1165 9.79289 41.2819 7.34034 38.8295H7.33258Z" fill="url(#paint0_linear_40_2134)"></path><defs><linearGradient id="paint0_linear_40_2134" x1="14.6744" y1="40.4559" x2="30.6532" y2="2.95463" gradientUnits="userSpaceOnUse"><stop stop-color="#68DEF1"></stop><stop offset="1" stop-color="#6026DC"></stop></linearGradient></defs></svg>