<svg xmlns="http://www.w3.org/2000/svg" width="213" height="35" viewBox="0 0 213 35" fill="none"><path fill-rule="evenodd" clip-rule="evenodd" d="M197.634 24.6579V10.0784H203.114C207.732 10.0784 210.924 13.2236 210.924 17.3277V17.3692C210.924 21.4723 207.732 24.6589 203.114 24.6589L197.634 24.6579ZM200.217 22.3205H203.114C206.199 22.3205 208.215 20.2585 208.215 17.4054V17.364C208.215 14.5109 206.199 12.4065 203.114 12.4065H200.217V22.3205ZM183.114 24.6537V10.0784H194.003V12.3692H185.689V16.1596H193.065V18.4504H185.696V22.366H194.107V24.6579L183.114 24.6537ZM174.361 24.8609C172.093 24.8854 169.901 24.051 168.231 22.5276L169.785 20.6945C171.212 21.9238 172.576 22.5908 174.423 22.5908C176.019 22.5908 177.031 21.8658 177.031 20.7577V20.7163C177.031 19.6952 176.442 19.0914 173.713 18.4876C170.585 17.7627 168.822 16.8006 168.822 14.138V14.0956C168.822 11.5966 170.921 9.86816 173.839 9.86816C176.001 9.86816 177.659 10.5134 179.172 11.7012L177.786 13.6378C176.442 12.6592 175.141 12.1382 173.798 12.1382C172.286 12.1382 171.399 12.888 171.399 13.8667V13.9081C171.399 15.0535 172.071 15.533 174.883 16.2C177.991 16.9912 179.607 18.032 179.607 20.4688V20.5102C179.604 23.2619 177.441 24.866 174.356 24.866L174.361 24.8609ZM162.249 24.6537V10.0784H164.831V24.6579L162.249 24.6537ZM150.746 24.7573L144.637 10.0743H147.491L151.916 21.2849L156.324 10.0794H159.117L153.008 24.7625L150.746 24.7573ZM130.258 24.6537V10.0784H136.807C138.655 10.0784 140.104 10.62 141.049 11.5365C141.825 12.3485 142.266 13.411 142.266 14.6807V14.7232C142.266 17.0968 140.817 18.5964 138.76 19.138L142.722 24.6579H139.678L136.068 19.575H132.835V24.6579L130.258 24.6537ZM132.84 17.3008H136.619C138.467 17.3008 139.643 16.3636 139.643 14.864V14.8226C139.643 13.2401 138.53 12.4065 136.599 12.4065H132.844L132.84 17.3008ZM115.737 24.6537V10.0784H126.632V12.3692H118.319V16.1596H125.687V18.4504H118.319V22.366H126.737V24.6579L115.737 24.6537ZM101.253 24.6537V10.0784H107.047C110.489 10.0784 112.631 12.015 112.631 14.952V14.9935C112.631 18.2422 110.007 19.9717 106.753 19.9717H103.833V24.6579L101.253 24.6537ZM103.825 17.6602H106.827C108.779 17.6602 109.996 16.578 109.996 15.0566V15.0152C109.996 13.2868 108.758 12.4116 106.827 12.4116H103.825V17.6602ZM90.9151 24.8878C87.1149 24.8878 84.6579 22.7005 84.6579 18.4731V10.0784H87.24V18.3634C87.24 21.0922 88.626 22.5286 90.9558 22.5286C93.2438 22.5286 94.6506 21.1544 94.6506 18.468V10.0784H97.2328V18.3468C97.2338 22.6995 94.757 24.8867 90.9151 24.8867V24.8878ZM76.1367 24.8671C73.8688 24.8913 71.6768 24.0566 70.0067 22.5328L71.5606 20.6997C72.9883 21.929 74.3523 22.5959 76.2003 22.5959C77.7959 22.5959 78.8074 21.871 78.8074 20.7629V20.7215C78.8074 19.7004 78.2193 19.0966 75.4901 18.4928C72.3615 17.7679 70.5991 16.8058 70.5991 14.1432V14.1007C70.5991 11.6018 72.6983 9.87334 75.6163 9.87334C77.7781 9.87334 79.4373 10.5185 80.9484 11.7064L79.5635 13.643C78.2193 12.6643 76.9178 12.1434 75.5746 12.1434C74.0624 12.1434 73.176 12.8932 73.176 13.8719V13.9133C73.176 15.0587 73.8476 15.5382 76.6612 16.2051C79.7679 16.9963 81.3844 18.0371 81.3844 20.474V20.5154C81.3854 23.2619 79.2225 24.866 76.1367 24.866V24.8671ZM53.9487 24.6599V10.0784H56.3473L64.2188 20.1591V10.0784H66.7592V24.6579H64.5922L56.4891 14.2851V24.6579L53.9487 24.6599ZM43.6244 24.8888C39.8242 24.8888 37.3672 22.7016 37.3672 18.4742V10.0784H39.9493V18.3634C39.9493 21.0922 41.3353 22.5286 43.665 22.5286C45.9531 22.5286 47.3599 21.1544 47.3599 18.468V10.0784H49.942V18.3468C49.9399 22.6995 47.4631 24.8867 43.6223 24.8867L43.6244 24.8888Z" fill="url(#paint0_angular_95_10381)"></path><path fill-rule="evenodd" clip-rule="evenodd" d="M7.25031 27.5466C7.05847 27.338 6.81511 27.1827 6.54429 27.0961C6.25026 27.0003 5.93504 26.9885 5.63455 27.0619C5.33406 27.1353 5.06038 27.2911 4.8447 27.5115C4.62903 27.7319 4.48002 28.008 4.41467 28.3083C4.34931 28.6087 4.37024 28.9213 4.47506 29.2104C4.57988 29.4996 4.76437 29.7537 5.00753 29.9438C5.25068 30.1338 5.54272 30.2523 5.85035 30.2856C6.15799 30.3189 6.46885 30.2657 6.74753 30.132C7.02621 29.9984 7.26148 29.7898 7.42656 29.5298C7.94972 29.9736 8.5042 30.3795 9.08575 30.7446C8.64601 31.3743 8.01956 31.8523 7.29354 32.112C6.56752 32.3717 5.77804 32.4002 5.03494 32.1935C4.29185 31.9869 3.63209 31.5554 3.14746 30.959C2.66282 30.3627 2.37742 29.6312 2.33096 28.8662C2.28449 28.1013 2.47927 27.341 2.8882 26.6911C3.29713 26.0413 3.89987 25.5341 4.61256 25.2403C5.32526 24.9464 6.11246 24.8805 6.86465 25.0516C7.61684 25.2228 8.29662 25.6225 8.80939 26.1951C10.2098 27.5529 11.9078 28.5702 13.7703 29.1674C20.4769 31.3287 27.6873 27.6667 29.8752 20.986C32.0632 14.3052 28.3975 7.14281 21.6929 4.98147C14.9884 2.82013 7.77487 6.48105 5.58799 13.1629C5.0104 14.9185 4.82538 16.778 5.04584 18.6119C5.2663 20.4458 5.88693 22.2099 6.86445 23.7811C5.96064 23.5947 5.1983 23.6434 4.57745 23.9271C3.66251 22.1859 3.10725 20.2806 2.94428 18.3232C2.7813 16.3659 3.01392 14.3959 3.62845 12.5291C6.16991 4.77331 14.5431 0.515871 22.3312 3.03036C30.1193 5.54485 34.3741 13.863 31.8389 21.6198C29.3037 29.3766 20.9254 33.633 13.1362 31.1174C10.9188 30.4067 8.90317 29.1828 7.25553 27.5466H7.25031Z" fill="url(#paint1_linear_95_10381)"></path><defs><radialGradient id="paint0_angular_95_10381" cx="0" cy="0" r="1" gradientUnits="userSpaceOnUse" gradientTransform="translate(124.145 17.3785) rotate(90) scale(7.51032 86.7782)"><stop stop-color="#312D33"></stop><stop offset="1" stop-color="#170028"></stop></radialGradient><linearGradient id="paint1_linear_95_10381" x1="12.1826" y1="28.6317" x2="22.7913" y2="3.55962" gradientUnits="userSpaceOnUse"><stop stop-color="#68DEF1"></stop><stop offset="1" stop-color="#6026DC"></stop></linearGradient></defs></svg>