<svg xmlns="http://www.w3.org/2000/svg" width="235" height="34" viewBox="0 0 235 34" fill="none"><path fill-rule="evenodd" clip-rule="evenodd" d="M219.652 25.3116V8.80058H225.814C231.008 8.80058 234.597 12.3625 234.597 17.0104V17.0573C234.597 21.704 231.008 25.3128 225.814 25.3128L219.652 25.3116ZM222.556 22.6646H225.814C229.284 22.6646 231.551 20.3295 231.551 17.0983V17.0514C231.551 13.8203 229.284 11.4371 225.814 11.4371H222.556V22.6646ZM203.322 25.3069V8.80058H215.568V11.3949H206.218V15.6874H214.513V18.2817H206.225V22.7162H215.685V25.3116L203.322 25.3069ZM193.478 25.5415C190.928 25.5693 188.463 24.6244 186.584 22.8991L188.332 20.8232C189.937 22.2154 191.471 22.9707 193.548 22.9707C195.343 22.9707 196.48 22.1497 196.48 20.8948V20.8479C196.48 19.6914 195.819 19.0077 192.75 18.3239C189.231 17.5029 187.249 16.4134 187.249 13.3981V13.35C187.249 10.5199 189.61 8.5625 192.892 8.5625C195.323 8.5625 197.188 9.29317 198.888 10.6384L197.33 12.8316C195.819 11.7233 194.355 11.1333 192.845 11.1333C191.144 11.1333 190.147 11.9825 190.147 13.0908V13.1377C190.147 14.4348 190.903 14.9779 194.066 15.7332C197.561 16.6292 199.379 17.8079 199.379 20.5675V20.6145C199.375 23.7307 196.943 25.5474 193.472 25.5474L193.478 25.5415ZM179.857 25.3069V8.80058H182.761V25.3116L179.857 25.3069ZM166.921 25.4242L160.05 8.79589H163.26L168.236 21.4917L173.194 8.80175H176.335L169.464 25.4301L166.921 25.4242ZM143.879 25.3069V8.80058H151.245C153.323 8.80058 154.952 9.41397 156.014 10.4519C156.887 11.3714 157.383 12.5747 157.383 14.0126V14.0607C157.383 16.7488 155.754 18.4471 153.44 19.0605L157.897 25.3116H154.473L150.413 19.5554H146.777V25.3116L143.879 25.3069ZM146.783 16.9799H151.032C153.111 16.9799 154.433 15.9185 154.433 14.2202V14.1733C154.433 12.3812 153.182 11.4371 151.01 11.4371H146.788L146.783 16.9799ZM127.549 25.3069V8.80058H139.801V11.3949H130.453V15.6874H138.739V18.2817H130.453V22.7162H139.92V25.3116L127.549 25.3069ZM111.259 25.3069V8.80058H117.776C121.646 8.80058 124.055 10.9938 124.055 14.3199V14.3668C124.055 18.046 121.104 20.0046 117.445 20.0046H114.161V25.3116L111.259 25.3069ZM114.152 17.3868H117.528C119.724 17.3868 121.092 16.1612 121.092 14.4384V14.3914C121.092 12.434 119.7 11.443 117.528 11.443H114.152V17.3868ZM99.6332 25.572C95.3594 25.572 92.5962 23.095 92.5962 18.3075V8.80058H95.5002V18.1832C95.5002 21.2736 97.0588 22.9003 99.6789 22.9003C102.252 22.9003 103.834 21.344 103.834 18.3016V8.80058H106.738V18.1644C106.739 23.0938 103.954 25.5708 99.6332 25.5708V25.572ZM83.0131 25.5485C80.4626 25.576 77.9975 24.6307 76.1192 22.905L77.8667 20.8291C79.4723 22.2212 81.0064 22.9765 83.0846 22.9765C84.8791 22.9765 86.0167 22.1556 86.0167 20.9006V20.8537C86.0167 19.6973 85.3552 19.0135 82.2859 18.3298C78.7675 17.5088 76.7854 16.4193 76.7854 13.4039V13.3558C76.7854 10.5258 79.1463 8.56836 82.4278 8.56836C84.8591 8.56836 86.7251 9.29903 88.4245 10.6443L86.867 12.8375C85.3552 11.7291 83.8915 11.1392 82.3809 11.1392C80.6803 11.1392 79.6834 11.9883 79.6834 13.0966V13.1436C79.6834 14.4407 80.4387 14.9837 83.603 15.739C87.0969 16.6351 88.9147 17.8137 88.9147 20.5734V20.6203C88.9159 23.7307 86.4835 25.5474 83.0131 25.5474V25.5485ZM58.06 25.314V8.80058H60.7575L69.61 20.2169V8.80058H72.467V25.3116H70.0299L60.917 13.5646V25.3116L58.06 25.314ZM46.4491 25.5732C42.1753 25.5732 39.4121 23.0962 39.4121 18.3087V8.80058H42.316V18.1832C42.316 21.2736 43.8747 22.9003 46.4948 22.9003C49.068 22.9003 50.6501 21.344 50.6501 18.3016V8.80058H53.554V18.1644C53.5517 23.0938 50.7662 25.5708 46.4467 25.5708L46.4491 25.5732Z" fill="white"></path><path fill-rule="evenodd" clip-rule="evenodd" d="M5.53999 28.5828C5.32424 28.3465 5.05055 28.1707 4.74598 28.0726C4.41531 27.9641 4.0608 27.9507 3.72287 28.0339C3.38493 28.117 3.07715 28.2935 2.83459 28.543C2.59204 28.7926 2.42446 29.1053 2.35096 29.4454C2.27746 29.7856 2.301 30.1396 2.41888 30.467C2.53676 30.7945 2.74425 31.0823 3.01771 31.2975C3.29116 31.5128 3.61959 31.6469 3.96556 31.6846C4.31154 31.7223 4.66114 31.6621 4.97455 31.5108C5.28795 31.3594 5.55255 31.1231 5.7382 30.8288C6.32655 31.3313 6.95014 31.791 7.60416 32.2045C7.10962 32.9176 6.4051 33.4589 5.5886 33.753C4.7721 34.0471 3.88424 34.0794 3.04854 33.8454C2.21284 33.6114 1.47086 33.1227 0.925829 32.4473C0.380802 31.772 0.0598326 30.9435 0.00757614 30.0772C-0.0446803 29.211 0.174375 28.35 0.634266 27.614C1.09416 26.878 1.77201 26.3037 2.57352 25.9709C3.37503 25.6381 4.26034 25.5634 5.10627 25.7572C5.9522 25.9511 6.71668 26.4037 7.29336 27.0523C8.86833 28.5899 10.7779 29.7419 12.8725 30.4183C20.4149 32.866 28.5239 28.7188 30.9844 21.1529C33.445 13.587 29.3226 5.47579 21.7825 3.0281C14.2424 0.580414 6.12992 4.72635 3.6705 12.2934C3.02093 14.2816 2.81286 16.3875 3.06079 18.4644C3.30873 20.5412 4.0067 22.539 5.10604 24.3184C4.08959 24.1073 3.23226 24.1624 2.53404 24.4838C1.50507 22.5118 0.880609 20.3541 0.697329 18.1375C0.514048 15.9208 0.77565 13.6898 1.46676 11.5757C4.32494 2.79236 13.7416 -2.02913 22.5002 0.818494C31.2589 3.66612 36.044 13.0863 33.1929 21.8707C30.3417 30.6552 20.9193 35.4755 12.1594 32.6267C9.66563 31.8218 7.39883 30.4357 5.54585 28.5828H5.53999Z" fill="white"></path></svg>