<svg xmlns="http://www.w3.org/2000/svg" width="208" height="30" viewBox="0 0 208 30" fill="none"><g clip-path="url(#clip0_8_243)"><path d="M41.6277 24.3739V24.9304V24.9999L44.2207 25.6956C44.7113 25.8347 45.1318 26.3217 45.0617 26.8782V27.5043C45.0617 27.713 44.9916 27.9216 44.8514 28.1303C44.6412 28.4086 44.3609 28.6869 44.0806 28.8956C43.8703 29.0347 43.6601 29.1042 43.3797 29.1042H41.7679C41.2072 29.0347 40.7167 28.6869 40.4363 28.1999C40.2962 27.9912 40.156 27.7825 40.0859 27.5738L41.2773 27.226C41.4175 27.5043 41.5576 27.713 41.838 27.9216H43.4498C43.59 27.8521 43.7301 27.713 43.8002 27.5738V26.8782C43.8002 26.8086 43.8002 26.8086 43.8002 26.8086C42.9593 26.5999 42.0482 26.3217 41.2072 26.113C40.6466 25.9738 40.2962 25.4869 40.3663 24.9304V24.3739C40.3663 24.1652 40.4363 23.9565 40.5064 23.7478C40.7167 23.4695 40.997 23.1913 41.2773 22.9826C41.4876 22.8434 41.6978 22.7739 41.9781 22.7739H43.4498C44.0105 22.8434 44.501 23.1913 44.7814 23.6086C44.9215 23.8173 45.0617 24.026 45.1318 24.2347L43.9404 24.5825C43.8002 24.3043 43.6601 24.0956 43.3797 23.9565H41.9781C41.838 24.0956 41.6978 24.2347 41.6277 24.3739Z" fill="white"></path><path d="M49.4061 24.0258V28.9649H48.0745V24.0258H46.3926V22.8432H51.0179V24.0258H49.4061Z" fill="white"></path><path d="M54.8032 24.6521C54.593 25.2782 54.3127 25.9738 54.1024 26.5999H55.504L54.8032 24.6521ZM56.345 28.9651L55.9245 27.7825H53.752C53.6119 28.1303 53.4717 28.5477 53.3315 28.9651H52L54.1725 22.7739H55.5741L57.7466 28.9651H56.345Z" fill="white"></path><path d="M62.8624 28.9648L60.9001 25.3475V28.9648H59.6387V22.8431H60.9001L62.8624 26.5301V22.8431H64.1239V28.9648H62.8624Z" fill="white"></path><path d="M66.6465 28.9649V22.8432H67.9079V27.7823H70.6411V28.9649H66.6465Z" fill="white"></path><path d="M72.5332 28.9649V22.8432H76.5979V24.0258H73.7947V25.278H76.5278V26.5301H73.7947V27.7823H76.5979V28.9649H72.5332Z" fill="white"></path><path d="M81.7838 26.3214V28.9649H80.5223V26.3214L78.4199 22.8432H79.8215L81.1531 24.9997L82.4846 22.8432H83.8862L81.7838 26.3214Z" fill="white"></path><path d="M93.0675 26.8086C93.0675 26.7391 93.0675 26.7391 93.0675 26.7391C92.9274 26.5304 92.7872 26.3913 92.647 26.3217H92.577H90.4745V28.2695H92.5069C92.7171 28.2695 92.9974 27.9912 93.0675 27.7826V27.713V26.8086ZM93.0675 24.2348C93.0675 24.1652 93.0675 24.1652 93.0675 24.1652C92.9974 24.0261 92.7171 23.6782 92.5069 23.6782H90.4745V25.4869H92.577C92.7872 25.4869 93.0675 25.2087 93.1376 25.0695C93.1376 25 93.1376 25 93.1376 24.9304V24.2348H93.0675ZM93.7683 28.2695C93.6282 28.4782 93.4179 28.6869 93.2077 28.826C92.9974 28.9651 92.7872 29.0347 92.5069 29.0347H89.5635V22.913H92.5069C92.7872 22.913 92.9974 22.9826 93.2077 23.1217C93.4179 23.2608 93.6282 23.4695 93.7683 23.6782C93.9085 23.8869 93.9085 24.0956 93.9085 24.3043V25.0695C93.9085 25.4174 93.6982 25.7652 93.4179 25.9739C93.6982 26.1826 93.9085 26.5304 93.9085 26.8782V27.713C93.9085 27.8521 93.9085 28.0608 93.7683 28.2695Z" fill="white"></path><path d="M99.9347 24.2347C99.9347 24.1652 99.9347 24.1652 99.9347 24.0956C99.8646 23.9565 99.5843 23.6782 99.4441 23.6782H97.3417V25.6956H99.3741C99.5843 25.626 99.7945 25.4869 99.9347 25.2782C99.9347 25.2086 99.9347 25.2086 99.9347 25.1391V24.2347ZM100.145 28.9651L98.6732 26.3912H97.2716V28.9651H96.4307V22.7739H99.3741C99.6544 22.7739 99.8646 22.8434 100.075 22.9826C100.285 23.1217 100.495 23.3304 100.636 23.5391C100.776 23.7478 100.846 23.8869 100.846 24.0956V24.9999C100.846 25.2086 100.776 25.4173 100.636 25.5565C100.495 25.7651 100.285 25.9738 100.075 26.113C99.9347 26.1825 99.7945 26.2521 99.5843 26.3217L101.126 28.8956L100.145 28.9651Z" fill="white"></path><path d="M106.873 24.2347V24.1652C106.733 23.9565 106.523 23.7478 106.312 23.6086H106.242H104.7H104.63C104.49 23.6782 104 24.0956 104 24.2347V27.5738C104 27.713 104.42 28.1303 104.63 28.1999H104.7H106.242H106.312C106.453 28.1303 106.873 27.713 106.873 27.5738V24.2347ZM107.504 28.1303C107.293 28.4086 107.013 28.6173 106.733 28.826C106.523 28.8956 106.312 28.9651 106.102 28.9651H104.49C104.28 28.9651 104.07 28.8956 103.93 28.826C103.649 28.6173 103.369 28.4086 103.159 28.1303C103.089 27.9912 103.019 27.7825 103.019 27.5738V24.1652C103.019 23.9565 103.089 23.8173 103.159 23.6086C103.369 23.3304 103.649 23.0521 103.93 22.913C104.14 22.8434 104.28 22.7739 104.49 22.7739H106.102C106.312 22.7739 106.523 22.8434 106.733 22.9826C107.013 23.1913 107.293 23.4695 107.504 23.6782C107.644 23.8173 107.644 24.026 107.644 24.2347V27.6434C107.714 27.7825 107.644 27.9912 107.504 28.1303Z" fill="white"></path><path d="M112.199 23.6084V28.9649H111.358V23.6084H109.606V22.8432H114.022V23.6084H112.199Z" fill="white"></path><path d="M119.838 28.9648V26.3214H117.175V28.9648H116.334V22.8431H117.175V25.4866H119.838V22.8431H120.679V28.9648H119.838Z" fill="white"></path><path d="M123.412 28.9649V22.8432H127.267V23.6084H124.253V25.4867H127.056V26.3214H124.253V28.1997H127.267V29.0345L123.412 28.9649Z" fill="white"></path><path d="M133.364 24.2344C133.364 24.1649 133.364 24.1649 133.364 24.0953C133.294 23.9562 133.013 23.6779 132.873 23.6779H132.803H130.771V25.6953H132.803C133.013 25.6257 133.223 25.4866 133.364 25.2779C133.364 25.2083 133.364 25.2083 133.364 25.1388V24.2344ZM133.644 29.0344L132.172 26.4605H130.771V29.0344H129.93V22.8431H132.873C133.153 22.8431 133.364 22.9127 133.574 23.0518C133.784 23.191 133.994 23.3997 134.135 23.6083C134.275 23.817 134.345 23.9562 134.345 24.1649V25.0692C134.345 25.2779 134.275 25.4866 134.135 25.6257C133.994 25.8344 133.784 26.0431 133.574 26.1822C133.434 26.2518 133.294 26.3214 133.083 26.3909L134.625 28.9648L133.644 29.0344Z" fill="white"></path><path d="M141.212 28.13C141.002 28.4083 140.722 28.617 140.441 28.8257C140.231 28.8952 140.091 28.9648 139.881 28.9648H138.129C137.568 28.8952 137.148 28.617 136.867 28.13C136.727 27.9909 136.657 27.7822 136.587 27.5735L137.428 27.3648L137.498 27.5735C137.638 27.7822 137.848 27.9909 138.059 28.13H138.129H139.811H139.881C140.021 28.0605 140.511 27.7126 140.511 27.5039V26.8779C140.511 26.7387 140.441 26.5996 140.301 26.53L137.498 25.8344C137.077 25.6953 136.727 25.2779 136.797 24.7909V24.1648C136.797 23.9561 136.867 23.817 136.937 23.6083C137.148 23.3301 137.428 23.0518 137.708 22.9127C137.918 22.8431 138.059 22.7735 138.269 22.704H139.811C140.371 22.7735 140.792 23.0518 141.072 23.5388C141.212 23.6779 141.282 23.8866 141.352 24.0953L140.511 24.304C140.441 24.1648 140.441 24.0953 140.441 24.0953C140.301 23.8866 140.091 23.6779 139.881 23.5388H139.811H138.339H138.269C138.129 23.6083 137.638 24.0257 137.638 24.1648V24.7214C137.638 24.8605 137.708 24.9996 137.848 25.0692L140.652 25.8344C141.072 25.9735 141.422 26.3909 141.422 26.8779V27.5735C141.352 27.7822 141.282 27.9909 141.212 28.13Z" fill="white"></path><path d="M48.4957 14.9127C47.865 15.6779 46.9539 16.6518 45.8326 16.6518H42.9593C42.5388 16.6518 42.1183 16.5127 41.6978 16.304C41.1372 15.8866 40.5766 15.3997 40.1561 14.7736C39.9458 14.4258 39.8057 14.0084 39.8057 13.6605V6.56495C39.8057 6.14756 39.8757 5.79974 40.1561 5.45191C40.5766 4.8954 41.1372 4.33888 41.6978 3.92149C42.0483 3.7128 42.4687 3.57367 42.9593 3.57367H45.8326C46.9539 3.57367 47.935 4.54757 48.4957 5.31279C48.7059 5.66061 48.9162 6.00843 49.1264 6.42582L47.3744 6.91277C47.0941 6.21713 46.6035 5.66061 45.9027 5.24322C45.8326 5.24322 45.7625 5.24322 45.7625 5.24322H43.0294C42.9593 5.24322 42.8892 5.24322 42.8191 5.31279C42.3286 5.59104 41.9081 6.00843 41.6278 6.49538C41.5577 6.56495 41.5577 6.70408 41.5577 6.77364V13.7301C41.5577 14.0779 42.4687 14.8431 42.8191 15.0518C42.8892 15.0518 42.9593 15.1214 43.0294 15.1214H45.7625C45.8326 15.1214 45.9027 15.1214 45.9728 15.0518C46.6035 14.704 47.0941 14.1475 47.3744 13.4518L49.1264 13.9388C48.9863 14.2171 48.776 14.6344 48.4957 14.9127Z" fill="white"></path><path d="M58.5878 16.5825V10.9478H52.9112V16.5825H51.1592V3.64349H52.9112V9.27823H58.5878V3.64349H60.3398V16.5825H58.5878Z" fill="white"></path><path d="M72.2527 16.582L71.2715 13.6603H65.595L64.6139 16.582H62.7217L67.2769 3.64301H69.6597L74.2149 16.582H72.2527ZM68.3982 5.45169L66.1556 12.0603H70.7109L68.3982 5.45169Z" fill="white"></path><path d="M84.3071 16.582L81.2235 11.156H78.21V16.582H76.458V3.64301H82.6251C83.1157 3.64301 83.6763 3.78213 84.0968 4.12996C84.5173 4.47778 84.9378 4.8256 85.2181 5.24299C85.4284 5.59082 85.5685 6.0082 85.5685 6.49516V8.44297C85.5685 8.86035 85.4284 9.27774 85.2181 9.62557C84.8677 10.043 84.5173 10.4603 84.0968 10.7386C83.8165 10.9473 83.4661 11.0864 83.1157 11.156L86.2693 16.582H84.3071ZM83.8165 6.49516C83.8165 6.42559 83.8165 6.35603 83.8165 6.28646C83.6763 6.0082 83.0456 5.31256 82.6952 5.31256H78.21V9.48644H82.555C83.0456 9.34731 83.4661 8.99948 83.7464 8.5821C83.7464 8.51253 83.7464 8.44297 83.7464 8.3734V6.49516H83.8165Z" fill="white"></path><path d="M89.0723 16.5825V3.64349H90.8243V14.913H96.9213V16.5825H89.0723Z" fill="white"></path><path d="M108.274 14.8431C107.854 15.3997 107.293 15.9562 106.733 16.3736C106.312 16.5823 105.892 16.7214 105.471 16.7214H102.037C101.617 16.7214 101.196 16.5823 100.776 16.3736C100.145 15.9562 99.6544 15.4692 99.1638 14.8431C98.9535 14.4953 98.8134 14.0779 98.8835 13.7301V6.56495C98.8835 6.14756 98.9535 5.73017 99.1638 5.45191C99.5843 4.8954 100.145 4.33888 100.776 3.92149C101.126 3.7128 101.547 3.57367 102.037 3.57367H105.471C105.892 3.57367 106.312 3.7128 106.733 3.92149C107.293 4.33888 107.854 4.8954 108.274 5.45191C108.485 5.79974 108.625 6.21713 108.625 6.56495V13.6605C108.625 14.0779 108.485 14.4953 108.274 14.8431ZM106.803 6.56495C106.803 6.49538 106.803 6.42582 106.733 6.35625C106.452 5.8693 106.032 5.45191 105.541 5.17366C105.471 5.17366 105.401 5.10409 105.331 5.10409H102.037C101.967 5.10409 101.897 5.10409 101.827 5.17366C101.476 5.31279 100.565 6.14756 100.565 6.56495V13.6605C100.565 14.0084 101.476 14.8431 101.827 14.9823C101.897 14.9823 101.967 15.0518 102.037 15.0518H105.331C105.401 15.0518 105.471 15.0518 105.541 14.9823C105.892 14.8431 106.803 14.0084 106.803 13.6605V6.56495Z" fill="white"></path><path d="M116.054 5.31305V16.5825H114.232V5.31305H110.518V3.64349H119.768V5.31305H116.054Z" fill="white"></path><path d="M126.987 5.31305V16.5825H125.235V5.31305H121.521V3.64349H130.701V5.31305H126.987Z" fill="white"></path><path d="M133.083 16.582V3.64301H141.072V5.31256H134.835V9.27774H140.722V10.9473H134.835V14.9125H141.072V16.582H133.083Z" fill="white"></path><path d="M144.788 2.25189H146.68L144.928 5.93882L143.316 5.45187L144.788 2.25189Z" fill="white"></path><path d="M157.752 14.8431C157.331 15.3997 156.771 15.9562 156.14 16.3736C155.789 16.5823 155.369 16.7214 154.878 16.7214H151.234C150.113 16.7214 149.132 15.7475 148.501 14.9823C148.291 14.6344 148.081 14.2171 147.94 13.8692L149.692 13.3823C149.763 13.5214 149.903 13.7997 149.903 13.7997C150.183 14.2866 150.674 14.704 151.164 14.9823C151.234 14.9823 151.304 15.0518 151.374 15.0518H154.878C154.949 15.0518 155.019 15.0518 155.019 14.9823C155.369 14.8431 156.28 14.0084 156.28 13.6605V12.3388C156.28 11.991 156.07 11.7127 155.789 11.5736L149.903 10.0432C148.922 9.76492 148.291 8.86058 148.361 7.81711V6.56495C148.361 6.14756 148.431 5.73017 148.641 5.45191C149.062 4.8954 149.622 4.33888 150.253 3.92149C150.603 3.7128 151.024 3.57367 151.515 3.57367H154.738C155.86 3.57367 156.841 4.54757 157.401 5.31279C157.612 5.66061 157.822 6.00843 158.032 6.42582L156.28 6.91277C156.14 6.56495 156.07 6.49538 156.07 6.49538C155.789 6.00843 155.369 5.59104 154.808 5.31279C154.738 5.31279 154.738 5.31279 154.668 5.31279H151.655C151.585 5.31279 151.515 5.31279 151.444 5.38235C151.094 5.52148 150.183 6.35625 150.183 6.70408V7.95624C150.183 8.2345 150.393 8.51276 150.674 8.65189L156.56 10.1823C157.542 10.4606 158.172 11.3649 158.172 12.3388V13.6605C158.102 14.0779 157.962 14.4953 157.752 14.8431Z" fill="white"></path><path d="M176.954 16.5825H174.711L172.399 6.49564L170.016 16.5825H167.773L164.76 3.64349H166.652L168.895 14.2173L171.347 3.64349H173.38L175.833 14.2173L178.075 3.64349H179.967L176.954 16.5825Z" fill="white"></path><path d="M181.859 16.582V3.64301H189.919V5.31256H183.681V9.27774H189.568V10.9473H183.681V14.9125H189.919V16.582H181.859Z" fill="white"></path><path d="M201.762 14.982C201.412 15.3994 201.061 15.8168 200.641 16.0951C200.22 16.3733 199.73 16.5125 199.169 16.582H193.002V3.64301H199.169C199.66 3.64301 200.22 3.8517 200.641 4.12996C201.061 4.47778 201.482 4.8256 201.762 5.24299C201.972 5.59082 202.112 6.07777 202.112 6.49516V8.09514C202.112 8.86035 201.692 9.62557 201.061 10.043C201.692 10.4603 202.112 11.2256 202.112 11.9908V13.7994C202.112 14.2168 201.972 14.6342 201.762 14.982ZM200.36 6.49516C200.36 6.42559 200.36 6.35603 200.29 6.28646C200.15 6.0082 199.519 5.31256 199.169 5.31256H194.824V9.20818H199.169C199.59 9.20818 200.15 8.5821 200.29 8.23427C200.29 8.16471 200.36 8.09514 200.36 8.02558V6.49516ZM200.36 11.9908C200.36 11.9212 200.36 11.8516 200.29 11.7821C200.08 11.4342 199.73 11.0864 199.379 10.8777C199.309 10.8777 199.239 10.8777 199.169 10.8777H194.824V14.9125H199.169C199.59 14.9125 200.15 14.2864 200.29 13.9386C200.29 13.869 200.36 13.7994 200.36 13.7299V11.9908Z" fill="white"></path><path d="M26.5606 6.07804L14.717 0.443298L2.9434 6.07804L0 18.8084L8.19946 28.9648H14.717H21.3046L29.504 18.8084L26.5606 6.07804ZM27.0512 12.6867L24.0377 16.6519C23.8976 16.8606 23.6173 16.8606 23.2668 16.5823C23.2668 16.5823 22.3558 15.8171 21.4447 15.191C20.7439 14.7736 20.0431 14.4954 19.2022 14.3562C19.8329 13.9388 20.3935 13.3128 20.814 12.6867C21.3747 11.7823 21.8652 10.6693 21.8652 10.6693C22.0755 10.3215 22.2857 10.1823 22.496 10.3215L27.0512 12.6867ZM14.4367 8.16498C14.5067 7.95628 14.6469 7.74759 14.717 7.60846C14.7871 7.81715 14.8571 7.95628 14.9973 8.16498C16.1186 10.0432 16.0485 12.478 14.717 14.2867C13.4555 12.478 13.3154 10.0432 14.4367 8.16498ZM13.5957 15.7475C12.124 17.4171 9.81132 18.0432 7.63881 17.4171C7.42857 17.3475 7.21833 17.3475 7.00809 17.2779C7.21833 17.1388 7.35849 16.9997 7.56873 16.8606C9.11051 15.3301 11.4933 14.8432 13.5957 15.7475ZM8.83019 11.1563C8.76011 10.9476 8.61995 10.7389 8.54987 10.5302C8.76011 10.5997 8.97035 10.6693 9.18059 10.6693C11.4232 11.0171 13.2453 12.5475 13.8059 14.7041C11.5633 14.6345 9.60108 13.1736 8.83019 11.1563ZM11.283 21.9388C11.0728 19.7127 12.2642 17.6258 14.2264 16.5823C14.6469 18.7388 13.6658 20.9649 11.7736 22.217C11.5633 22.3562 11.4232 22.4953 11.283 22.6344C11.283 22.3562 11.283 22.1475 11.283 21.9388ZM20.3235 10.6693C20.5337 10.5997 20.7439 10.5997 20.9542 10.5302C20.8841 10.7389 20.7439 10.9476 20.6739 11.1563C19.903 13.2432 17.9407 14.6345 15.6981 14.7736C16.2588 12.6171 18.0809 11.0171 20.3235 10.6693ZM15.2776 16.5127C17.2399 17.5562 18.3612 19.7127 18.221 21.8692C18.221 22.0779 18.221 22.3562 18.221 22.5649C18.0809 22.4257 17.8706 22.2866 17.7305 22.1475C15.8383 20.9649 14.8571 18.7388 15.2776 16.5127ZM15.9084 15.7475C17.9407 14.9127 20.3235 15.3301 22.0054 16.8606C22.2156 16.9997 22.3558 17.1388 22.566 17.2779C22.3558 17.3475 22.1456 17.3475 21.9353 17.4171C19.6927 18.0432 17.3801 17.4171 15.9084 15.7475ZM25.7197 6.77368L26.7709 11.4345L22.566 9.27801L21.3747 4.68674L25.7197 6.77368ZM20.2534 4.19979L21.5148 8.99975C21.5849 9.27801 21.3747 9.4867 21.0243 9.55627C21.0243 9.55627 19.8329 9.83453 18.8518 10.1128C18.0809 10.391 17.3801 10.7389 16.8194 11.2954C16.8895 10.5302 16.7493 9.6954 16.469 8.99975C16.0485 8.02585 15.558 6.91281 15.558 6.91281C15.4178 6.56499 15.4879 6.28673 15.6981 6.1476L20.2534 4.19979ZM14.717 1.48677L19.062 3.57371L14.717 5.52152L10.372 3.57371L14.717 1.48677ZM9.32076 4.13022L13.876 6.1476C14.0863 6.28673 14.1563 6.49542 14.0162 6.91281C14.0162 6.91281 13.4555 8.02585 13.1051 8.99975C12.8248 9.76496 12.7547 10.5302 12.7547 11.2954C12.1941 10.7389 11.4933 10.3215 10.7224 10.1128C9.67116 9.83453 8.54987 9.55627 8.54987 9.55627C8.19946 9.4867 7.98922 9.27801 8.0593 8.99975L9.32076 4.13022ZM3.78437 6.77368L8.12938 4.75631L6.93801 9.34757L2.73315 11.5041L3.78437 6.77368ZM2.45283 12.6171L6.86792 10.3215C7.07817 10.1823 7.35849 10.3215 7.49865 10.6693C7.49865 10.6693 7.98922 11.7823 8.54987 12.6867C8.97035 13.3823 9.531 13.9388 10.1617 14.3562C9.39084 14.4954 8.61995 14.7736 7.91914 15.191C7.00809 15.8171 6.09703 16.5823 6.09703 16.5823C5.74663 16.791 5.53639 16.791 5.32615 16.6519L2.45283 12.6171ZM1.05121 18.5301L2.17251 13.8693L5.04582 17.6258L4.13477 22.217L1.05121 18.5301ZM4.83558 23.2605L5.81671 18.391C5.88679 18.1127 6.09704 18.0432 6.51752 18.1127C6.51752 18.1127 7.7089 18.391 8.76011 18.5301C9.531 18.5997 10.372 18.5301 11.1429 18.3214C10.7224 19.0171 10.5121 19.7823 10.442 20.5475C10.372 21.591 10.372 22.7736 10.372 22.7736C10.372 23.1909 10.1617 23.3996 9.95148 23.3996L4.83558 23.2605ZM8.61995 28.0605L5.67655 24.304L10.442 24.4431L13.5256 28.0605H8.61995ZM14.717 27.9909L11.4933 24.2344C11.3531 24.0257 11.4232 23.7475 11.7035 23.5388C11.7035 23.5388 12.6846 22.7736 13.4555 22.0779C14.0162 21.5214 14.5067 20.8953 14.7871 20.1301C15.0674 20.8953 15.4879 21.5214 16.1186 22.0779C16.8895 22.7736 17.8706 23.5388 17.8706 23.5388C18.1509 23.817 18.221 24.0257 18.0809 24.2344L14.717 27.9909ZM20.8841 27.9909L16.0485 27.9213L19.1321 24.304L23.8976 24.1648L20.8841 27.9909ZM24.5984 23.2605L19.6226 23.3996C19.3423 23.3996 19.2022 23.1909 19.2022 22.7736C19.2022 22.7736 19.2022 21.591 19.1321 20.5475C19.062 19.7823 18.7817 19.0171 18.4313 18.3214C19.2022 18.5301 19.973 18.5997 20.814 18.5301C21.8652 18.391 23.0566 18.1127 23.0566 18.1127C23.4771 18.0432 23.6873 18.1823 23.7574 18.391L24.5984 23.2605ZM24.4582 17.6953L27.3315 13.9388L28.4528 18.5997L25.3693 22.2866L24.4582 17.6953Z" fill="white"></path><path d="M204.916 3.99132V5.93913H204.496V3.99132H203.865V3.64349H205.547V3.99132H204.916Z" fill="white"></path><path d="M207.649 5.93864V4.33865L207.158 5.31256H206.878L206.458 4.33865V5.93864H206.037V3.64301H206.458L207.018 4.75604L207.579 3.64301H207.999V5.93864H207.649Z" fill="white"></path></g><defs><clipPath id="clip0_8_243"><rect width="208" height="28.5911" fill="white" transform="translate(0 0.443359)"></rect></clipPath></defs></svg>