<svg xmlns="http://www.w3.org/2000/svg" width="272" height="302" viewBox="0 0 272 302" fill="none"><g opacity="0.2"><path d="M108.764 135.439L99.872 48.456C99.4945 44.7703 96.4212 43.1896 90.5306 44.4496C88.5977 44.863 86.4595 45.5613 84.1658 46.5094L108.764 135.439Z" fill="#6026DC" fill-opacity="0.75"></path><path d="M108.764 135.442L84.1661 46.5116C81.1608 47.7532 77.8835 49.4277 74.4575 51.4424L108.764 135.442Z" fill="#6026DC" fill-opacity="0.6"></path><path d="M108.763 135.442L74.4564 51.4427C71.3894 53.2473 68.1952 55.3314 64.9533 57.6356L108.763 135.442Z" fill="#6026DC" fill-opacity="0.4"></path><path d="M108.763 135.441L64.9545 57.6361C61.5478 60.0587 58.089 62.726 54.6668 65.5704L108.763 135.441Z" fill="#6026DC" fill-opacity="0.3"></path><path d="M108.765 135.44L54.6717 65.5726C51.8195 67.9454 48.9923 70.4396 46.2459 73.0224L108.765 135.44Z" fill="#6026DC" fill-opacity="0.2"></path><path d="M108.763 135.441L46.2408 73.0198C41.9451 77.0403 37.8658 81.2859 34.0201 85.7389C31.4101 88.7509 28.9627 91.9001 26.6884 95.173L108.763 135.441Z" fill="#6026DC" fill-opacity="0.15"></path><path d="M108.763 135.441L26.6884 95.173C23.8415 99.3131 21.8495 103 20.7342 106.097L108.763 135.441Z" fill="#6026DC" fill-opacity="0.4"></path><path d="M108.763 135.441L20.7363 106.095C19.9555 108.268 19.6064 110.148 19.7 111.686L108.763 135.441Z" fill="#6026DC" fill-opacity="0.5"></path><path d="M108.763 135.441L19.7001 111.686C19.7875 113.14 20.2695 114.288 21.1523 115.091L108.763 135.441Z" fill="#6026DC" fill-opacity="0.7"></path><path d="M108.763 135.441L21.1523 115.091C21.8115 115.664 22.6092 116.055 23.4661 116.224L108.763 135.441Z" fill="#6026DC" fill-opacity="0.8"></path><g opacity="0.3"><path d="M108.764 135.439L99.872 48.456C99.4945 44.7703 96.4212 43.1896 90.5306 44.4496C88.5977 44.863 86.4595 45.5613 84.1658 46.5094L108.764 135.439Z" fill="#6026DC" fill-opacity="0.75"></path><path d="M108.764 135.442L84.1661 46.5116C81.1608 47.7532 77.8835 49.4277 74.4575 51.4424L108.764 135.442Z" fill="#6026DC" fill-opacity="0.6"></path><path d="M108.763 135.442L74.4564 51.4427C71.3894 53.2473 68.1952 55.3314 64.9533 57.6356L108.763 135.442Z" fill="#6026DC" fill-opacity="0.4"></path><path d="M108.763 135.441L64.9545 57.6361C61.5478 60.0587 58.089 62.726 54.6668 65.5704L108.763 135.441Z" fill="#6026DC" fill-opacity="0.3"></path><path d="M108.765 135.44L54.6717 65.5726C51.8195 67.9454 48.9923 70.4396 46.2459 73.0224L108.765 135.44Z" fill="#6026DC" fill-opacity="0.2"></path><path d="M108.763 135.441L46.2408 73.0198C41.9451 77.0403 37.8658 81.2859 34.0201 85.7389C31.4101 88.7509 28.9627 91.9001 26.6884 95.173L108.763 135.441Z" fill="#6026DC" fill-opacity="0.15"></path><path d="M108.763 135.441L26.6884 95.173C23.8415 99.3131 21.8495 103 20.7342 106.097L108.763 135.441Z" fill="#6026DC" fill-opacity="0.4"></path><path d="M108.763 135.441L20.7363 106.095C19.9555 108.268 19.6064 110.148 19.7 111.686L108.763 135.441Z" fill="#6026DC" fill-opacity="0.5"></path><path d="M108.763 135.441L19.7001 111.686C19.7875 113.14 20.2695 114.288 21.1523 115.091L108.763 135.441Z" fill="#6026DC" fill-opacity="0.7"></path><path d="M108.763 135.441L21.1523 115.091C21.8115 115.664 22.6092 116.055 23.4661 116.224L108.763 135.441Z" fill="#6026DC" fill-opacity="0.8"></path></g></g><g opacity="0.2"><path d="M108.763 135.438L99.8714 48.4547C99.4938 44.769 96.4206 43.1884 90.53 44.4483C88.5971 44.8618 86.4589 45.5601 84.1652 46.5082L108.763 135.438Z" fill="#6026DC" fill-opacity="0.75"></path><path d="M108.764 135.44L84.1665 46.5104C81.1612 47.752 77.8839 49.4265 74.4579 51.4412L108.764 135.44Z" fill="#6026DC" fill-opacity="0.6"></path><path d="M108.763 135.44L74.4567 51.4405C71.3897 53.2451 68.1956 55.3292 64.9537 57.6334L108.763 135.44Z" fill="#6026DC" fill-opacity="0.4"></path><path d="M108.764 135.439L64.9549 57.6339C61.5482 60.0565 58.0893 62.7238 54.6671 65.5682L108.764 135.439Z" fill="#6026DC" fill-opacity="0.3"></path><path d="M108.766 135.44L54.672 65.5723C51.8199 67.9451 48.9927 70.4393 46.2463 73.0221L108.766 135.44Z" fill="#6026DC" fill-opacity="0.2"></path><path d="M108.762 135.439L46.2402 73.0176C41.9445 77.0381 37.8652 81.2837 34.0195 85.7366C31.4095 88.7486 28.9621 91.8978 26.6878 95.1708L108.762 135.439Z" fill="#6026DC" fill-opacity="0.15"></path><path d="M108.762 135.439L26.6878 95.1708C23.8409 99.3108 21.8489 102.998 20.7336 106.095L108.762 135.439Z" fill="#6026DC" fill-opacity="0.4"></path><path d="M108.762 135.439L20.7357 106.093C19.9549 108.266 19.6058 110.146 19.6994 111.684L108.762 135.439Z" fill="#6026DC" fill-opacity="0.5"></path><path d="M108.762 135.439L19.6995 111.684C19.7869 113.138 20.2689 114.286 21.1517 115.089L108.762 135.439Z" fill="#6026DC" fill-opacity="0.7"></path><path d="M108.762 135.439L21.1517 115.089C21.8108 115.662 22.6085 116.052 23.4655 116.222L108.762 135.439Z" fill="#6026DC" fill-opacity="0.8"></path><g opacity="0.3"><path d="M108.763 135.438L99.8714 48.4547C99.4938 44.769 96.4206 43.1884 90.53 44.4483C88.5971 44.8618 86.4589 45.5601 84.1652 46.5082L108.763 135.438Z" fill="#6026DC" fill-opacity="0.75"></path><path d="M108.764 135.44L84.1665 46.5104C81.1612 47.752 77.8839 49.4265 74.4579 51.4412L108.764 135.44Z" fill="#6026DC" fill-opacity="0.6"></path><path d="M108.763 135.44L74.4567 51.4405C71.3897 53.2451 68.1956 55.3292 64.9537 57.6334L108.763 135.44Z" fill="#6026DC" fill-opacity="0.4"></path><path d="M108.764 135.439L64.9549 57.6339C61.5482 60.0565 58.0893 62.7238 54.6671 65.5682L108.764 135.439Z" fill="#6026DC" fill-opacity="0.3"></path><path d="M108.766 135.44L54.672 65.5723C51.8199 67.9451 48.9927 70.4393 46.2463 73.0221L108.766 135.44Z" fill="#6026DC" fill-opacity="0.2"></path><path d="M108.762 135.439L46.2402 73.0176C41.9445 77.0381 37.8652 81.2837 34.0195 85.7366C31.4095 88.7486 28.9621 91.8978 26.6878 95.1708L108.762 135.439Z" fill="#6026DC" fill-opacity="0.15"></path><path d="M108.762 135.439L26.6878 95.1708C23.8409 99.3108 21.8489 102.998 20.7336 106.095L108.762 135.439Z" fill="#6026DC" fill-opacity="0.4"></path><path d="M108.762 135.439L20.7357 106.093C19.9549 108.266 19.6058 110.146 19.6994 111.684L108.762 135.439Z" fill="#6026DC" fill-opacity="0.5"></path><path d="M108.762 135.439L19.6995 111.684C19.7869 113.138 20.2689 114.286 21.1517 115.089L108.762 135.439Z" fill="#6026DC" fill-opacity="0.7"></path><path d="M108.762 135.439L21.1517 115.089C21.8108 115.662 22.6085 116.052 23.4655 116.222L108.762 135.439Z" fill="#6026DC" fill-opacity="0.8"></path></g></g><g opacity="0.3"><path d="M177.613 190.497L186.026 182.469L178.289 173.439L186.702 165.411L178.963 156.38L187.376 148.352L195.115 157.383L202.852 166.413L210.59 175.444L202.177 183.472L193.764 191.5L185.352 199.528L177.613 190.497Z" fill="#6026DC" fill-opacity="0.3"></path><path d="M180.596 149.359L187.387 148.348L178.964 156.387L172.172 157.398L180.596 149.359Z" fill="#6026DC" fill-opacity="0.75"></path><path d="M179.92 166.417L186.711 165.406L178.287 173.444L171.496 174.456L179.92 166.417Z" fill="#6026DC" fill-opacity="0.75"></path><path d="M179.246 183.474L186.037 182.464L177.613 190.502L170.821 191.513L179.246 183.474Z" fill="#6026DC" fill-opacity="0.75"></path><path d="M178.963 156.375L186.711 165.417L179.919 166.428L172.171 157.386L178.963 156.375Z" fill="#6026DC" fill-opacity="0.5"></path><path d="M178.289 173.435L186.034 182.475L179.243 183.486L171.498 174.446L178.289 173.435Z" fill="#6026DC" fill-opacity="0.5"></path><path d="M170.822 191.505L177.614 190.494L185.362 199.536L178.571 200.547L170.822 191.505Z" fill="#6026DC" fill-opacity="0.5"></path><path d="M172.181 157.391L178.964 156.381L186.702 165.412L179.92 166.42L172.181 157.391ZM178.63 164.873L179.717 164.711L178.477 163.263L177.391 163.427L178.63 164.873ZM179.439 161.373L180.525 161.211L179.284 159.765L178.198 159.927L179.439 161.373ZM178.16 159.931L177.074 160.093L178.314 161.539L179.401 161.378L178.16 159.931ZM179.483 161.424L180.723 162.871L181.809 162.709L180.569 161.262L179.483 161.424ZM179.444 161.43L178.356 161.592L179.596 163.039L180.684 162.877L179.444 161.43ZM178.318 161.597L177.231 161.759L178.472 163.206L179.559 163.044L178.318 161.597ZM178.274 161.546L177.035 160.099L175.948 160.261L177.187 161.708L178.274 161.546ZM176.992 160.046L175.752 158.599L174.665 158.761L175.905 160.209L176.992 160.046ZM177.031 160.041L178.118 159.879L176.878 158.432L175.79 158.593L177.031 160.041ZM178.157 159.876L179.243 159.714L178.002 158.265L176.915 158.427L178.157 159.876ZM179.282 159.709L180.368 159.547L179.128 158.099L178.041 158.261L179.282 159.709ZM179.326 159.76L180.565 161.207L181.652 161.045L180.413 159.598L179.326 159.76ZM180.608 161.259L181.848 162.706L182.935 162.545L181.695 161.097L180.608 161.259ZM181.891 162.759L183.131 164.206L184.218 164.045L182.977 162.597L181.891 162.759ZM181.852 162.765L180.765 162.926L182.005 164.374L183.092 164.212L181.852 162.765ZM180.727 162.932L179.639 163.092L180.879 164.539L181.966 164.377L180.727 162.932ZM179.604 163.097L178.517 163.259L179.757 164.706L180.844 164.544L179.604 163.097ZM177.347 163.376L178.433 163.212L177.193 161.765L176.106 161.926L177.347 163.376ZM176.064 161.876L177.151 161.714L175.911 160.267L174.824 160.429L176.064 161.876ZM174.781 160.376L175.869 160.215L174.624 158.769L173.537 158.931L174.781 160.376ZM172.257 157.43L173.497 158.878L174.581 158.717L173.342 157.271L172.257 157.43ZM173.38 157.264L174.62 158.711L175.707 158.549L174.466 157.102L173.38 157.264ZM174.505 157.096L175.743 158.543L176.83 158.381L175.59 156.934L174.505 157.096ZM175.631 156.929L176.871 158.376L177.956 158.212L176.719 156.765L175.631 156.929ZM176.755 156.76L177.995 158.208L179.082 158.046L177.842 156.598L176.755 156.76ZM178.966 156.432L177.878 156.594L179.119 158.042L180.209 157.879L178.966 156.432ZM180.248 157.932L179.161 158.094L180.401 159.541L181.489 159.38L180.248 157.932ZM181.531 159.432L180.444 159.594L181.684 161.041L182.771 160.879L181.531 159.432ZM182.813 160.931L181.735 161.088L182.974 162.535L184.062 162.373L182.813 160.931ZM184.096 162.431L183.016 162.586L184.256 164.034L185.343 163.872L184.096 162.431ZM186.63 165.372L185.389 163.925L184.3 164.087L185.54 165.535L186.63 165.372ZM185.504 165.54L184.264 164.092L183.177 164.254L184.417 165.702L185.504 165.54ZM184.379 165.707L183.138 164.26L182.051 164.422L183.291 165.869L184.379 165.707ZM183.253 165.875L182.013 164.428L180.926 164.589L182.166 166.037L183.253 165.875ZM182.127 166.042L180.888 164.595L179.8 164.757L181.041 166.204L182.127 166.042ZM179.762 164.763L178.675 164.925L179.915 166.372L181.002 166.21L179.762 164.763Z" fill="#6026DC" fill-opacity="0.5"></path><path d="M180.594 149.367L187.377 148.357L178.964 156.385L172.181 157.396L180.594 149.367ZM173.655 156.017L174.741 155.856L176.089 154.57L175.002 154.731L173.655 156.017ZM179.823 152.85L180.909 152.689L182.257 151.402L181.17 151.564L179.823 152.85ZM181.132 151.57L180.045 151.732L178.697 153.018L179.784 152.856L181.132 151.57ZM179.775 152.896L178.426 154.183L179.513 154.021L180.861 152.734L179.775 152.896ZM179.736 152.902L178.649 153.064L177.301 154.35L178.388 154.189L179.736 152.902ZM178.611 153.069L177.524 153.231L176.175 154.518L177.262 154.356L178.611 153.069ZM178.658 153.024L180.007 151.738L178.92 151.899L177.572 153.185L178.658 153.024ZM180.054 151.692L181.403 150.405L180.315 150.567L178.967 151.854L180.054 151.692ZM180.093 151.686L181.179 151.525L182.528 150.238L181.441 150.4L180.093 151.686ZM181.218 151.519L182.305 151.357L183.653 150.07L182.566 150.232L181.218 151.519ZM182.343 151.351L183.43 151.19L184.779 149.903L183.691 150.065L182.343 151.351ZM182.295 151.397L180.947 152.683L182.035 152.521L183.383 151.235L182.295 151.397ZM180.9 152.729L179.551 154.015L180.639 153.854L181.986 152.568L180.9 152.729ZM179.504 154.061L178.155 155.348L179.243 155.186L180.591 153.899L179.504 154.061ZM179.465 154.066L178.377 154.23L177.028 155.517L178.115 155.355L179.465 154.066ZM178.34 154.234L177.253 154.396L175.905 155.683L176.991 155.521L178.34 154.234ZM177.214 154.402L176.128 154.563L174.779 155.85L175.866 155.689L177.214 154.402ZM175.05 154.686L176.136 154.525L177.485 153.237L176.397 153.4L175.05 154.686ZM176.446 153.354L177.534 153.191L178.882 151.904L177.795 152.066L176.446 153.354ZM177.842 152.022L178.929 151.86L180.277 150.573L179.19 150.735L177.842 152.022ZM180.586 149.403L179.238 150.69L180.325 150.528L181.674 149.241L180.586 149.403ZM181.711 149.235L180.363 150.521L181.45 150.36L182.799 149.073L181.711 149.235ZM182.837 149.068L181.489 150.354L182.576 150.192L183.924 148.905L182.837 149.068ZM183.963 148.9L182.614 150.186L183.701 150.025L185.049 148.738L183.963 148.9ZM185.088 148.732L183.739 150.019L184.827 149.857L186.175 148.571L185.088 148.732ZM187.298 148.404L186.213 148.565L184.865 149.852L185.952 149.69L187.298 148.404ZM185.902 149.737L184.817 149.897L183.469 151.184L184.556 151.022L185.902 149.737ZM184.506 151.069L183.421 151.23L182.073 152.516L183.16 152.354L184.506 151.069ZM183.11 152.401L182.023 152.563L180.677 153.848L181.764 153.685L183.11 152.401ZM181.714 153.733L180.627 153.895L179.282 155.178L180.369 155.016L181.714 153.733ZM178.97 156.352L180.32 155.063L179.233 155.225L177.884 156.513L178.97 156.352ZM177.847 156.518L179.195 155.231L178.108 155.393L176.759 156.68L177.847 156.518ZM176.721 156.685L178.069 155.399L176.983 155.56L175.634 156.847L176.721 156.685ZM175.595 156.853L176.944 155.566L175.857 155.728L174.508 157.015L175.595 156.853ZM174.47 157.021L175.818 155.734L174.731 155.896L173.383 157.183L174.47 157.021ZM174.693 155.902L173.606 156.063L172.257 157.35L173.345 157.188L174.693 155.902Z" fill="#6026DC" fill-opacity="0.5"></path><path d="M179.921 166.42L186.702 165.411L178.289 173.439L171.506 174.449L179.921 166.42ZM171.583 174.404L172.669 174.241L174.017 172.955L172.93 173.116L171.583 174.404ZM174.065 172.909L175.413 171.623L174.327 171.784L172.978 173.071L174.065 172.909ZM179.148 169.905L180.235 169.743L181.582 168.457L180.496 168.618L179.148 169.905ZM180.457 168.624L179.37 168.786L178.022 170.072L179.109 169.911L180.457 168.624ZM179.1 169.95L177.752 171.237L178.839 171.075L180.187 169.788L179.1 169.95ZM179.062 169.956L177.975 170.117L176.626 171.404L177.713 171.243L179.062 169.956ZM177.936 170.123L176.849 170.285L175.501 171.572L176.587 171.41L177.936 170.123ZM177.983 170.078L179.331 168.792L178.245 168.953L176.897 170.24L177.983 170.078ZM179.379 168.746L180.728 167.459L179.641 167.621L178.293 168.908L179.379 168.746ZM179.418 168.74L180.505 168.579L181.854 167.292L180.766 167.453L179.418 168.74ZM180.544 168.573L181.63 168.411L182.979 167.124L181.892 167.286L180.544 168.573ZM181.668 168.406L182.755 168.244L184.104 166.957L183.017 167.119L181.668 168.406ZM181.62 168.452L180.272 169.738L181.359 169.576L182.707 168.29L181.62 168.452ZM180.225 169.784L178.876 171.07L179.963 170.908L181.312 169.621L180.225 169.784ZM178.828 171.116L177.48 172.402L178.567 172.24L179.916 170.953L178.828 171.116ZM178.79 171.121L177.703 171.283L176.355 172.57L177.442 172.408L178.79 171.121ZM177.665 171.289L176.578 171.45L175.229 172.737L176.317 172.575L177.665 171.289ZM176.539 171.456L175.454 171.616L174.106 172.903L175.192 172.742L176.539 171.456ZM175.461 171.577L176.81 170.29L175.723 170.452L174.374 171.738L175.461 171.577ZM176.857 170.245L178.206 168.958L177.118 169.12L175.77 170.406L176.857 170.245ZM178.253 168.913L179.602 167.626L178.514 167.788L177.166 169.074L178.253 168.913ZM179.91 166.456L178.562 167.742L179.649 167.58L180.998 166.294L179.91 166.456ZM181.036 166.288L179.688 167.575L180.774 167.413L182.123 166.126L181.036 166.288ZM182.161 166.123L180.813 167.409L181.9 167.248L183.25 165.959L182.161 166.123ZM183.287 165.955L181.938 167.242L183.025 167.08L184.375 165.792L183.287 165.955ZM184.412 165.788L183.066 167.072L184.153 166.91L185.5 165.624L184.412 165.788ZM185.539 165.618L184.191 166.905L185.277 166.744L186.626 165.457L185.539 165.618ZM184.143 166.951L182.795 168.237L183.882 168.076L185.23 166.789L184.143 166.951ZM182.747 168.283L181.399 169.569L182.486 169.407L183.834 168.121L182.747 168.283ZM181.351 169.615L180.003 170.901L181.09 170.74L182.438 169.453L181.351 169.615ZM179.955 170.947L178.607 172.234L179.694 172.072L181.043 170.784L179.955 170.947ZM178.298 173.404L179.645 172.119L178.557 172.281L177.209 173.567L178.298 173.404ZM177.172 173.572L178.52 172.285L177.434 172.447L176.086 173.733L177.172 173.572ZM176.046 173.739L177.395 172.453L176.308 172.615L174.959 173.902L176.046 173.739ZM174.921 173.907L176.269 172.621L175.182 172.782L173.834 174.069L174.921 173.907ZM173.794 174.076L175.144 172.788L174.056 172.951L172.707 174.238L173.794 174.076Z" fill="#6026DC" fill-opacity="0.5"></path><path d="M171.506 174.449L178.289 173.44L186.027 182.47L179.243 183.479L171.506 174.449ZM179.239 183.428L180.324 183.264L179.084 181.818L177.998 181.982L179.239 183.428ZM179.042 181.768L177.802 180.321L176.716 180.483L177.955 181.93L179.042 181.768ZM178.765 178.43L179.851 178.269L178.611 176.823L177.525 176.984L178.765 178.43ZM177.487 176.991L176.4 177.153L177.64 178.6L178.727 178.438L177.487 176.991ZM178.809 178.483L180.049 179.931L181.135 179.767L179.894 178.32L178.809 178.483ZM178.77 178.489L177.684 178.651L178.923 180.098L180.01 179.936L178.77 178.489ZM177.644 178.656L176.557 178.817L177.797 180.264L178.883 180.102L177.644 178.656ZM177.6 178.604L176.362 177.157L175.275 177.321L176.515 178.768L177.6 178.604ZM176.318 177.105L175.078 175.658L173.991 175.82L175.231 177.267L176.318 177.105ZM176.356 177.099L177.444 176.938L176.204 175.491L175.117 175.653L176.356 177.099ZM177.482 176.932L178.569 176.77L177.329 175.323L176.242 175.485L177.482 176.932ZM178.608 176.764L179.693 176.603L178.454 175.157L177.367 175.318L178.608 176.764ZM178.651 176.816L179.891 178.262L180.975 178.102L179.736 176.656L178.651 176.816ZM179.933 178.315L181.173 179.762L182.26 179.599L181.02 178.153L179.933 178.315ZM181.216 179.814L182.455 181.261L183.543 181.098L182.304 179.651L181.216 179.814ZM181.177 179.819L180.091 179.981L181.33 181.429L182.418 181.266L181.177 179.819ZM180.052 179.987L178.965 180.149L180.205 181.596L181.292 181.434L180.052 179.987ZM178.926 180.155L177.839 180.316L179.079 181.763L180.167 181.602L178.926 180.155ZM177.757 180.271L176.517 178.824L175.43 178.986L176.67 180.433L177.757 180.271ZM176.475 178.772L175.235 177.325L174.148 177.487L175.387 178.933L176.475 178.772ZM175.193 177.273L173.953 175.826L172.866 175.988L174.105 177.435L175.193 177.273ZM171.582 174.49L172.822 175.936L173.909 175.775L172.669 174.327L171.582 174.49ZM172.708 174.322L173.948 175.769L175.033 175.608L173.793 174.162L172.708 174.322ZM173.833 174.154L175.073 175.601L176.158 175.44L174.918 173.993L173.833 174.154ZM174.957 173.988L176.196 175.435L177.283 175.273L176.043 173.826L174.957 173.988ZM176.082 173.821L177.322 175.267L178.409 175.105L177.169 173.658L176.082 173.821ZM177.207 173.653L178.448 175.1L179.534 174.938L178.295 173.491L177.207 173.653ZM178.49 175.152L179.73 176.599L180.817 176.438L179.577 174.99L178.49 175.152ZM179.772 176.652L181.011 178.098L182.1 177.933L180.861 176.486L179.772 176.652ZM181.054 178.151L182.294 179.598L183.381 179.436L182.141 177.989L181.054 178.151ZM182.337 179.65L183.576 181.097L184.663 180.935L183.43 179.484L182.337 179.65ZM185.947 182.433L184.707 180.986L183.62 181.148L184.86 182.595L185.947 182.433ZM184.821 182.601L183.587 181.15L182.5 181.311L183.74 182.758L184.821 182.601ZM183.696 182.768L182.456 181.322L181.376 181.478L182.616 182.925L183.696 182.768ZM182.571 182.936L181.336 181.483L180.248 181.645L181.488 183.092L182.571 182.936ZM181.445 183.104L180.205 181.656L179.123 181.813L180.363 183.26L181.445 183.104Z" fill="#6026DC" fill-opacity="0.5"></path><path d="M179.243 183.478L186.027 182.468L177.614 190.497L170.831 191.506L179.243 183.478ZM170.906 191.462L171.993 191.3L173.342 190.012L172.256 190.174L170.906 191.462ZM173.389 189.968L174.738 188.68L173.652 188.842L172.304 190.128L173.389 189.968ZM178.472 186.96L179.558 186.799L180.906 185.512L179.818 185.676L178.472 186.96ZM179.781 185.68L178.694 185.842L177.345 187.129L178.432 186.967L179.781 185.68ZM178.424 187.006L177.075 188.293L178.162 188.131L179.51 186.844L178.424 187.006ZM178.385 187.012L177.298 187.173L175.95 188.46L177.037 188.299L178.385 187.012ZM177.26 187.179L176.173 187.341L174.824 188.628L175.911 188.466L177.26 187.179ZM177.307 187.134L178.656 185.847L177.568 186.009L176.22 187.295L177.307 187.134ZM178.703 185.802L180.052 184.515L178.964 184.677L177.616 185.964L178.703 185.802ZM178.741 185.796L179.828 185.635L181.177 184.348L180.09 184.509L178.741 185.796ZM179.867 185.629L180.955 185.468L182.303 184.181L181.216 184.342L179.867 185.629ZM180.992 185.461L182.079 185.299L183.426 184.014L182.339 184.175L180.992 185.461ZM180.944 185.507L179.597 186.793L180.683 186.631L182.031 185.345L180.944 185.507ZM179.549 186.839L178.2 188.125L179.287 187.963L180.636 186.677L179.549 186.839ZM178.153 188.171L176.804 189.457L177.891 189.295L179.24 188.009L178.153 188.171ZM178.114 188.176L177.028 188.338L175.679 189.625L176.766 189.463L178.114 188.176ZM176.989 188.344L175.902 188.506L174.553 189.793L175.641 189.631L176.989 188.344ZM175.863 188.512L174.777 188.673L173.428 189.96L174.515 189.798L175.863 188.512ZM174.785 188.634L176.134 187.347L175.047 187.509L173.699 188.795L174.785 188.634ZM176.184 187.299L177.532 186.013L176.445 186.175L175.097 187.461L176.184 187.299ZM177.58 185.967L178.926 184.683L177.839 184.847L176.491 186.134L177.58 185.967ZM179.237 183.513L177.889 184.799L178.975 184.638L180.323 183.352L179.237 183.513ZM180.362 183.346L179.013 184.633L180.101 184.471L181.448 183.185L180.362 183.346ZM181.487 183.178L180.139 184.465L181.226 184.303L182.574 183.016L181.487 183.178ZM182.612 183.01L181.263 184.296L182.35 184.135L183.698 182.848L182.612 183.01ZM183.737 182.842L182.388 184.129L183.475 183.967L184.825 182.679L183.737 182.842ZM184.862 182.674L183.514 183.961L184.601 183.8L185.949 182.513L184.862 182.674ZM183.466 184.007L182.118 185.294L183.205 185.132L184.553 183.845L183.466 184.007ZM182.07 185.339L180.723 186.625L181.81 186.463L183.158 185.177L182.07 185.339ZM180.674 186.671L179.324 187.959L180.412 187.797L181.761 186.509L180.674 186.671ZM179.278 188.003L177.93 189.29L179.017 189.128L180.365 187.841L179.278 188.003ZM177.621 190.46L178.969 189.174L177.882 189.335L176.534 190.622L177.621 190.46ZM176.495 190.628L177.844 189.341L176.756 189.503L175.408 190.789L176.495 190.628ZM175.369 190.795L176.719 189.507L175.632 189.67L174.283 190.957L175.369 190.795ZM174.244 190.963L175.592 189.676L174.505 189.837L173.157 191.124L174.244 190.963ZM173.119 191.13L174.467 189.844L173.38 190.005L172.031 191.292L173.119 191.13Z" fill="#6026DC" fill-opacity="0.5"></path><path d="M170.83 191.508L177.614 190.499L185.352 199.53L178.569 200.539L170.83 191.508ZM178.564 200.488L179.651 200.327L178.411 198.879L177.324 199.042L178.564 200.488ZM178.367 198.828L177.127 197.381L176.04 197.543L177.28 198.99L178.367 198.828ZM178.089 195.491L179.176 195.329L177.937 193.882L176.85 194.045L178.089 195.491ZM176.811 194.05L175.724 194.212L176.964 195.659L178.051 195.497L176.811 194.05ZM178.133 195.542L179.374 196.99L180.46 196.827L179.218 195.379L178.133 195.542ZM178.095 195.548L177.006 195.708L178.246 197.156L179.335 196.994L178.095 195.548ZM176.969 195.716L175.882 195.877L177.123 197.325L178.209 197.163L176.969 195.716ZM176.925 195.665L175.686 194.218L174.598 194.38L175.838 195.827L176.925 195.665ZM175.643 194.165L174.403 192.718L173.316 192.88L174.556 194.327L175.643 194.165ZM175.681 194.16L176.768 193.997L175.528 192.55L174.441 192.712L175.681 194.16ZM176.807 193.992L177.893 193.83L176.653 192.383L175.567 192.544L176.807 193.992ZM177.93 193.825L179.017 193.663L177.777 192.216L176.69 192.378L177.93 193.825ZM177.974 193.876L179.214 195.323L180.301 195.161L179.062 193.714L177.974 193.876ZM179.257 195.375L180.497 196.823L181.584 196.661L180.344 195.214L179.257 195.375ZM180.539 196.875L181.78 198.323L182.866 198.161L181.631 196.713L180.539 196.875ZM180.5 196.881L179.414 197.043L180.654 198.49L181.741 198.329L180.5 196.881ZM179.375 197.048L178.289 197.211L179.528 198.658L180.619 198.495L179.375 197.048ZM178.25 197.216L177.163 197.378L178.408 198.823L179.496 198.661L178.25 197.216ZM177.081 197.332L175.84 195.885L174.754 196.047L175.993 197.494L177.081 197.332ZM175.798 195.833L174.558 194.385L173.471 194.548L174.711 195.994L175.798 195.833ZM174.516 194.333L173.275 192.886L172.188 193.048L173.428 194.495L174.516 194.333ZM170.902 191.547L172.143 192.994L173.229 192.833L171.989 191.386L170.902 191.547ZM172.028 191.379L173.268 192.827L174.358 192.669L173.118 191.221L172.028 191.379ZM173.154 191.212L174.394 192.659L175.48 192.498L174.24 191.05L173.154 191.212ZM174.279 191.044L175.519 192.492L176.608 192.332L175.367 190.884L174.279 191.044ZM175.404 190.877L176.644 192.324L177.731 192.163L176.491 190.715L175.404 190.877ZM176.531 190.712L177.771 192.159L178.858 191.997L177.618 190.55L176.531 190.712ZM177.814 192.212L179.054 193.659L180.141 193.497L178.901 192.05L177.814 192.212ZM179.097 193.711L180.336 195.158L181.426 194.993L180.187 193.547L179.097 193.711ZM180.379 195.211L181.619 196.658L182.706 196.496L181.466 195.049L180.379 195.211ZM181.662 196.711L182.902 198.158L183.996 197.99L182.755 196.542L181.662 196.711ZM185.278 199.489L184.038 198.042L182.951 198.204L184.191 199.652L185.278 199.489ZM184.153 199.657L182.913 198.21L181.826 198.372L183.068 199.817L184.153 199.657ZM183.027 199.825L181.787 198.377L180.7 198.539L181.941 199.986L183.027 199.825ZM181.9 199.994L180.66 198.547L179.573 198.708L180.814 200.156L181.9 199.994ZM180.775 200.161L179.536 198.712L178.449 198.874L179.69 200.321L180.775 200.161Z" fill="#6026DC" fill-opacity="0.5"></path></g><g opacity="0.25" clip-path="url(#clip0_10_503)"><path d="M254.523 217.028L238.828 220.506L241.141 205.24L254.523 217.028Z" fill="#6026DC" fill-opacity="0.4"></path><path opacity="0.65" d="M241.139 205.24L246.898 198.829L260.28 210.617L254.521 217.028L241.139 205.24Z" fill="#6026DC"></path></g><g opacity="0.3"><path d="M177.613 190.498L186.026 182.47L178.289 173.44L186.702 165.412L178.963 156.381L187.376 148.353L195.115 157.384L202.852 166.414L210.59 175.445L202.177 183.473L193.764 191.501L185.352 199.529L177.613 190.498Z" fill="#6026DC" fill-opacity="0.3"></path><path d="M180.596 149.36L187.387 148.349L178.964 156.388L172.172 157.399L180.596 149.36Z" fill="#6026DC" fill-opacity="0.75"></path><path d="M179.92 166.418L186.711 165.407L178.287 173.445L171.496 174.457L179.92 166.418Z" fill="#6026DC" fill-opacity="0.75"></path><path d="M179.246 183.475L186.037 182.465L177.613 190.503L170.821 191.514L179.246 183.475Z" fill="#6026DC" fill-opacity="0.75"></path><path d="M178.963 156.376L186.711 165.418L179.919 166.429L172.171 157.387L178.963 156.376Z" fill="#6026DC" fill-opacity="0.5"></path><path d="M178.289 173.436L186.034 182.476L179.243 183.487L171.498 174.447L178.289 173.436Z" fill="#6026DC" fill-opacity="0.5"></path><path d="M170.822 191.506L177.614 190.495L185.362 199.537L178.571 200.548L170.822 191.506Z" fill="#6026DC" fill-opacity="0.5"></path><path d="M172.181 157.392L178.964 156.382L186.702 165.413L179.92 166.421L172.181 157.392ZM178.63 164.874L179.717 164.712L178.477 163.264L177.391 163.428L178.63 164.874ZM179.439 161.374L180.525 161.212L179.284 159.766L178.198 159.928L179.439 161.374ZM178.16 159.932L177.074 160.094L178.314 161.54L179.401 161.379L178.16 159.932ZM179.483 161.425L180.723 162.872L181.809 162.71L180.569 161.263L179.483 161.425ZM179.444 161.431L178.356 161.593L179.596 163.04L180.684 162.878L179.444 161.431ZM178.318 161.598L177.231 161.76L178.472 163.207L179.559 163.045L178.318 161.598ZM178.274 161.547L177.035 160.1L175.948 160.262L177.187 161.709L178.274 161.547ZM176.992 160.047L175.752 158.6L174.665 158.762L175.905 160.21L176.992 160.047ZM177.031 160.042L178.118 159.88L176.878 158.433L175.79 158.594L177.031 160.042ZM178.157 159.877L179.243 159.715L178.002 158.266L176.915 158.428L178.157 159.877ZM179.282 159.71L180.368 159.548L179.128 158.1L178.041 158.262L179.282 159.71ZM179.326 159.761L180.565 161.208L181.652 161.046L180.413 159.599L179.326 159.761ZM180.608 161.26L181.848 162.707L182.935 162.546L181.695 161.098L180.608 161.26ZM181.891 162.76L183.131 164.207L184.218 164.046L182.977 162.598L181.891 162.76ZM181.852 162.766L180.765 162.927L182.005 164.375L183.092 164.213L181.852 162.766ZM180.727 162.933L179.639 163.093L180.879 164.54L181.966 164.378L180.727 162.933ZM179.604 163.098L178.517 163.26L179.757 164.707L180.844 164.545L179.604 163.098ZM177.347 163.377L178.433 163.213L177.193 161.766L176.106 161.927L177.347 163.377ZM176.064 161.877L177.151 161.715L175.911 160.268L174.824 160.43L176.064 161.877ZM174.781 160.377L175.869 160.216L174.624 158.77L173.537 158.932L174.781 160.377ZM172.257 157.431L173.497 158.879L174.581 158.718L173.342 157.272L172.257 157.431ZM173.38 157.265L174.62 158.712L175.707 158.55L174.466 157.103L173.38 157.265ZM174.505 157.097L175.743 158.544L176.83 158.382L175.59 156.935L174.505 157.097ZM175.631 156.93L176.871 158.377L177.956 158.213L176.719 156.766L175.631 156.93ZM176.755 156.761L177.995 158.209L179.082 158.047L177.842 156.599L176.755 156.761ZM178.966 156.433L177.878 156.595L179.119 158.043L180.209 157.88L178.966 156.433ZM180.248 157.933L179.161 158.095L180.401 159.542L181.489 159.381L180.248 157.933ZM181.531 159.433L180.444 159.595L181.684 161.042L182.771 160.88L181.531 159.433ZM182.813 160.932L181.735 161.089L182.974 162.536L184.062 162.374L182.813 160.932ZM184.096 162.432L183.016 162.587L184.256 164.035L185.343 163.873L184.096 162.432ZM186.63 165.373L185.389 163.926L184.3 164.088L185.54 165.536L186.63 165.373ZM185.504 165.541L184.264 164.093L183.177 164.255L184.417 165.703L185.504 165.541ZM184.379 165.708L183.138 164.261L182.051 164.423L183.291 165.87L184.379 165.708ZM183.253 165.876L182.013 164.429L180.926 164.59L182.166 166.038L183.253 165.876ZM182.127 166.043L180.888 164.596L179.8 164.758L181.041 166.205L182.127 166.043ZM179.762 164.764L178.675 164.926L179.915 166.373L181.002 166.211L179.762 164.764Z" fill="#6026DC" fill-opacity="0.5"></path><path d="M180.594 149.368L187.377 148.358L178.964 156.386L172.181 157.397L180.594 149.368ZM173.655 156.018L174.741 155.856L176.089 154.571L175.002 154.732L173.655 156.018ZM179.823 152.851L180.909 152.69L182.257 151.403L181.17 151.565L179.823 152.851ZM181.132 151.571L180.045 151.733L178.697 153.019L179.784 152.857L181.132 151.571ZM179.775 152.897L178.426 154.184L179.513 154.022L180.861 152.735L179.775 152.897ZM179.736 152.903L178.649 153.065L177.301 154.351L178.388 154.19L179.736 152.903ZM178.611 153.07L177.524 153.232L176.175 154.519L177.262 154.357L178.611 153.07ZM178.658 153.025L180.007 151.738L178.92 151.9L177.572 153.186L178.658 153.025ZM180.054 151.693L181.403 150.406L180.315 150.568L178.967 151.855L180.054 151.693ZM180.093 151.687L181.179 151.526L182.528 150.239L181.441 150.401L180.093 151.687ZM181.218 151.52L182.305 151.358L183.653 150.071L182.566 150.233L181.218 151.52ZM182.343 151.352L183.43 151.19L184.779 149.904L183.691 150.066L182.343 151.352ZM182.295 151.398L180.947 152.684L182.035 152.522L183.383 151.236L182.295 151.398ZM180.9 152.73L179.551 154.016L180.639 153.855L181.986 152.569L180.9 152.73ZM179.504 154.062L178.155 155.349L179.243 155.187L180.591 153.9L179.504 154.062ZM179.465 154.067L178.377 154.231L177.028 155.518L178.115 155.356L179.465 154.067ZM178.34 154.235L177.253 154.397L175.905 155.684L176.991 155.522L178.34 154.235ZM177.214 154.403L176.128 154.564L174.779 155.851L175.866 155.69L177.214 154.403ZM175.05 154.687L176.136 154.526L177.485 153.238L176.397 153.401L175.05 154.687ZM176.446 153.355L177.534 153.192L178.882 151.905L177.795 152.067L176.446 153.355ZM177.842 152.023L178.929 151.861L180.277 150.574L179.19 150.736L177.842 152.023ZM180.586 149.404L179.238 150.691L180.325 150.529L181.674 149.242L180.586 149.404ZM181.711 149.236L180.363 150.522L181.45 150.361L182.799 149.074L181.711 149.236ZM182.837 149.069L181.489 150.355L182.576 150.193L183.924 148.906L182.837 149.069ZM183.963 148.901L182.614 150.187L183.701 150.026L185.049 148.739L183.963 148.901ZM185.088 148.733L183.739 150.02L184.827 149.858L186.175 148.572L185.088 148.733ZM187.298 148.405L186.213 148.566L184.865 149.853L185.952 149.691L187.298 148.405ZM185.902 149.738L184.817 149.898L183.469 151.185L184.556 151.023L185.902 149.738ZM184.506 151.07L183.421 151.231L182.073 152.517L183.16 152.355L184.506 151.07ZM183.11 152.402L182.023 152.564L180.677 153.849L181.764 153.686L183.11 152.402ZM181.714 153.734L180.627 153.896L179.282 155.179L180.369 155.017L181.714 153.734ZM178.97 156.353L180.32 155.064L179.233 155.226L177.884 156.514L178.97 156.353ZM177.847 156.519L179.195 155.232L178.108 155.394L176.759 156.681L177.847 156.519ZM176.721 156.686L178.069 155.4L176.983 155.561L175.634 156.848L176.721 156.686ZM175.595 156.854L176.944 155.567L175.857 155.729L174.508 157.016L175.595 156.854ZM174.47 157.022L175.818 155.735L174.731 155.897L173.383 157.184L174.47 157.022ZM174.693 155.903L173.606 156.064L172.257 157.351L173.345 157.189L174.693 155.903Z" fill="#6026DC" fill-opacity="0.5"></path><path d="M179.921 166.421L186.702 165.412L178.289 173.44L171.506 174.45L179.921 166.421ZM171.583 174.405L172.669 174.242L174.017 172.956L172.93 173.117L171.583 174.405ZM174.065 172.91L175.413 171.624L174.327 171.785L172.978 173.072L174.065 172.91ZM179.148 169.906L180.235 169.744L181.582 168.458L180.496 168.619L179.148 169.906ZM180.457 168.625L179.37 168.787L178.022 170.073L179.109 169.911L180.457 168.625ZM179.1 169.951L177.752 171.238L178.839 171.076L180.187 169.789L179.1 169.951ZM179.062 169.957L177.975 170.118L176.626 171.405L177.713 171.244L179.062 169.957ZM177.936 170.124L176.849 170.286L175.501 171.573L176.587 171.411L177.936 170.124ZM177.983 170.079L179.331 168.793L178.245 168.954L176.897 170.241L177.983 170.079ZM179.379 168.747L180.728 167.46L179.641 167.622L178.293 168.909L179.379 168.747ZM179.418 168.741L180.505 168.58L181.854 167.293L180.766 167.454L179.418 168.741ZM180.544 168.574L181.63 168.412L182.979 167.125L181.892 167.287L180.544 168.574ZM181.668 168.407L182.755 168.245L184.104 166.958L183.017 167.12L181.668 168.407ZM181.62 168.453L180.272 169.739L181.359 169.577L182.707 168.291L181.62 168.453ZM180.225 169.785L178.876 171.071L179.963 170.909L181.312 169.622L180.225 169.785ZM178.828 171.117L177.48 172.403L178.567 172.241L179.916 170.954L178.828 171.117ZM178.79 171.122L177.703 171.284L176.355 172.571L177.442 172.409L178.79 171.122ZM177.665 171.29L176.578 171.451L175.229 172.738L176.317 172.576L177.665 171.29ZM176.539 171.457L175.454 171.617L174.106 172.904L175.192 172.742L176.539 171.457ZM175.461 171.578L176.81 170.291L175.723 170.453L174.374 171.739L175.461 171.578ZM176.857 170.246L178.206 168.959L177.118 169.121L175.77 170.407L176.857 170.246ZM178.253 168.914L179.602 167.627L178.514 167.789L177.166 169.075L178.253 168.914ZM179.91 166.456L178.562 167.743L179.649 167.581L180.998 166.295L179.91 166.456ZM181.036 166.289L179.688 167.576L180.774 167.414L182.123 166.127L181.036 166.289ZM182.161 166.124L180.813 167.41L181.9 167.249L183.25 165.96L182.161 166.124ZM183.287 165.956L181.938 167.243L183.025 167.081L184.375 165.793L183.287 165.956ZM184.412 165.789L183.066 167.073L184.153 166.911L185.5 165.625L184.412 165.789ZM185.539 165.619L184.191 166.906L185.277 166.745L186.626 165.458L185.539 165.619ZM184.143 166.952L182.795 168.238L183.882 168.076L185.23 166.79L184.143 166.952ZM182.747 168.284L181.399 169.57L182.486 169.408L183.834 168.122L182.747 168.284ZM181.351 169.616L180.003 170.902L181.09 170.741L182.438 169.454L181.351 169.616ZM179.955 170.948L178.607 172.235L179.694 172.073L181.043 170.785L179.955 170.948ZM178.298 173.405L179.645 172.12L178.557 172.282L177.209 173.568L178.298 173.405ZM177.172 173.573L178.52 172.286L177.434 172.447L176.086 173.734L177.172 173.573ZM176.046 173.74L177.395 172.454L176.308 172.616L174.959 173.903L176.046 173.74ZM174.921 173.908L176.269 172.621L175.182 172.783L173.834 174.07L174.921 173.908ZM173.794 174.077L175.144 172.789L174.056 172.952L172.707 174.239L173.794 174.077Z" fill="#6026DC" fill-opacity="0.5"></path><path d="M171.506 174.45L178.289 173.441L186.027 182.471L179.243 183.48L171.506 174.45ZM179.239 183.429L180.324 183.265L179.084 181.819L177.998 181.983L179.239 183.429ZM179.042 181.769L177.802 180.322L176.716 180.483L177.955 181.931L179.042 181.769ZM178.765 178.431L179.851 178.27L178.611 176.824L177.525 176.985L178.765 178.431ZM177.487 176.992L176.4 177.154L177.64 178.601L178.727 178.439L177.487 176.992ZM178.809 178.484L180.049 179.931L181.135 179.768L179.894 178.321L178.809 178.484ZM178.77 178.49L177.684 178.652L178.923 180.099L180.01 179.937L178.77 178.49ZM177.644 178.657L176.557 178.818L177.797 180.265L178.883 180.103L177.644 178.657ZM177.6 178.605L176.362 177.158L175.275 177.322L176.515 178.769L177.6 178.605ZM176.318 177.106L175.078 175.659L173.991 175.821L175.231 177.268L176.318 177.106ZM176.356 177.1L177.444 176.939L176.204 175.492L175.117 175.654L176.356 177.1ZM177.482 176.933L178.569 176.771L177.329 175.324L176.242 175.486L177.482 176.933ZM178.608 176.765L179.693 176.604L178.454 175.158L177.367 175.319L178.608 176.765ZM178.651 176.817L179.891 178.263L180.975 178.103L179.736 176.657L178.651 176.817ZM179.933 178.316L181.173 179.763L182.26 179.6L181.02 178.154L179.933 178.316ZM181.216 179.815L182.455 181.262L183.543 181.099L182.304 179.652L181.216 179.815ZM181.177 179.82L180.091 179.982L181.33 181.43L182.418 181.267L181.177 179.82ZM180.052 179.988L178.965 180.15L180.205 181.597L181.292 181.435L180.052 179.988ZM178.926 180.156L177.839 180.317L179.079 181.764L180.167 181.603L178.926 180.156ZM177.757 180.272L176.517 178.825L175.43 178.987L176.67 180.434L177.757 180.272ZM176.475 178.773L175.235 177.326L174.148 177.488L175.387 178.934L176.475 178.773ZM175.193 177.274L173.953 175.827L172.866 175.989L174.105 177.436L175.193 177.274ZM171.582 174.491L172.822 175.937L173.909 175.775L172.669 174.328L171.582 174.491ZM172.708 174.323L173.948 175.77L175.033 175.609L173.793 174.163L172.708 174.323ZM173.833 174.155L175.073 175.602L176.158 175.441L174.918 173.994L173.833 174.155ZM174.957 173.989L176.196 175.436L177.283 175.274L176.043 173.827L174.957 173.989ZM176.082 173.822L177.322 175.268L178.409 175.106L177.169 173.659L176.082 173.822ZM177.207 173.654L178.448 175.101L179.534 174.939L178.295 173.492L177.207 173.654ZM178.49 175.153L179.73 176.6L180.817 176.438L179.577 174.991L178.49 175.153ZM179.772 176.653L181.011 178.099L182.1 177.934L180.861 176.487L179.772 176.653ZM181.054 178.151L182.294 179.599L183.381 179.437L182.141 177.99L181.054 178.151ZM182.337 179.651L183.576 181.098L184.663 180.936L183.43 179.485L182.337 179.651ZM185.947 182.434L184.707 180.987L183.62 181.149L184.86 182.596L185.947 182.434ZM184.821 182.602L183.587 181.151L182.5 181.312L183.74 182.759L184.821 182.602ZM183.696 182.769L182.456 181.323L181.376 181.479L182.616 182.926L183.696 182.769ZM182.571 182.937L181.336 181.484L180.248 181.645L181.488 183.093L182.571 182.937ZM181.445 183.104L180.205 181.657L179.123 181.814L180.363 183.261L181.445 183.104Z" fill="#6026DC" fill-opacity="0.5"></path><path d="M179.243 183.479L186.027 182.469L177.614 190.497L170.831 191.507L179.243 183.479ZM170.906 191.463L171.993 191.301L173.342 190.013L172.256 190.175L170.906 191.463ZM173.389 189.969L174.738 188.681L173.652 188.843L172.304 190.129L173.389 189.969ZM178.472 186.961L179.558 186.8L180.906 185.513L179.818 185.677L178.472 186.961ZM179.781 185.681L178.694 185.842L177.345 187.13L178.432 186.968L179.781 185.681ZM178.424 187.007L177.075 188.294L178.162 188.132L179.51 186.845L178.424 187.007ZM178.385 187.013L177.298 187.174L175.95 188.461L177.037 188.3L178.385 187.013ZM177.26 187.18L176.173 187.342L174.824 188.629L175.911 188.467L177.26 187.18ZM177.307 187.135L178.656 185.848L177.568 186.01L176.22 187.296L177.307 187.135ZM178.703 185.803L180.052 184.516L178.964 184.678L177.616 185.965L178.703 185.803ZM178.741 185.797L179.828 185.635L181.177 184.348L180.09 184.51L178.741 185.797ZM179.867 185.63L180.955 185.469L182.303 184.182L181.216 184.343L179.867 185.63ZM180.992 185.462L182.079 185.3L183.426 184.015L182.339 184.176L180.992 185.462ZM180.944 185.508L179.597 186.794L180.683 186.632L182.031 185.346L180.944 185.508ZM179.549 186.84L178.2 188.126L179.287 187.964L180.636 186.677L179.549 186.84ZM178.153 188.172L176.804 189.458L177.891 189.296L179.24 188.01L178.153 188.172ZM178.114 188.177L177.028 188.339L175.679 189.626L176.766 189.464L178.114 188.177ZM176.989 188.345L175.902 188.507L174.553 189.794L175.641 189.632L176.989 188.345ZM175.863 188.513L174.777 188.674L173.428 189.961L174.515 189.799L175.863 188.513ZM174.785 188.635L176.134 187.348L175.047 187.51L173.699 188.796L174.785 188.635ZM176.184 187.3L177.532 186.014L176.445 186.176L175.097 187.462L176.184 187.3ZM177.58 185.968L178.926 184.684L177.839 184.848L176.491 186.135L177.58 185.968ZM179.237 183.514L177.889 184.8L178.975 184.639L180.323 183.352L179.237 183.514ZM180.362 183.347L179.013 184.634L180.101 184.472L181.448 183.186L180.362 183.347ZM181.487 183.179L180.139 184.466L181.226 184.304L182.574 183.017L181.487 183.179ZM182.612 183.011L181.263 184.297L182.35 184.136L183.698 182.849L182.612 183.011ZM183.737 182.843L182.388 184.13L183.475 183.968L184.825 182.68L183.737 182.843ZM184.862 182.675L183.514 183.962L184.601 183.801L185.949 182.514L184.862 182.675ZM183.466 184.008L182.118 185.294L183.205 185.133L184.553 183.846L183.466 184.008ZM182.07 185.34L180.723 186.626L181.81 186.464L183.158 185.178L182.07 185.34ZM180.674 186.672L179.324 187.96L180.412 187.798L181.761 186.51L180.674 186.672ZM179.278 188.004L177.93 189.291L179.017 189.129L180.365 187.842L179.278 188.004ZM177.621 190.461L178.969 189.175L177.882 189.336L176.534 190.623L177.621 190.461ZM176.495 190.629L177.844 189.342L176.756 189.504L175.408 190.79L176.495 190.629ZM175.369 190.796L176.719 189.508L175.632 189.671L174.283 190.958L175.369 190.796ZM174.244 190.964L175.592 189.677L174.505 189.838L173.157 191.125L174.244 190.964ZM173.119 191.131L174.467 189.845L173.38 190.006L172.031 191.293L173.119 191.131Z" fill="#6026DC" fill-opacity="0.5"></path><path d="M170.83 191.509L177.614 190.5L185.352 199.531L178.569 200.54L170.83 191.509ZM178.564 200.489L179.651 200.328L178.411 198.88L177.324 199.043L178.564 200.489ZM178.367 198.829L177.127 197.382L176.04 197.544L177.28 198.991L178.367 198.829ZM178.089 195.492L179.176 195.33L177.937 193.883L176.85 194.046L178.089 195.492ZM176.811 194.051L175.724 194.213L176.964 195.66L178.051 195.498L176.811 194.051ZM178.133 195.543L179.374 196.991L180.46 196.828L179.218 195.38L178.133 195.543ZM178.095 195.549L177.006 195.709L178.246 197.157L179.335 196.995L178.095 195.549ZM176.969 195.717L175.882 195.878L177.123 197.326L178.209 197.164L176.969 195.717ZM176.925 195.665L175.686 194.219L174.598 194.381L175.838 195.828L176.925 195.665ZM175.643 194.166L174.403 192.719L173.316 192.881L174.556 194.328L175.643 194.166ZM175.681 194.161L176.768 193.998L175.528 192.551L174.441 192.713L175.681 194.161ZM176.807 193.993L177.893 193.831L176.653 192.384L175.567 192.545L176.807 193.993ZM177.93 193.825L179.017 193.664L177.777 192.217L176.69 192.379L177.93 193.825ZM177.974 193.877L179.214 195.324L180.301 195.162L179.062 193.715L177.974 193.877ZM179.257 195.376L180.497 196.824L181.584 196.662L180.344 195.215L179.257 195.376ZM180.539 196.876L181.78 198.324L182.866 198.162L181.631 196.714L180.539 196.876ZM180.5 196.882L179.414 197.044L180.654 198.491L181.741 198.329L180.5 196.882ZM179.375 197.049L178.289 197.212L179.528 198.659L180.619 198.496L179.375 197.049ZM178.25 197.217L177.163 197.379L178.408 198.824L179.496 198.662L178.25 197.217ZM177.081 197.333L175.84 195.886L174.754 196.048L175.993 197.495L177.081 197.333ZM175.798 195.834L174.558 194.386L173.471 194.549L174.711 195.995L175.798 195.834ZM174.516 194.334L173.275 192.887L172.188 193.048L173.428 194.496L174.516 194.334ZM170.902 191.548L172.143 192.995L173.229 192.834L171.989 191.387L170.902 191.548ZM172.028 191.38L173.268 192.828L174.358 192.67L173.118 191.222L172.028 191.38ZM173.154 191.213L174.394 192.66L175.48 192.499L174.24 191.051L173.154 191.213ZM174.279 191.045L175.519 192.493L176.608 192.333L175.367 190.885L174.279 191.045ZM175.404 190.878L176.644 192.325L177.731 192.164L176.491 190.716L175.404 190.878ZM176.531 190.713L177.771 192.16L178.858 191.998L177.618 190.551L176.531 190.713ZM177.814 192.213L179.054 193.66L180.141 193.498L178.901 192.051L177.814 192.213ZM179.097 193.712L180.336 195.159L181.426 194.994L180.187 193.548L179.097 193.712ZM180.379 195.212L181.619 196.659L182.706 196.497L181.466 195.05L180.379 195.212ZM181.662 196.712L182.902 198.159L183.996 197.991L182.755 196.543L181.662 196.712ZM185.278 199.49L184.038 198.043L182.951 198.205L184.191 199.653L185.278 199.49ZM184.153 199.658L182.913 198.211L181.826 198.373L183.068 199.818L184.153 199.658ZM183.027 199.826L181.787 198.378L180.7 198.54L181.941 199.987L183.027 199.826ZM181.9 199.995L180.66 198.548L179.573 198.709L180.814 200.157L181.9 199.995ZM180.775 200.162L179.536 198.713L178.449 198.875L179.69 200.322L180.775 200.162Z" fill="#6026DC" fill-opacity="0.5"></path></g><g opacity="0.25" clip-path="url(#clip1_10_503)"><path d="M254.521 217.028L238.826 220.506L241.139 205.24L254.521 217.028Z" fill="#6026DC" fill-opacity="0.4"></path><path opacity="0.65" d="M241.138 205.239L246.897 198.828L260.279 210.616L254.52 217.027L241.138 205.239Z" fill="#6026DC"></path></g><g opacity="0.2"><path d="M108.763 135.438L99.8714 48.4547C99.4938 44.769 96.4206 43.1884 90.53 44.4483C88.5971 44.8618 86.4589 45.5601 84.1652 46.5082L108.763 135.438Z" fill="#6026DC" fill-opacity="0.75"></path><path d="M108.764 135.44L84.1665 46.5104C81.1612 47.752 77.8839 49.4265 74.4579 51.4412L108.764 135.44Z" fill="#6026DC" fill-opacity="0.6"></path><path d="M108.763 135.44L74.4567 51.4405C71.3897 53.2451 68.1956 55.3292 64.9537 57.6334L108.763 135.44Z" fill="#6026DC" fill-opacity="0.4"></path><path d="M108.764 135.439L64.9549 57.6339C61.5482 60.0565 58.0893 62.7238 54.6671 65.5682L108.764 135.439Z" fill="#6026DC" fill-opacity="0.3"></path><path d="M108.766 135.44L54.672 65.5723C51.8199 67.9451 48.9927 70.4393 46.2463 73.0221L108.766 135.44Z" fill="#6026DC" fill-opacity="0.2"></path><path d="M108.762 135.439L46.2402 73.0176C41.9445 77.0381 37.8652 81.2837 34.0195 85.7366C31.4095 88.7486 28.9621 91.8978 26.6878 95.1708L108.762 135.439Z" fill="#6026DC" fill-opacity="0.15"></path><path d="M108.762 135.439L26.6878 95.1708C23.8409 99.3108 21.8489 102.998 20.7336 106.095L108.762 135.439Z" fill="#6026DC" fill-opacity="0.4"></path><path d="M108.762 135.439L20.7357 106.093C19.9549 108.266 19.6058 110.146 19.6994 111.684L108.762 135.439Z" fill="#6026DC" fill-opacity="0.5"></path><path d="M108.762 135.439L19.6995 111.684C19.7869 113.138 20.2689 114.286 21.1517 115.089L108.762 135.439Z" fill="#6026DC" fill-opacity="0.7"></path><path d="M108.762 135.439L21.1517 115.089C21.8108 115.662 22.6085 116.052 23.4655 116.222L108.762 135.439Z" fill="#6026DC" fill-opacity="0.8"></path><g opacity="0.3"><path d="M108.763 135.438L99.8714 48.4547C99.4938 44.769 96.4206 43.1884 90.53 44.4483C88.5971 44.8618 86.4589 45.5601 84.1652 46.5082L108.763 135.438Z" fill="#6026DC" fill-opacity="0.75"></path><path d="M108.764 135.44L84.1665 46.5104C81.1612 47.752 77.8839 49.4265 74.4579 51.4412L108.764 135.44Z" fill="#6026DC" fill-opacity="0.6"></path><path d="M108.763 135.44L74.4567 51.4405C71.3897 53.2451 68.1956 55.3292 64.9537 57.6334L108.763 135.44Z" fill="#6026DC" fill-opacity="0.4"></path><path d="M108.764 135.439L64.9549 57.6339C61.5482 60.0565 58.0893 62.7238 54.6671 65.5682L108.764 135.439Z" fill="#6026DC" fill-opacity="0.3"></path><path d="M108.766 135.44L54.672 65.5723C51.8199 67.9451 48.9927 70.4393 46.2463 73.0221L108.766 135.44Z" fill="#6026DC" fill-opacity="0.2"></path><path d="M108.762 135.439L46.2402 73.0176C41.9445 77.0381 37.8652 81.2837 34.0195 85.7366C31.4095 88.7486 28.9621 91.8978 26.6878 95.1708L108.762 135.439Z" fill="#6026DC" fill-opacity="0.15"></path><path d="M108.762 135.439L26.6878 95.1708C23.8409 99.3108 21.8489 102.998 20.7336 106.095L108.762 135.439Z" fill="#6026DC" fill-opacity="0.4"></path><path d="M108.762 135.439L20.7357 106.093C19.9549 108.266 19.6058 110.146 19.6994 111.684L108.762 135.439Z" fill="#6026DC" fill-opacity="0.5"></path><path d="M108.762 135.439L19.6995 111.684C19.7869 113.138 20.2689 114.286 21.1517 115.089L108.762 135.439Z" fill="#6026DC" fill-opacity="0.7"></path><path d="M108.762 135.439L21.1517 115.089C21.8108 115.662 22.6085 116.052 23.4655 116.222L108.762 135.439Z" fill="#6026DC" fill-opacity="0.8"></path></g></g><g opacity="0.3"><path d="M177.613 190.497L186.026 182.469L178.289 173.439L186.702 165.411L178.963 156.38L187.376 148.352L195.115 157.383L202.852 166.413L210.59 175.444L202.177 183.472L193.764 191.5L185.352 199.528L177.613 190.497Z" fill="#6026DC" fill-opacity="0.3"></path><path d="M180.596 149.359L187.387 148.348L178.964 156.387L172.172 157.398L180.596 149.359Z" fill="#6026DC" fill-opacity="0.75"></path><path d="M179.92 166.417L186.711 165.406L178.287 173.444L171.496 174.456L179.92 166.417Z" fill="#6026DC" fill-opacity="0.75"></path><path d="M179.246 183.474L186.037 182.464L177.613 190.502L170.821 191.513L179.246 183.474Z" fill="#6026DC" fill-opacity="0.75"></path><path d="M178.963 156.375L186.711 165.417L179.919 166.428L172.171 157.386L178.963 156.375Z" fill="#6026DC" fill-opacity="0.5"></path><path d="M178.289 173.435L186.034 182.475L179.243 183.486L171.498 174.446L178.289 173.435Z" fill="#6026DC" fill-opacity="0.5"></path><path d="M170.822 191.505L177.614 190.494L185.362 199.536L178.571 200.547L170.822 191.505Z" fill="#6026DC" fill-opacity="0.5"></path><path d="M172.181 157.391L178.964 156.381L186.702 165.412L179.92 166.42L172.181 157.391ZM178.63 164.873L179.717 164.711L178.477 163.263L177.391 163.427L178.63 164.873ZM179.439 161.373L180.525 161.211L179.284 159.765L178.198 159.927L179.439 161.373ZM178.16 159.931L177.074 160.093L178.314 161.539L179.401 161.378L178.16 159.931ZM179.483 161.424L180.723 162.871L181.809 162.709L180.569 161.262L179.483 161.424ZM179.444 161.43L178.356 161.592L179.596 163.039L180.684 162.877L179.444 161.43ZM178.318 161.597L177.231 161.759L178.472 163.206L179.559 163.044L178.318 161.597ZM178.274 161.546L177.035 160.099L175.948 160.261L177.187 161.708L178.274 161.546ZM176.992 160.046L175.752 158.599L174.665 158.761L175.905 160.209L176.992 160.046ZM177.031 160.041L178.118 159.879L176.878 158.432L175.79 158.593L177.031 160.041ZM178.157 159.876L179.243 159.714L178.002 158.265L176.915 158.427L178.157 159.876ZM179.282 159.709L180.368 159.547L179.128 158.099L178.041 158.261L179.282 159.709ZM179.326 159.76L180.565 161.207L181.652 161.045L180.413 159.598L179.326 159.76ZM180.608 161.259L181.848 162.706L182.935 162.545L181.695 161.097L180.608 161.259ZM181.891 162.759L183.131 164.206L184.218 164.045L182.977 162.597L181.891 162.759ZM181.852 162.765L180.765 162.926L182.005 164.374L183.092 164.212L181.852 162.765ZM180.727 162.932L179.639 163.092L180.879 164.539L181.966 164.377L180.727 162.932ZM179.604 163.097L178.517 163.259L179.757 164.706L180.844 164.544L179.604 163.097ZM177.347 163.376L178.433 163.212L177.193 161.765L176.106 161.926L177.347 163.376ZM176.064 161.876L177.151 161.714L175.911 160.267L174.824 160.429L176.064 161.876ZM174.781 160.376L175.869 160.215L174.624 158.769L173.537 158.931L174.781 160.376ZM172.257 157.43L173.497 158.878L174.581 158.717L173.342 157.271L172.257 157.43ZM173.38 157.264L174.62 158.711L175.707 158.549L174.466 157.102L173.38 157.264ZM174.505 157.096L175.743 158.543L176.83 158.381L175.59 156.934L174.505 157.096ZM175.631 156.929L176.871 158.376L177.956 158.212L176.719 156.765L175.631 156.929ZM176.755 156.76L177.995 158.208L179.082 158.046L177.842 156.598L176.755 156.76ZM178.966 156.432L177.878 156.594L179.119 158.042L180.209 157.879L178.966 156.432ZM180.248 157.932L179.161 158.094L180.401 159.541L181.489 159.38L180.248 157.932ZM181.531 159.432L180.444 159.594L181.684 161.041L182.771 160.879L181.531 159.432ZM182.813 160.931L181.735 161.088L182.974 162.535L184.062 162.373L182.813 160.931ZM184.096 162.431L183.016 162.586L184.256 164.034L185.343 163.872L184.096 162.431ZM186.63 165.372L185.389 163.925L184.3 164.087L185.54 165.535L186.63 165.372ZM185.504 165.54L184.264 164.092L183.177 164.254L184.417 165.702L185.504 165.54ZM184.379 165.707L183.138 164.26L182.051 164.422L183.291 165.869L184.379 165.707ZM183.253 165.875L182.013 164.428L180.926 164.589L182.166 166.037L183.253 165.875ZM182.127 166.042L180.888 164.595L179.8 164.757L181.041 166.204L182.127 166.042ZM179.762 164.763L178.675 164.925L179.915 166.372L181.002 166.21L179.762 164.763Z" fill="#6026DC" fill-opacity="0.5"></path><path d="M180.594 149.367L187.377 148.357L178.964 156.385L172.181 157.396L180.594 149.367ZM173.655 156.017L174.741 155.856L176.089 154.57L175.002 154.731L173.655 156.017ZM179.823 152.85L180.909 152.689L182.257 151.402L181.17 151.564L179.823 152.85ZM181.132 151.57L180.045 151.732L178.697 153.018L179.784 152.856L181.132 151.57ZM179.775 152.896L178.426 154.183L179.513 154.021L180.861 152.734L179.775 152.896ZM179.736 152.902L178.649 153.064L177.301 154.35L178.388 154.189L179.736 152.902ZM178.611 153.069L177.524 153.231L176.175 154.518L177.262 154.356L178.611 153.069ZM178.658 153.024L180.007 151.738L178.92 151.899L177.572 153.185L178.658 153.024ZM180.054 151.692L181.403 150.405L180.315 150.567L178.967 151.854L180.054 151.692ZM180.093 151.686L181.179 151.525L182.528 150.238L181.441 150.4L180.093 151.686ZM181.218 151.519L182.305 151.357L183.653 150.07L182.566 150.232L181.218 151.519ZM182.343 151.351L183.43 151.19L184.779 149.903L183.691 150.065L182.343 151.351ZM182.295 151.397L180.947 152.683L182.035 152.521L183.383 151.235L182.295 151.397ZM180.9 152.729L179.551 154.015L180.639 153.854L181.986 152.568L180.9 152.729ZM179.504 154.061L178.155 155.348L179.243 155.186L180.591 153.899L179.504 154.061ZM179.465 154.066L178.377 154.23L177.028 155.517L178.115 155.355L179.465 154.066ZM178.34 154.234L177.253 154.396L175.905 155.683L176.991 155.521L178.34 154.234ZM177.214 154.402L176.128 154.563L174.779 155.85L175.866 155.689L177.214 154.402ZM175.05 154.686L176.136 154.525L177.485 153.237L176.397 153.4L175.05 154.686ZM176.446 153.354L177.534 153.191L178.882 151.904L177.795 152.066L176.446 153.354ZM177.842 152.022L178.929 151.86L180.277 150.573L179.19 150.735L177.842 152.022ZM180.586 149.403L179.238 150.69L180.325 150.528L181.674 149.241L180.586 149.403ZM181.711 149.235L180.363 150.521L181.45 150.36L182.799 149.073L181.711 149.235ZM182.837 149.068L181.489 150.354L182.576 150.192L183.924 148.905L182.837 149.068ZM183.963 148.9L182.614 150.186L183.701 150.025L185.049 148.738L183.963 148.9ZM185.088 148.732L183.739 150.019L184.827 149.857L186.175 148.571L185.088 148.732ZM187.298 148.404L186.213 148.565L184.865 149.852L185.952 149.69L187.298 148.404ZM185.902 149.737L184.817 149.897L183.469 151.184L184.556 151.022L185.902 149.737ZM184.506 151.069L183.421 151.23L182.073 152.516L183.16 152.354L184.506 151.069ZM183.11 152.401L182.023 152.563L180.677 153.848L181.764 153.685L183.11 152.401ZM181.714 153.733L180.627 153.895L179.282 155.178L180.369 155.016L181.714 153.733ZM178.97 156.352L180.32 155.063L179.233 155.225L177.884 156.513L178.97 156.352ZM177.847 156.518L179.195 155.231L178.108 155.393L176.759 156.68L177.847 156.518ZM176.721 156.685L178.069 155.399L176.983 155.56L175.634 156.847L176.721 156.685ZM175.595 156.853L176.944 155.566L175.857 155.728L174.508 157.015L175.595 156.853ZM174.47 157.021L175.818 155.734L174.731 155.896L173.383 157.183L174.47 157.021ZM174.693 155.902L173.606 156.063L172.257 157.35L173.345 157.188L174.693 155.902Z" fill="#6026DC" fill-opacity="0.5"></path><path d="M179.921 166.42L186.702 165.411L178.289 173.439L171.506 174.449L179.921 166.42ZM171.583 174.404L172.669 174.241L174.017 172.955L172.93 173.116L171.583 174.404ZM174.065 172.909L175.413 171.623L174.327 171.784L172.978 173.071L174.065 172.909ZM179.148 169.905L180.235 169.743L181.582 168.457L180.496 168.618L179.148 169.905ZM180.457 168.624L179.37 168.786L178.022 170.072L179.109 169.911L180.457 168.624ZM179.1 169.95L177.752 171.237L178.839 171.075L180.187 169.788L179.1 169.95ZM179.062 169.956L177.975 170.117L176.626 171.404L177.713 171.243L179.062 169.956ZM177.936 170.123L176.849 170.285L175.501 171.572L176.587 171.41L177.936 170.123ZM177.983 170.078L179.331 168.792L178.245 168.953L176.897 170.24L177.983 170.078ZM179.379 168.746L180.728 167.459L179.641 167.621L178.293 168.908L179.379 168.746ZM179.418 168.74L180.505 168.579L181.854 167.292L180.766 167.453L179.418 168.74ZM180.544 168.573L181.63 168.411L182.979 167.124L181.892 167.286L180.544 168.573ZM181.668 168.406L182.755 168.244L184.104 166.957L183.017 167.119L181.668 168.406ZM181.62 168.452L180.272 169.738L181.359 169.576L182.707 168.29L181.62 168.452ZM180.225 169.784L178.876 171.07L179.963 170.908L181.312 169.621L180.225 169.784ZM178.828 171.116L177.48 172.402L178.567 172.24L179.916 170.953L178.828 171.116ZM178.79 171.121L177.703 171.283L176.355 172.57L177.442 172.408L178.79 171.121ZM177.665 171.289L176.578 171.45L175.229 172.737L176.317 172.575L177.665 171.289ZM176.539 171.456L175.454 171.616L174.106 172.903L175.192 172.742L176.539 171.456ZM175.461 171.577L176.81 170.29L175.723 170.452L174.374 171.738L175.461 171.577ZM176.857 170.245L178.206 168.958L177.118 169.12L175.77 170.406L176.857 170.245ZM178.253 168.913L179.602 167.626L178.514 167.788L177.166 169.074L178.253 168.913ZM179.91 166.456L178.562 167.742L179.649 167.58L180.998 166.294L179.91 166.456ZM181.036 166.288L179.688 167.575L180.774 167.413L182.123 166.126L181.036 166.288ZM182.161 166.123L180.813 167.409L181.9 167.248L183.25 165.959L182.161 166.123ZM183.287 165.955L181.938 167.242L183.025 167.08L184.375 165.792L183.287 165.955ZM184.412 165.788L183.066 167.072L184.153 166.91L185.5 165.624L184.412 165.788ZM185.539 165.618L184.191 166.905L185.277 166.744L186.626 165.457L185.539 165.618ZM184.143 166.951L182.795 168.237L183.882 168.076L185.23 166.789L184.143 166.951ZM182.747 168.283L181.399 169.569L182.486 169.407L183.834 168.121L182.747 168.283ZM181.351 169.615L180.003 170.901L181.09 170.74L182.438 169.453L181.351 169.615ZM179.955 170.947L178.607 172.234L179.694 172.072L181.043 170.784L179.955 170.947ZM178.298 173.404L179.645 172.119L178.557 172.281L177.209 173.567L178.298 173.404ZM177.172 173.572L178.52 172.285L177.434 172.447L176.086 173.733L177.172 173.572ZM176.046 173.739L177.395 172.453L176.308 172.615L174.959 173.902L176.046 173.739ZM174.921 173.907L176.269 172.621L175.182 172.782L173.834 174.069L174.921 173.907ZM173.794 174.076L175.144 172.788L174.056 172.951L172.707 174.238L173.794 174.076Z" fill="#6026DC" fill-opacity="0.5"></path><path d="M171.506 174.449L178.289 173.44L186.027 182.47L179.243 183.479L171.506 174.449ZM179.239 183.428L180.324 183.264L179.084 181.818L177.998 181.982L179.239 183.428ZM179.042 181.768L177.802 180.321L176.716 180.483L177.955 181.93L179.042 181.768ZM178.765 178.43L179.851 178.269L178.611 176.823L177.525 176.984L178.765 178.43ZM177.487 176.991L176.4 177.153L177.64 178.6L178.727 178.438L177.487 176.991ZM178.809 178.483L180.049 179.931L181.135 179.767L179.894 178.32L178.809 178.483ZM178.77 178.489L177.684 178.651L178.923 180.098L180.01 179.936L178.77 178.489ZM177.644 178.656L176.557 178.817L177.797 180.264L178.883 180.102L177.644 178.656ZM177.6 178.604L176.362 177.157L175.275 177.321L176.515 178.768L177.6 178.604ZM176.318 177.105L175.078 175.658L173.991 175.82L175.231 177.267L176.318 177.105ZM176.356 177.099L177.444 176.938L176.204 175.491L175.117 175.653L176.356 177.099ZM177.482 176.932L178.569 176.77L177.329 175.323L176.242 175.485L177.482 176.932ZM178.608 176.764L179.693 176.603L178.454 175.157L177.367 175.318L178.608 176.764ZM178.651 176.816L179.891 178.262L180.975 178.102L179.736 176.656L178.651 176.816ZM179.933 178.315L181.173 179.762L182.26 179.599L181.02 178.153L179.933 178.315ZM181.216 179.814L182.455 181.261L183.543 181.098L182.304 179.651L181.216 179.814ZM181.177 179.819L180.091 179.981L181.33 181.429L182.418 181.266L181.177 179.819ZM180.052 179.987L178.965 180.149L180.205 181.596L181.292 181.434L180.052 179.987ZM178.926 180.155L177.839 180.316L179.079 181.763L180.167 181.602L178.926 180.155ZM177.757 180.271L176.517 178.824L175.43 178.986L176.67 180.433L177.757 180.271ZM176.475 178.772L175.235 177.325L174.148 177.487L175.387 178.933L176.475 178.772ZM175.193 177.273L173.953 175.826L172.866 175.988L174.105 177.435L175.193 177.273ZM171.582 174.49L172.822 175.936L173.909 175.775L172.669 174.327L171.582 174.49ZM172.708 174.322L173.948 175.769L175.033 175.608L173.793 174.162L172.708 174.322ZM173.833 174.154L175.073 175.601L176.158 175.44L174.918 173.993L173.833 174.154ZM174.957 173.988L176.196 175.435L177.283 175.273L176.043 173.826L174.957 173.988ZM176.082 173.821L177.322 175.267L178.409 175.105L177.169 173.658L176.082 173.821ZM177.207 173.653L178.448 175.1L179.534 174.938L178.295 173.491L177.207 173.653ZM178.49 175.152L179.73 176.599L180.817 176.438L179.577 174.99L178.49 175.152ZM179.772 176.652L181.011 178.098L182.1 177.933L180.861 176.486L179.772 176.652ZM181.054 178.151L182.294 179.598L183.381 179.436L182.141 177.989L181.054 178.151ZM182.337 179.65L183.576 181.097L184.663 180.935L183.43 179.484L182.337 179.65ZM185.947 182.433L184.707 180.986L183.62 181.148L184.86 182.595L185.947 182.433ZM184.821 182.601L183.587 181.15L182.5 181.311L183.74 182.758L184.821 182.601ZM183.696 182.768L182.456 181.322L181.376 181.478L182.616 182.925L183.696 182.768ZM182.571 182.936L181.336 181.483L180.248 181.645L181.488 183.092L182.571 182.936ZM181.445 183.104L180.205 181.656L179.123 181.813L180.363 183.26L181.445 183.104Z" fill="#6026DC" fill-opacity="0.5"></path><path d="M179.243 183.478L186.027 182.468L177.614 190.497L170.831 191.506L179.243 183.478ZM170.906 191.462L171.993 191.3L173.342 190.012L172.256 190.174L170.906 191.462ZM173.389 189.968L174.738 188.68L173.652 188.842L172.304 190.128L173.389 189.968ZM178.472 186.96L179.558 186.799L180.906 185.512L179.818 185.676L178.472 186.96ZM179.781 185.68L178.694 185.842L177.345 187.129L178.432 186.967L179.781 185.68ZM178.424 187.006L177.075 188.293L178.162 188.131L179.51 186.844L178.424 187.006ZM178.385 187.012L177.298 187.173L175.95 188.46L177.037 188.299L178.385 187.012ZM177.26 187.179L176.173 187.341L174.824 188.628L175.911 188.466L177.26 187.179ZM177.307 187.134L178.656 185.847L177.568 186.009L176.22 187.295L177.307 187.134ZM178.703 185.802L180.052 184.515L178.964 184.677L177.616 185.964L178.703 185.802ZM178.741 185.796L179.828 185.635L181.177 184.348L180.09 184.509L178.741 185.796ZM179.867 185.629L180.955 185.468L182.303 184.181L181.216 184.342L179.867 185.629ZM180.992 185.461L182.079 185.299L183.426 184.014L182.339 184.175L180.992 185.461ZM180.944 185.507L179.597 186.793L180.683 186.631L182.031 185.345L180.944 185.507ZM179.549 186.839L178.2 188.125L179.287 187.963L180.636 186.677L179.549 186.839ZM178.153 188.171L176.804 189.457L177.891 189.295L179.24 188.009L178.153 188.171ZM178.114 188.176L177.028 188.338L175.679 189.625L176.766 189.463L178.114 188.176ZM176.989 188.344L175.902 188.506L174.553 189.793L175.641 189.631L176.989 188.344ZM175.863 188.512L174.777 188.673L173.428 189.96L174.515 189.798L175.863 188.512ZM174.785 188.634L176.134 187.347L175.047 187.509L173.699 188.795L174.785 188.634ZM176.184 187.299L177.532 186.013L176.445 186.175L175.097 187.461L176.184 187.299ZM177.58 185.967L178.926 184.683L177.839 184.847L176.491 186.134L177.58 185.967ZM179.237 183.513L177.889 184.799L178.975 184.638L180.323 183.352L179.237 183.513ZM180.362 183.346L179.013 184.633L180.101 184.471L181.448 183.185L180.362 183.346ZM181.487 183.178L180.139 184.465L181.226 184.303L182.574 183.016L181.487 183.178ZM182.612 183.01L181.263 184.296L182.35 184.135L183.698 182.848L182.612 183.01ZM183.737 182.842L182.388 184.129L183.475 183.967L184.825 182.679L183.737 182.842ZM184.862 182.674L183.514 183.961L184.601 183.8L185.949 182.513L184.862 182.674ZM183.466 184.007L182.118 185.294L183.205 185.132L184.553 183.845L183.466 184.007ZM182.07 185.339L180.723 186.625L181.81 186.463L183.158 185.177L182.07 185.339ZM180.674 186.671L179.324 187.959L180.412 187.797L181.761 186.509L180.674 186.671ZM179.278 188.003L177.93 189.29L179.017 189.128L180.365 187.841L179.278 188.003ZM177.621 190.46L178.969 189.174L177.882 189.335L176.534 190.622L177.621 190.46ZM176.495 190.628L177.844 189.341L176.756 189.503L175.408 190.789L176.495 190.628ZM175.369 190.795L176.719 189.507L175.632 189.67L174.283 190.957L175.369 190.795ZM174.244 190.963L175.592 189.676L174.505 189.837L173.157 191.124L174.244 190.963ZM173.119 191.13L174.467 189.844L173.38 190.005L172.031 191.292L173.119 191.13Z" fill="#6026DC" fill-opacity="0.5"></path><path d="M170.83 191.508L177.614 190.499L185.352 199.53L178.569 200.539L170.83 191.508ZM178.564 200.488L179.651 200.327L178.411 198.879L177.324 199.042L178.564 200.488ZM178.367 198.828L177.127 197.381L176.04 197.543L177.28 198.99L178.367 198.828ZM178.089 195.491L179.176 195.329L177.937 193.882L176.85 194.045L178.089 195.491ZM176.811 194.05L175.724 194.212L176.964 195.659L178.051 195.497L176.811 194.05ZM178.133 195.542L179.374 196.99L180.46 196.827L179.218 195.379L178.133 195.542ZM178.095 195.548L177.006 195.708L178.246 197.156L179.335 196.994L178.095 195.548ZM176.969 195.716L175.882 195.877L177.123 197.325L178.209 197.163L176.969 195.716ZM176.925 195.665L175.686 194.218L174.598 194.38L175.838 195.827L176.925 195.665ZM175.643 194.165L174.403 192.718L173.316 192.88L174.556 194.327L175.643 194.165ZM175.681 194.16L176.768 193.997L175.528 192.55L174.441 192.712L175.681 194.16ZM176.807 193.992L177.893 193.83L176.653 192.383L175.567 192.544L176.807 193.992ZM177.93 193.825L179.017 193.663L177.777 192.216L176.69 192.378L177.93 193.825ZM177.974 193.876L179.214 195.323L180.301 195.161L179.062 193.714L177.974 193.876ZM179.257 195.375L180.497 196.823L181.584 196.661L180.344 195.214L179.257 195.375ZM180.539 196.875L181.78 198.323L182.866 198.161L181.631 196.713L180.539 196.875ZM180.5 196.881L179.414 197.043L180.654 198.49L181.741 198.329L180.5 196.881ZM179.375 197.048L178.289 197.211L179.528 198.658L180.619 198.495L179.375 197.048ZM178.25 197.216L177.163 197.378L178.408 198.823L179.496 198.661L178.25 197.216ZM177.081 197.332L175.84 195.885L174.754 196.047L175.993 197.494L177.081 197.332ZM175.798 195.833L174.558 194.385L173.471 194.548L174.711 195.994L175.798 195.833ZM174.516 194.333L173.275 192.886L172.188 193.048L173.428 194.495L174.516 194.333ZM170.902 191.547L172.143 192.994L173.229 192.833L171.989 191.386L170.902 191.547ZM172.028 191.379L173.268 192.827L174.358 192.669L173.118 191.221L172.028 191.379ZM173.154 191.212L174.394 192.659L175.48 192.498L174.24 191.05L173.154 191.212ZM174.279 191.044L175.519 192.492L176.608 192.332L175.367 190.884L174.279 191.044ZM175.404 190.877L176.644 192.324L177.731 192.163L176.491 190.715L175.404 190.877ZM176.531 190.712L177.771 192.159L178.858 191.997L177.618 190.55L176.531 190.712ZM177.814 192.212L179.054 193.659L180.141 193.497L178.901 192.05L177.814 192.212ZM179.097 193.711L180.336 195.158L181.426 194.993L180.187 193.547L179.097 193.711ZM180.379 195.211L181.619 196.658L182.706 196.496L181.466 195.049L180.379 195.211ZM181.662 196.711L182.902 198.158L183.996 197.99L182.755 196.542L181.662 196.711ZM185.278 199.489L184.038 198.042L182.951 198.204L184.191 199.652L185.278 199.489ZM184.153 199.657L182.913 198.21L181.826 198.372L183.068 199.817L184.153 199.657ZM183.027 199.825L181.787 198.377L180.7 198.539L181.941 199.986L183.027 199.825ZM181.9 199.994L180.66 198.547L179.573 198.708L180.814 200.156L181.9 199.994ZM180.775 200.161L179.536 198.712L178.449 198.874L179.69 200.321L180.775 200.161Z" fill="#6026DC" fill-opacity="0.5"></path></g><g opacity="0.25" clip-path="url(#clip2_10_503)"><path d="M254.523 217.028L238.828 220.506L241.141 205.24L254.523 217.028Z" fill="#6026DC" fill-opacity="0.4"></path><path opacity="0.65" d="M241.139 205.24L246.898 198.829L260.28 210.617L254.521 217.028L241.139 205.24Z" fill="#6026DC"></path></g><defs><clipPath id="clip0_10_503"><rect width="24.331" height="21.9126" fill="white" transform="translate(263.527 202.881) rotate(105.83)"></rect></clipPath><clipPath id="clip1_10_503"><rect width="24.331" height="21.9126" fill="white" transform="translate(263.526 202.881) rotate(105.83)"></rect></clipPath><clipPath id="clip2_10_503"><rect width="24.331" height="21.9126" fill="white" transform="translate(263.527 202.881) rotate(105.83)"></rect></clipPath></defs></svg>