<?xml version="1.0" standalone="no"?>
<!DOCTYPE svg PUBLIC "-//W3C//DTD SVG 20010904//EN"
 "http://www.w3.org/TR/2001/REC-SVG-20010904/DTD/svg10.dtd">
<svg version="1.0" xmlns="http://www.w3.org/2000/svg"
 width="360" height="80" viewBox="0 0 652.000000 383.000000"
 preserveAspectRatio="xMidYMid meet">

<g transform="translate(0.000000,383.000000) scale(0.100000,-0.100000)"
fill="#000000" stroke="none">
<path d="M2476 2900 c-99 -16 -207 -49 -291 -90 -158 -76 -167 -99 -76 -193
l60 -62 93 47 c51 25 111 51 134 57 28 7 44 19 52 36 26 57 106 34 100 -29 -5
-51 -71 -67 -99 -23 -12 17 -235 -72 -253 -101 -8 -13 108 -123 130 -124 10 0
55 12 99 28 70 25 94 29 190 29 90 0 124 -4 184 -24 l74 -24 24 28 c24 27 24
29 21 211 -2 122 -7 187 -15 195 -34 34 -302 58 -427 39z"/>
<path d="M1849 2548 c-47 -51 -126 -185 -158 -268 -83 -215 -89 -472 -17 -680
57 -161 144 -300 190 -300 13 0 45 24 85 64 l63 63 -46 70 c-25 39 -55 95 -66
124 -12 30 -36 66 -53 80 -28 24 -31 30 -22 55 6 17 21 33 37 38 53 19 91 -52
52 -95 -15 -17 -15 -22 6 -74 26 -63 95 -175 108 -175 10 0 122 115 122 125 0
4 -16 38 -35 77 -92 187 -83 400 25 567 22 34 40 73 40 87 0 27 -83 124 -106
124 -20 0 -101 -113 -142 -198 -32 -68 -33 -74 -18 -91 37 -41 -2 -113 -54
-96 -47 15 -50 84 -4 107 18 9 34 32 49 70 13 32 47 92 77 133 29 42 57 83 63
90 13 19 -110 135 -143 135 -13 0 -36 -14 -53 -32z"/>
<path d="M4502 2003 l3 -278 38 -3 37 -3 0 280 0 281 -40 0 -40 0 2 -277z"/>
<path d="M4710 2000 l0 -280 40 0 40 0 0 280 0 280 -40 0 -40 0 0 -280z"/>
<path d="M3392 1993 l3 -268 40 0 40 0 3 268 2 267 -45 0 -45 0 2 -267z"/>
<path d="M4115 2251 c-16 -26 -202 -521 -197 -526 3 -3 23 -5 44 -5 37 0 39 2
63 55 l24 56 122 -3 122 -3 20 -52 c19 -51 21 -53 58 -53 21 0 40 4 44 9 3 6
-40 127 -96 270 l-102 261 -48 0 c-26 0 -50 -4 -54 -9z m106 -228 c18 -50 29
-98 26 -107 -5 -13 -22 -16 -81 -16 -41 0 -78 5 -81 10 -7 11 24 111 57 189
16 39 21 43 33 30 8 -8 29 -55 46 -106z"/>
<path d="M3667 2208 c-9 -5 -17 -19 -17 -31 0 -49 -11 -67 -41 -67 -26 0 -29
-3 -29 -34 0 -30 3 -35 28 -38 l27 -3 5 -131 c6 -149 13 -166 82 -185 50 -13
90 -4 128 28 25 21 30 32 30 69 0 44 0 44 -35 44 -30 0 -35 -3 -35 -23 0 -13
-5 -28 -12 -35 -14 -14 -54 -16 -63 -3 -9 15 -15 215 -7 228 4 6 30 13 57 15
48 3 50 4 53 36 l3 32 -55 0 c-49 0 -56 3 -61 23 -3 12 -4 33 -3 46 3 27 -28
44 -55 29z"/>
<path d="M2459 2110 c-105 -31 -160 -175 -110 -285 46 -102 152 -137 259 -86
32 15 35 14 47 -2 10 -13 24 -17 52 -15 l38 3 0 190 0 190 -38 3 c-28 2 -42
-2 -51 -14 -12 -16 -16 -16 -58 4 -45 22 -92 27 -139 12z m154 -91 c57 -44 60
-150 5 -201 -54 -50 -149 -34 -184 33 -29 57 -11 139 38 173 33 23 109 21 141
-5z"/>
<path d="M3011 2098 c-41 -20 -44 -20 -56 -4 -10 12 -24 16 -52 14 l-38 -3 0
-280 0 -280 40 0 40 0 3 98 c3 108 10 119 59 94 130 -67 272 25 273 176 0 153
-139 250 -269 185z m127 -74 c31 -21 52 -66 52 -109 0 -73 -47 -125 -113 -125
-97 0 -157 102 -112 190 22 42 53 60 105 60 25 0 56 -7 68 -16z"/>
<path d="M2955 1459 c-61 -41 -147 -80 -212 -95 -129 -31 -296 -5 -410 62 -28
16 -53 24 -66 20 -12 -3 -46 -30 -76 -60 l-53 -54 43 -32 c43 -32 162 -92 206
-105 16 -4 25 0 33 15 15 27 75 28 90 1 15 -29 12 -56 -8 -74 -26 -24 -57 -21
-80 8 -11 13 -46 34 -78 46 -51 19 -152 73 -206 112 -15 10 -26 3 -78 -48 -49
-49 -60 -65 -60 -92 0 -30 7 -38 70 -78 316 -205 717 -217 1044 -30 119 67
166 110 166 148 0 27 -17 49 -124 154 -133 133 -147 140 -201 102z"/>
</g>
</svg>
