<svg xmlns="http://www.w3.org/2000/svg" xmlns:xlink="http://www.w3.org/1999/xlink" width="70px" height="25px" viewBox="0 0 70 25"><title>fishpond-logo</title><desc>Created with Sketch.</desc><g id="Page-1" stroke="none" stroke-width="1" fill="none" fill-rule="evenodd"><g id="fishpond-logo" transform="translate(-10.000000, -11.000000)"><path d="M35.4316733,14.9414876 C35.4505473,14.9938966 35.4768031,15.0443303 35.5099113,15.0917721 C35.5400028,15.131191 35.5099113,15.1977104 35.5520394,15.2346656 C35.5941676,15.2716209 35.6904605,15.3036487 35.7506435,15.355386 C35.8108266,15.4071233 35.8439273,15.463788 35.9101287,15.5130616 C35.97633,15.5623352 35.9973941,15.6510278 36.0696138,15.695374 C36.1418335,15.7397203 36.289282,15.695374 36.3705291,15.7397203 C36.4517762,15.7840666 36.4547854,15.8407312 36.5179776,15.8727591 C36.5811698,15.9047869 36.6985268,15.9220327 36.7857922,15.9639153 C36.8730577,16.0057979 36.9543048,16.0427531 37.0415703,16.0797083 C37.1288357,16.1166635 37.1589272,16.1659371 37.2281378,16.1930376 C37.2973483,16.2201381 37.4177144,16.252166 37.5109982,16.2891212 C37.6042819,16.3260764 37.6614558,16.3236127 37.7336755,16.3507132 C37.8058952,16.3778137 37.9142247,16.4320147 38.0165359,16.4665063 C38.1188471,16.5009978 38.154957,16.5330256 38.2301858,16.5551988 C38.3054146,16.5773719 38.4348082,16.6020087 38.5311011,16.6291092 C38.627394,16.6562097 38.6905862,16.6562097 38.7688242,16.6783828 C38.8470622,16.700556 38.979465,16.7227291 39.0877945,16.7498296 C39.196124,16.7769301 39.2442704,16.7818575 39.3255176,16.8015669 C39.4067647,16.8212764 39.5030576,16.9469241 39.6264329,16.9715609 C39.7498082,16.9961977 39.8039729,16.9715609 39.8852201,16.9888067 C39.9664672,17.0060524 40.119934,16.9715609 40.2312727,16.9888067 C40.3426114,17.0060524 40.3787212,17.0799629 40.4599684,17.0972086 C40.5412155,17.1144544 40.6194535,17.156337 40.7037098,17.1735828 C40.7879661,17.1908285 40.9203688,17.2376385 41.0317075,17.2598116 C41.1430461,17.2819847 41.2152658,17.2598116 41.2995221,17.2598116 C41.3837784,17.2598116 41.5282178,17.2893758 41.6425656,17.3090852 C41.7569134,17.3287947 41.8140873,17.3287947 41.8983436,17.3435768 C41.9825999,17.3583589 42.0788928,17.3435768 42.1661582,17.3558952 C42.2534237,17.3682136 42.3798081,17.4642972 42.4941559,17.4815429 C42.6085038,17.4987887 42.6807234,17.4593698 42.7679889,17.4815429 C42.8552543,17.5037161 42.9304832,17.5603807 43.0207578,17.5726991 C43.1110324,17.5850175 43.2524626,17.6096543 43.3698195,17.6269001 C43.4871765,17.6441459 43.556387,17.5973359 43.6436525,17.6071907 C43.7309179,17.6170454 43.8151742,17.6687827 43.9054488,17.6786374 C43.9957234,17.6884921 44.1491902,17.6786374 44.2695564,17.6786374 C44.3899225,17.6786374 44.4440872,17.7106653 44.5343618,17.72052 C44.6246364,17.7303747 44.7119019,17.7500842 44.8021765,17.7574752 C44.8924511,17.7648663 45.0459179,17.7574752 45.166284,17.7574752 L45.4371078,17.7796484 C45.5273824,17.7796484 45.617657,17.7944304 45.7109408,17.8018215 C45.8042245,17.8092125 45.8884808,17.8634135 45.9787554,17.8708046 C46.06903,17.8781956 46.1653229,17.8486314 46.2555975,17.8535588 C46.3458721,17.8584862 46.4361467,17.9151508 46.5264213,17.9225419 C46.6166959,17.9299329 46.7220163,17.8313857 46.8273366,17.836313 C46.932657,17.8412404 47.010895,17.8806593 47.1011696,17.8880503 C47.1914442,17.8954414 47.2817188,17.9397876 47.3750025,17.944715 C47.4682863,17.9496424 47.56157,17.9151508 47.6548538,17.9225419 C47.7481375,17.9299329 47.8414213,17.9225419 47.934705,17.9225419 C48.0279888,17.9225419 48.112245,17.9939886 48.208538,17.998916 C48.3048309,18.0038433 48.3951055,17.9718155 48.4883892,17.9792065 C48.581673,17.9865976 48.6779659,17.9545697 48.7712496,17.9570334 C48.8645334,17.9594971 48.9578171,17.944715 49.05411,17.9570334 C49.1504029,17.9693518 49.2346592,18.0383349 49.3309521,18.0407986 C49.427245,18.0432622 49.5175196,18.0013797 49.6108034,18.006307 C49.7040871,18.0112344 49.8033892,17.9792065 49.8966729,17.9816702 C49.9899567,17.9841339 50.0802313,18.0703627 50.1765242,18.0728264 C50.2728171,18.0752901 50.3661008,18.0038433 50.4623937,18.006307 C50.5586866,18.0087707 50.6459521,18.0728264 50.742245,18.0752901 L51.0251054,18.0752901 C51.1213983,18.0752901 51.2176912,18.0974632 51.3109749,18.0999269 C51.4042587,18.1023906 51.5005516,18.0629717 51.6118903,18.0654354 C51.7232289,18.0678991 51.7984578,18.0654354 51.8977598,18.0654354 C51.9970619,18.0654354 52.0873365,18.0407986 52.1806202,18.0407986 C52.273904,18.0407986 52.373206,18.1097816 52.4815356,18.1097816 C52.5898651,18.1097816 52.6741214,18.0678991 52.7824509,18.0678991 C52.8907804,18.0678991 52.9720275,18.1344184 53.0833662,18.1319548 L53.3842815,18.1319548 C53.4775653,18.1319548 53.5738582,18.0432622 53.6701511,18.0407986 L53.8627369,18.0407986 C53.9409749,18.0407986 54.0252312,18.1368821 54.1034692,18.1368821 C54.1817071,18.1368821 54.2629543,18.114709 54.3411923,18.1122453 C54.4194302,18.1097816 54.4976682,18.0284802 54.5759062,18.0260165 C54.6541442,18.0235528 54.7384005,18.0925359 54.8136293,18.0900722 C54.8888582,18.0876085 54.9731144,18.114709 55.0513524,18.1122453 C55.1295904,18.1097816 55.2349108,18.0802175 55.3281945,18.0777538 C55.4214783,18.0752901 55.5117529,18.0407986 55.6050366,18.0383349 C55.6983204,18.0358712 55.788595,18.0161617 55.8788696,18.0136981 C55.9691442,18.0112344 56.0624279,17.9939886 56.1527025,17.9915249 C56.2429771,17.9890613 56.3362609,17.9915249 56.4265355,17.9915249 C56.5168101,17.9915249 56.6100938,18.006307 56.6973592,18.0038433 C56.7846247,18.0013797 56.8809176,18.0703627 56.968183,18.0654354 C57.0554485,18.060508 57.1457231,18.0186254 57.2329885,18.0161617 C57.320254,18.0136981 57.4075194,17.9594971 57.4947849,17.9570334 C57.5820503,17.9545697 57.6723249,17.9816702 57.7595903,17.9792065 C57.8468558,17.9767428 57.9311121,17.9939886 58.0183775,17.9792065 C58.105643,17.9644244 58.1959176,17.9964523 58.2771647,17.9915249 C58.3584118,17.9865976 58.4757688,17.9570334 58.57808,17.952106 C58.6803912,17.9471787 58.773675,17.9323966 58.8789953,17.9274692 C58.9843157,17.9225419 59.0715812,17.9052961 59.1799107,17.897905 C59.2882402,17.890514 59.3694873,17.8486314 59.4657802,17.8437041 C59.5620731,17.8387767 59.6613752,17.8658772 59.7666956,17.8584862 C59.8720159,17.8510951 59.9502539,17.8190673 60.0465468,17.8141399 C60.1428397,17.8092125 60.2391326,17.8806593 60.3324164,17.8732682 C60.4257001,17.8658772 60.5129656,17.8313857 60.6062493,17.8264583 C60.6995331,17.8215309 60.7837894,17.7648663 60.8740639,17.7574752 L61.1418786,17.7402295 C61.2441898,17.7402295 61.3495102,17.7550115 61.4427939,17.7402295 C61.5360777,17.7254474 61.6504255,17.7673299 61.7437092,17.7599389 C61.836993,17.7525479 61.9332859,17.666319 62.0295788,17.658928 C62.1258717,17.6515369 62.2281829,17.658928 62.3304941,17.658928 C62.4328053,17.658928 62.5260891,17.658928 62.6314094,17.658928 C62.7367298,17.658928 62.8119586,17.5776265 62.8992241,17.5702354 C62.9864895,17.5628444 63.0918099,17.5702354 63.1820845,17.5702354 C63.2723591,17.5702354 63.3656428,17.5702354 63.4529083,17.5529897 C63.5401737,17.5357439 63.6515124,17.5209618 63.7538236,17.5086434 C63.8561348,17.496325 63.9614552,17.5357439 64.0547389,17.5234255 C64.1480227,17.5111071 64.2352881,17.4445877 64.3285719,17.4298056 C64.4218556,17.4150235 64.527176,17.4593698 64.6294872,17.4445877 C64.7317984,17.4298056 64.8160547,17.3534315 64.9153568,17.3361857 C65.0146588,17.31894 65.1049334,17.2918395 65.2162721,17.2745937 C65.3276107,17.2573479 65.3998304,17.2277838 65.4931142,17.210538 C65.5863979,17.1932922 65.6736634,17.1711191 65.763938,17.156337 C65.8542126,17.1415549 65.9625421,17.1366275 66.0648533,17.1144544 C66.1671645,17.0922813 66.2724849,17.1341639 66.3657686,17.1144544 C66.4590524,17.094745 66.5402995,17.0085161 66.6335833,16.9838793 C66.726867,16.9592425 66.8111233,16.9222873 66.8983887,16.8951868 C66.9856542,16.8680863 67.0879654,16.8533042 67.17824,16.8262037 C67.2685146,16.7991032 67.3828624,16.8262037 67.4641095,16.8015669 C67.5453567,16.7769301 67.6115581,16.6882376 67.6928052,16.6562097 C67.7740523,16.6241819 67.9094642,16.6365003 67.9937205,16.599545 C68.0779768,16.5625898 68.1110775,16.4418694 68.1832972,16.4024505 C68.2555168,16.3630316 68.3668555,16.3359311 68.4330569,16.2915849 C68.5085931,16.2430711 68.5781365,16.1886095 68.6406885,16.1289819 C68.709899,16.0624625 68.8453109,16.035362 68.8814207,15.9713063 C68.9105005,15.8914132 68.9166789,15.8071049 68.8994756,15.7249382 C68.8994756,15.695374 68.9536404,15.6608825 68.9476221,15.6313183 C68.9416038,15.6017541 68.8302651,15.5475532 68.8001736,15.4958158 C68.7757611,15.4618651 68.7464634,15.4304341 68.7129081,15.402196 C68.6767983,15.355386 68.7129081,15.2666935 68.6467068,15.2223472 C68.5991971,15.1721897 68.5457783,15.1259787 68.4872216,15.0843811 C68.4450935,15.0548169 68.3909287,15.0227891 68.3427823,14.9956886 C68.2751871,14.9539901 68.2048695,14.9153353 68.1321416,14.8798955 C68.0659402,14.845404 67.9425649,14.8798955 67.8643269,14.8429403 C67.7860889,14.8059851 67.7710432,14.7567115 67.7108601,14.729611 C67.650677,14.7025105 67.5664208,14.6359911 67.4821645,14.6039632 C67.3979082,14.5719354 67.2865695,14.6039632 67.1993041,14.5694717 C67.1120386,14.5349802 67.0759288,14.5177344 67.0067183,14.4955613 C66.9375077,14.4733881 66.8803338,14.4462876 66.8111233,14.4265782 C66.7419128,14.4068687 66.6215466,14.4019414 66.5282629,14.3773046 C66.4349791,14.3526678 66.3778052,14.3773046 66.3055855,14.3625225 C66.2333659,14.3477404 66.1731828,14.3181762 66.1039723,14.3009305 C66.0347618,14.2836847 65.9866153,14.1949922 65.9143956,14.1802101 C65.8421759,14.165428 65.7218098,14.1506459 65.6134803,14.1309364 C65.5051508,14.111227 65.4269128,14.0841265 65.3306199,14.0668807 C65.234327,14.049635 65.1440524,14.0102161 65.0447503,13.9905066 C64.9454483,13.9707972 64.8461462,13.9905066 64.743835,13.9683335 C64.6415238,13.9461604 64.5392126,13.9806519 64.4429197,13.9683335 C64.3466268,13.9560151 64.2413064,13.9683335 64.1420044,13.948624 C64.0427023,13.9289146 63.9524277,13.8821046 63.8561348,13.8697862 C63.7598419,13.8574678 63.663549,13.8303673 63.5552195,13.8155852 C63.44689,13.8008032 63.3475879,13.8426857 63.2543042,13.8303673 C63.1610204,13.8180489 63.0707458,13.7490659 62.9714438,13.7392111 C62.8721417,13.7293564 62.7698305,13.7564569 62.6705284,13.7392111 C62.5712264,13.7219654 62.4779426,13.6776191 62.3696131,13.6677644 L62.0686978,13.6431276 C61.9693957,13.6431276 61.8700937,13.6431276 61.7677825,13.6431276 C61.6654713,13.6431276 61.5721875,13.6431276 61.4668671,13.6308092 C61.3615468,13.6184907 61.2833088,13.547044 61.1840067,13.5396529 L60.8830914,13.5174798 C60.7867985,13.5174798 60.6844873,13.5593624 60.5821761,13.5519714 C60.4798649,13.5445803 60.3956086,13.4706699 60.2993157,13.4657425 C60.2030228,13.4608151 60.1037207,13.5076251 59.9984004,13.5026977 C59.89308,13.4977704 59.814842,13.4287873 59.7185491,13.4238599 C59.6222562,13.4189326 59.5229541,13.4238599 59.4176338,13.4238599 C59.3123134,13.4238599 59.2280571,13.3869047 59.1167185,13.3819774 C59.0053798,13.37705 58.9271418,13.3474858 58.833858,13.3450221 C58.7405743,13.3425585 58.6412722,13.3942958 58.5329427,13.3918321 C58.4246132,13.3893684 58.3493844,13.3474858 58.2530915,13.3450221 C58.1567986,13.3425585 58.0635148,13.3819774 57.9702311,13.3795137 C57.8769473,13.37705 57.6994073,13.3573405 57.5970961,13.3573405 C57.4947849,13.3573405 57.4075194,13.4090778 57.3142357,13.4066142 C57.2209519,13.4041505 57.1306773,13.3795137 57.0404027,13.3795137 C56.9501281,13.3795137 56.8568444,13.3524132 56.7635606,13.3524132 C56.6702769,13.3524132 56.5830114,13.3031396 56.4897277,13.3006759 C56.3964439,13.2982122 56.3091785,13.3474858 56.2189039,13.3474858 C56.1286293,13.3474858 56.0383547,13.3006759 55.9450709,13.3031396 L55.6772563,13.3031396 C55.5869817,13.3031396 55.4997163,13.3499495 55.4094417,13.3499495 C55.3191671,13.3499495 55.2349108,13.4164689 55.1476453,13.4189326 C55.0603799,13.4213963 54.9219588,13.3203853 54.8136293,13.322849 C54.7052998,13.3253127 54.5969703,13.3869047 54.4886408,13.3893684 C54.3803113,13.3918321 54.2719817,13.4115415 54.1636522,13.4164689 C54.0553227,13.4213963 53.9500023,13.3869047 53.8416728,13.3893684 C53.7333433,13.3918321 53.6280229,13.3721226 53.5227026,13.37705 C53.4173822,13.3819774 53.3180802,13.4509604 53.2217873,13.4583515 C53.1254944,13.4657425 53.0141557,13.4780609 52.9208719,13.485452 C52.8275882,13.492843 52.7192587,13.5248709 52.6199566,13.5322619 C52.5206545,13.5396529 52.4153342,13.5199435 52.3190413,13.5322619 C52.2227484,13.5445803 52.117428,13.5593624 52.018126,13.5667534 C51.9188239,13.5741445 51.8165127,13.5495077 51.7172106,13.5667534 L51.4162953,13.5913903 C51.3169933,13.5913903 51.2267187,13.6480549 51.1304258,13.6579096 C51.0341328,13.6677644 50.9258033,13.6061723 50.8295104,13.6160271 C50.7332175,13.6258818 50.6549795,13.7195017 50.5616958,13.7293564 C50.468412,13.7392111 50.3661008,13.7022559 50.2607805,13.7121106 C50.1554601,13.7219654 50.0681947,13.6973285 49.9809292,13.7121106 C49.8936638,13.7268927 49.80038,13.7539932 49.7101054,13.7687753 C49.6198308,13.7835574 49.5115013,13.8722499 49.4091901,13.8894957 C49.3068789,13.9067415 49.1865128,13.8894957 49.0842015,13.9018141 C48.9818903,13.9141325 48.8855974,13.9584788 48.7832862,13.9757245 C48.680975,13.9929703 48.5726455,13.9757245 48.4823709,13.995434 C48.3920963,14.0151434 48.2897851,14.0644171 48.1814556,14.0865902 L47.8985952,14.1531096 C47.8293846,14.1777464 47.9467416,14.1703553 48.0490528,14.1531096 C48.1282638,14.1341381 48.208614,14.1185141 48.2897851,14.1062996 C48.3620048,14.1062996 48.4312153,14.0447076 48.5275082,14.0348529 C48.6238011,14.0249982 48.6990299,14.0545623 48.7953228,14.0348529 C48.8916157,14.0151434 48.9698537,13.9831156 49.0631375,13.9757245 C49.1564212,13.9683335 49.249705,14.0274618 49.3459979,14.0200708 C49.4422908,14.0126797 49.5265471,13.9880429 49.62284,13.9831156 C49.7191329,13.9781882 49.80038,13.9165962 49.8966729,13.9092051 C49.9929658,13.9018141 50.0862496,13.9584788 50.1975882,13.9535514 C50.3089269,13.948624 50.3841557,13.9658698 50.4834578,13.9535514 C50.5827599,13.941233 50.6670162,13.9239872 50.7633091,13.9190599 C50.859602,13.9141325 50.9498766,13.8550041 51.0461695,13.8525405 C51.1424624,13.8500768 51.2357461,13.8993504 51.3470848,13.8968867 C51.4584235,13.894423 51.5336523,13.8599315 51.6299452,13.8574678 C51.7262381,13.8550041 51.8195218,13.8402221 51.9158147,13.8352947 C52.0121077,13.8303673 52.1084006,13.8352947 52.2167301,13.8352947 C52.3250596,13.8352947 52.412325,13.8993504 52.5176454,13.8968867 C52.6229658,13.894423 52.7042129,13.7983395 52.8005058,13.7958758 C52.8967987,13.7934121 52.9961008,13.8623952 53.1014211,13.8623952 L53.4023364,13.8623952 C53.4956202,13.8623952 53.5949223,13.82544 53.7032518,13.82544 C53.8115813,13.82544 53.8958376,13.8894957 54.0041671,13.8894957 C54.1124966,13.8894957 54.1967529,13.8426857 54.3050824,13.8426857 C54.4134119,13.8426857 54.4976682,13.8894957 54.6059977,13.8894957 C54.7143273,13.8894957 54.7985836,13.8229763 54.9069131,13.82544 C55.0152426,13.8279037 55.0994989,13.8106579 55.2078284,13.8131216 C55.3161579,13.8155852 55.4004142,13.7934121 55.5087437,13.7958758 C55.6170732,13.7983395 55.7013295,13.8993504 55.809659,13.8993504 C55.9179886,13.8993504 56.005254,13.832831 56.1105744,13.832831 C56.2158947,13.832831 56.3031602,13.8574678 56.4114897,13.8574678 C56.5198192,13.8574678 56.6040755,13.8229763 56.712405,13.82544 C56.8207345,13.8279037 56.908,13.8451494 57.0133203,13.8476131 C57.1186407,13.8500768 57.202897,13.9116688 57.2991899,13.9141325 C57.3954828,13.9165962 57.4406201,13.8648589 57.5038123,13.8673226 C57.5670045,13.8697862 57.6632974,13.9067415 57.7415354,13.9092051 C57.8197734,13.9116688 57.9070389,13.8451494 57.9852768,13.8500768 C58.0635148,13.8550041 58.1417528,13.9141325 58.2199908,13.9190599 C58.2982288,13.9239872 58.3824851,13.8673226 58.460723,13.8697862 C58.538961,13.8722499 58.6141899,13.9338419 58.6924278,13.9387693 C58.7706658,13.9436967 58.8850137,13.9018141 58.9933432,13.9067415 C59.1016727,13.9116688 59.1738924,13.9978977 59.2671761,14.002825 L59.5440182,14.002825 C59.637302,14.002825 59.736604,13.9757245 59.8268786,13.9831156 C59.9171532,13.9905066 60.0134461,13.9831156 60.1067299,13.9831156 C60.2000136,13.9831156 60.2782516,14.0693444 60.3685262,14.0767355 C60.4588008,14.0841265 60.5581029,14.0151434 60.6483775,14.0249982 C60.7386521,14.0348529 60.8319358,14.0249982 60.9192012,14.0249982 C61.0064667,14.0249982 61.0877138,14.111227 61.1779884,14.1210817 C61.268263,14.1309364 61.3525193,14.1481822 61.4397848,14.1555733 C61.5270502,14.1629643 61.6263523,14.1062996 61.7136177,14.1161544 C61.8008831,14.1260091 61.876112,14.2097742 61.9603683,14.219629 C62.0446246,14.2294837 62.13189,14.2491931 62.2161463,14.2590479 C62.3004026,14.2689026 62.4328053,14.2023832 62.5170616,14.2147016 C62.6013179,14.22702 62.70062,14.3033941 62.7969129,14.3157125 C62.8932058,14.3280309 63.0045444,14.2713663 63.0978282,14.2861484 L63.3987435,14.3255673 C63.4920273,14.3403493 63.5792927,14.3846956 63.6725765,14.397014 C63.7658602,14.4093324 63.8651623,14.4093324 63.9524277,14.4265782 L64.2292698,14.458606 C64.3165353,14.4733881 64.3977824,14.5275891 64.4850478,14.5448349 C64.5723133,14.5620807 64.6956886,14.5448349 64.7859632,14.567008 C64.8762378,14.5891812 64.9665124,14.6581642 65.0597961,14.6778737 C65.1530799,14.6975831 65.2614094,14.6778737 65.3607114,14.6951194 L65.6345444,14.7517841 C65.724819,14.7739572 65.824121,14.7517841 65.9083773,14.7813483 C65.9926336,14.8109125 66.1009631,14.838013 66.2092926,14.8626498 C66.3176222,14.8872866 66.3988693,14.899605 66.4861347,14.9217781 L66.7870501,14.9932249 C66.8803338,15.0178617 66.9585718,15.069599 67.0458372,15.0942358 C67.1331027,15.1188726 67.217359,15.1903194 67.3046244,15.2198836 C67.3918899,15.2494477 67.512256,15.2420567 67.6055397,15.2716209 C67.6988235,15.301185 67.768034,15.3677044 67.8402537,15.3948049 C67.9201567,15.4320248 67.9965962,15.4740215 68.0689493,15.5204527 C68.1832972,15.5820447 68.336764,15.6017541 68.3457914,15.6485641 C68.3548189,15.695374 68.2314436,15.6978377 68.2314436,15.7249382 C68.2314436,15.7520387 68.3217182,15.8185581 68.2946358,15.8678317 C68.2700582,15.9236743 68.2333588,15.9754217 68.1863063,16.02058 C68.1441782,16.0599989 68.0358487,16.0624625 67.9606198,16.1068088 C67.885391,16.1511551 67.8191896,16.1757919 67.728915,16.2152108 C67.6386404,16.2546297 67.5844757,16.3359311 67.4851736,16.367959 C67.3858716,16.3999869 67.277542,16.3975232 67.1692125,16.4246237 C67.060883,16.4517242 67.0097274,16.4073779 66.9314894,16.4246237 C66.8532514,16.4418694 66.7208487,16.4788247 66.6034917,16.5009978 C66.4861347,16.5231709 66.4590524,16.5675172 66.3808144,16.5798356 C66.3025764,16.592154 66.1551279,16.653746 66.0317526,16.6734555 C65.9083773,16.6931649 65.8662492,16.6907012 65.7819929,16.7054833 C65.6977366,16.7202654 65.6164895,16.7054833 65.5322332,16.7251928 C65.4479769,16.7449022 65.3697389,16.7720027 65.2824734,16.7818575 C65.195208,16.7917122 65.0266954,16.7670754 64.8973018,16.7818575 C64.7679082,16.7966395 64.7227709,16.7818575 64.6355055,16.7818575 C64.5482401,16.7818575 64.4700021,16.8286674 64.3797275,16.8360584 C64.2894529,16.8434495 64.2021874,16.8360584 64.114922,16.8360584 L63.7237321,16.87055 C63.6364666,16.87055 63.5431829,16.87055 63.4559174,16.87055 C63.368652,16.87055 63.2843957,16.9296783 63.1911119,16.9370694 C63.0978282,16.9444604 63.0105627,16.9001142 62.9202882,16.9050415 C62.8300136,16.9099689 62.7427481,16.9050415 62.6494644,16.9050415 C62.5561806,16.9050415 62.4749335,16.9641699 62.3816497,16.9690972 C62.288366,16.9740246 62.1168442,17.0011251 61.9814323,17.0085161 C61.8911577,17.0085161 61.8008831,17.0331529 61.7075994,17.0356166 C61.6143156,17.0380803 61.524041,16.9617062 61.4277481,16.9666335 C61.3314552,16.9715609 61.2532173,17.0257619 61.1599335,17.0306893 C61.0666498,17.0356166 60.9793843,17.0503987 60.8861006,17.0553261 C60.7928168,17.0602534 60.7025422,17.040544 60.6092585,17.0430077 C60.5159747,17.0454713 60.4287093,17.0922813 60.3354255,17.094745 C60.2421418,17.0972086 60.1518672,17.040544 60.0555743,17.0430077 C59.9592814,17.0454713 59.8780342,17.1169181 59.7817413,17.1193818 C59.6854484,17.1218455 59.598183,17.1045997 59.5048992,17.1045997 L59.225048,17.1045997 C59.1347734,17.1045997 59.0414896,17.0627171 58.9482059,17.0627171 C58.8549221,17.0627171 58.7646475,17.1292365 58.6683546,17.1317002 C58.5720617,17.1341639 58.4817871,17.0701082 58.3885034,17.0725718 C58.2952196,17.0750355 58.2079542,17.1514096 58.1116613,17.1538733 C58.0153684,17.156337 57.9250938,17.0553261 57.83181,17.0577897 L57.5489496,17.0577897 C57.458675,17.0577897 57.3653913,17.1243091 57.2721075,17.1243091 C57.1788238,17.1243091 57.08554,17.0627171 56.9892471,17.0651808 C56.8929542,17.0676445 56.8026796,17.0922813 56.7093959,17.0922813 C56.6161121,17.0922813 56.5228284,17.1193818 56.4295446,17.1193818 C56.3362609,17.1193818 56.2429771,17.1045997 56.1466842,17.1045997 C56.0503913,17.1045997 55.9601167,17.0627171 55.866833,17.0627171 C55.7735492,17.0627171 55.6772563,17.102136 55.5839725,17.102136 C55.4906888,17.102136 55.3943959,17.0774992 55.3011121,17.0774992 C55.2078284,17.0774992 55.1145446,17.1686554 55.0182517,17.1686554 C54.9219588,17.1686554 54.8316842,17.1070634 54.7353913,17.1070634 C54.6390984,17.1070634 54.5488238,17.0750355 54.4525309,17.0750355 C54.356238,17.0750355 54.2659634,17.1119907 54.1696705,17.1095271 C54.0733776,17.1070634 53.983103,17.0873539 53.8868101,17.0873539 C53.7905172,17.0873539 53.7002426,17.1070634 53.6039497,17.1045997 C53.5076568,17.102136 53.4173822,17.1366275 53.3210893,17.1366275 C53.2247964,17.1366275 53.1315127,17.1144544 53.0382289,17.1119907 C52.9449452,17.1095271 52.8486523,17.1538733 52.7523593,17.1514096 L52.5627827,17.1514096 C52.4845447,17.1514096 52.4063067,17.0454713 52.3250596,17.0430077 C52.2438125,17.040544 52.1655745,17.0824266 52.0843273,17.0799629 L51.8496134,17.0799629 L51.3801855,17.0799629 C51.3019475,17.0799629 51.2237095,17.0356166 51.1454715,17.0331529 C51.0672335,17.0306893 50.9920047,17.0331529 50.9137667,17.0331529 C50.8355287,17.0331529 50.7241901,17.0602534 50.6309063,17.0577897 C50.5376226,17.0553261 50.447348,17.0011251 50.3570734,16.9986614 C50.2667988,16.9961977 50.1705059,17.0430077 50.0802313,17.0380803 C49.9899567,17.0331529 49.8996821,16.9961977 49.8063983,16.993734 C49.7131146,16.9912704 49.6258491,17.0208345 49.5355745,17.0183708 C49.4452999,17.0159072 49.3550253,17.0011251 49.2677599,16.9986614 C49.1804945,16.9961977 49.0842015,17.0232982 48.9969361,17.0183708 C48.9096707,17.0134435 48.8163869,17.0503987 48.7261123,17.047935 C48.6358377,17.0454713 48.5545906,16.9814156 48.4673251,16.9764883 L48.2055288,16.9764883 C48.1182634,16.9764883 48.0340071,16.9222873 47.9467416,16.9198236 C47.8594762,16.9173599 47.7692016,16.9641699 47.6849453,16.9617062 C47.600689,16.9592425 47.4893503,16.9025778 47.38403,16.8951868 C47.2787096,16.8877957 47.1794075,16.9764883 47.0831146,16.9715609 C46.9868217,16.9666335 46.8845105,16.9543151 46.7821993,16.9493878 C46.6798881,16.9444604 46.5896135,16.9296783 46.481284,16.924751 C46.3729545,16.9198236 46.2917073,16.8828684 46.1803687,16.877941 C46.06903,16.8730137 45.9877829,16.877941 45.8794533,16.877941 C45.7711238,16.877941 45.695895,16.8015669 45.6056204,16.7941759 C45.5153458,16.7867848 45.4100254,16.8557679 45.3047051,16.8483768 C45.1993847,16.8409858 45.1241559,16.7818575 45.0338813,16.7769301 C44.9436067,16.7720027 44.8533321,16.7375112 44.7660666,16.7301201 C44.6788012,16.7227291 44.57649,16.7646117 44.4892245,16.7572206 C44.4019591,16.7498296 44.281593,16.7572206 44.1883092,16.7572206 C44.0950255,16.7572206 43.9897051,16.7325838 43.8873939,16.7227291 C43.7850827,16.7128744 43.6917989,16.6734555 43.5864786,16.6636008 C43.4811582,16.653746 43.3969019,16.6291092 43.2855633,16.6192545 C43.1742246,16.6093998 43.08395,16.6636008 42.9846479,16.653746 C42.8853459,16.6438913 42.8010896,16.5970814 42.7078058,16.584763 C42.6145221,16.5724445 42.5242475,16.5404167 42.4339729,16.530562 C42.3436983,16.5207072 42.2474054,16.530562 42.1601399,16.5133162 C42.0728745,16.4960704 41.9615358,16.4665063 41.8592246,16.4566515 L41.5583093,16.4196963 C41.4620164,16.4073779 41.3536869,16.4640426 41.257394,16.4541878 C41.1611011,16.4443331 41.0708265,16.4147689 40.9775427,16.3999869 C40.884259,16.3852048 40.7879661,16.3999869 40.6976915,16.37535 C40.6074169,16.3507132 40.5081148,16.2940486 40.3967761,16.2768028 C40.2854375,16.259557 40.1861354,16.313758 40.0958608,16.2965122 C40.0055862,16.2792665 39.9303574,16.1634735 39.8400828,16.1462277 C39.7498082,16.1289819 39.6444878,16.1462277 39.5572224,16.1265182 C39.4699569,16.1068088 39.3435725,16.1486914 39.2563071,16.1265182 C39.1690416,16.1043451 39.0877945,16.0156526 39.000529,15.9959431 C38.9132636,15.9762337 38.7868792,16.0427531 38.6996137,16.02058 C38.6123483,15.9984068 38.5371194,15.9072506 38.4468448,15.8826138 C38.3565702,15.857977 38.2662956,15.8308765 38.1820394,15.8087034 C38.0977831,15.7865302 37.9864444,15.7840666 37.8991789,15.7569661 C37.8119135,15.7298656 37.7276572,15.6732009 37.6373826,15.6461004 C37.547108,15.6189999 37.4447968,15.5968268 37.3635497,15.5647989 C37.2823025,15.5327711 37.1709639,15.5155253 37.0897167,15.4810338 C37.0084696,15.4465422 36.9512957,15.3627771 36.879076,15.3282855 C36.8068563,15.293794 36.7075543,15.239593 36.6383437,15.2001741 C36.5691332,15.1607552 36.4216847,15.1582915 36.3615016,15.1139453 C36.293517,15.0562706 36.2348603,14.9916867 36.1869708,14.9217781 C36.1251187,14.861432 36.0891746,14.7861297 36.0846595,14.7074379 C36.0789902,14.6558176 36.0904251,14.6039008 36.1177602,14.5571533 C36.1478518,14.5226618 36.271227,14.5571533 36.3223826,14.512807 C36.373639,14.4576406 36.431061,14.4065036 36.4939044,14.3600588 C36.5631149,14.3206399 36.6202888,14.2516568 36.7075543,14.2073106 C36.7948197,14.1629643 36.8188929,14.1260091 36.8881035,14.0964449 C36.957314,14.0668807 37.0656435,14.0249982 37.1649456,13.9855793 C37.2642476,13.9461604 37.3214215,13.9609424 37.3966504,13.9338419 C37.4718792,13.9067415 37.5200256,13.8426857 37.5982636,13.8180489 C37.6765016,13.7934121 37.7848311,13.7342838 37.8991789,13.6997922 C38.0135268,13.6653007 38.076719,13.6997922 38.154957,13.6800828 C38.233195,13.6603733 38.3264787,13.6677644 38.4047167,13.6431276 C38.4829547,13.6184907 38.5371194,13.5421166 38.6183666,13.5199435 C38.6996137,13.4977704 38.8440531,13.5051614 38.9523826,13.4755972 C39.0607121,13.4460331 39.1058494,13.4213963 39.1901057,13.3992231 C39.274362,13.37705 39.3375542,13.3203853 39.4218105,13.3006759 C39.5060668,13.2809664 39.5812956,13.2538659 39.6655519,13.2341565 C39.7498082,13.214447 39.9153116,13.2735754 40.0266503,13.2489386 C40.137989,13.2243018 40.1831263,13.1799555 40.2673825,13.1627097 C40.3516388,13.145464 40.4178402,13.0641625 40.5020965,13.0469167 C40.5863528,13.0296709 40.6946823,13.1011177 40.7789386,13.0838719 L41.0347166,13.037062 C41.1490644,13.0148888 41.2453574,12.9385147 41.3597052,12.9163416 C41.474053,12.8941685 41.5342361,12.8843137 41.6184924,12.8695317 C41.7027486,12.8547496 41.7870049,12.8227217 41.8742704,12.8079396 C41.9615358,12.7931575 42.063847,12.8596769 42.1511125,12.8448948 C42.2383779,12.8301128 42.3226342,12.8054759 42.4098997,12.7906939 C42.4971651,12.7759118 42.5784122,12.7364929 42.6656777,12.7241745 C42.7529431,12.7118561 42.9003916,12.7093924 43.0207578,12.6946103 C43.1411239,12.6798282 43.1892703,12.6551914 43.2795449,12.642873 C43.3698195,12.6305546 43.4420392,12.5640352 43.5323138,12.5517168 C43.6225884,12.5393984 43.712863,12.5517168 43.8001285,12.5369347 C43.8873939,12.5221526 43.9897051,12.5837446 44.0769706,12.5738899 L44.3447852,12.5393984 C44.4320506,12.5393984 44.5163069,12.4876611 44.6065815,12.4778063 C44.6968561,12.4679516 44.8443046,12.4654879 44.9646708,12.4531695 C45.0850369,12.4408511 45.1392016,12.4236054 45.2294762,12.4137506 C45.3197508,12.4038959 45.4070163,12.3841865 45.4972909,12.3743317 C45.5875655,12.364477 45.6718218,12.3299855 45.7620964,12.3225944 L46.0329202,12.3053487 C46.1231948,12.3053487 46.2104602,12.2585387 46.2977256,12.2536113 C46.3849911,12.248684 46.4842931,12.2536113 46.5745677,12.2536113 C46.6648423,12.2536113 46.8122908,12.2068014 46.932657,12.201874 C47.0530231,12.1969467 47.1162153,12.201874 47.2064899,12.201874 C47.2967645,12.201874 47.3930574,12.2585387 47.4863412,12.2536113 C47.5796249,12.248684 47.6608721,12.187092 47.7511467,12.1821646 C47.8414213,12.1772372 47.9407233,12.2511477 48.0309979,12.2462203 C48.1212725,12.2412929 48.2115471,12.1994104 48.3018217,12.1969467 C48.3920963,12.194483 48.4853801,12.1969467 48.5756546,12.1969467 C48.6659292,12.1969467 48.8163869,12.140282 48.936753,12.1353546 C49.0571192,12.1304273 49.1203114,12.1599915 49.2135951,12.1550641 C49.3068789,12.1501367 49.3971535,12.1772372 49.4904372,12.1723099 L49.7642702,12.1723099 C49.8545448,12.1723099 49.9448194,12.1550641 50.0381031,12.1526004 C50.1313869,12.1501367 50.2216615,12.1673825 50.3149452,12.1649188 C50.408229,12.1624551 50.5586866,12.1353546 50.6790528,12.132891 C50.7994189,12.1304273 50.8626111,12.0589805 50.9558949,12.0589805 C51.0491786,12.0589805 51.1394532,12.1353546 51.232737,12.1353546 C51.3260207,12.1353546 51.4162953,12.0737626 51.5095791,12.0737626 C51.6028628,12.0737626 51.7563296,12.0589805 51.8766958,12.0565168 C51.9970619,12.0540532 52.1234463,12.132891 52.2468216,12.132891 C52.3160321,12.132891 52.3822335,12.0836173 52.4544532,12.0836173 C52.5266729,12.0836173 52.6109291,12.1378183 52.6921763,12.1378183 C52.7734234,12.1378183 52.8516614,12.0466621 52.9298994,12.0466621 C53.0081374,12.0466621 53.0893845,12.1452094 53.1676225,12.1452094 C53.2458605,12.1452094 53.3271076,12.0565168 53.4053456,12.0565168 C53.4835836,12.0565168 53.5618216,12.1033268 53.6400596,12.1033268 C53.7182975,12.1033268 53.7965355,12.1501367 53.8777827,12.1501367 C53.9590298,12.1501367 54.0342586,12.0663716 54.1064783,12.0688353 C54.178698,12.0712989 54.296055,12.1452094 54.3863296,12.1452094 C54.4766042,12.1452094 54.5728971,12.1107178 54.6631717,12.1131815 C54.7534463,12.1156452 54.8527483,12.0762263 54.9430229,12.07869 C55.0332975,12.0811537 55.1265813,12.07869 55.219865,12.07869 C55.3131488,12.07869 55.397405,12.1378183 55.4876796,12.140282 C55.5779542,12.1427457 55.671238,12.0910084 55.7615126,12.0959357 C55.8517872,12.1008631 55.9390526,12.140282 56.0293272,12.1427457 C56.1196018,12.1452094 56.2128856,12.0910084 56.300151,12.0959357 C56.3874165,12.1008631 56.4776911,12.1205726 56.5649565,12.1230362 C56.6522219,12.1254999 56.7455057,12.086081 56.8327711,12.0885447 C56.9200366,12.0910084 57.0042929,12.1994104 57.0915583,12.1994104 C57.1788238,12.1994104 57.2690984,12.1254999 57.3563638,12.1279636 C57.4436293,12.1304273 57.5308947,12.1501367 57.615151,12.1526004 L57.8739382,12.1526004 C57.9612036,12.1526004 58.0454599,12.1821646 58.1297162,12.1846283 C58.2139725,12.187092 58.3283203,12.1649188 58.4306315,12.1673825 C58.5329427,12.1698462 58.6292356,12.140282 58.7315468,12.1427457 C58.833858,12.1452094 58.9211235,12.2610024 59.0174164,12.2634661 L59.3183317,12.2634661 C59.4146246,12.2634661 59.5109175,12.2314382 59.619247,12.2363656 C59.7275766,12.2412929 59.8088237,12.2708571 59.9021075,12.2757845 L60.1849679,12.2757845 C60.2782516,12.2757845 60.3745445,12.2363656 60.4678283,12.2412929 C60.561112,12.2462203 60.6483775,12.302885 60.7386521,12.310276 C60.8289266,12.3176671 60.9312379,12.2265109 61.0245216,12.2314382 C61.1178054,12.2363656 61.2020617,12.2757845 61.2893271,12.2807118 C61.3765925,12.2856392 61.463858,12.357086 61.5541326,12.3620133 C61.6444072,12.3669407 61.7617642,12.3127397 61.8550479,12.3201307 C61.9483317,12.3275218 62.053652,12.3521586 62.1559632,12.3595496 C62.2582744,12.3669407 62.3605856,12.3152034 62.4568786,12.3225944 C62.5531715,12.3299855 62.6434461,12.4383874 62.739739,12.4457785 C62.8360319,12.4531695 62.9443614,12.364477 63.0406543,12.371868 C63.1369472,12.3792591 63.2272218,12.4285327 63.3235147,12.4383874 C63.4198076,12.4482422 63.5040639,12.4950521 63.6003568,12.5024432 C63.6966497,12.5098342 63.7839151,12.5295436 63.8741897,12.5393984 C63.9644643,12.5492531 64.0517298,12.5615715 64.1450135,12.5714262 C64.2382973,12.5812809 64.3255627,12.5714262 64.4128282,12.5714262 C64.5000936,12.5714262 64.6234689,12.5467894 64.7137435,12.5566441 C64.8040181,12.5664989 64.900311,12.642873 64.9966039,12.6527277 C65.0928968,12.6625824 65.2072446,12.5689625 65.2975192,12.5788173 C65.3877938,12.588672 65.4690409,12.6946103 65.5623247,12.704465 C65.6556084,12.7143197 65.7549105,12.6896829 65.8421759,12.704465 C65.9294414,12.7192471 66.0317526,12.704465 66.119018,12.704465 C66.2062835,12.704465 66.3176222,12.704465 66.4199334,12.7241745 C66.5222446,12.7438839 66.6004826,12.8079396 66.6937663,12.820258 C66.7870501,12.8325764 66.8773247,12.8572132 66.9675993,12.8695317 C67.0578739,12.8818501 67.1662034,12.8276491 67.2534688,12.8424312 C67.3407343,12.8572132 67.4400363,12.9015595 67.5333201,12.9163416 C67.6266038,12.9311237 67.7108601,12.990252 67.7981256,13.0050341 C67.885391,13.0198162 68.0177937,12.9483695 68.1140866,12.9631515 C68.2103796,12.9779336 68.2886175,13.0518441 68.3788921,13.0715535 C68.4691667,13.091263 68.5564322,13.1577824 68.6467068,13.1750281 C68.7369814,13.1922739 68.8543383,13.3006759 68.9476221,13.3179216 C69.0409058,13.3351674 69.1402079,13.3179216 69.2274733,13.3327037 C69.3147388,13.3474858 69.4200592,13.384441 69.5073246,13.4041505 C69.59459,13.4238599 69.6577823,13.384441 69.7420386,13.4041505 L70.0098532,13.4682062 C70.1061461,13.4953067 70.1904024,13.5371893 70.2716495,13.5618261 L70.5274275,13.6480549 C70.7079767,13.709647 70.7832056,13.7416748 70.8283429,13.6702281 C70.8734802,13.5987813 70.7230225,13.6505186 70.5815923,13.5987813 L70.3559058,13.5248709 C70.2866953,13.500234 70.1964207,13.4484967 70.1061461,13.4213963 C70.0158715,13.3942958 69.9707342,13.3671953 69.8834688,13.3400948 L69.6276907,13.261257 L69.3719127,13.1873465 C69.2906656,13.1627097 69.1733086,13.2095197 69.0860431,13.1873465 L68.8242468,13.1158998 C68.7369814,13.0937266 68.6767983,13.0001068 68.5865237,12.9779336 C68.4962491,12.9557605 68.4059745,12.9582242 68.3156999,12.936051 C68.2254253,12.9138779 68.1321416,12.9064869 68.041867,12.8867774 C67.9515924,12.867068 67.885391,12.7857665 67.7951164,12.7635934 C67.7048418,12.7414202 67.6025306,12.7635934 67.512256,12.7463476 C67.4219814,12.7291018 67.3226793,12.7463476 67.2324047,12.7192471 C67.1421302,12.6921466 67.0729196,12.6231635 66.9796359,12.6034541 C66.8863521,12.5837446 66.7930684,12.6034541 66.6997846,12.5763536 C66.6065009,12.5492531 66.5222446,12.5320073 66.43197,12.5122979 L66.1611462,12.4630243 C66.0708716,12.4457785 65.9685604,12.4630243 65.8782858,12.4408511 C65.7880112,12.418678 65.7157915,12.3373765 65.6225078,12.3225944 C65.529224,12.3078123 65.4269128,12.3472312 65.3215924,12.3225944 C65.2162721,12.2979576 65.1410432,12.2831755 65.0477595,12.2683934 C64.9544757,12.2536113 64.8642011,12.2462203 64.7709174,12.2314382 C64.6776336,12.2166561 64.605414,12.1378183 64.5121302,12.1230362 C64.4188465,12.1082542 64.3135261,12.1550641 64.2112149,12.140282 C64.1089037,12.1254999 64.0457115,12.0392711 63.9524277,12.024489 L63.6755856,11.9850701 C63.585311,11.970288 63.4769815,12.03188 63.3746703,12.0195616 C63.2723591,12.0072432 63.2061577,11.9259417 63.112874,11.9136233 C63.0195902,11.9013049 62.917279,11.9333328 62.8119586,11.9136233 C62.7066383,11.8939139 62.622382,11.9136233 62.5290982,11.9136233 C62.4358145,11.9136233 62.3425307,11.8963776 62.2522561,11.8840592 C62.1619815,11.8717408 62.0837436,11.7608751 61.9904598,11.7510204 C61.8971761,11.7411656 61.7888465,11.8150761 61.6895445,11.8027577 C61.5902424,11.7904393 61.5180227,11.7042104 61.424739,11.6943557 C61.3314552,11.684501 61.2381715,11.6943557 61.1418786,11.6820373 C61.0455857,11.6697189 60.9492928,11.6992831 60.8409633,11.6820373 C60.7326337,11.6647915 60.6574049,11.6549368 60.5641212,11.6450821 C60.4708374,11.6352274 60.3745445,11.6450821 60.2812608,11.6450821 C60.187977,11.6450821 60.0977024,11.6105905 60.0014095,11.6031995 C59.9051166,11.5958085 59.814842,11.6031995 59.7215583,11.6031995 C59.6282745,11.6031995 59.5379999,11.5563896 59.441707,11.5489985 C59.3454141,11.5416075 59.2551395,11.5489985 59.1588466,11.5489985 L58.8789953,11.5292891 C58.7857116,11.5292891 58.6894187,11.5292891 58.5961349,11.5169707 L58.3132745,11.4972612 C58.2199908,11.4972612 58.1297162,11.4627697 58.0364324,11.4578423 C57.9431487,11.4529149 57.8498649,11.3913229 57.7565812,11.3863956 C57.6632974,11.3814682 57.5700137,11.3863956 57.4737208,11.3863956 C57.3774279,11.3863956 57.281135,11.4356692 57.1878512,11.4282781 C57.0945675,11.4208871 57.0012837,11.3691498 56.908,11.3642224 C56.8147162,11.3592951 56.7154142,11.4184234 56.6070847,11.4159597 C56.4987551,11.413496 56.4235263,11.3716135 56.3302426,11.3666861 C56.2369588,11.3617587 56.2790869,11.3863956 56.1948307,11.3863956 C56.1105744,11.3863956 55.9992357,11.4726244 55.8939153,11.467697 C55.788595,11.4627697 55.710357,11.398714 55.6170732,11.3937866 C55.5237895,11.3888592 55.4274966,11.3937866 55.3161579,11.3937866 C55.2048192,11.3937866 55.1265813,11.4258145 55.0302884,11.4233508 C54.9339954,11.4208871 54.8437209,11.4233508 54.7474279,11.4233508 C54.651135,11.4233508 54.5608604,11.3494403 54.4645675,11.3469767 C54.3682746,11.344513 54.2749909,11.3913229 54.1636522,11.3888592 C54.0523135,11.3863956 53.9770847,11.3740771 53.8807918,11.3740771 C53.7844989,11.3740771 53.6912152,11.3740771 53.5979314,11.3740771 C53.5046477,11.3740771 53.4625195,11.3124851 53.393309,11.3124851 L53.1525767,11.3124851 C53.0743387,11.3124851 52.9961008,11.3666861 52.9148536,11.3666861 C52.8336065,11.3666861 52.7553685,11.3248035 52.6771305,11.3248035 C52.5988925,11.3248035 52.5176454,11.2927757 52.4394074,11.2927757 C52.3611694,11.2927757 52.2799223,11.3174125 52.2016843,11.3198762 C52.1234463,11.3223398 52.0452083,11.3962503 51.9669704,11.3962503 C51.8887324,11.3962503 51.8074852,11.3001667 51.7292472,11.3001667 C51.6510093,11.3001667 51.5727713,11.3001667 51.4945333,11.3001667 C51.4162953,11.3001667 51.3380573,11.3888592 51.2628285,11.3913229 C51.1875997,11.3937866 51.0732518,11.3346582 50.9799681,11.3371219 C50.8866843,11.3395856 50.7964097,11.3863956 50.703126,11.3888592 C50.6098422,11.3913229 50.5165585,11.3494403 50.4232747,11.351904 L50.1765242,11.351904 C50.0832404,11.351904 49.9899567,11.351904 49.8996821,11.351904 L49.6258491,11.351904 C49.5355745,11.351904 49.4483091,11.4307418 49.3580345,11.4356692 C49.2677599,11.4405965 49.1774853,11.4356692 49.0842015,11.4356692 C48.9909178,11.4356692 48.9006432,11.3937866 48.8133778,11.398714 C48.7261123,11.4036413 48.6358377,11.4307418 48.5455631,11.4356692 C48.4552885,11.4405965 48.3680231,11.460306 48.2807576,11.4652334 L48.012943,11.4800154 C47.9226684,11.4800154 47.8384121,11.5021886 47.7481375,11.5095796 C47.6578629,11.5169707 47.5675883,11.4652334 47.483332,11.4701607 C47.3990757,11.4750881 47.3118103,11.5120433 47.2245448,11.5169707 C47.1372794,11.521898 47.050014,11.5391438 46.9657577,11.5465348 C46.8815014,11.5539259 46.7852085,11.4923338 46.7009522,11.4997249 C46.6166959,11.5071159 46.5053572,11.5810264 46.4000369,11.5908811 C46.2947165,11.6007358 46.1954144,11.5785627 46.0991215,11.5908811 C46.0028286,11.6031995 45.9005174,11.5908811 45.7982062,11.5908811 C45.695895,11.5908811 45.6086296,11.6352274 45.5123366,11.6450821 C45.4160437,11.6549368 45.32276,11.7091378 45.2114213,11.7189925 C45.1000827,11.7288472 45.0188355,11.7534841 44.910506,11.7633388 C44.8021765,11.7731935 44.7028744,11.6943557 44.6095907,11.7042104 C44.5163069,11.7140652 44.4380689,11.8273945 44.341776,11.8372492 C44.2454831,11.8471039 44.1491902,11.8372492 44.0408607,11.8372492 C43.9325312,11.8372492 43.8633207,11.8963776 43.7700369,11.9062323 C43.6767532,11.916087 43.5774511,11.8939139 43.4871765,11.9062323 C43.3969019,11.9185507 43.3036182,11.9284054 43.2133436,11.9431875 C43.123069,11.9579696 43.0237669,11.9234781 42.9334923,11.9431875 C42.8432177,11.962897 42.749934,11.9431875 42.6596594,11.9653606 L42.397863,12.0097069 L42.0969477,12.0565168 C41.9976457,12.0737626 41.9043619,12.1082542 41.7960324,12.1254999 C41.6877029,12.1427457 41.6215015,12.2363656 41.5252086,12.2536113 C41.4289157,12.2708571 41.317577,12.2289745 41.2242933,12.2536113 C41.1310095,12.2782482 41.0286983,12.2683934 40.923378,12.2881029 C40.8180576,12.3078123 40.7398196,12.3324491 40.6465359,12.3521586 L40.3727029,12.4137506 C40.2824283,12.4334601 40.1861354,12.4408511 40.09887,12.4605606 C40.0116045,12.48027 39.9333665,12.534471 39.8461011,12.5541805 C39.7588357,12.5738899 39.6745794,12.6625824 39.5752773,12.6847556 C39.4759752,12.7069287 39.3616274,12.6650461 39.274362,12.6847556 L38.9975199,12.758666 C38.9042361,12.7833028 38.8410439,12.874459 38.7537785,12.8990958 C38.666513,12.9237326 38.5642018,12.9237326 38.4769364,12.9483695 C38.3896709,12.9730063 38.2873597,13.0099615 38.1970851,13.0395257 C38.1068105,13.0690898 38.0044993,13.0863356 37.9142247,13.1158998 C37.8239501,13.145464 37.7487213,13.1972013 37.6614558,13.2292291 C37.5741904,13.261257 37.4598426,13.2292291 37.3755863,13.2637207 C37.29133,13.2982122 37.1980462,13.3351674 37.1107808,13.3696589 C37.0235154,13.4041505 36.9302316,13.4287873 36.8489845,13.4632788 C36.7677373,13.4977704 36.7075543,13.5913903 36.623298,13.6308092 C36.5390417,13.6702281 36.3976115,13.6308092 36.3223826,13.662837 C36.2471483,13.6948649 36.2321081,13.8426857 36.1568792,13.8845683 C36.0816504,13.9264509 35.9432293,13.9141325 35.8710097,13.9609424 C35.79879,14.0077524 35.7325886,14.0718081 35.6693964,14.118618 C35.5966703,14.1697276 35.5273594,14.2240072 35.4617648,14.281221 C35.3955635,14.3477404 35.4196367,14.4462876 35.3805177,14.5103434 C35.3353574,14.5693838 35.3065938,14.6358273 35.2962614,14.7049742 C35.2962614,14.7419294 35.2390875,14.7788846 35.2481149,14.8158398 C35.2571424,14.852795 35.3985726,14.9020687 35.4316733,14.9414876 Z" id="Path" fill="#FFFFFF" fill-rule="nonzero"></path><path d="M52.6863887,15.5398088 C52.7699276,15.5562138 52.8743512,15.5398088 52.9847418,15.5398088 C53.0951325,15.5398088 53.1309349,15.5679316 53.2144738,15.5773058 C53.2980126,15.5866801 53.3576833,15.6382386 53.4412222,15.6452693 C53.5247611,15.6523 53.6470858,15.6452693 53.7574765,15.6616742 C53.8678672,15.6780792 53.9663237,15.6476128 54.0767144,15.6616742 C54.1871051,15.6757356 54.2825781,15.6804227 54.3929688,15.6851099 C54.5033594,15.689797 54.5958489,15.7155762 54.6913219,15.7179198 C54.7867949,15.7202634 54.8971856,15.7296376 54.9896751,15.7319812 C55.0821646,15.7343248 55.1955388,15.6780792 55.2880282,15.6780792 C55.3805177,15.6780792 55.4938919,15.7272941 55.5863814,15.7272941 C55.6788709,15.7272941 55.7295909,15.7272941 55.8011957,15.7272941 C55.8728004,15.7272941 55.9623064,15.7272941 56.0398782,15.7272941 C56.11745,15.7272941 56.2248572,15.7038584 56.3173466,15.7015148 C56.4098361,15.6991713 56.5053091,15.743699 56.5977986,15.7413555 C56.6902881,15.7390119 56.7768105,15.7272941 56.8663165,15.7249505 C56.9558224,15.7226069 57.0721801,15.6921406 57.1646696,15.6851099 C57.2571591,15.6780792 57.3645662,15.6851099 57.4630228,15.6851099 C57.5614793,15.6851099 57.6509853,15.6382386 57.7404912,15.6312079 C57.8299972,15.6241772 57.9493384,15.6476128 58.0388444,15.6312079 C58.1283503,15.6148029 58.2536587,15.6312079 58.3371976,15.6171465 C58.4304037,15.5961945 58.5220422,15.5711572 58.6116825,15.5421524 C58.7668261,15.5046553 58.8593156,15.4530969 58.8593156,15.4109127 C58.8593156,15.3687285 58.7936779,15.3523235 58.7071555,15.3242007 C58.6233704,15.3002373 58.5376544,15.2806646 58.4505718,15.2656116 C58.3849341,15.2538938 58.3163128,15.2046789 58.2327739,15.1953046 C58.1492351,15.1859303 58.0746468,15.2234274 57.9911079,15.2140531 L57.7583924,15.1859303 L57.4451216,15.1648383 C57.3436815,15.1648383 57.2392579,15.1531204 57.1288672,15.1484333 C57.0184766,15.1437462 56.92002,15.1484333 56.8126129,15.1484333 C56.7052058,15.1484333 56.6097327,15.0898441 56.4993421,15.0875006 C56.3889514,15.085157 56.2934784,15.1062491 56.1860713,15.1062491 C56.0786641,15.1062491 55.9831911,15.0945313 55.8877181,15.0945313 C55.7922451,15.0945313 55.6818544,15.0945313 55.5893649,15.0945313 C55.4968755,15.0945313 55.4431719,15.0570342 55.3715671,15.0570342 C55.2999624,15.0570342 55.2134399,15.068752 55.1358681,15.068752 C55.0582963,15.068752 54.9479056,15.0992184 54.8554162,15.0992184 C54.7629267,15.0992184 54.6704372,15.0992184 54.5809312,15.0992184 C54.4914253,15.0992184 54.3959523,15.0992184 54.3094299,15.0992184 L54.0110767,15.0992184 C53.9126202,15.0992184 53.8141636,15.139059 53.7127235,15.1460897 C53.6112835,15.1531204 53.5247611,15.1460897 53.4352551,15.1601511 C53.3457492,15.1742125 53.2353585,15.209366 53.1369019,15.2187403 C53.0384454,15.2281145 52.9191041,15.1976482 52.8385488,15.2187403 C52.7468353,15.2385637 52.6570901,15.2636286 52.5700309,15.2937344 C52.4119038,15.333575 52.3582002,15.3663849 52.3582002,15.4109127 C52.3512169,15.4616092 52.3914116,15.5089686 52.4536732,15.5234038 C52.5307074,15.5328471 52.6084448,15.5383271 52.6863887,15.5398088 Z" id="Path" fill="#FFFFFF" fill-rule="nonzero"></path><path d="M49.7731544,19.6308427 C49.8659487,19.6308427 49.9587429,19.6809349 50.0515371,19.6857055 C50.1443314,19.6904762 50.2431124,19.6713935 50.3508734,19.6857055 C50.4586345,19.7000176 50.5394553,19.7262563 50.6322495,19.731027 C50.7250438,19.7357977 50.8208314,19.7668071 50.916619,19.7715778 C51.0124066,19.7763485 51.1052008,19.7357977 51.2159552,19.7405684 C51.3267097,19.7453391 51.4015437,19.7405684 51.4973313,19.7405684 L51.7817008,19.7405684 L52.0810371,19.7405684 C52.1738313,19.7405684 52.2666255,19.7763485 52.3624131,19.7787338 C52.4582008,19.7811192 52.550995,19.7787338 52.6467826,19.7930459 C52.7425702,19.8073579 52.8353645,19.828826 52.9281587,19.828826 C53.0209529,19.828826 53.1227273,19.7930459 53.227495,19.7954312 L53.5268312,19.7954312 C53.6226188,19.7954312 53.7154131,19.8097433 53.8112007,19.8121286 C53.9069883,19.814514 54.0027759,19.7644218 54.110537,19.7644218 L54.4098732,19.7644218 C54.5056608,19.7644218 54.5984551,19.8312114 54.7092095,19.8312114 C54.8199639,19.8312114 54.9007847,19.8479087 54.993579,19.8479087 C55.0863732,19.8479087 55.1881475,19.7978166 55.2929152,19.7978166 C55.3976829,19.7978166 55.4844904,19.7978166 55.5922515,19.7978166 C55.7000125,19.7978166 55.7269528,19.7811192 55.7958002,19.7811192 C55.8646475,19.7811192 55.9544484,19.8073579 56.0322758,19.8073579 C56.1101032,19.8073579 56.190924,19.8073579 56.2717448,19.8073579 L56.5082205,19.8073579 C56.5860479,19.8073579 56.6638753,19.7596511 56.7417028,19.7596511 C56.8195302,19.7596511 56.900351,19.7739632 56.9781784,19.7596511 L57.2116607,19.7596511 C57.2894881,19.7596511 57.3643222,19.7024029 57.4421496,19.7000176 C57.5199771,19.6976322 57.6307315,19.7501098 57.7235257,19.7453391 C57.81632,19.7405684 57.9061208,19.7024029 57.9989151,19.6976322 C58.0917093,19.6928616 58.1845036,19.7429537 58.2743045,19.738183 C58.3641053,19.7334124 58.4598929,19.738183 58.5496938,19.723871 L58.8220898,19.723871 C58.9118907,19.723871 58.9986982,19.6618521 59.0884991,19.6570814 C59.1783,19.6523108 59.2710942,19.6809349 59.3608951,19.6761642 C59.450696,19.6713935 59.5375035,19.6761642 59.6302978,19.6761642 C59.723092,19.6761642 59.8009194,19.6213013 59.887727,19.6141453 C59.9745345,19.6069893 60.061342,19.5831359 60.1481495,19.5735945 C60.234957,19.5640531 60.3247579,19.5592824 60.4115654,19.5521264 C60.4983729,19.5449704 60.5941605,19.6022186 60.6779747,19.5950626 C60.7617889,19.5879065 60.8426096,19.5330437 60.9294172,19.5258877 C61.0162247,19.5187316 61.0970455,19.4972636 61.183853,19.4877222 C61.2706605,19.4781808 61.3844083,19.4877222 61.4831893,19.4877222 C61.5819702,19.4877222 61.6867379,19.5068049 61.7825255,19.4877222 C61.8783131,19.4686395 61.9741007,19.4590981 62.0818618,19.4495567 C62.1896229,19.4400154 62.2764304,19.4495567 62.3811981,19.4280887 C62.4859658,19.4066206 62.5667866,19.3708405 62.6595808,19.3589138 C62.752375,19.3469871 62.8541494,19.3589138 62.9589171,19.3446017 C63.0636848,19.3302897 63.1295387,19.2611148 63.222333,19.2491881 C63.3151272,19.2372614 63.4198949,19.2921242 63.5216693,19.2778122 C63.6234436,19.2635001 63.6982777,19.2324907 63.7880785,19.2181786 C63.8778794,19.2038666 63.9706737,19.2181786 64.0604745,19.1967106 C64.1502754,19.1752425 64.2251095,19.1179943 64.311917,19.1036823 C64.3987245,19.0893702 64.5274391,19.1275357 64.6262201,19.1036823 C64.7250011,19.0798288 64.823782,19.0774435 64.9255564,19.0607461 C65.0273307,19.0440487 65.1201249,19.024966 65.2248926,19.0082686 C65.3296603,18.9915712 65.4134745,18.9677178 65.5092621,18.9510204 C65.6050497,18.934323 65.6768904,18.8651481 65.7696846,18.8484507 C65.8624789,18.8317533 65.9732333,18.8770748 66.0690209,18.8603774 C66.1648085,18.84368 66.2246758,18.7482664 66.3114833,18.731569 C66.3982908,18.7148716 66.5210187,18.731569 66.6108196,18.7101009 C66.7006204,18.6886329 66.787428,18.6289993 66.8832156,18.6099166 C66.9790032,18.5908339 67.0957443,18.6552381 67.1825518,18.63377 C67.2693593,18.6123019 67.3441934,18.5383564 67.4310009,18.5168883 C67.5178085,18.4954202 67.6435297,18.5168883 67.7303372,18.4954202 C67.8171447,18.4739521 67.9069456,18.4262453 67.9967465,18.4023919 C68.0865474,18.3785385 68.1643748,18.333217 68.2511823,18.3141343 C68.3379898,18.2950515 68.4607177,18.3141343 68.5505186,18.2926662 C68.6403195,18.2711981 68.7241336,18.2378033 68.8049544,18.2139499 C68.8857752,18.1900965 68.9636026,18.1161509 69.0444234,18.0946829 C69.1252442,18.0732148 69.2659323,18.0946829 69.3437597,18.0732148 C69.4215871,18.0517467 69.4904345,17.9539477 69.5712553,17.9300943 C69.6520761,17.9062409 69.7688172,17.8919289 69.8406579,17.8680754 C70.0142729,17.8132126 70.0112796,17.8680754 70.1399942,17.8108273 C70.187888,17.7869738 70.0831203,17.7917445 70.0082862,17.8108273 L69.7957575,17.8418367 L69.6161557,17.8728461 C69.5652685,17.8728461 69.5143814,17.9157823 69.4545141,17.9253236 C69.3946469,17.934865 69.2838924,17.9253236 69.1970849,17.9444064 C69.1102774,17.9634891 69.03245,17.9825718 68.9426491,17.9968839 L68.6822265,18.03982 C68.6014057,18.03982 68.5145982,18.0803708 68.4247973,18.0922975 C68.3349965,18.1042242 68.2422022,18.0612881 68.1524013,18.0756001 L67.8919788,18.1066096 C67.8051713,18.1185363 67.7363239,18.2020232 67.646523,18.2139499 C67.5567222,18.2258766 67.4639279,18.1781698 67.374127,18.1900965 L67.1137045,18.2258766 L66.8532819,18.2640421 C66.7694678,18.2640421 66.6856536,18.3022076 66.5958527,18.3141343 C66.5060519,18.326061 66.4252311,18.3141343 66.3324368,18.3308317 C66.2396426,18.3475291 66.1588218,18.3308317 66.0720143,18.3308317 L65.8115917,18.3642264 C65.7277776,18.3642264 65.6529435,18.4429427 65.566136,18.4524841 C65.4793285,18.4620254 65.3955143,18.4787228 65.3087068,18.4858788 L65.0512776,18.5097323 L64.7938484,18.535971 C64.7100342,18.535971 64.61724,18.5025762 64.5274391,18.5121176 C64.4376382,18.521659 64.3628042,18.535971 64.2730033,18.543127 L64.0185675,18.5645951 C63.9347533,18.5645951 63.8539325,18.5956045 63.767125,18.6051459 C63.6803175,18.6146873 63.6024901,18.6576234 63.5186759,18.6647794 C63.4348617,18.6719355 63.3450609,18.6647794 63.2612467,18.6647794 C63.1774325,18.6647794 63.0846383,18.6385407 63.0038175,18.6456967 C62.9229967,18.6528527 62.8421759,18.717257 62.7583618,18.724413 C62.6745476,18.731569 62.5847467,18.7005596 62.5009326,18.7077156 C62.4171184,18.7148716 62.3303109,18.6957889 62.2464968,18.7077156 L61.9950543,18.7363397 C61.8842999,18.7363397 61.7765388,18.7625784 61.6657844,18.7721198 C61.55503,18.7816612 61.4502623,18.8484507 61.3395079,18.8579921 C61.2287534,18.8675335 61.1150057,18.84368 61.0042512,18.8579921 C60.8934968,18.8723041 60.7857358,18.8890015 60.6779747,18.8961576 C60.5702136,18.9033136 60.4594592,18.9176256 60.3487048,18.9247817 C60.2379504,18.9319377 60.1301893,18.9247817 60.0194349,18.9247817 C59.9086805,18.9247817 59.7979261,18.9033136 59.690165,18.9104696 C59.582404,18.9176256 59.4716495,18.9104696 59.3608951,18.9104696 C59.2501407,18.9104696 59.1483664,18.9534057 59.0406053,18.9581764 C58.9328443,18.9629471 58.8220898,18.9581764 58.7143288,18.9581764 C58.6065677,18.9581764 58.4988067,18.9748738 58.3910456,18.9772592 C58.2832845,18.9796445 58.1755235,18.9605618 58.0677624,18.9653325 C57.9600014,18.9701031 57.858227,19.0345074 57.750466,19.0368927 C57.6427049,19.039278 57.5379372,19.0535901 57.4301762,19.0583608 L57.1098864,19.0583608 C57.0051187,19.0583608 56.8973576,19.0106539 56.7925899,19.0130393 C56.6878222,19.0154246 56.5800612,18.9963419 56.4752935,18.9987272 C56.3705258,19.0011126 56.2657581,19.0583608 56.157997,19.0583608 C56.050236,19.0583608 55.951455,19.0845995 55.8586608,19.0845995 C55.7658665,19.0845995 55.6491254,19.0679021 55.5593245,19.0679021 C55.4695236,19.0679021 55.4306099,19.0130393 55.3677493,19.0154246 C55.3048887,19.01781 55.2061077,19.0512047 55.1282803,19.0512047 C55.0504528,19.0512047 54.969632,19.0917555 54.8918046,19.0917555 C54.8139772,19.0917555 54.7331564,19.0416634 54.6523356,19.0416634 L54.1793843,19.0416634 C54.1045502,19.0416634 54.0237294,19.0655168 53.945902,19.0655168 C53.8680746,19.0655168 53.7603135,19.0440487 53.6645259,19.0440487 C53.5687383,19.0440487 53.4789374,19.0082686 53.3861432,19.0082686 C53.2933489,19.0082686 53.1975613,19.0869849 53.1047671,19.0869849 C53.0119728,19.0869849 52.922172,19.0368927 52.8293777,19.0368927 C52.7365835,19.0368927 52.6467826,19.0368927 52.5539884,19.0368927 C52.4611941,19.0368927 52.3683999,19.0798288 52.278599,19.0774435 L52.006203,19.0774435 C51.9134087,19.0774435 51.8266012,19.0034979 51.7368003,19.0034979 C51.6469995,19.0034979 51.5571986,19.0034979 51.4673977,19.0034979 C51.3775968,19.0034979 51.2877959,19.0034979 51.1979951,19.0034979 C51.1081942,19.0034979 51.0213867,19.0464341 50.9315858,19.0440487 C50.8417849,19.0416634 50.7579707,18.9987272 50.6681699,18.9987272 C50.578369,18.9987272 50.4915615,19.0273513 50.4047539,19.024966 C50.3179464,19.0225806 50.2311389,18.9701031 50.1443314,18.9677178 C50.0575239,18.9653325 49.9707164,18.9677178 49.8839088,18.9677178 C49.7971013,18.9677178 49.6833535,19.0225806 49.5845726,19.01781 C49.4857916,19.0130393 49.3840173,18.9820298 49.2852363,18.9796445 C49.1864553,18.9772592 49.0876744,18.9319377 48.9859,18.927167 C48.8841257,18.9223963 48.7913315,18.927167 48.6865638,18.927167 C48.5817961,18.927167 48.4860085,18.9557911 48.3872275,18.9510204 C48.2884465,18.9462497 48.1986456,18.9367084 48.0878912,18.9319377 L47.8065151,18.9319377 L47.5281324,18.9152403 C47.4353382,18.9152403 47.3425439,18.934323 47.2497497,18.9295523 L46.9773537,18.9176256 L46.7139377,18.9033136 C46.6091701,18.9033136 46.5103891,18.9033136 46.4146015,18.9033136 C46.3188139,18.9033136 46.2170395,18.8508361 46.1152652,18.84368 C46.0134909,18.836524 45.9206966,18.84368 45.8159289,18.84368 C45.7111612,18.84368 45.6303405,18.8031292 45.5345528,18.7983586 C45.4387652,18.7935879 45.3489644,18.7816612 45.2591635,18.7768905 L44.9598272,18.7554224 C44.8580529,18.7554224 44.7532852,18.8055146 44.6604909,18.7983586 C44.5676967,18.7912025 44.4689157,18.7554224 44.3611547,18.7506517 C44.2533936,18.7458811 44.1755662,18.7506517 44.0857653,18.738725 C43.9959644,18.7267983 43.8882034,18.7124863 43.786429,18.7053302 C43.6846547,18.6981742 43.5948538,18.6790915 43.5080463,18.6695501 C43.4212388,18.6600088 43.3134777,18.6361554 43.20871,18.6289993 C43.1039423,18.6218433 43.0051614,18.6289993 42.9093738,18.6289993 C42.8135862,18.6289993 42.7118118,18.6003752 42.6100375,18.5932192 C42.5082632,18.5860632 42.424449,18.5455124 42.3436282,18.5383564 C42.2628074,18.5312003 42.1281061,18.5240443 42.0442919,18.5145029 C41.9538976,18.4988559 41.8610815,18.4940322 41.7689026,18.5001909 C41.7000552,18.5001909 41.8257765,18.5383564 41.9095906,18.5622098 C41.9934048,18.5860632 42.0023849,18.5502831 42.0652455,18.5622098 C42.1281061,18.5741365 42.152053,18.619458 42.2149136,18.6361554 C42.2777742,18.6528527 42.3675751,18.6814768 42.457376,18.7029449 C42.5471769,18.724413 42.6369778,18.7029449 42.729772,18.717257 C42.8225662,18.731569 42.8914136,18.7649638 42.9842078,18.7840465 C43.0770021,18.8031292 43.1428561,18.8651481 43.2326569,18.8818455 C43.3224578,18.8985429 43.4182454,18.8818455 43.5110397,18.8961576 C43.6038339,18.9104696 43.678668,18.9581764 43.7714622,18.9748738 C43.8642565,18.9915712 43.9450773,19.0154246 44.0378715,19.0297367 C44.1306657,19.0440487 44.2144799,19.0702875 44.3072741,19.0869849 C44.4000684,19.1036823 44.495856,19.0869849 44.5886502,19.1012969 C44.6814445,19.115609 44.7742387,19.1012969 44.867033,19.115609 C44.9598272,19.129921 45.0316679,19.2157933 45.1244622,19.2301053 L45.3998515,19.2730415 C45.4896524,19.2730415 45.5944201,19.2444174 45.6991878,19.2563441 C45.8039555,19.2682708 45.8787896,19.3159776 45.9685904,19.3279043 C46.0583913,19.339831 46.163159,19.3112069 46.2679267,19.3279043 C46.3726944,19.3446017 46.4415417,19.4090059 46.534336,19.4209326 C46.6271302,19.4328594 46.7289046,19.3875379 46.8336723,19.3970792 C46.9384399,19.4066206 47.0222541,19.3970792 47.1150483,19.3970792 C47.2078426,19.3970792 47.2886634,19.4805662 47.384451,19.4924929 C47.4802386,19.5044196 47.5730328,19.4757955 47.6688204,19.4924929 C47.7646081,19.5091903 47.8484222,19.5545118 47.9412164,19.5640531 C48.0340107,19.5735945 48.1417718,19.5044196 48.2405527,19.513961 C48.3393337,19.5235023 48.4231478,19.5568971 48.5189354,19.5664385 C48.6147231,19.5759798 48.7075173,19.5521264 48.8033049,19.5664385 C48.8990925,19.5807505 48.9859,19.61176 49.0786943,19.618916 C49.1714885,19.626072 49.2642828,19.6451547 49.3600704,19.6523108 C49.455858,19.6594668 49.5516456,19.618916 49.6594066,19.626072 C49.7671677,19.633228 49.6773668,19.6236867 49.7731544,19.6308427 Z" id="Path" fill="#FFFFFF" fill-rule="nonzero"></path><path d="M16.3162548,16.7685486 C15.994102,16.7616101 15.6762022,16.8288159 15.4000878,16.9622313 C15.0559503,17.174182 14.7479335,17.4214596 14.4839209,17.6977351 C13.987387,18.1559714 13.5331862,18.6426975 13.1249399,19.1540325 C12.9240937,19.4291592 12.7748839,19.7265599 12.6821259,20.036637 C12.5556001,20.5953165 12.5033908,21.163209 12.5263775,21.7307474 L12.5263775,22.2872786 C12.1088039,22.5223396 11.6675107,22.7289986 11.2070971,22.9051017 L11.2070971,23.2483368 L12.5263775,23.1919482 L12.5263775,26.411003 C12.4938027,28.0879516 12.4775153,28.96647 12.4775153,29.0465582 C12.4754975,29.267645 12.4290938,29.4870248 12.3400902,29.6962532 C12.3012363,29.7576303 12.2434015,29.8099696 12.1721263,29.8482573 C12.0788461,29.8908286 11.9739914,29.9143984 11.8667373,29.9169043 L10.9505703,29.9169043 L10.9505703,30.4562738 C12.2963178,30.4170469 13.1106884,30.3974335 13.3936822,30.3974335 C13.7235023,30.3974335 14.6152382,30.4170469 16.1116442,30.4562738 L16.1116442,29.9267111 C15.5911517,29.9104485 15.0737498,29.8546276 14.5663759,29.7599969 C14.4873703,29.7383462 14.418239,29.6982162 14.3678731,29.6447679 C14.3144449,29.5769537 14.2790916,29.5009906 14.2640408,29.4216651 C14.2256455,29.1777505 14.2082988,28.9319968 14.2121247,28.6861614 C14.1815858,27.6172292 14.1663163,26.8817255 14.1663163,26.4796501 L14.1663163,23.2017549 C14.6915854,23.1772381 15.0824833,23.1625281 15.3573334,23.1625281 C15.6321835,23.1625281 16.0261353,23.1772381 16.5788893,23.2017549 L16.7743383,22.2676651 L16.6735599,22.2137282 C16.1818836,22.2505034 15.6810457,22.2725685 15.1679922,22.2725685 L14.1632625,22.2725685 L14.1632625,20.3700654 C14.1326235,19.8555807 14.1818642,19.3400346 14.3098492,18.8353142 C14.3882273,18.6060998 14.5550002,18.4026958 14.786256,18.2542662 C15.0261282,18.109793 15.3202601,18.0354075 15.6199679,18.0434218 C15.8553242,18.0393547 16.0888995,18.0770253 16.3040392,18.1537474 C16.5211791,18.2406829 16.7167688,18.358656 16.8812244,18.5018859 L17.1102662,18.4209804 L17.0644578,16.8886809 C16.8260489,16.8129392 16.5726116,16.7722471 16.3162548,16.7685486 Z" id="Path" fill="#FFFFFF" fill-rule="nonzero"></path><path d="M19.5086124,19.8479087 C19.7924377,19.8473561 20.0599399,19.7364555 20.2329379,19.5476128 C20.6321132,19.1222652 20.6321132,18.5227811 20.2329379,18.0974335 C20.0602149,17.9066848 19.7911668,17.7946768 19.5057034,17.7946768 C19.22024,17.7946768 18.951192,17.9066848 18.7784689,18.0974335 C18.3792936,18.5227811 18.3792936,19.1222652 18.7784689,19.5476128 C18.9527122,19.7378175 19.222743,19.8488744 19.5086124,19.8479087 L19.5086124,19.8479087 Z" id="Path" fill="#FFFFFF" fill-rule="nonzero"></path><path d="M20.7975087,30.1413313 C20.7430706,30.1027419 20.700179,30.0538313 20.6723245,29.9985801 C20.6020092,29.7796763 20.5686846,29.5534625 20.5733417,29.3266649 C20.5733417,29.1962198 20.5442291,28.3421738 20.5180278,26.7325308 L20.5180278,25.0539735 C20.5180278,24.3599072 20.5413178,23.3581875 20.587898,22.0488144 L20.3928436,21.9011407 C19.4777528,22.3095083 18.480563,22.5699329 17.4524715,22.6690437 L17.4524715,23.2006689 C17.857026,23.1757389 18.2637173,23.1989367 18.6606442,23.2695833 C18.754008,23.3160167 18.8243301,23.3894568 18.8586098,23.4763265 C18.9396109,24.0173819 18.9678483,24.5631522 18.9430364,25.1081205 L18.9430364,26.7325308 C18.9139238,28.4184718 18.8964562,29.2995914 18.8964562,29.3808119 C18.9015465,29.6032227 18.8611659,29.8247062 18.7770946,30.0354985 C18.7402498,30.0964722 18.6862685,30.14887 18.6198865,30.1880946 C18.530963,30.2308317 18.4310054,30.2544933 18.3287606,30.257009 L17.4553827,30.257009 L17.4553827,30.7984791 C18.5587501,30.7590994 19.3535239,30.7394096 19.8309705,30.7394096 C20.3811986,30.7394096 20.2938608,30.7246423 21.21673,30.7615607 L21.21673,30.2693151 C21.1509604,30.2647133 21.0857332,30.2556598 21.0216757,30.2422416 C20.9385477,30.2241038 20.8617123,30.1895158 20.7975087,30.1413313 L20.7975087,30.1413313 Z" id="Path" fill="#FFFFFF" fill-rule="nonzero"></path><path d="M28.811666,26.6023174 C28.6551313,26.3289637 28.4050672,26.0988775 28.0919523,25.9401021 C27.5709135,25.7263446 27.0251569,25.5558261 26.4628094,25.4310859 L24.896905,25.0530302 C24.6493515,24.9870459 24.416466,24.8885787 24.2073048,24.7614578 C24.0381234,24.6494333 23.9047839,24.5052482 23.81884,24.3413959 C23.7246999,24.1440982 23.6816278,23.9328842 23.6923631,23.7211869 C23.6836638,23.3066481 23.86288,22.9042282 24.1952594,22.5919616 C24.5241657,22.2741202 25.0124339,22.0974717 25.5202554,22.1125968 C25.8583186,22.1037583 26.1948613,22.1534314 26.5079797,22.258383 C26.7448536,22.3422173 26.965112,22.4546542 27.1614437,22.5919616 C27.3038417,22.6930007 27.4240351,22.8133557 27.5167835,22.9477787 C27.5898735,23.0677803 27.6444968,23.1947729 27.6793967,23.3258345 C27.7418834,23.6164635 27.7781183,23.9104834 27.7878055,24.2054935 L28.3178039,24.2054935 C28.3388834,23.4963302 28.3720083,22.7970506 28.4141672,22.1125968 C28.0141496,21.9326496 27.5853819,21.7995723 27.1403642,21.7172444 C26.6961129,21.6195741 26.2390655,21.5664728 25.7792319,21.5591035 C25.1405761,21.5535514 24.5113259,21.6856155 23.954351,21.9421011 C23.4374444,22.1659808 23.0122488,22.5097169 22.731741,22.9304821 C22.471069,23.346878 22.3377483,23.8090536 22.3432763,24.2771511 C22.3395968,24.5921582 22.4006802,24.9054191 22.5239575,25.2037583 C22.6261309,25.4632077 22.7933299,25.7022457 23.0148083,25.9055088 C23.2506433,26.1096733 23.5357613,26.2712517 23.8519649,26.3799317 C24.0868506,26.4590022 24.5957695,26.5899626 25.3907672,26.7678712 C25.9218151,26.8759817 26.438331,27.0274659 26.9325807,27.2200555 C27.1696698,27.3268437 27.3633688,27.4883598 27.4896813,27.6845946 C27.6260605,27.8950807 27.6944834,28.1307155 27.6884308,28.3690484 C27.7226651,28.8767481 27.4966578,29.3730712 27.0650803,29.737956 C26.6412254,30.072922 26.0691112,30.2514185 25.4811078,30.2321465 C25.1913396,30.2354264 24.9016227,30.2230449 24.6138377,30.1950822 C24.4166776,30.1681091 24.2257385,30.11644 24.047703,30.0418832 C23.8546812,29.9590426 23.6804883,29.849544 23.5327613,29.7181884 C23.3699313,29.5725542 23.2494679,29.3985184 23.1804328,29.2091722 C23.1057988,29.0083633 23.0533897,28.80244 23.0238424,28.5939051 C22.9937289,28.3838741 22.9756607,28.0997146 22.9666267,27.7414265 L22.4366282,27.7414265 C22.4225753,28.546957 22.4055109,29.0757408 22.3854352,29.3277779 C22.3613444,29.5748732 22.3252081,29.841736 22.2679924,30.1085989 C22.2538188,30.1605593 22.2457516,30.2135154 22.2439015,30.2667399 C22.2404146,30.2999679 22.2534475,30.3329413 22.2800378,30.3581651 C22.5337585,30.452185 22.80243,30.5162423 23.0780468,30.5484284 C23.7837449,30.6902324 24.5051328,30.77302 25.2311654,30.7955237 C26.2865335,30.8340117 27.3103816,30.4950818 28.0377479,29.8664456 C28.7201106,29.2799439 29.0961681,28.4978731 29.0856993,27.6870655 C29.1017213,27.3126807 29.007732,26.9406281 28.811666,26.6023174 Z" id="Path" fill="#FFFFFF" fill-rule="nonzero"></path><path d="M39.3445721,30.2658156 C38.7208054,30.2658156 38.3893352,30.2436213 38.3531748,30.2386892 C38.2691148,30.2248657 38.1904797,30.1943831 38.124159,30.149912 C38.0707399,30.1077344 38.0313313,30.055115 38.0096511,29.9970178 C37.9361804,29.7876819 37.8976616,29.5711726 37.8951432,29.3533828 C37.8951432,29.2522753 37.8951432,28.8059231 37.8770631,28.0118599 L37.8499428,26.739386 L37.8499428,25.1142692 C37.880883,24.5043193 37.7788445,23.8947343 37.5486062,23.3140639 C37.3290419,22.8959366 36.9521733,22.5460526 36.4728347,22.3153198 C35.9870788,22.0554164 35.4199457,21.9158372 34.8395906,21.9133562 C34.5138484,21.9162154 34.190608,21.9603035 33.8813404,22.044056 C33.697805,22.0886238 33.5209284,22.1498323 33.3540014,22.2265426 C33.2507728,22.2935201 33.1558922,22.3686891 33.070745,22.4509517 C32.9954109,22.5175347 32.7694085,22.7271476 32.3505507,23.0797906 C31.9316929,23.4324335 31.6966504,23.6395804 31.6062494,23.7061634 L31.6062494,20.9935252 L31.6273429,19.5508949 C31.6273429,18.773272 31.6454231,17.8328908 31.6815835,16.7297513 L31.6815835,16.426429 C31.6939863,16.3652677 31.7010354,16.3034596 31.7026771,16.2414764 C31.7062395,16.2003093 31.6924095,16.1593904 31.6635033,16.1255728 C31.6413816,16.0998023 31.605553,16.0842256 31.5670756,16.0836502 C31.4984525,16.0906398 31.432582,16.1100123 31.3742202,16.140369 C30.8217699,16.4001246 29.8313771,16.6179577 28.4030418,16.7938682 L28.4030418,17.3265317 C28.8395364,17.3033059 29.2778669,17.3248454 29.7078291,17.3906486 C29.7786214,17.4161438 29.8347242,17.4629394 29.8645241,17.5213484 C29.9355088,17.9297478 29.9697524,18.3418617 29.9669785,18.7543657 C30.0001256,19.8517512 30.0151924,20.9121461 30.0151924,21.9429486 L30.0151924,26.7270558 C29.9930944,28.4138236 29.9820454,29.297486 29.9820454,29.3780431 C29.9867104,29.6010529 29.9438835,29.823024 29.855484,30.0340083 C29.8171457,30.0957448 29.7600784,30.1483906 29.6897489,30.1869025 C29.5981568,30.2306002 29.494415,30.2543718 29.3884124,30.2559515 L28.4844027,30.2559515 L28.4844027,30.7984791 C29.731936,30.7590225 30.5415269,30.7392943 30.9131753,30.7392943 C31.3440866,30.7392943 32.1185215,30.7590225 33.2394935,30.7984791 L33.2394935,30.2658156 C32.5886065,30.2658156 32.2390561,30.2436213 32.1938557,30.2386892 C32.1097956,30.2248657 32.0311605,30.1943831 31.9648399,30.149912 C31.9123063,30.1075908 31.8739179,30.0549481 31.8533454,29.9970178 C31.7780211,29.777901 31.7394981,29.5514122 31.7388375,29.3237904 C31.7388375,29.1955565 31.7237706,28.3340884 31.693637,26.739386 L31.693637,25.6592628 C31.6847479,25.3433075 31.6968191,25.0271902 31.7297974,24.7123055 C31.7503953,24.5717256 31.8024936,24.4354594 31.883479,24.3103419 C32.0372368,24.0793862 32.2266207,23.8655564 32.4469784,23.6741049 C32.8708141,23.2838017 33.4846996,23.0678494 34.1224096,23.0847226 C34.5928127,23.0724308 35.051457,23.2063545 35.4061033,23.4595599 C35.7179934,23.6852899 35.9456941,23.97848 36.063017,24.3054098 C36.1902962,24.8121997 36.242903,25.3296463 36.219712,25.8466815 L36.219712,28.1376277 C36.219712,28.9990958 36.1875694,29.8860463 36.1232843,30.7984791 C36.9730534,30.7590225 37.530526,30.7392943 37.7987156,30.7392943 C38.124159,30.7392943 38.6424579,30.7590225 39.3536122,30.7984791 L39.3445721,30.2658156 Z" id="Path" fill="#FFFFFF" fill-rule="nonzero"></path><path d="M47.3223786,22.4407722 C46.7351599,22.0826518 46.0210878,21.8962938 45.2922557,21.9109522 C44.7681821,21.882627 44.2441781,21.9671253 43.7711431,22.1562392 C43.5107192,22.2788827 42.8576865,22.8209671 41.8120449,23.7824922 L41.8120449,22.8136084 C41.8120449,22.6664362 41.8120449,22.5045468 41.8445979,22.3230344 C41.8445979,22.2077495 41.8445979,22.1341634 41.8445979,22.1022761 C41.8492052,22.0485228 41.8348075,21.994822 41.8031668,21.9477452 C41.7759043,21.9191264 41.7346912,21.9020467 41.690711,21.9011407 C41.6307905,21.9085985 41.5739338,21.9279537 41.5249867,21.9575567 C41.219098,22.1076918 40.8946742,22.2302175 40.557275,22.3230344 C40.1714605,22.4369501 39.775733,22.5263298 39.3735299,22.5903972 C39.1410747,22.6292868 38.9057944,22.6555069 38.6692015,22.6688891 L38.6692015,23.2060677 L39.8203937,23.2330493 C40.0200088,23.2670506 40.1705298,23.4036919 40.1932734,23.5715454 C40.2199077,23.6696602 40.2435826,24.277972 40.2672575,25.3915752 C40.2909324,26.5051783 40.3027698,27.5991584 40.3027698,28.6489869 L40.3027698,31.9063987 C40.2790949,33.577621 40.2642981,34.4516605 40.2583794,34.5285171 C40.2623975,34.7509184 40.2172632,34.9720507 40.1252081,35.1809806 C40.0875568,35.2423875 40.0315122,35.2947523 39.9624431,35.3330586 C39.8723901,35.3763224 39.7705715,35.3999523 39.6665068,35.4017389 L38.7786979,35.4017389 L38.7786979,35.9315589 C39.308596,35.8867748 39.8412199,35.8679367 40.3737945,35.8751429 C41.6404019,35.8751429 42.652504,35.892313 43.4160196,35.9315589 L43.4160196,35.4017389 C42.7412849,35.4017389 42.3713645,35.3772102 42.3121772,35.3649459 C42.2294714,35.3530371 42.1519466,35.3234453 42.0872657,35.2790954 C42.0325855,35.2343782 41.9910675,35.1798223 41.9659318,35.1196589 C41.8856029,34.9062135 41.8476234,34.6833728 41.853476,34.4598367 C41.853476,34.2963121 41.8376927,33.4427132 41.8061262,31.8990401 L41.8061262,30.4493938 C42.1202066,30.6062417 42.4547922,30.7329702 42.8034315,30.8271358 C43.0970003,30.9009909 43.4022038,30.9381921 43.7089965,30.937515 C44.0919613,30.9386439 44.4719911,30.8821289 44.8305951,30.7707198 C45.1290711,30.6629628 45.4153003,30.5332599 45.6858509,30.3831663 C46.1005801,30.165338 46.4881856,29.9139115 46.8429618,29.6325879 C47.2069635,29.3431492 47.4348344,29.159184 47.5206559,29.0806921 C47.7073333,28.9068611 47.8664539,28.713976 47.994154,28.5067205 C48.1713022,28.2371407 48.3255629,27.9576537 48.4558146,27.6702917 C48.6041194,27.3518403 48.7199405,27.0236408 48.80206,26.6891436 C48.8929584,26.3285788 48.9375971,25.9610574 48.9352314,25.5927105 C48.9400501,24.9799982 48.8107026,24.371645 48.5534736,23.7972094 C48.3073018,23.2571296 47.8801952,22.7865378 47.3223786,22.4407722 L47.3223786,22.4407722 Z M46.8991897,28.2246404 C46.6910436,28.7348541 46.3098481,29.184514 45.8012661,29.5197559 C45.3557845,29.7894021 44.8169447,29.932251 44.2653567,29.9269324 C43.8015925,29.9259826 43.3456045,29.8281216 42.9395622,29.6423994 C42.5051411,29.4468118 42.1218932,29.1816822 41.8120449,28.8623867 L41.8120449,25.3155362 C41.8025196,25.0921238 41.8213659,24.8685005 41.8682728,24.6483554 C41.9955728,24.3691692 42.1875984,24.1133456 42.4335111,23.8953243 C42.692643,23.648927 43.0085777,23.4479432 43.3627511,23.3041825 C43.6873331,23.1700897 44.0447442,23.0995962 44.4074062,23.0981414 C44.9137606,23.1071476 45.4065205,23.2356312 45.8279003,23.4685248 C46.321741,23.7370632 46.7040052,24.1249781 46.9228646,24.5796751 C47.1898585,25.1313511 47.3197058,25.7220321 47.3046224,26.3163073 C47.3118908,26.9676487 47.174457,27.6145362 46.8991897,28.2246404 L46.8991897,28.2246404 Z" id="Shape" fill="#FFFFFF" fill-rule="nonzero"></path><path d="M57.2658655,22.7911605 C56.4913059,21.9917303 55.3006827,21.535673 54.0512997,21.5598505 C52.720033,21.5369463 51.4514896,22.0202702 50.6192068,22.8675017 C49.7249291,23.7425527 49.2777902,24.8712535 49.2777902,26.2536043 C49.2710638,26.9864259 49.4161041,27.7149186 49.7068018,28.4083968 C49.88112,28.8069588 50.1220673,29.1840112 50.4228282,29.5288889 C50.7459801,29.9009851 51.1658272,30.2104142 51.6524601,30.4351331 C52.2170829,30.6879952 52.8544808,30.8129933 53.4984185,30.7971382 C54.4134924,30.8015485 55.3087673,30.5800485 56.0664458,30.1617823 C56.8602967,29.7273032 57.4884078,29.1197533 57.8791709,28.4083968 C58.3109181,27.6356337 58.5285649,26.7948453 58.5166459,25.9457768 C58.5075822,24.6578265 58.1057615,23.6038251 57.2658655,22.7911605 Z M55.9909155,29.3023279 C55.6041051,29.830741 54.9088463,30.1579059 54.1540208,30.1667075 C53.5580873,30.1588636 52.9888423,29.9639139 52.5648651,29.6224685 C52.0794576,29.2629259 51.7078489,28.6883146 51.4500391,27.8986344 C51.1978091,27.1432272 51.0678029,26.3641859 51.0633244,25.581309 C51.0633244,24.4164897 51.3050211,23.5619606 51.7853933,23.0103337 C52.1966194,22.4891588 52.9074284,22.1766797 53.6676062,22.1828933 C54.2130874,22.1852043 54.7406456,22.3418912 55.1600832,22.6261649 C55.6132645,22.9183959 55.9858802,23.4215912 56.2779303,24.135751 C56.5938258,24.959392 56.7438107,25.8193309 56.722048,26.6821001 C56.722048,27.855949 56.4783372,28.7293583 55.9909155,29.3023279 Z" id="Shape" fill="#FFFFFF" fill-rule="nonzero"></path><path d="M67.7760726,30.1030663 C67.6936725,29.9860774 67.6457228,29.8552751 67.635954,29.7208358 C67.6034628,29.4331355 67.5862018,28.8881489 67.5841711,28.0858759 L67.5841711,26.453382 C67.5841711,25.1858565 67.5618333,24.4131756 67.5171579,24.1353393 C67.4643047,23.7270947 67.3065968,23.332307 67.0541574,22.9763179 C66.7982763,22.6480597 66.4371857,22.382151 66.0093603,22.206925 C65.5637188,22.0070647 65.0627973,21.9018639 64.5533456,21.9011407 C64.0412856,21.9094657 63.5370338,22.004383 63.0729626,22.179799 L61.3001581,23.6470707 C61.3001581,22.9294639 61.3245266,22.4584573 61.3428029,22.2365171 C61.3428029,22.182265 61.3428029,22.132945 61.3428029,22.0885569 C61.347926,22.0391901 61.3329485,21.9898227 61.3001581,21.9479947 C61.2779941,21.9189058 61.2388095,21.9011407 61.1965922,21.9011407 C61.1058878,21.9172548 61.020636,21.9492385 60.9468157,21.9948488 C60.3589269,22.2735071 59.4237878,22.4880494 58.1749049,22.6729996 L58.1749049,23.2031902 C58.5817952,23.179534 58.990706,23.1944309 59.3933272,23.2475783 C59.4837135,23.2752763 59.5584675,23.3287785 59.6035051,23.3980044 C59.6671189,23.6094877 59.6988262,23.8264349 59.6979328,24.0440972 C59.7283934,24.6088119 59.7466697,25.1390025 59.7466697,25.632203 L59.7466697,26.7295743 C59.7121477,28.4163203 59.6959021,29.2999713 59.6979328,29.3805274 C59.7014967,29.6024654 59.6592876,29.823329 59.5730445,30.0340182 C59.5340361,30.0963811 59.4751432,30.1491674 59.4024654,30.1869104 C59.309013,30.2289256 59.2046742,30.2525772 59.0978598,30.2559585 L58.1840431,30.2559585 L58.1840431,30.7984791 C59.3821584,30.759023 60.2462228,30.739295 60.7762365,30.739295 C61.4067701,30.739295 62.1012708,30.759023 62.8688768,30.7984791 L62.8688768,30.2658225 C62.2078827,30.2658225 61.8606324,30.2436284 61.8210336,30.2386964 C61.7302305,30.2222618 61.6456205,30.1884357 61.5743031,30.1400563 C61.5253756,30.1003341 61.4879257,30.0523299 61.4646451,29.9994942 C61.3827384,29.7814307 61.3446844,29.554122 61.3519411,29.3262754 C61.3519411,29.1955772 61.3336647,28.3398742 61.3032042,26.7345063 L61.3032042,25.619873 C61.2661243,25.1303078 61.351068,24.6397061 61.5529807,24.1772613 C61.7450582,23.8682062 62.0352131,23.6060698 62.3936921,23.4177325 C62.7754267,23.1986487 63.2325354,23.0821954 63.70045,23.0848221 C64.2033034,23.0751037 64.6942113,23.2096169 65.0864054,23.4645865 C65.4669751,23.7179607 65.7256831,24.0713955 65.8174588,24.4633177 C65.91685,25.0936862 65.9545354,25.729429 65.9301628,26.3646059 L65.9301628,27.9157217 C65.9301628,28.3176802 65.884472,29.2769553 65.7839522,30.7984791 C66.6124793,30.759023 67.2034141,30.739295 67.5628487,30.739295 C67.9771123,30.739295 68.4949417,30.759023 69.1254753,30.7984791 L69.1254753,30.2658225 L68.0989545,30.2386964 C67.973271,30.2302136 67.857004,30.1813743 67.7760726,30.1030663 Z" id="Path" fill="#FFFFFF" fill-rule="nonzero"></path><path d="M77.5931552,29.740472 C77.5073946,29.4693336 77.4682867,29.1893638 77.4770106,28.909003 C77.4531861,28.4459693 77.4412738,27.8966354 77.4412738,27.2610014 L77.4412738,21.4108447 L77.4680764,19.9171877 C77.4978571,18.4036153 77.5216816,17.3821198 77.53955,16.8527014 L77.4174493,16.7680608 C76.9657709,16.9145371 76.5044041,17.0392137 76.0356265,17.1414751 C75.4641466,17.2600368 74.8842445,17.3481736 74.2994139,17.4053545 L74.2994139,17.943071 C75.0409524,17.943071 75.4697939,17.9804124 75.5889166,18.0376693 C75.6583598,18.070285 75.7104857,18.1236398 75.7348418,18.187035 C75.8408321,18.709831 75.8787755,19.2406851 75.8480083,19.7703114 L75.8480083,22.2348455 C75.5085033,22.04305 75.1372848,21.893766 74.7461238,21.7917273 C74.3760184,21.6946786 73.9904337,21.6451557 73.6025463,21.644851 C73.1873737,21.6470383 72.77888,21.7324054 72.4113198,21.8937938 C71.9065713,22.1219198 71.4219052,22.3798135 70.9610015,22.6655166 C70.5452389,22.8913879 70.1624474,23.1570661 69.8204021,23.4571548 C69.4752863,23.8441165 69.2243591,24.2839261 69.0818416,24.7516576 C68.879714,25.3254796 68.779377,25.9209837 68.784035,26.5191517 C68.7706337,27.2847632 68.9334097,28.0453911 69.2635037,28.7596373 C69.5343283,29.3647858 70.0091167,29.8913725 70.6304361,30.2756991 C71.1940895,30.6154107 71.8712983,30.7983023 72.5661792,30.7984791 C73.0104859,30.7894902 73.4508743,30.7265978 73.8735504,30.611772 C74.1098103,30.3794253 74.4364049,30.0840131 74.8533342,29.7255355 C75.2702635,29.3645684 75.6038069,29.0932207 75.8599206,28.9114924 C75.8420522,29.6367459 75.8261692,30.2126336 75.8122716,30.6391557 C76.6312398,30.5993248 77.1732479,30.5794094 77.4412738,30.5794094 C77.7092998,30.5794094 78.2900227,30.5993248 79.0494297,30.6391557 L79.0494297,30.14127 C78.6547049,30.1248043 78.2637694,30.0688068 77.8850057,29.9744783 C77.7592749,29.9258056 77.6565677,29.8434547 77.5931552,29.740472 L77.5931552,29.740472 Z M75.8480083,25.4213138 C75.8667283,26.0966258 75.8408791,26.7722869 75.7705786,27.4452191 C75.7089331,27.8419822 75.5486539,28.2235729 75.3000441,28.5654618 C75.0856572,28.8719371 74.7902429,29.1333561 74.4364049,29.3297164 C74.1009121,29.5014886 73.712894,29.5879826 73.31963,29.5786592 C72.525479,29.5786592 71.8464799,29.2583527 71.2826327,28.6177398 C70.7187854,27.9771269 70.4378545,27.0875712 70.4398399,25.9490726 C70.4233837,25.3060481 70.5381951,24.6653846 70.7793394,24.0546177 C70.9558122,23.5861969 71.2972953,23.1732012 71.7591233,22.8696498 C72.162564,22.6158165 72.6538669,22.4786284 73.1588144,22.4788093 C73.6421117,22.4877888 74.1142654,22.6019037 74.528725,22.8099035 C75.0509712,23.0698708 75.5031959,23.4173819 75.8569425,23.8305691 L75.8480083,25.4213138 Z" id="Shape" fill="#FFFFFF" fill-rule="nonzero"></path><rect id="Rectangle" fill-opacity="0" fill="#D8D8D8" x="0" y="0" width="90" height="46.8821293"></rect></g></g></svg>