<svg xmlns="http://www.w3.org/2000/svg" xmlns:xlink="http://www.w3.org/1999/xlink" width="90px" height="15px" viewBox="0 0 90 15"><title>metromile-logo</title><desc>Created with Sketch.</desc><g id="Page-1" stroke="none" stroke-width="1" fill="none" fill-rule="evenodd"><g id="metromile-logo" fill="#FFFFFF" fill-rule="nonzero"><path d="M70.4875208,3.2046589 C71.2212978,3.2046589 71.8202995,2.60565724 71.8202995,1.8718802 C71.8202995,1.13810316 71.2212978,0.539101498 70.4875208,0.539101498 C69.7537438,0.539101498 69.1547421,1.13810316 69.1547421,1.8718802 C69.1547421,2.60565724 69.7537438,3.2046589 70.4875208,3.2046589 Z" id="Path"></path><path d="M89.8502496,11.515807 L88.8169717,10.5274542 C88.6672213,10.3926789 88.4276206,10.3926789 88.2778702,10.5424293 C88.2628952,10.5574043 88.2628952,10.5574043 88.2479201,10.5723794 C88.0083195,10.8868552 87.7537438,11.1863561 87.4542429,11.4409318 C86.6306156,12.1896839 85.5524126,12.608985 84.4442596,12.608985 C84.0998336,12.608985 83.7404326,12.5640599 83.4109817,12.4742097 C84.5341098,11.7254576 86.4958403,10.2279534 86.9301165,8.74542429 C87.2296173,7.71214642 87.0798669,6.69384359 86.5257903,5.94509151 C86.031614,5.28618968 85.1480865,4.80698835 84.2046589,4.83693844 C83.1114809,4.86688852 81.9134775,5.31613977 81.014975,6.12479201 C79.3677205,7.63727121 78.9184692,10.0332779 79.921797,12.0399334 C79.2628952,12.4592346 78.3494176,12.6239601 77.4209651,12.6239601 C76.687188,12.6239601 76.0133111,12.3993344 75.4292845,11.890183 L75.4592346,11.8602329 C76.9567388,10.0482529 78.1547421,7.65224626 78.843594,5.12146423 C79.3227953,3.36938436 79.1730449,1.78202995 78.469218,0.853577371 C78.0648918,0.314475874 77.4359401,1.13686838e-13 76.7620632,1.13686838e-13 C75.8785358,1.13686838e-13 75.0848586,0.37437604 74.4409318,1.10815308 C73.78203,1.84193012 73.2429285,2.98003328 72.8086522,4.55241265 C72,7.57737105 71.9700499,9.9733777 72.718802,11.7104825 C71.8652246,12.3993344 71.1314476,12.608985 70.6821963,12.608985 C70.4126456,12.608985 69.9334443,12.5490849 69.6489185,12.1896839 C69.3044925,11.7404326 69.2745424,10.8569052 69.5890183,9.74875208 C69.843594,8.80532446 70.5024958,6.42429285 70.8019967,5.31613977 C70.8469218,5.13643927 70.7420965,4.95673877 70.577371,4.91181364 C70.547421,4.91181364 70.5174709,4.8968386 70.4875208,4.8968386 L68.9900166,4.8968386 C68.7953411,4.8968386 68.6306156,5.03161398 68.5707155,5.22628952 L67.2229617,10.1680532 C66.7138103,11.9800333 66.1297837,12.6389351 65.4559068,12.6389351 C65.0665557,12.6389351 64.5723794,12.5341098 64.8569052,11.4708819 C65.0366057,10.78203 65.6056572,8.73044925 65.6056572,8.73044925 C65.6655574,8.50582363 65.7703827,8.0266223 65.7554077,7.68219634 C65.7404326,7.00831947 65.5757072,6.39434276 65.2013311,5.90016639 C64.6921797,5.24126456 63.8835275,4.85191348 63,4.85191348 C62.0266223,4.85191348 61.18802,5.24126456 60.5141431,5.90016639 C59.9900166,5.24126456 59.1963394,4.85191348 58.2978369,4.85191348 C57.7737105,4.85191348 57.1597338,4.94176373 56.6955075,5.30116473 C56.7404326,5.13643927 56.6356073,4.95673877 56.4708819,4.91181364 C56.4409318,4.91181364 56.4109817,4.8968386 56.3960067,4.8968386 L54.9584027,4.8968386 C54.7787022,4.8968386 54.6139767,5.01663894 54.5540765,5.19633943 C54.5241265,5.30116473 54.4792013,5.48086522 54.4193012,5.72046589 C54.2246256,6.24459235 53.8202995,6.5890183 53.2212978,6.78369384 C52.0981697,7.14309484 50.5407654,6.7687188 49.5524126,5.93011647 C49.0732113,5.48086522 48.4891847,5.16638935 47.8452579,5.00166389 C45.4492512,4.34276206 42.9034942,5.9750416 42.1846922,8.61064892 C42.124792,8.83527454 42.0798669,9.05990017 42.0499168,9.28452579 C41.3610649,12.4143095 40.5224626,12.6239601 40.1181364,12.6239601 C40.0133111,12.6239601 39.7587354,12.608985 39.6239601,12.4143095 C39.4891847,12.234609 39.4143095,11.8602329 39.5341098,11.4259567 C39.7737105,10.5424293 40.2828619,8.70049917 40.5074875,7.86189684 C40.5973378,7.56239601 40.5524126,7.23294509 40.3876872,6.9484193 C40.1031614,6.48419301 39.6688852,6.39434276 39.2196339,6.30449251 C38.2762063,6.09484193 37.5124792,5.84026622 37.3777038,4.80698835 C37.3477537,4.58236273 37.1680532,4.41763727 36.9434276,4.41763727 L35.5058236,4.41763727 C35.3111481,4.41763727 35.1464226,4.55241265 35.0865225,4.73211314 C34.8019967,5.73544093 33.9334443,8.86522463 33.6039933,10.0183028 C33.1547421,11.6505824 32.3311148,12.5790349 31.2678869,12.5790349 C30.9983361,12.5790349 30.7587354,12.4742097 30.6239601,12.2945092 C30.4292845,12.0399334 30.4292845,11.6655574 30.5041597,11.3810316 L30.5041597,11.3810316 L32.0915141,5.57071547 L33.4242928,5.57071547 C33.6189684,5.57071547 33.7836938,5.4359401 33.843594,5.2562396 L34.2479201,3.81863561 C34.2928453,3.63893511 34.18802,3.45923461 34.0232945,3.41430948 C33.9933444,3.41430948 33.9633943,3.39933444 33.9334443,3.39933444 L32.6905158,3.39933444 L33.4991681,0.434276206 C33.5440932,0.254575707 33.4392679,0.074875208 33.2745424,0.0299500832 C33.2445923,0.0149750416 33.2146423,0.0149750416 33.1846922,0.0149750416 L31.687188,0.0149750416 C31.4925125,0.0149750416 31.327787,0.149750416 31.2678869,0.344425957 L30.4442596,3.44425957 L28.7221298,3.44425957 C28.5274542,3.44425957 28.3627288,3.57903494 28.3028286,3.75873544 L27.9134775,5.19633943 C27.8685524,5.37603993 27.9733777,5.55574043 28.1381032,5.60066556 C28.1680532,5.60066556 28.1980033,5.6156406 28.2279534,5.6156406 L29.8452579,5.6156406 L29.3810316,7.32279534 C28.8868552,9.10482529 28.093178,10.5274542 27.0748752,11.4409318 C26.2512479,12.1896839 25.1730449,12.608985 24.0499168,12.608985 C23.7054908,12.608985 23.3460899,12.5640599 23.0166389,12.4742097 C24.1397671,11.7254576 26.1164725,10.2279534 26.5357737,8.74542429 C26.8352745,7.71214642 26.6855241,6.69384359 26.1314476,5.94509151 C25.6372712,5.28618968 24.8136439,4.82196339 23.8252912,4.83693844 C22.7321131,4.85191348 21.5341098,5.31613977 20.6356073,6.12479201 C19.5873544,7.06821963 19.0033278,8.40099834 19.0183028,9.7936772 C19.0183028,10.5723794 19.1980033,11.3361065 19.5424293,12.0249584 C18.703827,12.4742097 17.7903494,12.7138103 17.2063228,12.7138103 C16.8169717,12.7138103 16.2928453,12.5041597 16.577371,11.4259567 C16.7570715,10.7371048 17.3261231,8.68552413 17.3261231,8.68552413 C17.3860233,8.4608985 17.4908486,7.98169717 17.4758735,7.63727121 C17.4608985,6.96339434 17.296173,6.34941764 16.921797,5.85524126 C16.4126456,5.19633943 15.6039933,4.80698835 14.7204659,4.80698835 C13.7470882,4.80698835 12.9084859,5.19633943 12.234609,5.85524126 C11.7104825,5.19633943 10.9168053,4.80698835 10.0183028,4.80698835 C9.56905158,4.80698835 9.02995008,4.94176373 8.50582363,5.19633943 C8.52079867,5.06156406 8.52079867,4.85191348 8.52079867,4.73211314 C8.49084859,2.4109817 6.5890183,0.554076539 4.2828619,0.584026622 C2.00665557,0.628951747 0.149750416,2.48585691 0.134775374,4.76206323 C0.134775374,6.48419301 1.30282862,7.95174709 2.93510815,8.53577371 C3.12978369,8.61064892 3.35440932,8.50582363 3.41430948,8.29617304 C3.41430948,8.29617304 3.41430948,8.281198 3.41430948,8.26622296 L3.78868552,6.90349418 C3.83361065,6.70881864 3.7437604,6.51414309 3.54908486,6.45424293 C2.75540765,6.13976705 2.29118136,5.4359401 2.29118136,4.76206323 C2.29118136,3.63893511 3.2046589,2.74043261 4.32778702,2.74043261 C5.45091514,2.74043261 6.34941764,3.65391015 6.34941764,4.77703827 C6.34941764,4.94176373 6.3344426,5.10648918 6.28951747,5.27121464 L5.82529118,6.9484193 L5.54076539,7.96672213 L5.31613977,8.8202995 L3.80366057,14.3161398 C3.75873544,14.4958403 3.86356073,14.6755408 4.02828619,14.7204659 C4.05823627,14.7204659 4.08818636,14.7354409 4.11813644,14.7354409 L5.6156406,14.7354409 C5.81031614,14.7354409 5.9750416,14.6006656 6.03494176,14.40599 L7.35274542,9.58402662 C7.87687188,7.69717138 9.01497504,7.02329451 9.8985025,7.02329451 C10.5274542,7.02329451 10.5873544,7.56239601 10.4825291,8.04159734 L8.76039933,14.3161398 C8.71547421,14.4958403 8.8202995,14.6755408 8.98502496,14.7204659 C9.01497504,14.7204659 9.04492512,14.7354409 9.07487521,14.7354409 L10.5723794,14.7354409 C10.7670549,14.7354409 10.9317804,14.6006656 10.9916805,14.4209651 C11.2612313,13.4775374 12.0249584,10.6622296 12.3094842,9.59900166 C12.7587354,7.96672213 13.6422629,7.03826955 14.7054908,7.03826955 C15.1996672,7.03826955 15.4093178,7.44259567 15.2595674,7.99667221 C15.0349418,8.83527454 14.4658902,10.8718802 14.4658902,10.8718802 C14.1663894,11.9800333 14.2262895,13.0732113 14.7953411,13.8219634 C15.3044925,14.4958403 16.18802,14.8252912 17.1014975,14.8252912 C18.3294509,14.8252912 19.7520799,14.2861897 20.890183,13.7171381 C21.8036606,14.4209651 22.9417637,14.8103161 24.1547421,14.8103161 C25.6672213,14.8103161 27.374376,14.0915141 28.5424293,12.9084859 C28.6023295,13.1480865 28.7071547,13.3876872 28.8419301,13.6123128 C29.3061564,14.3610649 30.2795341,14.8103161 31.2229617,14.8103161 C33.2895175,14.8103161 34.9667221,13.2978369 35.6855241,10.7371048 C35.8801997,10.063228 36.2396007,8.74542429 36.5690516,7.54742097 C36.5990017,7.56239601 36.6289517,7.59234609 36.6589018,7.60732113 C37.1081531,7.921797 37.6023295,8.16139767 38.1414309,8.29617304 C38.1414309,8.29617304 37.6023295,10.2728785 37.422629,10.9317804 C37.1381032,12.0249584 37.2878536,13.0282862 37.8419301,13.7620632 C38.3510815,14.4359401 39.1747088,14.8252912 40.0732113,14.8252912 C41.1214642,14.8252912 41.8851913,14.4209651 42.5440932,13.6422629 C42.6938436,13.4475874 42.828619,13.2379368 42.9484193,13.0282862 C43.7420965,14.1214642 45,14.765391 46.3477537,14.765391 C47.1863561,14.765391 48.0249584,14.5108153 48.7737105,14.0166389 C49.8219634,13.327787 50.5707155,12.2645591 50.9151414,11.0066556 C51.109817,10.3028286 51.1547421,9.55407654 51.0499168,8.8202995 C51.4392679,8.92512479 51.843594,8.98502496 52.2479201,8.98502496 C52.6971714,8.98502496 53.1464226,8.92512479 53.5806988,8.8202995 C52.8768719,11.3810316 52.0682196,14.3460899 52.0682196,14.3460899 C52.0232945,14.5257903 52.1281198,14.7054908 52.2928453,14.750416 C52.3227953,14.750416 52.3527454,14.765391 52.3826955,14.765391 L53.8951747,14.765391 C54.0898502,14.765391 54.2545757,14.6306156 54.3144759,14.4509151 L55.6322795,9.62895175 C56.156406,7.74209651 57.2945092,7.06821963 58.1780366,7.06821963 C58.7920133,7.06821963 58.8519135,7.60732113 58.7620632,8.08652246 L57.0399334,14.3610649 C56.9950083,14.5407654 57.0998336,14.7204659 57.2645591,14.765391 C57.2945092,14.765391 57.3244592,14.7803661 57.3544093,14.7803661 L58.8519135,14.7803661 C59.046589,14.7803661 59.2113145,14.6455907 59.2712146,14.4658902 C59.5407654,13.5224626 60.3044925,10.7071547 60.5890183,9.64392679 C61.0382696,8.01164725 61.921797,7.08319468 62.985025,7.08319468 C63.4792013,7.08319468 63.6888519,7.4875208 63.5391015,8.04159734 C63.3144759,8.88019967 62.7454243,10.9168053 62.7454243,10.9168053 C62.4459235,12.0249584 62.5806988,13.0582363 63.1497504,13.8069884 C63.6589018,14.4808652 64.4825291,14.8702163 65.3810316,14.8702163 C65.9500832,14.8702163 66.9833611,14.7803661 67.9118136,13.5673877 L67.9267887,13.5823627 C68.5557404,14.40599 69.5440932,14.8552413 70.6821963,14.8552413 C71.7154742,14.8552413 72.8236273,14.3760399 73.9317804,13.4775374 C75.0249584,14.4808652 76.4326123,14.8552413 77.4658902,14.8552413 C78.7687188,14.8552413 80.1613977,14.3161398 81.2995008,13.7620632 C82.1980033,14.4658902 83.3510815,14.8552413 84.5640599,14.8552413 C86.5557404,14.8552413 88.5174709,13.8818636 89.8951747,12.0698835 C90.014975,11.8602329 89.985025,11.6356073 89.8502496,11.515807 L89.8502496,11.515807 Z M21.4292845,11.0665557 C21.234609,10.6173045 21.1597338,10.1381032 21.1896839,9.67387687 C21.2795341,8.23627288 22.7021631,6.85856905 23.8851913,6.97836938 C24.6189684,7.05324459 24.6039933,7.83194676 24.4542429,8.2063228 C24.2296173,8.80532446 23.1963394,9.94342762 21.4442596,11.0665557 L21.4292845,11.0665557 Z M48.9084859,10.422629 C48.6988353,11.1863561 48.249584,11.8302829 47.6206323,12.249584 C47.0366057,12.6239601 46.3926789,12.7437604 45.7787022,12.5790349 C45.1797005,12.4143095 44.6705491,11.9800333 44.3710483,11.3660566 C44.0415973,10.7071547 43.9816972,9.91347754 44.1913478,9.14975042 C44.6106489,7.60732113 46.0033278,6.63394343 47.3061564,6.99334443 C48.608985,7.33777038 49.312812,8.88019967 48.9084859,10.422629 Z M74.3361065,9.94342762 C74.1414309,8.76039933 74.3660566,7.15806988 74.9201331,5.12146423 C75.608985,2.60565724 76.1031614,2.17138103 76.5973378,2.17138103 C76.672213,2.17138103 76.7321131,2.18635607 76.7920133,2.2312812 C77.1214642,2.47088186 77.0615641,3.39933444 76.7470882,4.55241265 C76.2978369,6.2296173 75.6239601,7.89184692 74.7554077,9.28452579 C74.6356073,9.50915141 74.4858569,9.73377704 74.3361065,9.94342762 L74.3361065,9.94342762 Z M81.8535774,11.0515807 L81.8386023,11.0665557 C81.6439268,10.6173045 81.5690516,10.1381032 81.5990017,9.67387687 C81.6888519,8.23627288 83.0066556,6.81364393 84.2945092,6.97836938 C84.3094842,6.97836938 84.3244592,6.97836938 84.3394343,6.97836938 C85.0282862,7.09816972 85.0133111,7.83194676 84.8635607,8.2063228 C84.6539101,8.76039933 83.7554077,9.76372712 82.2279534,10.81198 C82.1081531,10.8868552 81.9883527,10.9767055 81.8535774,11.0515807 L81.8535774,11.0515807 Z" id="Shape"></path></g></g></svg>