<svg xmlns="http://www.w3.org/2000/svg" xmlns:xlink="http://www.w3.org/1999/xlink" width="90px" height="35px" viewBox="0 0 90 35"><title>Group</title><desc>Created with Sketch.</desc><g id="Page-1" stroke="none" stroke-width="1" fill="none" fill-rule="evenodd"><g id="Group" transform="translate(-15.000000, -15.000000)"><path d="M39.3793677,48.2895172 C39.3793677,48.2895172 39.3194676,48.2595672 38.9151414,48.1697169 C38.8402662,48.1547419 38.7354409,48.1098167 38.6905158,48.0199665 C38.6755408,48.0049914 38.6755408,47.9750414 38.6605657,47.9600663 C38.4359401,47.5108151 38.2113145,47.0465888 37.9717138,46.6123126 C37.0133111,44.8602327 35.9500832,43.3926786 35.6056572,42.9134773 C35.5757072,42.8835272 35.5906822,42.8386021 35.6356073,42.823627 C36.0998336,42.5990014 36.5191348,42.3444257 36.8935108,42.074875 C37.327787,41.7603991 37.687188,41.371048 37.9717138,40.9217968 C38.2412646,40.4725455 38.391015,39.9633941 38.391015,39.3943425 C38.391015,38.9151412 38.2712146,38.4509149 38.031614,38.0316137 C37.7920133,37.6123126 37.4475874,37.2678866 37.0282862,36.9983359 C36.3993344,36.5790347 35.5008319,36.3693841 34.3627288,36.3693841 L28.3577371,36.3693841 C28.2529118,36.3693841 28.1780366,36.4442593 28.1780366,36.5490846 L28.1780366,36.9534107 C28.1780366,37.2229615 28.2379368,37.3577369 28.4026622,37.3876869 C28.5074875,37.402662 28.6572379,37.4475871 29.1064892,37.5074873 C29.1963394,37.5224623 29.2712146,37.6123126 29.2712146,37.7021628 L29.2712146,47.9750414 C29.2712146,48.0798667 29.1963394,48.1547419 29.1064892,48.1697169 C28.672213,48.2445921 28.5224626,48.2745422 28.4026622,48.2895172 C28.2379368,48.3194673 28.1780366,48.4392677 28.1780366,48.7237934 L28.1780366,49.1281196 C28.1780366,49.2329449 28.2529118,49.3078201 28.3577371,49.3078201 L31.9517471,49.3078201 L31.9517471,49.3078201 C32.0565724,49.3078201 32.1314476,49.2179698 32.1314476,49.1281196 L32.1314476,48.7387685 C32.1314476,48.5141429 32.0865225,48.3494174 31.936772,48.3044923 C31.936772,48.3044923 31.8019967,48.2745422 31.202995,48.1697169 C31.1131448,48.1547419 31.0532446,48.0798667 31.0382696,47.9900164 L31.0382696,47.9900164 L31.0382696,43.90183 C31.0382696,43.8569049 31.0682196,43.8119798 31.1131448,43.7970048 C31.547421,43.7221295 33.5540765,43.3627285 33.5540765,43.3627285 C33.7787022,43.3028284 33.7936772,43.3477535 33.9134775,43.527454 C34.0332779,43.7071545 34.7221298,44.6655572 35.3510815,45.7287851 C36.3094842,47.3161395 36.5490849,47.8851911 36.5490849,48.0349415 C36.5490849,48.0948417 36.4742097,48.1397668 36.3993344,48.1547419 C35.9650582,48.2296171 35.890183,48.2595672 35.7853577,48.2745422 C35.6206323,48.3044923 35.5607321,48.4242926 35.5607321,48.7088184 L35.5607321,49.1131445 C35.5607321,49.2029948 35.6356073,49.27787 35.7254576,49.292845 L39.4093178,49.292845 L39.4093178,49.292845 C39.5141431,49.292845 39.5890183,49.2029948 39.5890183,49.1131445 L39.5890183,48.7088184 C39.5740433,48.4991678 39.5291181,48.3194673 39.3793677,48.2895172 Z M33.0748752,42.3444257 C32.7454243,42.4193009 32.1164725,42.5241262 31.1730449,42.6738766 C31.1131448,42.6888517 31.0532446,42.6439265 31.0532446,42.5690513 L31.0532446,37.7470879 C31.0532446,37.7171379 31.0532446,37.6871878 31.0532446,37.6572377 C31.0682196,37.5973375 31.1281198,37.5374374 31.202995,37.5374374 L32.8502496,37.5374374 C35.2163062,37.5374374 36.4143095,38.1663891 36.4143095,39.574043 C36.4143095,40.1430946 36.2196339,40.6073209 35.875208,40.996672 C35.3960067,41.5207984 34.5574043,42.0449249 33.0748752,42.3444257 Z" id="Shape" fill="#FFFFFF" fill-rule="nonzero"></path><path d="M104.775374,48.2895172 C104.775374,48.2895172 104.715474,48.2595672 104.311148,48.1697169 C104.236273,48.1547419 104.131448,48.1098167 104.086523,48.0199665 C104.071547,48.0049914 104.071547,47.9750414 104.056572,47.9600663 C103.831947,47.5108151 103.607321,47.0465888 103.367721,46.6123126 C102.409318,44.8602327 101.34609,43.3926786 101.001664,42.9134773 C100.971714,42.8835272 100.986689,42.8386021 101.031614,42.823627 C101.49584,42.5990014 101.915141,42.3444257 102.289518,42.074875 C102.723794,41.7603991 103.083195,41.371048 103.367721,40.9217968 C103.637271,40.4725455 103.787022,39.9633941 103.787022,39.3943425 C103.787022,38.9151412 103.667221,38.4509149 103.427621,38.0316137 C103.18802,37.6123126 102.843594,37.2678866 102.424293,36.9983359 C101.795341,36.5790347 100.896839,36.3693841 99.7587354,36.3693841 L93.7537438,36.3693841 C93.6489185,36.3693841 93.5740433,36.4442593 93.5740433,36.5490846 L93.5740433,36.9534107 C93.5740433,37.2229615 93.6339434,37.3577369 93.7986689,37.3876869 C93.9034942,37.402662 94.0532446,37.4475871 94.5024958,37.5074873 C94.5923461,37.5224623 94.6672213,37.6123126 94.6672213,37.7021628 L94.6672213,47.9750414 C94.6672213,48.0798667 94.5923461,48.1547419 94.5024958,48.1697169 C94.0682196,48.2445921 93.9184692,48.2745422 93.7986689,48.2895172 C93.6339434,48.3194673 93.5740433,48.4392677 93.5740433,48.7237934 L93.5740433,49.1281196 C93.5740433,49.2329449 93.6489185,49.3078201 93.7537438,49.3078201 L97.3477537,49.3078201 L97.3477537,49.3078201 C97.452579,49.3078201 97.5274542,49.2179698 97.5274542,49.1281196 L97.5274542,48.7387685 C97.5274542,48.5141429 97.4825291,48.3494174 97.3327787,48.3044923 C97.3327787,48.3044923 97.1980033,48.2745422 96.5990017,48.1697169 C96.5091514,48.1547419 96.4492512,48.0798667 96.4342762,47.9900164 L96.4342762,47.9900164 L96.4342762,43.90183 C96.4342762,43.8569049 96.4642263,43.8119798 96.5091514,43.7970048 C96.9434276,43.7221295 98.9500832,43.3627285 98.9500832,43.3627285 C99.1747088,43.3028284 99.1896839,43.3477535 99.3094842,43.527454 C99.4292845,43.7071545 100.118136,44.6655572 100.747088,45.7287851 C101.705491,47.3161395 101.945092,47.8851911 101.945092,48.0349415 C101.945092,48.0948417 101.870216,48.1397668 101.795341,48.1547419 C101.361065,48.2296171 101.28619,48.2595672 101.181364,48.2745422 C101.016639,48.3044923 100.956739,48.4242926 100.956739,48.7088184 L100.956739,49.1131445 C100.956739,49.2029948 101.031614,49.27787 101.121464,49.292845 L104.760399,49.292845 L104.760399,49.292845 C104.865225,49.292845 104.9401,49.2029948 104.9401,49.1131445 L104.9401,48.7088184 C104.955075,48.4991678 104.91015,48.3194673 104.775374,48.2895172 Z M98.4708819,42.3444257 C98.1414309,42.4193009 97.5124792,42.5241262 96.5690516,42.6738766 C96.5091514,42.6888517 96.4492512,42.6439265 96.4492512,42.5690513 L96.4492512,37.7470879 C96.4492512,37.7171379 96.4492512,37.6871878 96.4492512,37.6572377 C96.4642263,37.5973375 96.5241265,37.5374374 96.5990017,37.5374374 L98.2462562,37.5374374 C100.612313,37.5374374 101.810316,38.1663891 101.810316,39.574043 C101.810316,40.1430946 101.615641,40.6073209 101.271215,40.996672 C100.792013,41.5207984 99.953411,42.0449249 98.4708819,42.3444257 Z" id="Shape" fill="#FFFFFF" fill-rule="nonzero"></path><path d="M79.9018303,42.6888517 L75.3194676,42.6888517 L75.3194676,42.6888517 C75.2146423,42.6888517 75.1397671,42.7787019 75.1397671,42.8685522 L75.1397671,43.2728783 C75.1397671,43.4975039 75.1846922,43.6622294 75.3344426,43.7071545 C75.484193,43.7520796 76.8169717,43.9317801 76.9966722,43.9767052 C77.1913478,44.0066553 77.2212978,44.1564057 77.2212978,44.246256 C77.2212978,44.3810314 77.2212978,46.7920131 77.2212978,46.7920131 C77.2212978,46.7920131 77.2063228,47.2712144 76.562396,47.7803658 C76.2778702,48.0049914 75.8885191,48.1697169 75.3943428,48.3044923 C74.9151414,48.4242926 74.4359401,48.4841928 73.9866889,48.4841928 C73.2529118,48.4841928 72.5640599,48.3344424 71.9051581,48.0499166 C71.2462562,47.7653908 70.6772047,47.3610647 70.2129784,46.8369382 C69.3144759,45.8336104 68.8652246,44.590682 68.8652246,43.1081528 C68.8652246,42.3743758 68.985025,41.6405988 69.2246256,40.9367718 C69.4492512,40.2179698 69.7787022,39.574043 70.2129784,39.0349415 C70.6472546,38.4658899 71.171381,38.0316137 71.8003328,37.7021628 C72.4292845,37.3727119 73.1181364,37.2079864 73.8968386,37.2079864 C74.8252912,37.2079864 75.6638935,37.4326121 76.3527454,37.8668883 L76.3826955,37.8818633 C76.8169717,38.1514141 77.266223,38.6755405 77.5058236,39.2595671 C77.5956739,39.4991678 77.6106489,39.6489182 77.625624,39.7986686 C77.655574,39.9633941 77.7753744,40.0232943 78.0599002,40.0232943 L78.4642263,40.0232943 C78.5690516,40.0232943 78.6439268,39.9484191 78.6439268,39.8435938 L78.6439268,36.3544091 C78.6439268,36.2495838 78.5690516,36.1747086 78.4642263,36.1747086 L78.0599002,36.1747086 C77.7903494,36.1747086 77.7304493,36.2046587 77.6855241,36.3693841 C77.655574,36.5490846 77.6106489,36.698835 77.5357737,36.7886853 C77.5207987,36.8036603 77.4908486,36.8186354 77.4758735,36.8336104 C77.4459235,36.8485855 77.4009983,36.8485855 77.3560732,36.8336104 C76.921797,36.6389349 76.4425957,36.4742094 75.8885191,36.3544091 C75.1846922,36.2046587 74.5108153,36.1297835 73.9118136,36.1297835 C72.6239601,36.1297835 71.4259567,36.4442593 70.3627288,37.043261 C69.2995008,37.6422627 68.4309484,38.480865 67.8019967,39.5440929 C67.18802,40.6222959 66.8735441,41.7903492 66.8735441,43.0632277 C66.8735441,43.9916803 67.0532446,44.9051578 67.4126456,45.7587352 C67.7570715,46.5973375 68.296173,47.3311146 68.985025,47.9450913 C69.4342762,48.3194673 69.9284526,48.6339432 70.452579,48.8735439 C70.9916805,49.1131445 71.5607321,49.3078201 72.1297837,49.4126454 C72.7138103,49.5324457 73.312812,49.5923459 73.8968386,49.5923459 C74.9900166,49.5923459 76.1580699,49.3527452 77.3560732,48.8885189 C78.5690516,48.3793675 79.1530782,47.9301162 79.1530782,47.4658899 C79.1530782,47.3760397 79.1530782,44.6655572 79.1530782,44.5757069 L79.1530782,44.1264557 C79.1530782,44.0515805 79.1530782,43.9767052 79.2279534,43.9317801 C79.3178037,43.886855 79.797005,43.7371046 79.797005,43.7371046 L79.797005,43.7371046 C79.9168053,43.6772044 80.0515807,43.5873542 80.0665557,43.3028284 L80.0665557,42.8985023 C80.0815308,42.7787019 80.0066556,42.6888517 79.9018303,42.6888517 Z" id="Path" fill="#FFFFFF" fill-rule="nonzero"></path><path d="M26.5607321,38.5856903 L26.2312812,36.5490846 C26.2312812,36.5341096 26.2163062,36.5191345 26.2163062,36.5191345 C26.2013311,36.4592344 26.156406,36.3993342 26.1114809,36.3693841 C26.0965058,36.3544091 26.0515807,36.3544091 26.0515807,36.3544091 L15.6589018,36.3544091 C15.5540765,36.3544091 15.4792013,36.4592344 15.4792013,36.5341096 L15.1347754,38.6006653 C15.1048253,38.7204657 15.1647255,38.825291 15.3294509,38.825291 C15.4941764,38.825291 15.733777,38.825291 15.733777,38.825291 C16.1081531,38.825291 16.2579035,38.825291 16.3327787,38.6306154 C16.3327787,38.6306154 16.4975042,38.2113142 16.6472546,37.9717136 L16.6472546,37.9717136 L16.6472546,37.9717136 C16.7071547,37.8668883 16.78203,37.777038 16.8569052,37.7171379 C17.1114809,37.5224623 17.3660566,37.4775372 17.9950083,37.4775372 L19.8369384,37.4775372 L19.8369384,37.4775372 L19.8519135,37.4775372 L19.8519135,37.4775372 C19.9267887,37.4775372 20.0016639,37.5374374 20.0016639,37.6272876 L20.0016639,37.6272876 L20.0016639,47.9600663 C20.0016639,48.1098167 19.8519135,48.1547419 19.8369384,48.1547419 C19.4026622,48.2296171 19.2229617,48.2595672 19.1331115,48.2745422 C18.968386,48.3044923 18.9084859,48.4242926 18.9084859,48.7088184 L18.9084859,49.1131445 C18.9084859,49.2029948 18.9833611,49.3078201 19.1331115,49.3078201 L22.6372712,49.3078201 C22.7570716,49.3078201 22.8618968,49.2029948 22.8618968,49.1131445 L22.8618968,48.7088184 C22.8618968,48.4392677 22.8019967,48.3044923 22.6372712,48.2745422 C22.5324459,48.2595672 22.3677205,48.214642 21.9334443,48.1547419 C21.9184692,48.1547419 21.7687188,48.1247918 21.7687188,47.9600663 L21.7687188,37.6272876 L21.7687188,37.6272876 C21.7687188,37.5524124 21.828619,37.4775372 21.9184692,37.4775372 L21.9184692,37.4775372 L21.9334443,37.4775372 L21.9334443,37.4775372 L23.7304492,37.4775372 C24.359401,37.4775372 24.6139767,37.5374374 24.8685524,37.7171379 C24.9434276,37.777038 25.0033278,37.8668883 25.078203,37.9717136 L25.078203,37.9717136 L25.078203,37.9717136 C25.2279534,38.2113142 25.3926789,38.6306154 25.3926789,38.6306154 C25.4675541,38.825291 25.6173045,38.825291 25.9916805,38.825291 C25.9916805,38.825291 26.2312812,38.825291 26.3960067,38.825291 C26.530782,38.8103159 26.5906822,38.6605655 26.5607321,38.5856903 Z" id="Path" fill="#FFFFFF" fill-rule="nonzero"></path><path d="M91.5374376,46.6722127 C91.3876872,46.6722127 91.1331115,46.6722127 91.1331115,46.6722127 C90.7587354,46.6722127 90.608985,46.6722127 90.5341098,46.8668883 C90.5341098,46.8668883 90.2945092,47.4509149 90.1297837,47.6905156 L90.1297837,47.6905156 L90.1297837,47.6905156 C90.0698835,47.7953409 89.9950083,47.8851911 89.9201331,47.9450913 C89.7703827,48.0648916 89.4858569,48.1846919 89.0216306,48.1846919 L84.6339434,48.1846919 C84.5291181,48.1846919 84.4392679,48.0948417 84.4392679,47.9900164 L84.4392679,43.4076537 C84.4392679,43.3028284 84.5291181,43.2129781 84.6339434,43.2129781 C84.6339434,43.2129781 88.4825291,43.2129781 88.4975042,43.2129781 C88.5424293,43.2129781 88.5873544,43.2279532 88.6023295,43.2728783 C88.6023295,43.2728783 88.7520799,43.6322793 88.7520799,43.6472543 C88.81198,43.7970048 88.9018303,43.87188 89.1863561,43.87188 C89.1863561,43.87188 89.1863561,43.87188 89.2013311,43.87188 L89.6056572,43.87188 C89.7554077,43.87188 89.8003328,43.7970048 89.8003328,43.6472543 L89.8003328,41.6555738 C89.8003328,41.5357735 89.7554077,41.4309482 89.6056572,41.4309482 L89.2013311,41.4309482 C89.2013311,41.4309482 89.2013311,41.4309482 89.1863561,41.4309482 C88.9168053,41.4309482 88.8269551,41.5058234 88.7520799,41.6555738 C88.7371048,41.6705489 88.6023295,42.0149748 88.5873544,42.0149748 C88.5574043,42.0449249 88.5274542,42.074875 88.4825291,42.08985 L84.6339434,42.08985 C84.5141431,42.08985 84.4242928,41.9999998 84.4242928,41.8801994 L84.4242928,37.6572377 C84.4242928,37.5524124 84.5141431,37.4625622 84.6189684,37.4625622 L88.2429285,37.4625622 C88.8718802,37.4625622 89.0366057,37.4925122 89.2911814,37.6871878 C89.3660566,37.747088 89.4259567,37.8369382 89.5008319,37.9417635 L89.5008319,37.9417635 L89.5008319,37.9417635 C89.6505824,38.1813642 89.8153078,38.6006653 89.8153078,38.6006653 C89.890183,38.7953409 90.0399334,38.7953409 90.4143095,38.7953409 C90.4143095,38.7953409 90.6539101,38.7953409 90.8186356,38.7953409 C90.9833611,38.7953409 91.0432612,38.6455905 91.0133111,38.5707152 L90.6688852,36.5041595 C90.6539101,36.4442593 90.608985,36.3843592 90.5640599,36.3544091 C90.5490849,36.339434 90.5041597,36.339434 90.5041597,36.339434 C90.5041597,36.339434 81.8785358,36.339434 81.7587354,36.339434 C81.6539101,36.339434 81.5790349,36.4442593 81.5790349,36.5191345 L81.5790349,36.9234607 C81.5790349,37.1480863 81.6239601,37.3128117 81.7737105,37.3577369 L82.4475874,37.4775372 C82.6272879,37.5074873 82.672213,37.5524124 82.672213,37.6722127 C82.672213,37.6722127 82.672213,37.6722127 82.672213,37.7021628 L82.672213,47.9450913 C82.672213,47.9900164 82.6572379,48.0948417 82.5224626,48.1247918 C82.0881864,48.199667 81.9084859,48.2445921 81.8036606,48.2595672 C81.6239601,48.2895172 81.5640599,48.4392677 81.5640599,48.7088184 L81.5640599,49.0981695 C81.5640599,49.2179698 81.6838602,49.292845 81.7886855,49.292845 C81.7886855,49.292845 91.2229617,49.292845 91.2379368,49.292845 C91.312812,49.292845 91.3876872,49.1880197 91.3876872,49.1281196 L91.7321131,46.8968384 C91.7620632,46.8069881 91.7021631,46.6722127 91.5374376,46.6722127 Z" id="Path" fill="#FFFFFF" fill-rule="nonzero"></path><path d="M65.6156406,46.6722127 C65.4658902,46.6722127 65.2113145,46.6722127 65.2113145,46.6722127 C64.8369384,46.6722127 64.687188,46.6722127 64.6123128,46.8668883 C64.6123128,46.8668883 64.3727121,47.4509149 64.2079867,47.6905156 L64.2079867,47.6905156 L64.2079867,47.6905156 C64.1480865,47.7953409 64.0732113,47.8851911 63.9983361,47.9450913 C63.8485857,48.0648916 63.5640599,48.1846919 63.0998336,48.1846919 L58.6971714,48.1846919 C58.5923461,48.1846919 58.5024958,48.0948417 58.5024958,47.9900164 L58.5024958,43.4076537 C58.5024958,43.3028284 58.5923461,43.2129781 58.6971714,43.2129781 C58.6971714,43.2129781 62.5457571,43.2129781 62.5607321,43.2129781 C62.6056572,43.2129781 62.6505824,43.2279532 62.6655574,43.2728783 C62.6655574,43.2728783 62.8153078,43.6322793 62.8153078,43.6472543 C62.875208,43.7970048 62.9650582,43.87188 63.249584,43.87188 C63.249584,43.87188 63.249584,43.87188 63.2645591,43.87188 L63.6688852,43.87188 C63.8186356,43.87188 63.8635607,43.7970048 63.8635607,43.6472543 L63.8635607,41.6555738 C63.8635607,41.5357735 63.8186356,41.4309482 63.6688852,41.4309482 L63.2645591,41.4309482 C63.2645591,41.4309482 63.2645591,41.4309482 63.249584,41.4309482 C62.9800333,41.4309482 62.890183,41.5058234 62.8153078,41.6555738 C62.8003328,41.6705489 62.6655574,42.0149748 62.6505824,42.0149748 C62.6206323,42.0449249 62.5906822,42.074875 62.5457571,42.08985 L58.6971714,42.08985 C58.577371,42.08985 58.4875208,41.9999998 58.4875208,41.8801994 L58.4875208,37.6572377 C58.4875208,37.5524124 58.577371,37.4625622 58.6821963,37.4625622 L62.3211314,37.4625622 C62.9500832,37.4625622 63.1148087,37.4925122 63.3693844,37.6871878 C63.4442596,37.747088 63.5041597,37.8369382 63.5790349,37.9417635 L63.5790349,37.9417635 L63.5790349,37.9417635 C63.7287854,38.1813642 63.8935108,38.6006653 63.8935108,38.6006653 C63.968386,38.7953409 64.1181364,38.7953409 64.4925125,38.7953409 C64.4925125,38.7953409 64.7321131,38.7953409 64.8968386,38.7953409 C65.0615641,38.7953409 65.1214642,38.6455905 65.0915141,38.5707152 L64.7470882,36.5041595 C64.7321131,36.4442593 64.687188,36.3843592 64.6422629,36.3544091 C64.6272879,36.339434 64.5823627,36.339434 64.5823627,36.339434 C64.5823627,36.339434 55.9567388,36.339434 55.8369384,36.339434 C55.7321131,36.339434 55.6572379,36.4442593 55.6572379,36.5191345 L55.6572379,36.9234607 C55.6572379,37.1480863 55.7021631,37.3128117 55.8519135,37.3577369 C55.8519135,37.3577369 55.9267887,37.3727119 56.5257903,37.4775372 C56.5856905,37.4925122 56.6605657,37.5074873 56.7054908,37.5524124 L56.7204659,37.5673874 L56.7204659,37.5673874 C56.7354409,37.5973375 56.750416,37.6272876 56.750416,37.6572377 C56.750416,37.6572377 56.750416,37.6572377 56.750416,37.6871878 L56.750416,47.9301162 C56.750416,47.9750414 56.7354409,48.0798667 56.6006656,48.1098167 C56.1663894,48.1846919 55.9866889,48.2296171 55.8818636,48.2445921 C55.7021631,48.2745422 55.6422629,48.4242926 55.6422629,48.6938434 L55.6422629,49.0831944 C55.6422629,49.2029948 55.7620632,49.27787 55.8668885,49.27787 C55.8668885,49.27787 65.3011647,49.27787 65.3161398,49.27787 C65.391015,49.27787 65.4658902,49.1730447 65.4658902,49.1131445 L65.8103161,46.8818633 C65.8402662,46.8069881 65.7803661,46.6722127 65.6156406,46.6722127 Z" id="Path" fill="#FFFFFF" fill-rule="nonzero"></path><path d="M53.9500832,48.2595672 C53.875208,48.2445921 53.8602329,48.2445921 53.7104825,48.214642 C53.6356073,48.199667 53.5457571,48.1846919 53.3960067,48.1547419 C53.3810316,48.1547419 53.3211314,48.1547419 53.2911814,48.0948417 C53.2612313,48.0648916 52.7371048,46.6572377 52.7221298,46.5973375 L52.7221298,46.5973375 L52.7221298,46.5973375 C51.2096506,42.6289515 50.985025,42.1647252 48.1996672,36.4143092 C48.0798669,36.1896836 47.8702163,36.0549082 47.6605657,36.0549082 C47.4359401,36.0549082 47.2262895,36.1896836 47.1214642,36.4143092 C47.0615641,36.5191345 43.9317804,43.7820297 42.733777,46.5823625 L42.2545757,47.6755405 L42.1497504,47.9001662 C42.1497504,47.9001662 42.1048253,48.0049914 42.0748752,48.0349415 C42.0599002,48.0499166 42.014975,48.0798667 41.9700499,48.0948417 C41.5357737,48.1697169 41.3560732,48.199667 41.266223,48.214642 C41.1014975,48.2445921 41.0415973,48.3643924 41.0415973,48.6489182 L41.0415973,49.0532444 C41.0415973,49.1430946 41.1164725,49.2479199 41.266223,49.2479199 L44.7703827,49.2479199 C44.890183,49.2479199 44.9950083,49.1430946 44.9950083,49.0532444 L44.9950083,48.6489182 C44.9950083,48.3793675 44.9351082,48.2445921 44.7703827,48.214642 C44.6655574,48.199667 44.3510815,48.1247918 43.9168053,48.0499166 C43.8868552,48.0349415 43.8718802,48.0349415 43.8569052,48.0199665 C43.7520799,47.9750414 43.7071547,47.8702161 43.7371048,47.7953409 C43.7371048,47.7953409 44.0515807,46.9267884 44.1863561,46.6123126 C44.3510815,46.2079865 44.5457571,45.7737102 44.6655574,45.4292843 C44.7404326,45.2495838 44.7853577,45.0998334 44.8452579,44.980033 C44.890183,44.8602327 45.0099834,44.7853575 45.1297837,44.7853575 L49.8319468,44.7853575 C49.936772,44.7853575 50.1164725,44.7703825 50.1613977,44.9351079 C50.1763727,44.9950081 50.5956739,46.0732111 50.8502496,46.8519132 C50.9101498,47.0465888 50.985025,47.3311146 51.0449251,47.5557402 C51.0599002,47.6306154 51.1048253,47.7653908 51.1198003,47.8252909 C51.1647255,47.9600663 51.1497504,48.0499166 51.0748752,48.1098167 C51.0599002,48.1247918 51.0449251,48.1247918 51.0449251,48.1247918 C50.6106489,48.199667 50.5657238,48.199667 50.4608985,48.2296171 C50.296173,48.2595672 50.2362729,48.3793675 50.2362729,48.6638933 L50.2362729,49.0682194 C50.2362729,49.1580696 50.3111481,49.2628949 50.4608985,49.2628949 L53.9650582,49.2628949 C54.1447587,49.2628949 54.1896839,49.1580696 54.1896839,49.0682194 L54.1896839,48.6638933 C54.1597338,48.4242926 54.0998336,48.3044923 53.9500832,48.2595672 Z M49.4575707,43.7221295 L45.4891847,43.7221295 C45.4143095,43.7221295 45.3394343,43.6472543 45.3843594,43.5574041 L47.3311148,38.7953409 C48.469218,41.1613974 49.0831947,42.434276 49.547421,43.527454 C49.562396,43.5574041 49.562396,43.5723791 49.562396,43.5723791 C49.5923461,43.6322793 49.547421,43.7221295 49.4575707,43.7221295 Z" id="Shape" fill="#FFFFFF" fill-rule="nonzero"></path><path d="M47.9151414,18.5191348 L52.7071547,21.2595674 C52.7221298,21.2745424 52.7371048,21.2745424 52.7520799,21.2595674 C53.0216306,21.0798669 55.9267887,18.9084859 60.3144759,15.9434276 C60.3144759,15.9434276 60.9134775,15.5540765 61.437604,15.9284526 L69.2995008,21.4242928 C69.3294509,21.4542429 69.374376,21.4542429 69.4193012,21.4392679 L74.3161398,19.3876872 C74.5108153,19.312812 74.750416,19.327787 74.9301165,19.4475873 C76.0382696,20.1364393 80.3510815,22.8768719 80.8302829,23.1613977 C81.1597338,23.3560732 80.9351082,23.6855241 80.6505824,23.5357737 C80.1414309,23.266223 75.2745424,20.6905158 74.9750416,20.5407654 C74.6605657,20.391015 74.6006656,20.3760399 74.2412646,20.5407654 C74.2412646,20.5407654 71.2462562,21.9484193 70.9317804,22.0981697 C70.6173045,22.2479201 70.797005,22.6073211 71.3061564,22.3826955 C71.8153078,22.1580699 73.8818636,21.3344426 74.2712146,21.1697171 C74.6605657,21.0049917 74.9750416,21.1996672 74.7204659,21.5740433 C74.4509151,21.9484193 74.1214642,22.3976706 73.8519135,22.7570715 C73.5823627,23.1314476 73.9267887,23.1913477 74.4359401,23.1613977 C74.9450915,23.1314476 74.8851913,23.655574 74.3311148,23.7903494 C73.7620632,23.9251248 73.6272879,23.9700499 73.6272879,24.344426 C73.6272879,24.718802 74.4658902,25.2279534 75.5291181,25.6622296 C76.5923461,26.0965058 82.9567388,28.7321131 82.9567388,28.7321131 C83.5257903,28.9267887 83.2861897,29.4209651 82.8968386,29.3011647 C82.5374376,29.1963394 74.3760399,26.515807 73.0133111,25.6322795 C71.6505824,24.7487521 68.7903494,22.6821963 61.2129784,17.7254576 C61.2129784,17.7254576 60.8386023,17.4858569 60.4792013,17.6955075 L54.0399334,21.8735441 C54.0399334,21.8735441 52.6921797,22.8019967 52.3777038,23.0116472 C52.1231281,23.1913477 52.3477537,23.5806988 53.1114809,23.1164725 L60.0299501,19.0732113 C60.0299501,19.0732113 60.7487521,18.6838602 60.6439268,19.4326123 C60.6439268,19.4326123 60.4342762,21.2296173 60.374376,21.7088186 C60.3144759,22.18802 60.1048253,23.0865225 60.8985025,23.0415973 C60.8985025,23.0415973 61.8868552,22.936772 61.3777038,23.7304492 C61.3477537,23.7753744 57.0199667,29.8851913 56.8851913,29.9900166 C56.6306156,30.1846922 56.2712146,30.0349418 56.3610649,29.5407654 C56.3610649,29.5407654 57.1547421,26.4259567 57.1697171,26.3361065 C57.2745424,25.8569052 56.9001664,25.6772047 56.5257903,26.0515807 C56.1364393,26.4259567 53.4708819,28.9866889 53.156406,29.2861897 C52.8419301,29.6006656 52.452579,29.3161398 52.6322795,28.9567388 C52.81198,28.5823627 54.3544093,25.6622296 54.5490849,25.2728785 C54.7587354,24.8835275 54.3544093,24.5990017 53.9800333,24.9584027 C53.6056572,25.3178037 50.1464226,28.3427621 50.1464226,28.3427621 C48.8136439,29.4359401 45.3394343,29.1663894 40.4126456,32.4309484 L40.4126456,32.4309484 C39.7088186,32.8652246 39.484193,32.2512479 39.8585691,31.936772 C40.2329451,31.6372712 41.2512479,30.7387687 41.5956739,30.4242928 C41.8801997,30.1547421 41.8352745,29.7054908 41.1014975,29.8851913 C40.3677205,30.0648918 36.234609,31.0232945 36.234609,31.0232945 C36.234609,31.0232945 34.5873544,31.4725458 34.4675541,31.0831947 C34.3777038,30.7687188 34.9467554,30.5740433 34.9467554,30.5740433 C34.9467554,30.5740433 43.0033278,28.1780366 51.5091514,22.1730449 C51.5391015,22.1580699 51.5241265,22.1131448 51.5091514,22.1131448 L48.0948419,20.0166389 L48.0948419,20.0166389 C48.0798669,20.0016639 47.8103161,19.8668885 47.5257903,20.0166389 C47.5257903,20.0166389 43.2279534,22.3976706 42.9584027,22.5324459 C42.703827,22.6821963 42.8535774,22.9667221 43.3627288,22.7271215 C43.7071547,22.547421 45.7437604,21.5440932 46.3577371,21.2445923 C47.046589,20.9001664 47.6306156,21.139767 47.2412646,21.6788685 C46.8818636,22.1430948 44.8302829,24.8985025 44.530782,25.2878536 C44.2462562,25.6622296 43.6023295,25.6622296 43.8419301,24.9434276 C44.0815308,24.2246256 43.9617304,24.5241265 44.0366057,24.2845258 C44.1114809,24.0449251 43.9317804,23.8202995 43.6322795,24.1647255 C43.3178037,24.5091514 42.374376,25.5424293 41.7903494,26.1863561 C41.266223,26.7554077 41.0565724,26.4259567 41.1613977,26.1264559 C41.296173,25.7670549 41.3410982,25.6772047 41.4009983,25.4975042 C41.4758735,25.2429285 41.2212978,25.1680532 41.0865225,25.3477537 C40.936772,25.5274542 39.0199667,27.8635607 38.750416,28.2229617 C38.4808652,28.5823627 38.0166389,28.4026622 38.4658902,27.5341098 C38.9450915,26.6206323 37.1181364,27.1447587 36.5341098,27.2795341 C35.9500832,27.3993344 28.6572379,29.6755408 27.4143095,29.9301165 C26.9800333,30.0648918 26.8003328,29.6006656 27.2945092,29.391015 C27.7886855,29.1963394 29.9900166,28.4326123 30.3643927,28.2978369 C30.7387687,28.1630616 30.6489185,27.9234609 30.1996672,27.968386 C29.8552413,28.0133111 24.7487521,28.4026622 23.8801997,28.4625624 C23.5207987,28.4925125 23.4309484,28.1031614 23.9251248,28.0432612 C24.5840266,27.968386 32.0415973,26.8003328 35.3510815,25.0033278 C38.0166389,23.5657238 47.4209651,18.4742096 47.4209651,18.4742096 C47.4209651,18.4742096 47.7054908,18.3843594 47.9151414,18.5191348 Z" id="Shape-path" fill="#FFFFFF" fill-rule="nonzero"></path><path d="M91.8818636,27.6539101 C91.7620632,27.59401 90.9084859,27.1447587 90.5041597,26.4858569 C90.5041597,26.4858569 91.0732113,26.7554077 91.4625624,26.8602329 C91.9118136,26.9950083 92.0765391,26.4559068 91.7470882,26.3361065 C91.5074875,26.2462562 90.4742097,25.6622296 90.4143095,25.2429285 C90.4143095,25.2429285 90.9833611,25.6921797 91.327787,25.7371048 C91.5673877,25.7670549 91.7620632,25.4076539 91.4026622,25.2429285 C91.1930116,25.1381032 90.5640599,24.7487521 90.3993344,24.3294509 C90.3993344,24.3294509 90.8935108,24.5540765 91.0582363,24.5241265 C91.2828619,24.4941764 91.3577371,24.1347754 90.9983361,24.014975 C90.6389351,23.8951747 90.4442596,23.640599 90.3693844,23.5058236 C90.3544093,23.4908486 90.3394343,23.4309484 90.3394343,23.4009983 C90.3394343,23.4009983 90.4292845,23.4758735 90.7437604,23.5956739 C91.0582363,23.7004992 91.0732113,23.3111481 90.8935108,23.1913478 C90.7138103,23.0715474 90.1896839,22.7570716 90.0998336,22.6222962 C90.1148087,22.6222962 90.6988353,22.9816972 90.7886855,22.7870216 C90.8785358,22.5923461 90.6239601,22.4575707 90.4292845,22.3377704 C90.1597338,22.1580699 90.0249584,21.843594 90.0549085,21.843594 C90.1297837,21.8735441 90.5041597,22.1580699 90.5790349,21.9034942 C90.59401,21.8136439 90.5490849,21.7537438 90.4742097,21.7088186 C90.2945092,21.6189684 90.2046589,21.5141431 90.0848586,21.2445924 C89.9650582,20.9750416 90.0099834,20.6605657 89.8452579,20.4658902 C89.7853577,20.40599 89.5906822,20.3760399 89.530782,20.6455907 C89.4708819,20.9151414 89.4559068,21.1846922 89.2612313,21.3494176 C89.0665557,21.5141431 88.7670549,21.6339434 88.8868552,21.843594 C88.9617304,21.9633943 89.2312812,21.828619 89.3361065,21.7537438 C89.3510815,21.7387687 89.3510815,21.9484193 89.1863561,22.0831947 C89.0216306,22.2479201 88.5873544,22.3527454 88.5723794,22.5773711 C88.5574043,22.8019967 88.8868552,22.7720466 89.2612313,22.6073211 C89.2013311,22.8169717 88.6023295,23.1464226 88.452579,23.2063228 C88.1530782,23.3560732 88.3627288,23.6705491 88.5873544,23.640599 C88.81198,23.6106489 89.156406,23.4009983 89.171381,23.4009983 C89.2013311,23.4159734 89.1414309,23.5058236 89.1264559,23.5058236 C89.0515807,23.6106489 88.9467554,23.7004992 88.8569052,23.7903494 C88.7371048,23.9101498 88.6023295,24.0599002 88.422629,24.1198003 C88.3327787,24.1497504 88.2279534,24.1946755 88.1680532,24.2695508 C88.1381032,24.3294509 88.1231281,24.3893511 88.1381032,24.4492513 C88.1680532,24.5540765 88.2728785,24.6439268 88.3926789,24.6589018 C88.5574043,24.6888519 88.7221298,24.6289518 88.8718802,24.5690516 C88.9467554,24.5391015 89.0665557,24.4342762 89.156406,24.4193012 C89.0965058,24.6139767 88.9916805,24.7787022 88.8569052,24.9284526 C88.6772047,25.1231281 88.4825291,25.2429285 88.2579035,25.3477537 C88.1381032,25.4076539 88.0183028,25.4825291 87.9733777,25.6173045 C87.9584027,25.6472546 87.9584027,25.6921797 87.9584027,25.7371048 C87.9733777,25.81198 88.0332779,25.8569052 88.093178,25.9018303 C88.1980033,25.9467554 88.3477537,25.9617304 88.4675541,25.9317804 C88.5274542,25.9168053 89.156406,25.7071547 89.1414309,25.6322795 C89.156406,25.7071547 89.0515807,25.81198 89.0216306,25.8569052 C88.9168053,25.9767055 88.81198,26.0815308 88.6921797,26.1863561 C88.5574043,26.3061564 88.4076539,26.4109817 88.2579035,26.515807 C88.1081531,26.6206323 87.9434276,26.6655574 87.7936772,26.7554077 C87.733777,26.7853577 87.6738769,26.8602329 87.6439268,26.9351082 C87.6139767,27.0099834 87.6289517,27.0998336 87.6738769,27.1597338 C87.703827,27.1896839 87.7487521,27.2196339 87.7936772,27.2196339 C88.063228,27.2945092 88.452579,27.1148087 88.6921797,26.9950083 C88.7520799,26.9650582 89.0366057,26.8003328 89.0366057,26.8003328 C89.0066556,26.875208 88.8569052,27.249584 88.2129784,27.4742097 C87.9883527,27.5490849 87.7487521,27.608985 87.5391015,27.6988353 C87.4792013,27.7138103 87.4193012,27.7587354 87.374376,27.8036606 C87.3294509,27.8485857 87.2995008,27.9084859 87.3144759,27.9833611 C87.3294509,28.0582363 87.3893511,28.1031614 87.4492512,28.1331115 C87.5241265,28.1630616 87.6289517,28.1780366 87.718802,28.1780366 C88.3777038,28.1780366 89.0965058,27.8036606 89.0965058,27.8036606 C89.0665557,27.8186356 89.0216306,27.8635607 88.9916805,27.8935108 C88.7520799,28.1031614 88.4975042,28.2828619 88.1980033,28.4176373 C88.0033278,28.5074875 87.7637271,28.5224626 87.5990017,28.6422629 C87.4941764,28.7021631 87.4492512,28.8519135 87.5241265,28.9567388 C87.6139767,29.1064892 87.8386023,29.1064892 87.9883527,29.0765391 C88.1381032,29.0615641 88.2878536,29.0016639 88.437604,28.9567388 C88.6622296,28.8818636 88.8868552,28.8069884 89.1114809,28.7171381 L89.0965058,28.7321131 C88.9916805,28.8369384 88.9018303,28.9417637 88.797005,29.046589 C88.6472546,29.1813644 88.4975042,29.2861897 88.3178037,29.3760399 C88.1680532,29.4509151 88.2129784,29.6455907 88.3477537,29.7054908 C88.422629,29.750416 88.5274542,29.750416 88.6173045,29.7354409 C88.8868552,29.6905158 89.1264559,29.5407654 89.3510815,29.40599 C89.3660566,29.391015 89.4708819,29.3460899 89.4708819,29.3311148 C89.515807,29.9151414 89.3061564,30.8735441 89.2013311,30.8585691 C88.9767055,30.7986689 88.78203,30.7387687 88.6023295,30.6788686 C87.014975,30.1547421 86.0116473,29.7204659 86.0116473,29.7204659 C85.6522463,29.6006656 85.4276206,30.1397671 85.8618968,30.2895175 C85.8469218,30.2745424 86.9400998,30.6788686 88.5574043,31.1580699 C89.4708819,31.4276206 91.1630616,31.8618968 91.2379368,31.8768719 C91.6123128,31.9517471 91.7171381,31.6222962 91.3876872,31.5174709 C91.3577371,31.5024958 90.8785358,31.3677205 90.3094842,31.202995 C90.234609,31.18802 90.1148087,30.7088186 90.1297837,29.391015 C90.1297837,29.4209651 90.234609,29.4958403 90.249584,29.4958403 C90.3544093,29.5707155 90.4442596,29.6455907 90.5640599,29.7204659 C90.7437604,29.8252912 90.9833611,29.9301165 91.1780366,29.8252912 C91.2828619,29.765391 91.3727121,29.6006656 91.2529118,29.5108153 C91.1331115,29.40599 90.5041597,29.1514143 90.3394343,28.6272879 C90.3244592,28.6123128 90.8785358,29.1364393 91.5673877,29.2562396 C91.8818636,29.3311148 92.0166389,28.9717138 91.8069884,28.7920133 C91.6123128,28.6123128 90.6988353,28.2229617 90.4891847,27.6539101 C90.5041597,27.6539101 91.0732113,28.0732113 91.6422629,28.1480865 C91.7171381,28.1630616 91.8668885,28.1780366 91.9417637,28.0432612 C92.046589,27.9084859 92.046589,27.7287854 91.8818636,27.6539101 Z" id="Shape-path" fill="#FFFFFF" fill-rule="nonzero"></path><path d="M87.4193012,25.1530782 C87.2545757,24.9134775 85.6522463,24.3144759 85.4725458,23.7304492 C85.4875208,23.7304492 85.906822,24.0748752 86.7603993,24.2995008 C87.4193012,24.4792013 87.5391015,23.8053245 87.1198003,23.6705491 C85.8768719,23.266223 85.3527454,22.1730449 85.3377704,22.1430948 C85.3377704,22.1430948 86.2212978,22.8319468 86.6705491,22.8918469 C86.9101498,22.921797 87.0898502,22.921797 87.2096506,22.7870216 C87.4792013,22.3527454 86.8502496,22.18802 86.4159734,21.9334443 C85.7271215,21.5291181 85.2778702,20.8702163 85.2329451,20.7204659 C85.2928453,20.7354409 86.2212978,21.3793677 86.7454243,21.2445923 C87.0599002,21.124792 86.985025,20.8103161 86.8502496,20.7204659 C86.7004992,20.6306156 86.0266223,20.3460898 85.6073211,19.9118136 C85.1730449,19.4775374 85.0831947,19.2978369 85.0831947,19.2678869 C85.1281198,19.2529118 85.6971714,19.5673877 86.0266223,19.6272878 C86.3560732,19.687188 86.5806988,19.2678869 86.2512479,19.1031614 C86.0415973,19.0282862 85.0831947,18.4742096 85.0083195,18.1896839 C85.5324459,18.4143095 86.1464226,18.5790349 86.1314476,18.2046589 C86.1164725,17.9201331 85.4725458,17.7554076 85.2479201,17.5457571 C85.0232945,17.3510815 84.9034942,17.0815308 84.9184692,17.0965058 C85.0682196,17.2013311 85.5024958,17.3660566 85.6372712,17.1863561 C85.8319468,16.9168053 85.4126456,16.7670549 85.1580699,16.5574043 C84.9034942,16.3477537 84.7986689,15.703827 84.7088186,15.344426 C84.6039933,14.985025 84.3194676,15.0898502 84.3044925,15.2096506 C84.2895175,15.2246256 84.2445923,16.0183028 84.0648918,16.3777038 C83.8851913,16.7371048 83.5707155,16.9168053 83.3161398,17.0366057 C83.1963394,17.0965058 83.1364393,17.171381 83.1514143,17.2911814 C83.1813644,17.515807 83.4808652,17.4409318 83.6306156,17.3960067 C83.7803661,17.3361065 83.8252912,17.3211314 83.9600666,17.2462562 C84.0648918,17.2013311 83.7803661,17.7254576 83.391015,17.9051581 C83.1214642,18.0249584 82.8519135,18.1597338 82.9417637,18.4292845 C83.046589,18.7138103 83.8103161,18.3993344 83.8252912,18.3993344 C83.6905158,18.5790349 82.8369384,19.1181364 82.5823627,19.2828619 C82.3577371,19.3876872 82.4026622,19.8219634 82.9267887,19.7171381 C83.3011647,19.6572379 83.7204659,19.4026622 83.7204659,19.4026622 C83.8702163,19.3427621 83.1214642,20.1064892 82.312812,20.5257903 C82.0881864,20.6605657 82.1181364,20.8103161 82.1480865,20.9001664 C82.2079867,21.0349418 82.3727121,21.109817 82.5973378,21.0499168 C82.9267887,20.9600666 83.5856905,20.6755408 83.7204659,20.5707155 C83.6755408,20.8552413 82.2678869,21.7537438 81.9833611,21.9184692 C81.8036606,22.0382695 81.7587354,22.202995 81.8336106,22.3377704 C81.8935108,22.4725458 82.1031614,22.562396 82.5224626,22.3527454 C82.6272879,22.3078203 83.4808652,21.8735441 83.4808652,21.8735441 C83.3460899,22.1580699 82.5224626,22.921797 81.5341098,23.5806988 C81.4143095,23.6855241 81.3394343,23.8202995 81.3843594,23.9550749 C81.4442596,24.1347754 81.5790349,24.2246256 81.9234609,24.1048253 C82.2379368,24.014975 83.1364393,23.5357737 83.1364393,23.5357737 C82.5524126,24.4043261 81.4442596,25.1680532 81.2795341,25.2728785 C81.0848586,25.422629 81.0399334,25.6023295 81.1597338,25.7670549 C81.2645591,25.9317804 81.4891847,25.9168053 81.608985,25.9018303 C82.4176373,25.797005 83.3161398,24.9883527 83.3311148,24.9883527 C83.2262895,25.2279534 82.8069884,25.9018303 81.608985,26.5906822 C81.3693844,26.7404326 81.4292845,26.9500832 81.4891847,27.0249584 C81.5640599,27.1447587 81.7287854,27.1447587 81.8186356,27.1447587 C82.7171381,27.0698835 83.3760399,26.5607321 83.3610649,26.5906822 C83.2262895,26.9950083 82.5673877,27.5041597 82.3876872,27.6688852 C82.2079867,27.8336106 82.3727121,28.2079867 82.9267887,28.1181364 C83.3011647,28.0881864 83.8851913,27.5341098 83.8851913,27.5341098 C83.8851913,27.5341098 83.8552413,28.9717138 83.8552413,29.1364393 C83.8552413,29.391015 83.8252912,29.8402662 83.765391,30.124792 C83.7054908,30.3943428 83.3161398,30.7537438 83.3161398,30.7537438 C83.046589,30.9633943 83.3460899,30.9783694 83.6306156,30.8735441 C84.124792,30.7237937 84.3344426,31.0981697 84.6788686,31.0831947 C85.1131448,31.1131448 84.8136439,30.843594 85.0981697,30.8885191 C85.547421,31.0831947 85.7870216,31.0981697 86.1014975,30.9633943 C86.5507488,30.7836938 85.1131448,30.9484193 85.0682196,29.7953411 C85.0532446,29.6006656 84.9933444,28.5524126 84.9783694,27.8336106 C85.0831947,27.953411 85.2928453,28.1780366 85.6372712,28.2978369 C86.1164725,28.4475874 86.3560732,28.3727121 86.4159734,28.2229617 C86.4608985,28.0732113 86.4009983,27.8935108 86.2362729,27.8036606 C85.906822,27.6239601 85.6222962,27.4292845 85.3826955,26.8302829 C85.3677205,26.7554077 85.577371,27.0399334 86.3410982,27.3843594 C87.1048253,27.7287854 87.1347754,27.2645591 87.1347754,27.2046589 C87.1198003,26.9650582 86.7004992,26.9201331 86.3860233,26.6805324 C85.8618968,26.3061564 85.8618968,26.1414309 85.8618968,26.1414309 C85.8618968,26.1414309 86.655574,26.5906822 87,26.4409318 C87.1946755,26.3510815 87.2695507,26.0665557 86.8502496,25.9018303 C86.4908486,25.7670549 85.8469218,25.422629 85.7570715,25.2129784 C86.2512479,25.3777038 86.8801997,25.6772047 87.2096506,25.6622296 C87.5391015,25.6622296 87.5990017,25.422629 87.4193012,25.1530782 Z" id="Shape-path" fill="#FFFFFF" fill-rule="nonzero"></path><rect id="Rectangle" fill-opacity="0" fill="#D8D8D8" x="0" y="0" width="121" height="64"></rect></g></g></svg>