<svg xmlns="http://www.w3.org/2000/svg" xmlns:xlink="http://www.w3.org/1999/xlink" width="64px" height="22px" viewBox="0 0 64 22"><title>wnyc-vector-logo</title><desc>Created with Sketch.</desc><g id="Page-1" stroke="none" stroke-width="1" fill="none" fill-rule="evenodd"><g id="wnyc-vector-logo" transform="translate(-13.000000, -15.000000)" fill="#FFFFFF"><rect id="Rectangle" fill-opacity="0" x="0" y="0" width="90" height="51.3880126"></rect><path d="M46.2456625,36.1987382 L60.3525237,36.1987382 L60.3525237,19.4231683 L46.2456625,19.4231683 L46.2456625,36.1987382 L46.2456625,36.1987382 Z M55.1995268,23.1244448 L57.9996057,23.1244448 L54.5713722,27.7044417 L54.5713722,30.6512614 L52.0587539,30.6512614 L52.0587539,27.7399455 L48.6305205,23.1244448 L51.4838328,23.1244448 L53.3363565,25.7694818 L55.1995268,23.1244448 Z M62.8332019,36.1987382 L76.9400631,36.1987382 L76.9400631,15.0473186 L62.8332019,15.0473186 L62.8332019,36.1987382 Z M70.2113565,30.8021527 C67.634858,30.8021527 65.5587539,29.1600996 65.5587539,26.905605 L65.5587539,26.8878531 C65.5587539,24.6954903 67.5816246,22.9735535 70.3178233,22.9735535 C72.1597003,22.9735535 73.3521293,23.6214988 74.1506309,24.5445989 L72.2661672,25.7606058 C71.7551262,25.2191721 71.1589117,24.8818855 70.29653,24.8818855 C69.0295741,24.8818855 68.1458991,25.7694818 68.1458991,26.8701012 L68.1458991,26.8878531 C68.1458991,28.0151004 69.0402208,28.9026967 70.29653,28.9026967 C71.2334385,28.9026967 71.7977129,28.5387822 72.3300473,27.9884725 L74.214511,29.1068438 C73.362776,30.0831997 72.2129338,30.8021527 70.2113565,30.8021527 Z M29.6474763,36.1987382 L43.7543375,36.1987382 L43.7543375,17.5414642 L29.6474763,17.5414642 L29.6474763,36.1987382 Z M41.1033123,30.6512614 L38.9100946,30.6512614 L35.0559937,26.5239386 L35.0559937,30.6512614 L32.5753155,30.6512614 L32.5753155,23.1244448 L34.9069401,23.1244448 L38.6226341,27.1008762 L38.6226341,23.1244448 L41.1033123,23.1244448 L41.1033123,30.6512614 Z M16.126183,30.6867652 L18.3087539,30.6867652 L20.1186909,26.3552953 L21.9392744,30.6867652 L24.1218454,30.6867652 L27.134858,23.1066929 L24.5477129,23.1066929 L22.9613565,27.4647907 L21.2152997,23.088941 L19.0646688,23.088941 L17.318612,27.4647907 L15.7535489,23.1066929 L13.1025237,23.1066929 L16.126183,30.6867652 Z M13.0599369,32.6217251 L27.1667981,32.6217251 L27.1667981,36.1987382 L13.0599369,36.1987382 L13.0599369,32.6217251 Z" id="wnyc-logo" fill-rule="nonzero"></path></g></g></svg>