<svg xmlns="http://www.w3.org/2000/svg" width="86" height="40" viewBox="0 0 86 40" fill="none"><path d="M29.4217 11.8434C28.3909 11.816 27.3651 11.9953 26.4046 12.3706C25.4442 12.7459 24.5685 13.3097 23.8294 14.0286C23.0902 14.7476 22.5024 15.6072 22.1006 16.5569C21.6988 17.5066 21.4912 18.5271 21.49 19.5582C21.49 24.2249 25.2931 27.2771 29.4578 27.2771C32.2209 27.2771 34.8393 26.0723 37.0643 24.0643V29.8594C34.628 31.2687 31.8778 32.046 29.0642 32.1205C21.9558 32.1205 16 26.3414 16 19.5582C16 12.3815 21.992 7 29.1004 7C31.8691 7.04996 34.5957 7.68646 37.1004 8.86747V14.5382C34.4739 12.8153 31.8273 11.8434 29.4217 11.8434Z" fill="#FBFAF8"></path><path d="M52.1687 32.1205C45.0282 32.1205 39 26.5582 39 19.5582C39 12.49 44.992 7 52.494 7C55.3043 7.02805 58.0825 7.60088 60.6747 8.68675V14.3092C58.3093 12.9438 55.2571 11.8313 52.6024 11.8313C47.6868 11.8313 44.49 15.6707 44.49 19.5462C44.49 24.1044 48.2611 27.4056 52.6747 27.4056C53.6899 27.4339 54.7009 27.2634 55.6506 26.9036V22.3936H51.6346V17.6225H60.8193V30.3253C58.0962 31.5318 55.1471 32.1437 52.1687 32.1205Z" fill="#FBFAF8"></path><path d="M64.8314 31.6186V7.52222H70V31.6186H64.8314Z" fill="#FBFAF8"></path></svg>