<svg width="418" height="89" viewBox="0 0 418 89" fill="none" xmlns="http://www.w3.org/2000/svg">
<g clip-path="url(#clip0_1625_376)">
<path d="M404 0H14C6.26801 0 0 6.26801 0 14V75C0 82.732 6.26801 89 14 89H404C411.732 89 418 82.732 418 75V14C418 6.26801 411.732 0 404 0Z" fill="white"/>
<path d="M221.955 61.7158V63.8319H212.028V62.1583L217.376 57.0795C217.979 56.5023 218.383 56.0022 218.588 55.5789C218.806 55.1429 218.915 54.7132 218.915 54.29C218.915 53.6616 218.703 53.1806 218.28 52.8472C217.857 52.5137 217.235 52.347 216.414 52.347C215.042 52.347 213.99 52.8151 213.259 53.7513L211.508 52.4047C212.034 51.6993 212.74 51.1542 213.625 50.7695C214.522 50.3719 215.523 50.1731 216.626 50.1731C218.088 50.1731 219.255 50.5194 220.127 51.2119C220.999 51.9045 221.435 52.8472 221.435 54.0399C221.435 54.7709 221.281 55.4571 220.973 56.0983C220.666 56.7396 220.076 57.4706 219.204 58.2915L215.606 61.7158H221.955ZM225.086 63.9666C224.65 63.9666 224.278 63.8191 223.971 63.5241C223.663 63.2163 223.509 62.8316 223.509 62.3699C223.509 61.8953 223.656 61.5106 223.951 61.2156C224.259 60.9206 224.637 60.7731 225.086 60.7731C225.535 60.7731 225.907 60.9206 226.202 61.2156C226.51 61.5106 226.664 61.8953 226.664 62.3699C226.664 62.8316 226.51 63.2163 226.202 63.5241C225.894 63.8191 225.522 63.9666 225.086 63.9666ZM234.203 55.9252C235.447 56.0791 236.396 56.5023 237.05 57.1949C237.705 57.8875 238.032 58.7532 238.032 59.792C238.032 60.5743 237.833 61.2861 237.435 61.9274C237.038 62.5687 236.435 63.0817 235.627 63.4664C234.832 63.8384 233.857 64.0243 232.703 64.0243C231.741 64.0243 230.811 63.8897 229.913 63.6203C229.028 63.3382 228.272 62.9534 227.643 62.4661L228.721 60.523C229.208 60.9334 229.798 61.2605 230.49 61.5042C231.196 61.735 231.92 61.8504 232.664 61.8504C233.549 61.8504 234.242 61.6709 234.742 61.3118C235.255 60.9399 235.511 60.4397 235.511 59.8112C235.511 59.1828 235.268 58.6954 234.78 58.3492C234.306 57.9901 233.575 57.8105 232.587 57.8105H231.356V56.0983L234.415 52.4624H228.297V50.3655H237.474V52.0392L234.203 55.9252ZM246.658 63.8319L244.022 60.2729L241.367 63.8319H238.712L242.714 58.6185L238.885 53.559H241.559L244.08 56.9256L246.6 53.559H249.197L245.349 58.58L249.37 63.8319H246.658Z" fill="#DC267F"/>
<path d="M188.08 62.3075C190.736 66.9082 196.619 68.4845 201.219 65.8283C205.82 63.1721 207.396 57.2893 204.74 52.6886C202.084 48.088 196.201 46.5117 191.6 49.1678C187 51.824 185.424 57.7069 188.08 62.3075Z" fill="#DC267F"/>
<path d="M192.806 59.5791L196.25 53.0586L200.175 59.8566L192.806 59.5791Z" fill="white"/>
<path d="M390.273 20.9595H344.791C341.203 20.9595 338.294 23.8684 338.294 27.4568V32.8712C338.294 36.4596 341.203 39.3686 344.791 39.3686H390.273C393.861 39.3686 396.77 36.4596 396.77 32.8712V27.4568C396.77 23.8684 393.861 20.9595 390.273 20.9595Z" fill="#DC267F"/>
<path d="M202.216 25.9038L199.175 35.0001H197.811L195.329 27.7361L192.847 35.0001H191.457L188.416 25.9038H189.754L192.21 33.2978L194.77 25.9038H195.966L198.474 33.3368L200.982 25.9038H202.216ZM207.492 28.048C208.367 28.048 209.06 28.3035 209.571 28.8146C210.091 29.3171 210.351 30.0578 210.351 31.0367V35.0001H209.103V31.1797C209.103 30.5126 208.943 30.0101 208.622 29.6723C208.302 29.3344 207.843 29.1655 207.245 29.1655C206.569 29.1655 206.036 29.3647 205.646 29.7633C205.257 30.1531 205.062 30.7162 205.062 31.4526V35.0001H203.814V25.3581H205.062V29.0875C205.322 28.7583 205.659 28.5028 206.075 28.3208C206.5 28.1389 206.972 28.048 207.492 28.048ZM218.922 31.5955C218.922 31.6908 218.913 31.8164 218.896 31.9723H213.308C213.386 32.5788 213.65 33.0682 214.101 33.4407C214.56 33.8046 215.127 33.9865 215.803 33.9865C216.626 33.9865 217.289 33.7093 217.791 33.1549L218.48 33.9605C218.168 34.3244 217.778 34.6016 217.31 34.7922C216.851 34.9828 216.336 35.0781 215.764 35.0781C215.036 35.0781 214.391 34.9308 213.828 34.6362C213.265 34.333 212.827 33.9129 212.515 33.3758C212.212 32.8387 212.061 32.2322 212.061 31.5565C212.061 30.8895 212.208 30.2874 212.502 29.7503C212.806 29.2131 213.217 28.7973 213.737 28.5028C214.265 28.1996 214.859 28.048 215.517 28.048C216.176 28.048 216.76 28.1996 217.271 28.5028C217.791 28.7973 218.194 29.2131 218.48 29.7503C218.774 30.2874 218.922 30.9024 218.922 31.5955ZM215.517 29.1005C214.919 29.1005 214.417 29.2824 214.01 29.6463C213.611 30.0101 213.377 30.4866 213.308 31.0757H217.726C217.657 30.4953 217.419 30.0231 217.011 29.6593C216.613 29.2868 216.115 29.1005 215.517 29.1005ZM224.331 28.048C225.206 28.048 225.899 28.3035 226.411 28.8146C226.93 29.3171 227.19 30.0578 227.19 31.0367V35.0001H225.943V31.1797C225.943 30.5126 225.783 30.0101 225.462 29.6723C225.141 29.3344 224.682 29.1655 224.085 29.1655C223.409 29.1655 222.876 29.3647 222.486 29.7633C222.096 30.1531 221.901 30.7162 221.901 31.4526V35.0001H220.654V28.1129H221.849V29.1525C222.101 28.7973 222.439 28.5244 222.863 28.3338C223.296 28.1432 223.786 28.048 224.331 28.048ZM238.871 35.0001L237.116 32.4661H237.013H235.18V35.0001H233.075V25.9038H237.013C237.818 25.9038 238.516 26.0381 239.105 26.3067C239.702 26.5752 240.162 26.9564 240.482 27.4502C240.803 27.944 240.963 28.5288 240.963 29.2045C240.963 29.8802 240.798 30.465 240.469 30.9588C240.149 31.4439 239.689 31.8164 239.092 32.0763L241.132 35.0001H238.871ZM238.832 29.2045C238.832 28.6934 238.667 28.3035 238.338 28.035C238.009 27.7577 237.528 27.6191 236.896 27.6191H235.18V30.7898H236.896C237.528 30.7898 238.009 30.6512 238.338 30.374C238.667 30.0968 238.832 29.7069 238.832 29.2045ZM249.336 31.5305C249.336 31.5565 249.323 31.7384 249.297 32.0763H244.008C244.104 32.5095 244.329 32.8516 244.684 33.1029C245.039 33.3541 245.481 33.4797 246.009 33.4797C246.373 33.4797 246.694 33.4277 246.971 33.3238C247.257 33.2112 247.521 33.0379 247.764 32.804L248.842 33.9735C248.184 34.7272 247.222 35.1041 245.957 35.1041C245.169 35.1041 244.472 34.9525 243.865 34.6492C243.259 34.3374 242.791 33.9085 242.462 33.3628C242.133 32.817 241.968 32.1976 241.968 31.5045C241.968 30.8202 242.128 30.2051 242.449 29.6593C242.778 29.1049 243.224 28.676 243.787 28.3728C244.359 28.061 244.996 27.905 245.698 27.905C246.382 27.905 247.001 28.0523 247.556 28.3468C248.11 28.6414 248.543 29.0659 248.855 29.6203C249.176 30.1661 249.336 30.8028 249.336 31.5305ZM245.711 29.4384C245.251 29.4384 244.866 29.5683 244.554 29.8282C244.242 30.0881 244.052 30.4433 243.982 30.8938H247.426C247.357 30.452 247.166 30.1011 246.854 29.8412C246.542 29.5727 246.161 29.4384 245.711 29.4384ZM252.908 28.1649H254.701V29.7243H252.96V35.0001H250.933V29.7243H249.854V28.1649H250.933V27.853C250.933 27.056 251.166 26.4236 251.634 25.9558C252.111 25.488 252.778 25.2541 253.635 25.2541C253.939 25.2541 254.225 25.2888 254.493 25.3581C254.77 25.4187 255 25.5097 255.182 25.6309L254.649 27.0993C254.415 26.9347 254.142 26.8524 253.83 26.8524C253.215 26.8524 252.908 27.1903 252.908 27.866V28.1649ZM262.47 31.5305C262.47 31.5565 262.457 31.7384 262.431 32.0763H257.142C257.238 32.5095 257.463 32.8516 257.818 33.1029C258.173 33.3541 258.615 33.4797 259.144 33.4797C259.507 33.4797 259.828 33.4277 260.105 33.3238C260.391 33.2112 260.655 33.0379 260.898 32.804L261.976 33.9735C261.318 34.7272 260.356 35.1041 259.092 35.1041C258.303 35.1041 257.606 34.9525 257 34.6492C256.393 34.3374 255.925 33.9085 255.596 33.3628C255.267 32.817 255.102 32.1976 255.102 31.5045C255.102 30.8202 255.263 30.2051 255.583 29.6593C255.912 29.1049 256.358 28.676 256.922 28.3728C257.493 28.061 258.13 27.905 258.832 27.905C259.516 27.905 260.136 28.0523 260.69 28.3468C261.244 28.6414 261.678 29.0659 261.989 29.6203C262.31 30.1661 262.47 30.8028 262.47 31.5305ZM258.845 29.4384C258.386 29.4384 258 29.5683 257.688 29.8282C257.376 30.0881 257.186 30.4433 257.116 30.8938H260.56C260.491 30.452 260.3 30.1011 259.988 29.8412C259.676 29.5727 259.295 29.4384 258.845 29.4384ZM265.756 28.9316C265.999 28.5937 266.324 28.3382 266.731 28.1649C267.147 27.9916 267.623 27.905 268.16 27.905V29.7762C267.935 29.7589 267.783 29.7503 267.705 29.7503C267.125 29.7503 266.67 29.9149 266.341 30.2441C266.012 30.5646 265.847 31.0497 265.847 31.6995V35.0001H263.82V28.009H265.756V28.9316ZM271.302 28.9316C271.544 28.5937 271.869 28.3382 272.276 28.1649C272.692 27.9916 273.169 27.905 273.706 27.905V29.7762C273.48 29.7589 273.329 29.7503 273.251 29.7503C272.67 29.7503 272.216 29.9149 271.886 30.2441C271.557 30.5646 271.393 31.0497 271.393 31.6995V35.0001H269.365V28.009H271.302V28.9316ZM277.693 27.905C278.776 27.905 279.607 28.1649 280.188 28.6847C280.768 29.1958 281.058 29.9712 281.058 31.0107V35.0001H279.161V34.1295C278.78 34.7792 278.07 35.1041 277.03 35.1041C276.493 35.1041 276.025 35.0131 275.627 34.8312C275.237 34.6492 274.938 34.398 274.73 34.0775C274.522 33.7569 274.418 33.3931 274.418 32.9859C274.418 32.3362 274.661 31.8251 275.146 31.4526C275.64 31.08 276.398 30.8938 277.42 30.8938H279.031C279.031 30.452 278.897 30.1141 278.628 29.8802C278.36 29.6376 277.957 29.5164 277.42 29.5164C277.047 29.5164 276.679 29.577 276.315 29.6983C275.96 29.8109 275.657 29.9668 275.406 30.1661L274.678 28.7497C275.059 28.4811 275.514 28.2732 276.042 28.1259C276.58 27.9787 277.13 27.905 277.693 27.905ZM277.537 33.7396C277.883 33.7396 278.191 33.6616 278.459 33.5057C278.728 33.3411 278.919 33.1029 279.031 32.791V32.0763H277.641C276.809 32.0763 276.393 32.3492 276.393 32.895C276.393 33.1549 276.493 33.3628 276.692 33.5187C276.9 33.666 277.182 33.7396 277.537 33.7396ZM282.893 25.3581H284.92V35.0001H282.893V25.3581ZM292.319 27.6191H289.408V25.9038H297.335V27.6191H294.424V35.0001H292.319V27.6191ZM304.845 28.009L301.687 35.4289C301.366 36.2346 300.968 36.802 300.491 37.1312C300.024 37.4604 299.456 37.625 298.789 37.625C298.425 37.625 298.066 37.5687 297.711 37.4561C297.355 37.3435 297.065 37.1875 296.84 36.9883L297.581 35.5459C297.737 35.6845 297.914 35.7928 298.113 35.8707C298.321 35.9487 298.525 35.9877 298.724 35.9877C299.001 35.9877 299.227 35.9184 299.4 35.7798C299.573 35.6498 299.729 35.4289 299.868 35.1171L299.894 35.0521L296.866 28.009H298.958L300.92 32.752L302.895 28.009H304.845ZM309.804 27.905C310.454 27.905 311.043 28.0566 311.571 28.3598C312.109 28.6544 312.529 29.0745 312.832 29.6203C313.135 30.1574 313.287 30.7855 313.287 31.5045C313.287 32.2236 313.135 32.856 312.832 33.4018C312.529 33.9389 312.109 34.359 311.571 34.6622C311.043 34.9568 310.454 35.1041 309.804 35.1041C308.912 35.1041 308.21 34.8225 307.699 34.2594V37.5211H305.672V28.009H307.608V28.8146C308.111 28.2082 308.843 27.905 309.804 27.905ZM309.453 33.4407C309.973 33.4407 310.398 33.2675 310.727 32.921C311.065 32.5658 311.234 32.0936 311.234 31.5045C311.234 30.9154 311.065 30.4476 310.727 30.1011C310.398 29.7459 309.973 29.5683 309.453 29.5683C308.934 29.5683 308.505 29.7459 308.167 30.1011C307.838 30.4476 307.673 30.9154 307.673 31.5045C307.673 32.0936 307.838 32.5658 308.167 32.921C308.505 33.2675 308.934 33.4407 309.453 33.4407ZM321.492 31.5305C321.492 31.5565 321.479 31.7384 321.453 32.0763H316.164C316.259 32.5095 316.485 32.8516 316.84 33.1029C317.195 33.3541 317.637 33.4797 318.165 33.4797C318.529 33.4797 318.85 33.4277 319.127 33.3238C319.413 33.2112 319.677 33.0379 319.92 32.804L320.998 33.9735C320.34 34.7272 319.378 35.1041 318.113 35.1041C317.325 35.1041 316.628 34.9525 316.021 34.6492C315.415 34.3374 314.947 33.9085 314.618 33.3628C314.289 32.817 314.124 32.1976 314.124 31.5045C314.124 30.8202 314.284 30.2051 314.605 29.6593C314.934 29.1049 315.38 28.676 315.943 28.3728C316.515 28.061 317.152 27.905 317.853 27.905C318.538 27.905 319.157 28.0523 319.712 28.3468C320.266 28.6414 320.699 29.0659 321.011 29.6203C321.332 30.1661 321.492 30.8028 321.492 31.5305ZM317.866 29.4384C317.407 29.4384 317.022 29.5683 316.71 29.8282C316.398 30.0881 316.207 30.4433 316.138 30.8938H319.582C319.512 30.452 319.322 30.1011 319.01 29.8412C318.698 29.5727 318.317 29.4384 317.866 29.4384ZM326.769 28.1129H328.016V35.0001H326.769V28.1129ZM327.392 26.7875C327.15 26.7875 326.946 26.7095 326.782 26.5536C326.626 26.3976 326.548 26.207 326.548 25.9818C326.548 25.7566 326.626 25.566 326.782 25.41C326.946 25.2454 327.15 25.1631 327.392 25.1631C327.635 25.1631 327.834 25.2411 327.99 25.397C328.155 25.5443 328.237 25.7306 328.237 25.9558C328.237 26.1897 328.155 26.389 327.99 26.5536C327.834 26.7095 327.635 26.7875 327.392 26.7875ZM332.373 35.0781C331.81 35.0781 331.269 35.0044 330.749 34.8572C330.229 34.7012 329.822 34.5063 329.527 34.2724L330.047 33.2848C330.35 33.5014 330.718 33.6746 331.152 33.8046C331.585 33.9345 332.022 33.9995 332.464 33.9995C333.556 33.9995 334.101 33.6876 334.101 33.0639C334.101 32.856 334.028 32.6914 333.881 32.5701C333.733 32.4488 333.547 32.3622 333.322 32.3102C333.105 32.2496 332.793 32.1846 332.386 32.1153C331.832 32.0287 331.377 31.929 331.022 31.8164C330.675 31.7038 330.376 31.5132 330.125 31.2446C329.874 30.9761 329.748 30.5992 329.748 30.1141C329.748 29.4904 330.008 28.9922 330.528 28.6197C331.048 28.2385 331.745 28.048 332.62 28.048C333.079 28.048 333.538 28.1043 333.997 28.2169C334.457 28.3295 334.833 28.4811 335.128 28.6717L334.595 29.6593C334.032 29.2954 333.369 29.1135 332.607 29.1135C332.079 29.1135 331.676 29.2001 331.399 29.3734C331.121 29.5467 330.983 29.7762 330.983 30.0621C330.983 30.2874 331.061 30.465 331.217 30.5949C331.373 30.7249 331.563 30.8202 331.788 30.8808C332.022 30.9414 332.347 31.0107 332.763 31.0887C333.317 31.184 333.764 31.288 334.101 31.4006C334.448 31.5045 334.743 31.6865 334.985 31.9464C335.228 32.2062 335.349 32.5701 335.349 33.0379C335.349 33.6616 335.08 34.1598 334.543 34.5323C334.015 34.8961 333.291 35.0781 332.373 35.0781Z" fill="black"/>
<path d="M344.078 28.1129H345.325V35.0001H344.078V28.1129ZM344.702 26.7875C344.459 26.7875 344.255 26.7095 344.091 26.5536C343.935 26.3976 343.857 26.207 343.857 25.9818C343.857 25.7566 343.935 25.566 344.091 25.41C344.255 25.2454 344.459 25.1631 344.702 25.1631C344.944 25.1631 345.143 25.2411 345.299 25.397C345.464 25.5443 345.546 25.7306 345.546 25.9558C345.546 26.1897 345.464 26.389 345.299 26.5536C345.143 26.7095 344.944 26.7875 344.702 26.7875ZM350.657 35.0781C349.973 35.0781 349.358 34.9265 348.812 34.6233C348.266 34.32 347.837 33.9042 347.525 33.3758C347.222 32.8387 347.071 32.2322 347.071 31.5565C347.071 30.8808 347.222 30.2787 347.525 29.7503C347.837 29.2131 348.266 28.7973 348.812 28.5028C349.358 28.1996 349.973 28.048 350.657 28.048C351.341 28.048 351.952 28.1996 352.489 28.5028C353.035 28.7973 353.46 29.2131 353.763 29.7503C354.075 30.2787 354.231 30.8808 354.231 31.5565C354.231 32.2322 354.075 32.8387 353.763 33.3758C353.46 33.9042 353.035 34.32 352.489 34.6233C351.952 34.9265 351.341 35.0781 350.657 35.0781ZM350.657 33.9865C351.099 33.9865 351.493 33.8869 351.84 33.6876C352.195 33.4797 352.472 33.1938 352.671 32.83C352.87 32.4575 352.97 32.033 352.97 31.5565C352.97 31.08 352.87 30.6599 352.671 30.296C352.472 29.9235 352.195 29.6376 351.84 29.4384C351.493 29.2391 351.099 29.1395 350.657 29.1395C350.215 29.1395 349.817 29.2391 349.462 29.4384C349.115 29.6376 348.838 29.9235 348.63 30.296C348.431 30.6599 348.331 31.08 348.331 31.5565C348.331 32.033 348.431 32.4575 348.63 32.83C348.838 33.1938 349.115 33.4797 349.462 33.6876C349.817 33.8869 350.215 33.9865 350.657 33.9865ZM357.931 35.0781C357.368 35.0781 356.826 35.0044 356.307 34.8572C355.787 34.7012 355.38 34.5063 355.085 34.2724L355.605 33.2848C355.908 33.5014 356.276 33.6746 356.71 33.8046C357.143 33.9345 357.58 33.9995 358.022 33.9995C359.114 33.9995 359.659 33.6876 359.659 33.0639C359.659 32.856 359.586 32.6914 359.438 32.5701C359.291 32.4488 359.105 32.3622 358.88 32.3102C358.663 32.2496 358.351 32.1846 357.944 32.1153C357.39 32.0287 356.935 31.929 356.58 31.8164C356.233 31.7038 355.934 31.5132 355.683 31.2446C355.432 30.9761 355.306 30.5992 355.306 30.1141C355.306 29.4904 355.566 28.9922 356.086 28.6197C356.606 28.2385 357.303 28.048 358.178 28.048C358.637 28.048 359.096 28.1043 359.555 28.2169C360.014 28.3295 360.391 28.4811 360.686 28.6717L360.153 29.6593C359.59 29.2954 358.927 29.1135 358.165 29.1135C357.636 29.1135 357.234 29.2001 356.956 29.3734C356.679 29.5467 356.541 29.7762 356.541 30.0621C356.541 30.2874 356.619 30.465 356.774 30.5949C356.93 30.7249 357.121 30.8202 357.346 30.8808C357.58 30.9414 357.905 31.0107 358.321 31.0887C358.875 31.184 359.321 31.288 359.659 31.4006C360.006 31.5045 360.3 31.6865 360.543 31.9464C360.785 32.2062 360.907 32.5701 360.907 33.0379C360.907 33.6616 360.638 34.1598 360.101 34.5323C359.573 34.8961 358.849 35.0781 357.931 35.0781ZM361.283 35.0001H367.781V35.8058H361.283V35.0001ZM371.344 28.048C372.297 28.048 373.025 28.2819 373.527 28.7497C374.038 29.2175 374.294 29.9149 374.294 30.8418V35.0001H373.112V34.0905C372.904 34.411 372.605 34.6579 372.215 34.8312C371.834 34.9958 371.379 35.0781 370.85 35.0781C370.079 35.0781 369.46 34.8918 368.992 34.5193C368.533 34.1468 368.303 33.6573 368.303 33.0509C368.303 32.4445 368.524 31.9593 368.966 31.5955C369.408 31.223 370.11 31.0367 371.071 31.0367H373.047V30.7898C373.047 30.2527 372.891 29.8412 372.579 29.5553C372.267 29.2695 371.808 29.1265 371.201 29.1265C370.794 29.1265 370.396 29.1958 370.006 29.3344C369.616 29.4644 369.287 29.642 369.018 29.8672L368.498 28.9316C368.854 28.6457 369.278 28.4291 369.772 28.2819C370.266 28.1259 370.79 28.048 371.344 28.048ZM371.058 34.1165C371.535 34.1165 371.946 34.0125 372.293 33.8046C372.639 33.588 372.891 33.2848 373.047 32.895V31.9334H371.123C370.066 31.9334 369.538 32.2885 369.538 32.9989C369.538 33.3454 369.672 33.6183 369.941 33.8176C370.209 34.0168 370.582 34.1165 371.058 34.1165ZM380.254 28.048C380.921 28.048 381.519 28.1952 382.047 28.4898C382.576 28.7843 382.987 29.1958 383.282 29.7243C383.585 30.2527 383.737 30.8635 383.737 31.5565C383.737 32.2496 383.585 32.8646 383.282 33.4018C382.987 33.9302 382.576 34.3417 382.047 34.6362C381.519 34.9308 380.921 35.0781 380.254 35.0781C379.76 35.0781 379.305 34.9828 378.89 34.7922C378.482 34.6016 378.136 34.3244 377.85 33.9605V37.5211H376.603V28.1129H377.798V29.2045C378.075 28.8233 378.426 28.5374 378.851 28.3468C379.275 28.1476 379.743 28.048 380.254 28.048ZM380.15 33.9865C380.592 33.9865 380.986 33.8869 381.333 33.6876C381.688 33.4797 381.965 33.1938 382.164 32.83C382.372 32.4575 382.476 32.033 382.476 31.5565C382.476 31.08 382.372 30.6599 382.164 30.296C381.965 29.9235 381.688 29.6376 381.333 29.4384C380.986 29.2391 380.592 29.1395 380.15 29.1395C379.717 29.1395 379.323 29.2435 378.968 29.4514C378.621 29.6506 378.344 29.9322 378.136 30.296C377.937 30.6599 377.837 31.08 377.837 31.5565C377.837 32.033 377.937 32.4575 378.136 32.83C378.335 33.1938 378.612 33.4797 378.968 33.6876C379.323 33.8869 379.717 33.9865 380.15 33.9865ZM389.112 28.048C389.779 28.048 390.377 28.1952 390.905 28.4898C391.433 28.7843 391.845 29.1958 392.14 29.7243C392.443 30.2527 392.594 30.8635 392.594 31.5565C392.594 32.2496 392.443 32.8646 392.14 33.4018C391.845 33.9302 391.433 34.3417 390.905 34.6362C390.377 34.9308 389.779 35.0781 389.112 35.0781C388.618 35.0781 388.163 34.9828 387.747 34.7922C387.34 34.6016 386.994 34.3244 386.708 33.9605V37.5211H385.46V28.1129H386.656V29.2045C386.933 28.8233 387.284 28.5374 387.708 28.3468C388.133 28.1476 388.601 28.048 389.112 28.048ZM389.008 33.9865C389.45 33.9865 389.844 33.8869 390.19 33.6876C390.546 33.4797 390.823 33.1938 391.022 32.83C391.23 32.4575 391.334 32.033 391.334 31.5565C391.334 31.08 391.23 30.6599 391.022 30.296C390.823 29.9235 390.546 29.6376 390.19 29.4384C389.844 29.2391 389.45 29.1395 389.008 29.1395C388.575 29.1395 388.181 29.2435 387.825 29.4514C387.479 29.6506 387.202 29.9322 386.994 30.296C386.794 30.6599 386.695 31.08 386.695 31.5565C386.695 32.033 386.794 32.4575 386.994 32.83C387.193 33.1938 387.47 33.4797 387.825 33.6876C388.181 33.8869 388.575 33.9865 389.008 33.9865Z" fill="white"/>
<path d="M13.5018 89C6.04495 89 -6.28782e-07 82.9551 0 75.4982L5.22773e-06 13.5018C5.85651e-06 6.04494 6.04495 -1.70329e-07 13.5018 0L165 3.46053e-06V89H13.5018Z" fill="#DE3B8C"/>
<path d="M53.7893 60.5816C55.1138 60.7454 56.1243 61.1961 56.8207 61.9334C57.5171 62.6708 57.8654 63.5926 57.8654 64.6986C57.8654 65.5316 57.6537 66.2894 57.2304 66.9722C56.8071 67.655 56.1653 68.2012 55.305 68.6108C54.4584 69.0068 53.4206 69.2048 52.1916 69.2048C51.1675 69.2048 50.1775 69.0614 49.2216 68.7747C48.2794 68.4743 47.4738 68.0646 46.8047 67.5457L47.9517 65.477C48.4706 65.9139 49.0987 66.2621 49.8361 66.5216C50.5871 66.7674 51.3587 66.8903 52.1507 66.8903C53.0929 66.8903 53.8302 66.6991 54.3628 66.3168C54.909 65.9208 55.1821 65.3882 55.1821 64.7191C55.1821 64.05 54.9227 63.5311 54.4038 63.1624C53.8985 62.7801 53.1202 62.5889 52.0687 62.5889H50.7578V60.7659L54.0146 56.8947H47.5011V54.6621H57.2714V56.4441L53.7893 60.5816ZM61.2047 69.1434C60.7404 69.1434 60.3444 68.9863 60.0167 68.6723C59.689 68.3446 59.5251 67.9349 59.5251 67.4433C59.5251 66.9381 59.6821 66.5284 59.9962 66.2143C60.3239 65.9003 60.7268 65.7432 61.2047 65.7432C61.6826 65.7432 62.0786 65.9003 62.3927 66.2143C62.7204 66.5284 62.8843 66.9381 62.8843 67.4433C62.8843 67.9349 62.7204 68.3446 62.3927 68.6723C62.065 68.9863 61.669 69.1434 61.2047 69.1434ZM69.2645 54.6621V69H66.6017V56.8947H63.5703V54.6621H69.2645ZM79.8512 69L77.0451 65.2107L74.2184 69H71.3918L75.6522 63.4492L71.5762 58.0622H74.4233L77.1065 61.6467L79.7897 58.0622H82.5549L78.4584 63.4082L82.7393 69H79.8512Z" fill="white"/>
<path d="M95.8939 68.1121C94.9046 68.1121 94.0132 67.8974 93.2199 67.4681C92.4266 67.0294 91.8012 66.4274 91.3439 65.6621C90.8959 64.8968 90.6719 64.0428 90.6719 63.1001C90.6719 62.1574 90.8959 61.3034 91.3439 60.5381C91.8012 59.7728 92.4266 59.1754 93.2199 58.7461C94.0132 58.3074 94.9046 58.0881 95.8939 58.0881C96.8739 58.0881 97.7606 58.3074 98.5539 58.7461C99.3472 59.1754 99.9679 59.7728 100.416 60.5381C100.864 61.2941 101.088 62.1481 101.088 63.1001C101.088 64.0521 100.864 64.9108 100.416 65.6761C99.9679 66.4321 99.3472 67.0294 98.5539 67.4681C97.7606 67.8974 96.8739 68.1121 95.8939 68.1121ZM95.8939 66.8661C96.6126 66.8661 97.2566 66.7028 97.8259 66.3761C98.4046 66.0494 98.8572 65.6014 99.1839 65.0321C99.5199 64.4534 99.6879 63.8094 99.6879 63.1001C99.6879 62.3908 99.5199 61.7514 99.1839 61.1821C98.8572 60.6034 98.4046 60.1508 97.8259 59.8241C97.2566 59.4974 96.6126 59.3341 95.8939 59.3341C95.1752 59.3341 94.5219 59.4974 93.9339 59.8241C93.3552 60.1508 92.8979 60.6034 92.5619 61.1821C92.2352 61.7514 92.0719 62.3908 92.0719 63.1001C92.0719 63.8094 92.2352 64.4534 92.5619 65.0321C92.8979 65.6014 93.3552 66.0494 93.9339 66.3761C94.5219 66.7028 95.1752 66.8661 95.8939 66.8661ZM109.598 60.5801L106.35 68.0001H104.978L101.73 60.5801H103.13L105.678 66.5301L108.282 60.5801H109.598ZM117.353 64.3321C117.353 64.4348 117.344 64.5701 117.325 64.7381H111.305C111.389 65.3914 111.674 65.9188 112.159 66.3201C112.654 66.7121 113.265 66.9081 113.993 66.9081C114.88 66.9081 115.594 66.6094 116.135 66.0121L116.877 66.8801C116.541 67.2721 116.121 67.5708 115.617 67.7761C115.122 67.9814 114.567 68.0841 113.951 68.0841C113.167 68.0841 112.472 67.9254 111.865 67.6081C111.258 67.2814 110.787 66.8288 110.451 66.2501C110.124 65.6714 109.961 65.0181 109.961 64.2901C109.961 63.5714 110.12 62.9228 110.437 62.3441C110.764 61.7654 111.207 61.3174 111.767 61.0001C112.336 60.6734 112.976 60.5101 113.685 60.5101C114.394 60.5101 115.024 60.6734 115.575 61.0001C116.135 61.3174 116.569 61.7654 116.877 62.3441C117.194 62.9228 117.353 63.5854 117.353 64.3321ZM113.685 61.6441C113.041 61.6441 112.5 61.8401 112.061 62.2321C111.632 62.6241 111.38 63.1374 111.305 63.7721H116.065C115.99 63.1468 115.734 62.6381 115.295 62.2461C114.866 61.8448 114.329 61.6441 113.685 61.6441ZM120.507 61.8261C120.741 61.3968 121.086 61.0701 121.543 60.8461C122.001 60.6221 122.556 60.5101 123.209 60.5101V61.8121C123.135 61.8028 123.032 61.7981 122.901 61.7981C122.173 61.7981 121.599 62.0174 121.179 62.4561C120.769 62.8854 120.563 63.5014 120.563 64.3041V68.0001H119.219V60.5801H120.507V61.8261ZM127.554 60.5101C128.581 60.5101 129.365 60.7621 129.906 61.2661C130.457 61.7701 130.732 62.5214 130.732 63.5201V68.0001H129.458V67.0201C129.234 67.3654 128.912 67.6314 128.492 67.8181C128.081 67.9954 127.591 68.0841 127.022 68.0841C126.191 68.0841 125.524 67.8834 125.02 67.4821C124.525 67.0808 124.278 66.5534 124.278 65.9001C124.278 65.2468 124.516 64.7241 124.992 64.3321C125.468 63.9308 126.224 63.7301 127.26 63.7301H129.388V63.4641C129.388 62.8854 129.22 62.4421 128.884 62.1341C128.548 61.8261 128.053 61.6721 127.4 61.6721C126.961 61.6721 126.532 61.7468 126.112 61.8961C125.692 62.0361 125.337 62.2274 125.048 62.4701L124.488 61.4621C124.871 61.1541 125.328 60.9208 125.86 60.7621C126.392 60.5941 126.957 60.5101 127.554 60.5101ZM127.246 67.0481C127.759 67.0481 128.203 66.9361 128.576 66.7121C128.949 66.4788 129.22 66.1521 129.388 65.7321V64.6961H127.316C126.177 64.6961 125.608 65.0788 125.608 65.8441C125.608 66.2174 125.753 66.5114 126.042 66.7261C126.331 66.9408 126.733 67.0481 127.246 67.0481ZM133.219 57.6121H134.563V68.0001H133.219V57.6121ZM137.129 57.6121H138.473V68.0001H137.129V57.6121Z" fill="white"/>
<path d="M30.1501 30.2201C29.5026 32.0401 28.8901 33.4926 27.0701 33.4926C24.2001 33.4926 23.8326 29.9576 23.8326 28.1026C23.8326 27.1051 23.9026 23.0626 26.8951 23.0626C29.0301 23.0626 29.4676 24.6901 29.9751 26.0376H30.6051V23.0451C29.5726 22.4151 27.7526 22.2751 27.0176 22.2751C24.6376 22.2751 23.0626 22.9576 22.0826 24.0426C21.0676 25.1801 20.6826 26.7201 20.6826 28.4176C20.6826 31.8651 22.2751 34.2801 26.7201 34.2801C27.8401 34.2801 29.5726 34.1226 30.5876 33.4926L30.7976 30.2201H30.1501ZM36.4191 25.7226C33.3566 25.7226 32.0966 27.3501 32.0966 29.9751C32.0966 32.6001 33.3566 34.2101 36.4016 34.2101C39.4291 34.2101 40.6891 32.6001 40.6891 29.9751C40.6891 27.3501 39.4291 25.7226 36.4191 25.7226ZM34.8441 29.9926C34.8441 27.7701 35.2816 26.5101 36.4016 26.5101C37.5041 26.5101 37.9416 27.7701 37.9416 29.9751C37.9416 32.1626 37.5041 33.4401 36.4016 33.4401C35.2816 33.4401 34.8441 32.1626 34.8441 29.9926ZM50.587 28.2426C50.587 26.7201 49.7995 25.7226 48.102 25.7226C47.1745 25.7226 46.4045 26.2126 45.302 26.8426L45.092 25.7401L41.732 26.2301V26.8426L42.3095 26.9301C42.5545 26.9476 42.6945 27.1051 42.6945 27.7701V32.6176C42.6945 33.2651 42.537 33.3176 41.6445 33.3701V34.0001H46.1245V33.3701C45.652 33.3176 45.302 33.3176 45.302 32.6526V28.7676C45.302 28.4176 45.3545 28.0151 45.477 27.7876C45.652 27.3851 46.0545 27.0351 46.737 27.0351C47.5245 27.0351 47.962 27.5251 47.962 28.4526V32.7226C47.962 33.3876 47.612 33.3176 47.157 33.3701V34.0001H51.637V33.3701C50.727 33.3176 50.587 33.2476 50.587 32.5826V28.2426ZM56.9172 34.0001C57.7047 31.8826 58.5272 29.3801 59.4547 27.2801C59.7172 26.6851 59.9972 26.6326 60.6622 26.5801V25.9326H57.2147V26.5801L58.0372 26.6851C58.3347 26.7201 58.3872 26.8951 58.2997 27.2101C57.9147 28.6976 57.3897 30.2376 56.8297 31.9176H56.7597C56.3747 30.7976 55.4997 28.3476 55.1147 27.1401C55.0272 26.8251 55.0447 26.7026 55.3422 26.6501L55.9372 26.5801V25.9326H51.4922V26.5801C52.1047 26.6151 52.3322 26.7901 52.5247 27.2976C53.3297 29.4151 54.2222 31.7601 55.0272 34.0001H56.9172ZM67.8221 29.8876C68.4521 29.8876 68.7321 29.6951 68.7321 29.1701C68.7321 27.7701 68.2246 25.7226 65.0221 25.7226C62.0121 25.7226 60.9271 27.6826 60.9271 29.9576C60.9271 32.1626 61.8721 34.2276 64.9871 34.2101C66.9471 34.2101 68.0321 33.2651 68.6096 31.8126L67.9971 31.4626C67.5071 32.4076 66.7896 32.8976 65.8271 32.8976C64.2521 32.8976 63.6746 31.6026 63.6746 29.8876H67.8221ZM63.6571 29.0651C63.6571 27.8051 64.0071 26.5101 64.9871 26.5101C65.8971 26.5101 66.1071 27.7351 66.1071 28.5226C66.1071 28.9776 65.9671 29.0651 65.5996 29.0651H63.6571ZM73.2439 28.9076C73.2439 28.1026 73.4014 27.6651 73.7864 27.6651C74.0489 27.6651 74.2939 27.8401 74.6089 28.0676C74.8189 28.2251 75.0114 28.4176 75.3439 28.4176C76.1489 28.4176 76.5689 27.6126 76.5689 26.9301C76.5689 26.1776 76.0789 25.7226 75.3789 25.7226C74.6614 25.7226 74.1364 26.1951 73.1914 27.1926L72.9989 25.7401L69.6914 26.2301V26.8426L70.2514 26.9301C70.4964 26.9476 70.6364 27.1051 70.6364 27.7701V32.5826C70.6364 33.2476 70.4964 33.3176 69.5864 33.3701V34.0001H74.6264V33.3701C73.4014 33.3001 73.2439 33.2476 73.2439 32.5826V28.9076ZM83.2317 28.5226V26.3176C82.5317 25.8976 81.5867 25.7226 80.7117 25.7226C78.6642 25.7226 77.4217 26.7376 77.4217 28.4001C77.4217 29.6076 78.0342 30.3251 79.8192 31.0251C80.6067 31.3401 81.4817 31.7776 81.4817 32.4951C81.4817 33.0901 81.0792 33.4401 80.3792 33.4401C79.3292 33.4401 78.4192 32.2851 77.9817 30.9201H77.3342L77.5442 33.4226C78.1742 34.0001 79.3992 34.2101 80.3092 34.2101C82.3392 34.2101 83.7917 33.3001 83.7917 31.4626C83.7917 30.0976 83.0392 29.4326 81.4117 28.8201C80.4142 28.4526 79.6967 28.0501 79.6967 27.4376C79.6967 26.9651 80.0467 26.5101 80.7117 26.5101C81.4817 26.5101 82.2692 27.2451 82.6017 28.5226H83.2317ZM86.815 22.2051C85.87 22.2051 85.38 22.8526 85.38 23.6226C85.38 24.3926 85.87 25.0576 86.7975 25.0576C87.69 25.0576 88.2325 24.3926 88.2325 23.6226C88.2325 22.8526 87.725 22.2051 86.815 22.2051ZM85.59 32.5826C85.59 33.2476 85.4325 33.3176 84.54 33.3701V34.0001H89.2475V33.3701C88.3375 33.3176 88.1975 33.2476 88.1975 32.5826V25.8451L88.0925 25.7401L84.6275 26.2301V26.8426L85.205 26.9301C85.45 26.9476 85.59 27.1051 85.59 27.7701V32.5826ZM94.4049 25.7226C91.3424 25.7226 90.0824 27.3501 90.0824 29.9751C90.0824 32.6001 91.3424 34.2101 94.3874 34.2101C97.4149 34.2101 98.6749 32.6001 98.6749 29.9751C98.6749 27.3501 97.4149 25.7226 94.4049 25.7226ZM92.8299 29.9926C92.8299 27.7701 93.2674 26.5101 94.3874 26.5101C95.4899 26.5101 95.9274 27.7701 95.9274 29.9751C95.9274 32.1626 95.4899 33.4401 94.3874 33.4401C93.2674 33.4401 92.8299 32.1626 92.8299 29.9926ZM108.573 28.2426C108.573 26.7201 107.785 25.7226 106.088 25.7226C105.16 25.7226 104.39 26.2126 103.288 26.8426L103.078 25.7401L99.7178 26.2301V26.8426L100.295 26.9301C100.54 26.9476 100.68 27.1051 100.68 27.7701V32.6176C100.68 33.2651 100.523 33.3176 99.6303 33.3701V34.0001H104.11V33.3701C103.638 33.3176 103.288 33.3176 103.288 32.6526V28.7676C103.288 28.4176 103.34 28.0151 103.463 27.7876C103.638 27.3851 104.04 27.0351 104.723 27.0351C105.51 27.0351 105.948 27.5251 105.948 28.4526V32.7226C105.948 33.3876 105.598 33.3176 105.143 33.3701V34.0001H109.623V33.3701C108.713 33.3176 108.573 33.2476 108.573 32.5826V28.2426ZM118.052 28.7326H118.664C119.574 28.7326 119.994 29.0126 120.222 29.9926C120.362 30.5876 120.432 31.4626 120.712 32.3201C121.132 33.5626 121.954 34.0001 123.774 34.0001H125.122V33.3701C124.002 33.3176 123.722 32.3901 123.477 31.0951C123.232 29.8001 122.619 28.6801 120.799 28.2426V28.1551C122.427 27.9451 123.582 27.0526 123.582 25.3901C123.582 22.8001 121.639 22.5726 119.662 22.5726H113.904V23.2026C115.042 23.2551 115.182 23.3426 115.182 24.1651V32.3901C115.182 33.2301 115.042 33.3176 113.904 33.3701V34.0001H119.329V33.3701C118.192 33.3176 118.052 33.2301 118.052 32.3901V28.7326ZM118.052 23.9551C118.052 23.5001 118.087 23.3426 118.874 23.3426C119.907 23.3426 120.659 24.0426 120.659 25.6001C120.659 26.8251 120.432 27.9626 118.682 27.9626H118.052V23.9551ZM132.894 28.1201C132.894 27.0876 132.579 25.7226 129.604 25.7226C127.102 25.7226 125.789 26.7201 125.789 27.7876C125.789 28.5576 126.909 28.8551 127.347 28.8551C127.697 28.8551 127.907 28.5751 128.047 28.1726C128.484 26.6676 128.992 26.5101 129.429 26.5101C129.919 26.5101 130.339 26.8076 130.339 27.7351V28.5576C129.744 28.9426 128.397 29.3801 127.364 29.7126C126.034 30.1851 125.579 30.8501 125.579 31.7951C125.579 33.0376 126.402 34.2101 128.082 34.2101C129.149 34.2101 129.832 33.6501 130.427 33.2651C130.619 33.8251 130.987 34.2101 131.792 34.2101C132.789 34.2101 133.612 33.9476 134.119 33.7201L134.084 33.1251C133.874 33.1251 133.507 33.1076 133.332 33.0201C133.052 32.8976 132.894 32.6176 132.894 31.8126V28.1201ZM130.339 31.8301C130.339 32.6526 129.832 32.8801 129.412 32.8801C128.817 32.8801 128.239 32.4076 128.239 31.5326C128.239 30.7626 128.484 30.3426 128.922 30.0801C129.412 29.7826 129.937 29.5901 130.339 29.3976V31.8301ZM139.724 26.7726V25.9326H138.062V23.8676H137.047L135.542 25.9326H134.527V26.7726H135.454V32.0576C135.454 33.5276 136.557 34.2101 137.519 34.2101C138.167 34.2101 138.989 33.9301 139.952 33.3176L139.777 32.7926C139.567 32.8801 139.234 32.9501 139.077 32.9501C138.499 32.9501 138.062 32.5301 138.062 31.4451V26.7726H139.724ZM147.546 29.8876C148.176 29.8876 148.456 29.6951 148.456 29.1701C148.456 27.7701 147.949 25.7226 144.746 25.7226C141.736 25.7226 140.651 27.6826 140.651 29.9576C140.651 32.1626 141.596 34.2276 144.711 34.2101C146.671 34.2101 147.756 33.2651 148.334 31.8126L147.721 31.4626C147.231 32.4076 146.514 32.8976 145.551 32.8976C143.976 32.8976 143.399 31.6026 143.399 29.8876H147.546ZM143.381 29.0651C143.381 27.8051 143.731 26.5101 144.711 26.5101C145.621 26.5101 145.831 27.7351 145.831 28.5226C145.831 28.9776 145.691 29.0651 145.324 29.0651H143.381Z" fill="#FBFAF8"/>
<path d="M30.2404 52.3646C24.5849 52.4484 20.0681 57.101 20.1519 62.7566C20.2357 68.4121 24.8884 72.9289 30.5439 72.8451C36.1995 72.7613 40.7162 68.1086 40.6324 62.4531C40.5486 56.7975 35.896 52.2807 30.2404 52.3646Z" fill="#FBFAF8"/>
<path d="M30.3269 58.1741L34.6038 64.7585L26.2471 64.8824L30.3269 58.1741Z" fill="#DC267F"/>
<path d="M265.281 61.646L265.268 56.186L262.59 60.684H261.641L258.976 56.303V61.646H257V52.546H258.742L262.148 58.201L265.502 52.546H267.231L267.257 61.646H265.281Z" fill="#20102C"/>
<path d="M272.601 61.75C271.864 61.75 271.201 61.5983 270.612 61.295C270.031 60.983 269.576 60.554 269.247 60.008C268.918 59.462 268.753 58.8423 268.753 58.149C268.753 57.4557 268.918 56.836 269.247 56.29C269.576 55.744 270.031 55.3193 270.612 55.016C271.201 54.704 271.864 54.548 272.601 54.548C273.338 54.548 273.996 54.704 274.577 55.016C275.158 55.3193 275.613 55.744 275.942 56.29C276.271 56.836 276.436 57.4557 276.436 58.149C276.436 58.8423 276.271 59.462 275.942 60.008C275.613 60.554 275.158 60.983 274.577 61.295C273.996 61.5983 273.338 61.75 272.601 61.75ZM272.601 60.086C273.121 60.086 273.546 59.9127 273.875 59.566C274.213 59.2107 274.382 58.7383 274.382 58.149C274.382 57.5597 274.213 57.0917 273.875 56.745C273.546 56.3897 273.121 56.212 272.601 56.212C272.081 56.212 271.652 56.3897 271.314 56.745C270.976 57.0917 270.807 57.5597 270.807 58.149C270.807 58.7383 270.976 59.2107 271.314 59.566C271.652 59.9127 272.081 60.086 272.601 60.086Z" fill="#20102C"/>
<path d="M279.729 55.575C279.971 55.237 280.296 54.9813 280.704 54.808C281.12 54.6347 281.596 54.548 282.134 54.548V56.42C281.908 56.4027 281.757 56.394 281.679 56.394C281.098 56.394 280.643 56.5587 280.314 56.888C279.984 57.2087 279.82 57.694 279.82 58.344V61.646H277.792V54.652H279.729V55.575Z" fill="#20102C"/>
<path d="M290.127 58.175C290.127 58.201 290.114 58.383 290.088 58.721H284.797C284.892 59.1543 285.118 59.4967 285.473 59.748C285.828 59.9993 286.27 60.125 286.799 60.125C287.163 60.125 287.484 60.073 287.761 59.969C288.047 59.8563 288.311 59.683 288.554 59.449L289.633 60.619C288.974 61.373 288.012 61.75 286.747 61.75C285.958 61.75 285.261 61.5983 284.654 61.295C284.047 60.983 283.579 60.554 283.25 60.008C282.921 59.462 282.756 58.8423 282.756 58.149C282.756 57.4643 282.916 56.849 283.237 56.303C283.566 55.7483 284.013 55.3193 284.576 55.016C285.148 54.704 285.785 54.548 286.487 54.548C287.172 54.548 287.791 54.6953 288.346 54.99C288.901 55.2847 289.334 55.7093 289.646 56.264C289.967 56.81 290.127 57.447 290.127 58.175ZM286.5 56.082C286.041 56.082 285.655 56.212 285.343 56.472C285.031 56.732 284.84 57.0873 284.771 57.538H288.216C288.147 57.096 287.956 56.745 287.644 56.485C287.332 56.2163 286.951 56.082 286.5 56.082Z" fill="#20102C"/>
<path d="M297.187 54.262H294.275V52.546H302.205V54.262H299.293V61.646H297.187V54.262Z" fill="#20102C"/>
<path d="M307.446 54.548C308.313 54.548 309.01 54.808 309.539 55.328C310.076 55.848 310.345 56.6193 310.345 57.642V61.646H308.317V57.954C308.317 57.3993 308.196 56.9877 307.953 56.719C307.71 56.4417 307.359 56.303 306.9 56.303C306.389 56.303 305.981 56.4633 305.678 56.784C305.375 57.096 305.223 57.564 305.223 58.188V61.646H303.195V52H305.223V55.38C305.492 55.1113 305.817 54.9077 306.198 54.769C306.579 54.6217 306.995 54.548 307.446 54.548Z" fill="#20102C"/>
<path d="M315.004 54.548C316.088 54.548 316.92 54.808 317.5 55.328C318.081 55.8393 318.371 56.615 318.371 57.655V61.646H316.473V60.775C316.092 61.425 315.381 61.75 314.341 61.75C313.804 61.75 313.336 61.659 312.937 61.477C312.547 61.295 312.248 61.0437 312.04 60.723C311.832 60.4023 311.728 60.0383 311.728 59.631C311.728 58.981 311.971 58.4697 312.456 58.097C312.95 57.7243 313.709 57.538 314.731 57.538H316.343C316.343 57.096 316.209 56.758 315.94 56.524C315.672 56.2813 315.269 56.16 314.731 56.16C314.359 56.16 313.99 56.2207 313.626 56.342C313.271 56.4547 312.968 56.6107 312.716 56.81L311.988 55.393C312.37 55.1243 312.825 54.9163 313.353 54.769C313.891 54.6217 314.441 54.548 315.004 54.548ZM314.848 60.385C315.195 60.385 315.503 60.307 315.771 60.151C316.04 59.9863 316.231 59.748 316.343 59.436V58.721H314.952C314.12 58.721 313.704 58.994 313.704 59.54C313.704 59.8 313.804 60.008 314.003 60.164C314.211 60.3113 314.493 60.385 314.848 60.385Z" fill="#20102C"/>
<path d="M324.458 54.548C325.324 54.548 326.022 54.808 326.551 55.328C327.088 55.848 327.357 56.6193 327.357 57.642V61.646H325.329V57.954C325.329 57.3993 325.207 56.9877 324.965 56.719C324.722 56.4417 324.371 56.303 323.912 56.303C323.4 56.303 322.993 56.4633 322.69 56.784C322.386 57.096 322.235 57.564 322.235 58.188V61.646H320.207V54.652H322.144V55.471C322.412 55.1763 322.746 54.951 323.145 54.795C323.543 54.6303 323.981 54.548 324.458 54.548Z" fill="#20102C"/>
<path d="M339.719 60.515V61.646H333.115V52.546H339.537V53.677H334.415V56.472H338.978V57.577H334.415V60.515H339.719Z" fill="#20102C"/>
<path d="M345.884 61.646L343.895 59.007L341.88 61.646H340.489L343.206 58.123L340.619 54.756H342.01L343.908 57.239L345.793 54.756H347.158L344.558 58.123L347.301 61.646H345.884Z" fill="#20102C"/>
<path d="M352.316 54.691C352.983 54.691 353.581 54.8383 354.11 55.133C354.638 55.4277 355.05 55.8393 355.345 56.368C355.648 56.8967 355.8 57.5077 355.8 58.201C355.8 58.8943 355.648 59.5097 355.345 60.047C355.05 60.5757 354.638 60.9873 354.11 61.282C353.581 61.5767 352.983 61.724 352.316 61.724C351.822 61.724 351.367 61.6287 350.951 61.438C350.543 61.2473 350.197 60.97 349.911 60.606V64.168H348.663V54.756H349.859V55.848C350.136 55.4667 350.487 55.1807 350.912 54.99C351.336 54.7907 351.804 54.691 352.316 54.691ZM352.212 60.632C352.654 60.632 353.048 60.5323 353.395 60.333C353.75 60.125 354.027 59.839 354.227 59.475C354.435 59.1023 354.539 58.6777 354.539 58.201C354.539 57.7243 354.435 57.304 354.227 56.94C354.027 56.5673 353.75 56.2813 353.395 56.082C353.048 55.8827 352.654 55.783 352.212 55.783C351.778 55.783 351.384 55.887 351.029 56.095C350.682 56.2943 350.405 56.576 350.197 56.94C349.997 57.304 349.898 57.7243 349.898 58.201C349.898 58.6777 349.997 59.1023 350.197 59.475C350.396 59.839 350.673 60.125 351.029 60.333C351.384 60.5323 351.778 60.632 352.212 60.632Z" fill="#20102C"/>
<path d="M363.751 58.24C363.751 58.3353 363.742 58.461 363.725 58.617H358.135C358.213 59.2237 358.477 59.7133 358.928 60.086C359.387 60.45 359.955 60.632 360.631 60.632C361.454 60.632 362.117 60.3547 362.62 59.8L363.309 60.606C362.997 60.97 362.607 61.2473 362.139 61.438C361.68 61.6287 361.164 61.724 360.592 61.724C359.864 61.724 359.218 61.5767 358.655 61.282C358.092 60.9787 357.654 60.5583 357.342 60.021C357.039 59.4837 356.887 58.877 356.887 58.201C356.887 57.5337 357.034 56.9313 357.329 56.394C357.632 55.8567 358.044 55.4407 358.564 55.146C359.093 54.8427 359.686 54.691 360.345 54.691C361.004 54.691 361.589 54.8427 362.1 55.146C362.62 55.4407 363.023 55.8567 363.309 56.394C363.604 56.9313 363.751 57.5467 363.751 58.24ZM360.345 55.744C359.747 55.744 359.244 55.926 358.837 56.29C358.438 56.654 358.204 57.1307 358.135 57.72H362.555C362.486 57.1393 362.247 56.667 361.84 56.303C361.441 55.9303 360.943 55.744 360.345 55.744Z" fill="#20102C"/>
<path d="M368.487 61.724C367.785 61.724 367.157 61.5723 366.602 61.269C366.056 60.9657 365.627 60.5497 365.315 60.021C365.003 59.4837 364.847 58.877 364.847 58.201C364.847 57.525 365.003 56.9227 365.315 56.394C365.627 55.8567 366.056 55.4407 366.602 55.146C367.157 54.8427 367.785 54.691 368.487 54.691C369.111 54.691 369.666 54.8167 370.151 55.068C370.645 55.3193 371.026 55.6833 371.295 56.16L370.346 56.771C370.129 56.4417 369.861 56.1947 369.54 56.03C369.219 55.8653 368.864 55.783 368.474 55.783C368.023 55.783 367.616 55.8827 367.252 56.082C366.897 56.2813 366.615 56.5673 366.407 56.94C366.208 57.304 366.108 57.7243 366.108 58.201C366.108 58.6863 366.208 59.1153 366.407 59.488C366.615 59.852 366.897 60.1337 367.252 60.333C367.616 60.5323 368.023 60.632 368.474 60.632C368.864 60.632 369.219 60.5497 369.54 60.385C369.861 60.2203 370.129 59.9733 370.346 59.644L371.295 60.242C371.026 60.7187 370.645 61.087 370.151 61.347C369.666 61.5983 369.111 61.724 368.487 61.724Z" fill="#20102C"/>
<path d="M376.874 61.243C376.692 61.399 376.466 61.5203 376.198 61.607C375.929 61.685 375.652 61.724 375.366 61.724C374.672 61.724 374.135 61.5377 373.754 61.165C373.372 60.7923 373.182 60.2593 373.182 59.566V55.783H372.012V54.756H373.182V53.248H374.43V54.756H376.406V55.783H374.43V59.514C374.43 59.8867 374.521 60.1727 374.703 60.372C374.893 60.5713 375.162 60.671 375.509 60.671C375.89 60.671 376.215 60.5627 376.484 60.346L376.874 61.243Z" fill="#20102C"/>
<path d="M384.381 58.24C384.381 58.3353 384.372 58.461 384.355 58.617H378.765C378.843 59.2237 379.107 59.7133 379.558 60.086C380.017 60.45 380.585 60.632 381.261 60.632C382.084 60.632 382.747 60.3547 383.25 59.8L383.939 60.606C383.627 60.97 383.237 61.2473 382.769 61.438C382.309 61.6287 381.794 61.724 381.222 61.724C380.494 61.724 379.848 61.5767 379.285 61.282C378.721 60.9787 378.284 60.5583 377.972 60.021C377.668 59.4837 377.517 58.877 377.517 58.201C377.517 57.5337 377.664 56.9313 377.959 56.394C378.262 55.8567 378.674 55.4407 379.194 55.146C379.722 54.8427 380.316 54.691 380.975 54.691C381.633 54.691 382.218 54.8427 382.73 55.146C383.25 55.4407 383.653 55.8567 383.939 56.394C384.233 56.9313 384.381 57.5467 384.381 58.24ZM380.975 55.744C380.377 55.744 379.874 55.926 379.467 56.29C379.068 56.654 378.834 57.1307 378.765 57.72H383.185C383.115 57.1393 382.877 56.667 382.47 56.303C382.071 55.9303 381.573 55.744 380.975 55.744Z" fill="#20102C"/>
<path d="M392.614 52V61.646H391.418V60.554C391.14 60.9353 390.789 61.2257 390.365 61.425C389.94 61.6243 389.472 61.724 388.961 61.724C388.293 61.724 387.695 61.5767 387.167 61.282C386.638 60.9873 386.222 60.5757 385.919 60.047C385.624 59.5097 385.477 58.8943 385.477 58.201C385.477 57.5077 385.624 56.8967 385.919 56.368C386.222 55.8393 386.638 55.4277 387.167 55.133C387.695 54.8383 388.293 54.691 388.961 54.691C389.455 54.691 389.91 54.7863 390.326 54.977C390.742 55.159 391.088 55.432 391.366 55.796V52H392.614ZM389.065 60.632C389.498 60.632 389.892 60.5323 390.248 60.333C390.603 60.125 390.88 59.839 391.08 59.475C391.279 59.1023 391.379 58.6777 391.379 58.201C391.379 57.7243 391.279 57.304 391.08 56.94C390.88 56.5673 390.603 56.2813 390.248 56.082C389.892 55.8827 389.498 55.783 389.065 55.783C388.623 55.783 388.224 55.8827 387.869 56.082C387.522 56.2813 387.245 56.5673 387.037 56.94C386.837 57.304 386.738 57.7243 386.738 58.201C386.738 58.6777 386.837 59.1023 387.037 59.475C387.245 59.839 387.522 60.125 387.869 60.333C388.224 60.5323 388.623 60.632 389.065 60.632Z" fill="#20102C"/>
</g>
<defs>
<clipPath id="clip0_1625_376">
<rect width="418" height="89" fill="white"/>
</clipPath>
</defs>
</svg>
