<svg xmlns="http://www.w3.org/2000/svg" width="324" height="216" viewBox="0 0 324 216" fill="none"><rect y="151" width="196" height="65" rx="10.349" fill="white"></rect><path d="M49.0917 201.489V202.387H43.85V195.164H48.9473V196.062H44.8818V198.28H48.5036V199.157H44.8818V201.489H49.0917ZM53.9847 202.387L52.406 200.292L50.8067 202.387H49.7026L51.8592 199.591L49.8058 196.918H50.9099L52.4163 198.889L53.9125 196.918H54.9959L52.9323 199.591L55.1095 202.387H53.9847ZM59.0899 196.867C59.6195 196.867 60.0942 196.984 60.5138 197.217C60.9334 197.451 61.2602 197.778 61.494 198.198C61.7348 198.617 61.8552 199.102 61.8552 199.653C61.8552 200.203 61.7348 200.691 61.494 201.118C61.2602 201.537 60.9334 201.864 60.5138 202.098C60.0942 202.332 59.6195 202.449 59.0899 202.449C58.6978 202.449 58.3366 202.373 58.0064 202.222C57.6831 202.071 57.408 201.85 57.181 201.561V204.389H56.1904V196.918H57.1397V197.785C57.3598 197.482 57.6384 197.255 57.9755 197.104C58.3125 196.946 58.684 196.867 59.0899 196.867ZM59.0073 201.582C59.3581 201.582 59.6711 201.503 59.9463 201.345C60.2283 201.18 60.4484 200.953 60.6067 200.664C60.7718 200.368 60.8543 200.031 60.8543 199.653C60.8543 199.274 60.7718 198.941 60.6067 198.652C60.4484 198.356 60.2283 198.129 59.9463 197.971C59.6711 197.812 59.3581 197.733 59.0073 197.733C58.6634 197.733 58.3504 197.816 58.0683 197.981C57.7932 198.139 57.5731 198.363 57.408 198.652C57.2497 198.941 57.1706 199.274 57.1706 199.653C57.1706 200.031 57.2497 200.368 57.408 200.664C57.5662 200.953 57.7863 201.18 58.0683 201.345C58.3504 201.503 58.6634 201.582 59.0073 201.582ZM66.2987 202.067C66.1543 202.191 65.9754 202.287 65.7622 202.356C65.5489 202.418 65.3288 202.449 65.1018 202.449C64.5515 202.449 64.125 202.301 63.8223 202.005C63.5196 201.709 63.3683 201.286 63.3683 200.736V197.733H62.4396V196.918H63.3683V195.721H64.3589V196.918H65.9273V197.733H64.3589V200.695C64.3589 200.991 64.4311 201.218 64.5755 201.376C64.7269 201.534 64.9401 201.613 65.2153 201.613C65.518 201.613 65.7759 201.527 65.9892 201.355L66.2987 202.067ZM72.2574 199.684C72.2574 199.759 72.2506 199.859 72.2368 199.983H67.7999C67.8618 200.464 68.0716 200.853 68.4293 201.149C68.7939 201.438 69.2445 201.582 69.781 201.582C70.4345 201.582 70.9608 201.362 71.3597 200.922L71.9066 201.561C71.659 201.85 71.3494 202.071 70.978 202.222C70.6134 202.373 70.2041 202.449 69.7501 202.449C69.1722 202.449 68.6597 202.332 68.2126 202.098C67.7655 201.857 67.4181 201.524 67.1705 201.097C66.9297 200.671 66.8093 200.189 66.8093 199.653C66.8093 199.123 66.9263 198.645 67.1601 198.218C67.4009 197.792 67.7277 197.462 68.1404 197.228C68.56 196.987 69.0312 196.867 69.554 196.867C70.0768 196.867 70.5411 196.987 70.947 197.228C71.3597 197.462 71.6796 197.792 71.9066 198.218C72.1405 198.645 72.2574 199.133 72.2574 199.684ZM69.554 197.702C69.0794 197.702 68.6804 197.847 68.3571 198.136C68.0406 198.425 67.8549 198.803 67.7999 199.271H71.3081C71.2531 198.81 71.0639 198.435 70.7406 198.146C70.4242 197.85 70.0287 197.702 69.554 197.702ZM76.0165 202.449C75.4593 202.449 74.9606 202.328 74.5203 202.088C74.0869 201.847 73.7464 201.517 73.4988 201.097C73.2511 200.671 73.1273 200.189 73.1273 199.653C73.1273 199.116 73.2511 198.638 73.4988 198.218C73.7464 197.792 74.0869 197.462 74.5203 197.228C74.9606 196.987 75.4593 196.867 76.0165 196.867C76.5118 196.867 76.952 196.966 77.3372 197.166C77.7293 197.365 78.032 197.654 78.2453 198.033L77.492 198.518C77.32 198.256 77.1068 198.06 76.8523 197.929C76.5977 197.799 76.3157 197.733 76.0062 197.733C75.6485 197.733 75.3251 197.812 75.0362 197.971C74.7542 198.129 74.5306 198.356 74.3655 198.652C74.2073 198.941 74.1282 199.274 74.1282 199.653C74.1282 200.038 74.2073 200.378 74.3655 200.674C74.5306 200.963 74.7542 201.187 75.0362 201.345C75.3251 201.503 75.6485 201.582 76.0062 201.582C76.3157 201.582 76.5977 201.517 76.8523 201.386C77.1068 201.255 77.32 201.059 77.492 200.798L78.2453 201.273C78.032 201.651 77.7293 201.943 77.3372 202.15C76.952 202.349 76.5118 202.449 76.0165 202.449ZM82.6731 202.067C82.5287 202.191 82.3498 202.287 82.1366 202.356C81.9233 202.418 81.7032 202.449 81.4762 202.449C80.9259 202.449 80.4994 202.301 80.1967 202.005C79.894 201.709 79.7427 201.286 79.7427 200.736V197.733H78.8141V196.918H79.7427V195.721H80.7333V196.918H82.3017V197.733H80.7333V200.695C80.7333 200.991 80.8055 201.218 80.95 201.376C81.1013 201.534 81.3145 201.613 81.5897 201.613C81.8924 201.613 82.1503 201.527 82.3636 201.355L82.6731 202.067ZM88.6319 199.684C88.6319 199.759 88.625 199.859 88.6112 199.983H84.1743C84.2362 200.464 84.446 200.853 84.8037 201.149C85.1683 201.438 85.6189 201.582 86.1554 201.582C86.8089 201.582 87.3352 201.362 87.7342 200.922L88.281 201.561C88.0334 201.85 87.7238 202.071 87.3524 202.222C86.9878 202.373 86.5785 202.449 86.1245 202.449C85.5467 202.449 85.0342 202.332 84.587 202.098C84.1399 201.857 83.7925 201.524 83.5449 201.097C83.3041 200.671 83.1837 200.189 83.1837 199.653C83.1837 199.123 83.3007 198.645 83.5346 198.218C83.7753 197.792 84.1021 197.462 84.5148 197.228C84.9344 196.987 85.4056 196.867 85.9284 196.867C86.4512 196.867 86.9156 196.987 87.3214 197.228C87.7342 197.462 88.054 197.792 88.281 198.218C88.5149 198.645 88.6319 199.133 88.6319 199.684ZM85.9284 197.702C85.4538 197.702 85.0548 197.847 84.7315 198.136C84.4151 198.425 84.2293 198.803 84.1743 199.271H87.6826C87.6275 198.81 87.4384 198.435 87.1151 198.146C86.7986 197.85 86.4031 197.702 85.9284 197.702ZM95.1666 194.731V202.387H94.2173V201.52C93.9971 201.823 93.7185 202.053 93.3815 202.212C93.0444 202.37 92.6729 202.449 92.2671 202.449C91.7374 202.449 91.2628 202.332 90.8431 202.098C90.4235 201.864 90.0933 201.537 89.8526 201.118C89.6187 200.691 89.5018 200.203 89.5018 199.653C89.5018 199.102 89.6187 198.617 89.8526 198.198C90.0933 197.778 90.4235 197.451 90.8431 197.217C91.2628 196.984 91.7374 196.867 92.2671 196.867C92.6592 196.867 93.0203 196.942 93.3505 197.094C93.6807 197.238 93.9559 197.455 94.176 197.744V194.731H95.1666ZM92.3496 201.582C92.6936 201.582 93.0066 201.503 93.2886 201.345C93.5706 201.18 93.7908 200.953 93.949 200.664C94.1072 200.368 94.1863 200.031 94.1863 199.653C94.1863 199.274 94.1072 198.941 93.949 198.652C93.7908 198.356 93.5706 198.129 93.2886 197.971C93.0066 197.812 92.6936 197.733 92.3496 197.733C91.9988 197.733 91.6824 197.812 91.4003 197.971C91.1252 198.129 90.9051 198.356 90.74 198.652C90.5817 198.941 90.5026 199.274 90.5026 199.653C90.5026 200.031 90.5817 200.368 90.74 200.664C90.9051 200.953 91.1252 201.18 91.4003 201.345C91.6824 201.503 91.9988 201.582 92.3496 201.582ZM106.168 195.164V202.387H105.322L100.988 197.001V202.387H99.9563V195.164H100.802L105.136 200.55V195.164H106.168ZM113.128 199.684C113.128 199.759 113.121 199.859 113.107 199.983H108.67C108.732 200.464 108.942 200.853 109.3 201.149C109.664 201.438 110.115 201.582 110.652 201.582C111.305 201.582 111.831 201.362 112.23 200.922L112.777 201.561C112.53 201.85 112.22 202.071 111.849 202.222C111.484 202.373 111.075 202.449 110.621 202.449C110.043 202.449 109.53 202.332 109.083 202.098C108.636 201.857 108.289 201.524 108.041 201.097C107.8 200.671 107.68 200.189 107.68 199.653C107.68 199.123 107.797 198.645 108.031 198.218C108.271 197.792 108.598 197.462 109.011 197.228C109.431 196.987 109.902 196.867 110.425 196.867C110.947 196.867 111.412 196.987 111.818 197.228C112.23 197.462 112.55 197.792 112.777 198.218C113.011 198.645 113.128 199.133 113.128 199.684ZM110.425 197.702C109.95 197.702 109.551 197.847 109.228 198.136C108.911 198.425 108.725 198.803 108.67 199.271H112.179C112.124 198.81 111.935 198.435 111.611 198.146C111.295 197.85 110.899 197.702 110.425 197.702ZM117.84 202.387L116.261 200.292L114.662 202.387H113.558L115.714 199.591L113.661 196.918H114.765L116.272 198.889L117.768 196.918H118.851L116.787 199.591L118.965 202.387H117.84ZM123.12 202.067C122.976 202.191 122.797 202.287 122.584 202.356C122.371 202.418 122.151 202.449 121.924 202.449C121.373 202.449 120.947 202.301 120.644 202.005C120.341 201.709 120.19 201.286 120.19 200.736V197.733H119.261V196.918H120.19V195.721H121.181V196.918H122.749V197.733H121.181V200.695C121.181 200.991 121.253 201.218 121.397 201.376C121.549 201.534 121.762 201.613 122.037 201.613C122.34 201.613 122.598 201.527 122.811 201.355L123.12 202.067ZM133.93 202.387L133.92 197.125L131.309 201.51H130.835L128.224 197.156V202.387H127.234V195.164H128.08L131.093 200.241L134.064 195.164H134.91L134.921 202.387H133.93ZM139.286 202.449C138.743 202.449 138.254 202.328 137.821 202.088C137.388 201.847 137.047 201.517 136.8 201.097C136.559 200.671 136.438 200.189 136.438 199.653C136.438 199.116 136.559 198.638 136.8 198.218C137.047 197.792 137.388 197.462 137.821 197.228C138.254 196.987 138.743 196.867 139.286 196.867C139.83 196.867 140.315 196.987 140.741 197.228C141.175 197.462 141.512 197.792 141.752 198.218C142 198.638 142.124 199.116 142.124 199.653C142.124 200.189 142 200.671 141.752 201.097C141.512 201.517 141.175 201.847 140.741 202.088C140.315 202.328 139.83 202.449 139.286 202.449ZM139.286 201.582C139.637 201.582 139.95 201.503 140.225 201.345C140.507 201.18 140.727 200.953 140.886 200.664C141.044 200.368 141.123 200.031 141.123 199.653C141.123 199.274 141.044 198.941 140.886 198.652C140.727 198.356 140.507 198.129 140.225 197.971C139.95 197.812 139.637 197.733 139.286 197.733C138.935 197.733 138.619 197.812 138.337 197.971C138.062 198.129 137.842 198.356 137.677 198.652C137.518 198.941 137.439 199.274 137.439 199.653C137.439 200.031 137.518 200.368 137.677 200.664C137.842 200.953 138.062 201.18 138.337 201.345C138.619 201.503 138.935 201.582 139.286 201.582ZM146.414 196.867C147.109 196.867 147.659 197.07 148.065 197.475C148.478 197.874 148.684 198.463 148.684 199.24V202.387H147.693V199.353C147.693 198.824 147.566 198.425 147.312 198.156C147.057 197.888 146.692 197.754 146.218 197.754C145.681 197.754 145.258 197.912 144.949 198.229C144.639 198.538 144.484 198.985 144.484 199.57V202.387H143.494V196.918H144.443V197.744C144.643 197.462 144.911 197.245 145.248 197.094C145.592 196.942 145.981 196.867 146.414 196.867ZM153.592 202.067C153.448 202.191 153.269 202.287 153.055 202.356C152.842 202.418 152.622 202.449 152.395 202.449C151.845 202.449 151.418 202.301 151.116 202.005C150.813 201.709 150.662 201.286 150.662 200.736V197.733H149.733V196.918H150.662V195.721H151.652V196.918H153.221V197.733H151.652V200.695C151.652 200.991 151.724 201.218 151.869 201.376C152.02 201.534 152.233 201.613 152.509 201.613C152.811 201.613 153.069 201.527 153.282 201.355L153.592 202.067ZM157.71 196.867C158.404 196.867 158.955 197.07 159.361 197.475C159.773 197.874 159.98 198.463 159.98 199.24V202.387H158.989V199.353C158.989 198.824 158.862 198.425 158.607 198.156C158.353 197.888 157.988 197.754 157.514 197.754C156.977 197.754 156.554 197.912 156.245 198.229C155.935 198.538 155.78 198.985 155.78 199.57V202.387H154.79V194.731H155.78V197.692C155.987 197.431 156.255 197.228 156.585 197.083C156.922 196.939 157.297 196.867 157.71 196.867Z" fill="#312C33"></path><path d="M47.6931 172.406C46.487 172.118 45.5432 171.41 45.5432 170.047C45.5432 168.657 46.4084 167.845 47.6931 167.74V172.406ZM48.9515 167.766C49.5283 167.897 50.2099 168.421 50.8654 170.204C51.0227 170.676 51.2849 170.886 51.8354 170.886C52.3073 170.886 53.7493 170.571 53.7493 169.313C53.7493 168.29 52.2287 166.665 48.9515 166.586V164.594H47.6931V166.586C44.8091 166.691 42.3971 168.316 42.3971 171.436C42.3971 174.714 44.9402 175.526 47.6931 176.523V181.871C47.2736 181.766 46.2249 181.294 45.3597 178.987C45.1237 178.41 44.8353 178.148 44.2061 178.148C43.5507 178.148 42.3447 178.908 42.3447 180.01C42.3447 180.849 43.5245 182.893 47.6931 183.051V185.358H48.9515V183.051C51.3897 183.051 54.4572 181.583 54.4572 178.096C54.4572 174.635 51.9403 173.953 48.9515 172.878V167.766ZM48.9515 176.916C50.1837 177.414 51.1538 178.148 51.1538 179.616C51.1538 180.927 50.2624 181.871 48.9515 181.871V176.916ZM66.786 169.863L67.9134 166.586L67.5725 166.35C66.9433 166.639 65.9995 166.586 63.3777 166.586H58.108L57.9507 166.796L57.1642 175.369L58.1866 176.129C59.1829 175.054 60.2578 174.687 61.2017 174.687C62.9058 174.687 63.9021 175.815 63.9021 178.201C63.9021 180.665 63.4039 182.186 61.9882 182.186C60.9919 182.186 60.4151 181.556 59.681 179.302C59.4713 178.725 59.1567 178.305 58.3964 178.305C57.5836 178.305 56.4301 179.039 56.4301 180.167C56.4301 181.006 57.3739 183.339 62.0144 183.339C66.55 183.339 68.2804 180.717 68.2804 177.729C68.2804 175.684 67.5725 172.826 62.9582 172.826C61.2803 172.826 59.6548 173.691 58.6586 174.32L58.6323 174.294L59.1043 170.597C59.2091 169.758 59.2878 169.863 59.9957 169.863H66.786ZM72.4818 174.215C72.4818 174.818 72.7702 175.29 73.3207 175.29C73.8451 175.29 74.6054 174.923 75.5755 174.923C76.6766 174.923 77.7515 175.317 77.7515 178.463C77.7515 180.691 77.2534 182.186 75.7852 182.186C74.7627 182.186 73.9762 181.425 73.2421 179.066C73.111 178.62 72.7177 178.201 72.141 178.201C71.1971 178.201 69.9387 178.987 69.9387 180.141C69.9387 181.084 71.0922 183.339 75.7852 183.339C79.8227 183.339 82.2085 181.399 82.2085 178.279C82.2085 174.74 78.6953 174.268 77.8302 174.137V173.927C79.1673 173.586 81.5268 173.088 81.5268 170.414C81.5268 166.953 78.3807 166.298 75.8638 166.298C73.0061 166.298 70.4892 167.635 70.4892 169.601C70.4892 170.755 71.905 171.2 72.5342 171.2C73.0848 171.2 73.4256 170.886 73.6091 170.309C74.1335 168.448 74.5005 167.451 75.6279 167.451C77.0699 167.451 77.2534 169.339 77.2534 170.309C77.2534 171.122 77.332 173.56 75.5755 173.56C74.6841 173.56 73.8713 173.193 73.3207 173.193C72.7702 173.193 72.4818 173.639 72.4818 174.215ZM90.9979 166.298C87.8518 166.298 85.9642 167.582 84.9417 169.68C84.1289 171.384 83.893 173.35 83.893 174.923C83.893 180.167 85.466 183.339 90.2901 183.339C94.8257 183.339 96.5823 180.508 96.5823 177.414C96.5823 173.953 94.4062 172.564 91.8369 172.564C90.4998 172.564 89.1627 173.114 88.0878 174.189H88.0354C88.0878 172.406 88.114 167.451 90.5785 167.451C91.601 167.451 92.335 168.395 92.9118 169.916C93.0691 170.361 93.3575 170.702 94.013 170.702C94.6946 170.702 95.8744 170.204 95.8744 169.155C95.8744 167.871 94.4062 166.298 90.9979 166.298ZM90.0279 174.609C91.3912 174.609 92.4137 175.474 92.4137 178.227C92.4137 180.377 92.0204 182.186 90.3949 182.186C88.6646 182.186 88.0091 179.931 88.0091 177.283C88.0091 175.841 88.6121 174.609 90.0279 174.609ZM97.7162 186.774L98.6076 187.455C100.757 185.463 102.724 182.71 102.724 180.455C102.724 179.852 102.304 178.908 101.832 178.436C101.046 178.358 98.7649 179.171 98.3716 179.538C98.6863 180.088 99.0795 181.163 99.0795 181.661C99.0795 183.706 98.66 185.253 97.7162 186.774ZM110.999 175.028C112.494 175.028 113.097 176.523 113.097 178.489C113.097 180.717 112.494 182.186 111.026 182.186C109.557 182.186 108.981 180.744 108.981 178.515C108.981 176.549 109.557 175.028 110.999 175.028ZM110.999 183.339C114.198 183.339 117.344 182.238 117.344 178.384C117.344 175.946 115.954 174.976 113.936 174.347V174.242C115.456 173.796 116.82 172.826 116.82 170.729C116.82 167.818 114.617 166.298 111.026 166.298C107.486 166.298 105.231 167.949 105.231 170.781C105.231 172.983 106.569 173.796 108.142 174.215V174.32C106.123 174.976 104.707 176.024 104.707 178.358C104.707 182.212 107.879 183.339 110.999 183.339ZM111.078 173.796C109.924 173.796 109.243 172.826 109.243 170.65C109.243 168.762 109.872 167.451 111.026 167.451C112.284 167.451 112.835 168.736 112.835 170.676C112.808 172.669 112.258 173.796 111.078 173.796ZM125.032 178.646V181.216C125.032 181.74 124.77 181.923 124.429 181.95L122.856 182.081V183.051H130.8V182.081L129.673 181.976C129.28 181.95 129.044 181.74 129.044 181.216V178.646H131.508V177.257H129.044V166.586H125.609C124.823 167.425 119.343 176.156 118.452 177.886L118.976 178.646H125.032ZM120.575 177.257C121.545 175.186 123.485 171.935 125.006 169.391H125.032V177.257H120.575ZM135.133 174.215C135.133 174.818 135.421 175.29 135.972 175.29C136.496 175.29 137.256 174.923 138.226 174.923C139.327 174.923 140.402 175.317 140.402 178.463C140.402 180.691 139.904 182.186 138.436 182.186C137.414 182.186 136.627 181.425 135.893 179.066C135.762 178.62 135.369 178.201 134.792 178.201C133.848 178.201 132.589 178.987 132.589 180.141C132.589 181.084 133.743 183.339 138.436 183.339C142.474 183.339 144.859 181.399 144.859 178.279C144.859 174.74 141.346 174.268 140.481 174.137V173.927C141.818 173.586 144.178 173.088 144.178 170.414C144.178 166.953 141.032 166.298 138.515 166.298C135.657 166.298 133.14 167.635 133.14 169.601C133.14 170.755 134.556 171.2 135.185 171.2C135.736 171.2 136.076 170.886 136.26 170.309C136.784 168.448 137.151 167.451 138.279 167.451C139.721 167.451 139.904 169.339 139.904 170.309C139.904 171.122 139.983 173.56 138.226 173.56C137.335 173.56 136.522 173.193 135.972 173.193C135.421 173.193 135.133 173.639 135.133 174.215Z" fill="#6026DC"></path><rect x="45" width="278.995" height="125.969" rx="12.0257" fill="white"></rect><rect x="106.731" y="67.4438" width="56.1197" height="12.8274" rx="4.00855" fill="#6026DC"></rect><rect x="210.152" y="46.5996" width="85.783" height="12.8274" rx="4.00855" fill="#6026DC"></rect><rect x="224.583" y="88.2881" width="33.6718" height="12.8274" rx="4.00855" fill="#6026DC"></rect><path d="M79.7267 48.7338L77.1003 56.5906H75.9218L73.778 50.3164L71.6342 56.5906H70.4333L67.8069 48.7338H68.9629L71.0843 55.1202L73.2954 48.7338H74.328L76.4942 55.1539L78.6604 48.7338H79.7267ZM84.2833 50.5858C85.0391 50.5858 85.6377 50.8065 86.0792 51.248C86.5281 51.682 86.7526 52.3217 86.7526 53.1673V56.5906H85.6751V53.2907C85.6751 52.7146 85.5367 52.2806 85.2598 51.9888C84.983 51.6969 84.5864 51.551 84.0701 51.551C83.4864 51.551 83.0263 51.7231 82.6895 52.0673C82.3528 52.404 82.1845 52.8904 82.1845 53.5264V56.5906H81.107V48.2624H82.1845V51.4837C82.409 51.1993 82.7008 50.9786 83.0599 50.8215C83.4266 50.6643 83.8344 50.5858 84.2833 50.5858ZM94.1559 53.6499C94.1559 53.7322 94.1484 53.8407 94.1334 53.9754H89.3071C89.3745 54.4992 89.6027 54.9219 89.9918 55.2437C90.3884 55.558 90.8785 55.7151 91.4621 55.7151C92.173 55.7151 92.7454 55.4757 93.1794 54.9968L93.7742 55.6927C93.5049 56.0069 93.1682 56.2464 92.7641 56.411C92.3675 56.5756 91.9223 56.6579 91.4284 56.6579C90.7999 56.6579 90.2424 56.5307 89.7561 56.2763C89.2697 56.0144 88.8918 55.6515 88.6225 55.1876C88.3606 54.7237 88.2296 54.1999 88.2296 53.6162C88.2296 53.0401 88.3568 52.52 88.6112 52.0561C88.8731 51.5922 89.2286 51.233 89.6775 50.9786C90.1339 50.7167 90.6465 50.5858 91.2152 50.5858C91.7839 50.5858 92.2889 50.7167 92.7304 50.9786C93.1794 51.233 93.5273 51.5922 93.7742 52.0561C94.0287 52.52 94.1559 53.0513 94.1559 53.6499ZM91.2152 51.4949C90.6989 51.4949 90.2649 51.652 89.9132 51.9663C89.569 52.2806 89.367 52.6921 89.3071 53.2009H93.1233C93.0634 52.6996 92.8576 52.2918 92.5059 51.9775C92.1617 51.6558 91.7315 51.4949 91.2152 51.4949ZM98.8284 50.5858C99.5842 50.5858 100.183 50.8065 100.624 51.248C101.073 51.682 101.298 52.3217 101.298 53.1673V56.5906H100.22V53.2907C100.22 52.7146 100.082 52.2806 99.8049 51.9888C99.5281 51.6969 99.1315 51.551 98.6152 51.551C98.0315 51.551 97.5714 51.7231 97.2346 52.0673C96.8979 52.404 96.7296 52.8904 96.7296 53.5264V56.5906H95.6521V50.6419H96.6847V51.5398C96.9017 51.233 97.1935 50.9973 97.5601 50.8327C97.9343 50.6681 98.357 50.5858 98.8284 50.5858ZM111.39 54.907H107.743L107.047 56.5906H105.184L108.686 48.7338H110.481L113.994 56.5906H112.086L111.39 54.907ZM110.818 53.5264L109.572 50.5184L108.326 53.5264H110.818ZM117.55 56.6804C116.906 56.6804 116.326 56.5494 115.81 56.2875C115.301 56.0182 114.901 55.6478 114.609 55.1764C114.325 54.705 114.182 54.1699 114.182 53.5713C114.182 52.9727 114.325 52.4377 114.609 51.9663C114.901 51.4949 115.301 51.1283 115.81 50.8664C116.326 50.597 116.906 50.4623 117.55 50.4623C118.186 50.4623 118.739 50.597 119.211 50.8664C119.69 51.1283 120.038 51.5061 120.255 52L118.896 52.7295C118.582 52.1758 118.129 51.899 117.538 51.899C117.082 51.899 116.704 52.0486 116.405 52.3479C116.105 52.6472 115.956 53.055 115.956 53.5713C115.956 54.0876 116.105 54.4954 116.405 54.7947C116.704 55.094 117.082 55.2437 117.538 55.2437C118.137 55.2437 118.59 54.9668 118.896 54.4131L120.255 55.1539C120.038 55.6328 119.69 56.0069 119.211 56.2763C118.739 56.5457 118.186 56.6804 117.55 56.6804ZM124.104 56.6804C123.461 56.6804 122.881 56.5494 122.364 56.2875C121.856 56.0182 121.455 55.6478 121.163 55.1764C120.879 54.705 120.737 54.1699 120.737 53.5713C120.737 52.9727 120.879 52.4377 121.163 51.9663C121.455 51.4949 121.856 51.1283 122.364 50.8664C122.881 50.597 123.461 50.4623 124.104 50.4623C124.74 50.4623 125.294 50.597 125.765 50.8664C126.244 51.1283 126.592 51.5061 126.809 52L125.451 52.7295C125.137 52.1758 124.684 51.899 124.093 51.899C123.636 51.899 123.259 52.0486 122.959 52.3479C122.66 52.6472 122.51 53.055 122.51 53.5713C122.51 54.0876 122.66 54.4954 122.959 54.7947C123.259 55.094 123.636 55.2437 124.093 55.2437C124.692 55.2437 125.144 54.9668 125.451 54.4131L126.809 55.1539C126.592 55.6328 126.244 56.0069 125.765 56.2763C125.294 56.5457 124.74 56.6804 124.104 56.6804ZM130.614 56.6804C129.978 56.6804 129.405 56.5494 128.897 56.2875C128.395 56.0182 128.002 55.6478 127.718 55.1764C127.434 54.705 127.292 54.1699 127.292 53.5713C127.292 52.9727 127.434 52.4377 127.718 51.9663C128.002 51.4949 128.395 51.1283 128.897 50.8664C129.405 50.597 129.978 50.4623 130.614 50.4623C131.25 50.4623 131.819 50.597 132.32 50.8664C132.821 51.1283 133.214 51.4949 133.498 51.9663C133.783 52.4377 133.925 52.9727 133.925 53.5713C133.925 54.1699 133.783 54.705 133.498 55.1764C133.214 55.6478 132.821 56.0182 132.32 56.2875C131.819 56.5494 131.25 56.6804 130.614 56.6804ZM130.614 55.2437C131.063 55.2437 131.429 55.094 131.714 54.7947C132.006 54.488 132.152 54.0802 132.152 53.5713C132.152 53.0625 132.006 52.6585 131.714 52.3591C131.429 52.0524 131.063 51.899 130.614 51.899C130.165 51.899 129.795 52.0524 129.503 52.3591C129.211 52.6585 129.065 53.0625 129.065 53.5713C129.065 54.0802 129.211 54.488 129.503 54.7947C129.795 55.094 130.165 55.2437 130.614 55.2437ZM141.179 50.5521V56.5906H139.518V55.8722C139.286 56.1341 139.009 56.3362 138.687 56.4783C138.365 56.613 138.017 56.6804 137.643 56.6804C136.85 56.6804 136.221 56.4521 135.758 55.9957C135.294 55.5393 135.062 54.8621 135.062 53.9642V50.5521H136.813V53.706C136.813 54.6788 137.22 55.1651 138.036 55.1651C138.455 55.1651 138.792 55.0304 139.046 54.7611C139.301 54.4842 139.428 54.0764 139.428 53.5377V50.5521H141.179ZM146.471 50.4623C147.219 50.4623 147.822 50.6868 148.278 51.1357C148.742 51.5847 148.974 52.2506 148.974 53.1336V56.5906H147.223V53.403C147.223 52.9241 147.118 52.5687 146.909 52.3367C146.699 52.0973 146.396 51.9775 146 51.9775C145.558 51.9775 145.206 52.116 144.945 52.3928C144.683 52.6622 144.552 53.0663 144.552 53.605V56.5906H142.801V50.5521H144.473V51.2592C144.705 51.0048 144.993 50.8102 145.337 50.6756C145.682 50.5334 146.059 50.4623 146.471 50.4623ZM154.456 56.2988C154.284 56.426 154.07 56.5232 153.816 56.5906C153.569 56.6504 153.307 56.6804 153.03 56.6804C152.312 56.6804 151.755 56.497 151.358 56.1304C150.969 55.7637 150.774 55.225 150.774 54.5141V52.0337H149.843V50.6868H150.774V49.2164H152.525V50.6868H154.029V52.0337H152.525V54.4917C152.525 54.7461 152.589 54.9444 152.716 55.0866C152.851 55.2213 153.038 55.2886 153.277 55.2886C153.554 55.2886 153.79 55.2138 153.984 55.0641L154.456 56.2988ZM162.187 50.4623C162.748 50.4623 163.257 50.5932 163.713 50.8551C164.177 51.1095 164.54 51.4725 164.802 51.9439C165.064 52.4078 165.195 52.9503 165.195 53.5713C165.195 54.1924 165.064 54.7386 164.802 55.21C164.54 55.674 164.177 56.0369 163.713 56.2988C163.257 56.5532 162.748 56.6804 162.187 56.6804C161.416 56.6804 160.81 56.4372 160.368 55.9508V58.768H158.617V50.5521H160.29V51.248C160.724 50.7242 161.356 50.4623 162.187 50.4623ZM161.884 55.2437C162.332 55.2437 162.699 55.094 162.983 54.7947C163.275 54.488 163.421 54.0802 163.421 53.5713C163.421 53.0625 163.275 52.6585 162.983 52.3591C162.699 52.0524 162.332 51.899 161.884 51.899C161.435 51.899 161.064 52.0524 160.772 52.3591C160.488 52.6585 160.346 53.0625 160.346 53.5713C160.346 54.0802 160.488 54.488 160.772 54.7947C161.064 55.094 161.435 55.2437 161.884 55.2437ZM166.367 48.2624H168.118V56.5906H166.367V48.2624ZM172.178 50.4623C173.114 50.4623 173.832 50.6868 174.333 51.1357C174.835 51.5772 175.085 52.2469 175.085 53.1448V56.5906H173.447V55.8386C173.117 56.3998 172.504 56.6804 171.606 56.6804C171.142 56.6804 170.738 56.6018 170.394 56.4447C170.057 56.2875 169.799 56.0705 169.619 55.7937C169.44 55.5168 169.35 55.2025 169.35 54.8509C169.35 54.2897 169.559 53.8482 169.978 53.5264C170.405 53.2047 171.06 53.0438 171.943 53.0438H173.334C173.334 52.6622 173.218 52.3704 172.986 52.1683C172.754 51.9588 172.406 51.8541 171.943 51.8541C171.621 51.8541 171.303 51.9064 170.989 52.0112C170.682 52.1085 170.42 52.2432 170.203 52.4153L169.574 51.1919C169.904 50.9599 170.296 50.7803 170.753 50.6531C171.217 50.5259 171.692 50.4623 172.178 50.4623ZM172.044 55.5019C172.343 55.5019 172.609 55.4345 172.84 55.2998C173.072 55.1577 173.237 54.9519 173.334 54.6825V54.0652H172.133C171.415 54.0652 171.056 54.3009 171.056 54.7723C171.056 54.9968 171.142 55.1764 171.314 55.311C171.494 55.4383 171.737 55.5019 172.044 55.5019ZM180.34 50.4623C181.088 50.4623 181.691 50.6868 182.147 51.1357C182.611 51.5847 182.843 52.2506 182.843 53.1336V56.5906H181.092V53.403C181.092 52.9241 180.987 52.5687 180.778 52.3367C180.568 52.0973 180.265 51.9775 179.869 51.9775C179.427 51.9775 179.076 52.116 178.814 52.3928C178.552 52.6622 178.421 53.0663 178.421 53.605V56.5906H176.67V50.5521H178.342V51.2592C178.574 51.0048 178.862 50.8102 179.207 50.6756C179.551 50.5334 179.929 50.4623 180.34 50.4623ZM187.658 50.6419H188.735V56.5906H187.658V50.6419ZM188.196 49.497C187.987 49.497 187.811 49.4297 187.669 49.295C187.534 49.1603 187.467 48.9957 187.467 48.8012C187.467 48.6066 187.534 48.442 187.669 48.3073C187.811 48.1651 187.987 48.094 188.196 48.094C188.406 48.094 188.578 48.1614 188.713 48.2961C188.855 48.4233 188.926 48.5842 188.926 48.7787C188.926 48.9807 188.855 49.1528 188.713 49.295C188.578 49.4297 188.406 49.497 188.196 49.497ZM192.499 56.6579C192.012 56.6579 191.545 56.5943 191.096 56.4671C190.647 56.3324 190.295 56.1641 190.041 55.962L190.49 55.109C190.751 55.2961 191.069 55.4457 191.444 55.558C191.818 55.6702 192.196 55.7263 192.577 55.7263C193.52 55.7263 193.991 55.457 193.991 54.9182C193.991 54.7386 193.928 54.5965 193.801 54.4917C193.673 54.3869 193.512 54.3121 193.318 54.2672C193.131 54.2148 192.861 54.1587 192.51 54.0989C192.031 54.024 191.638 53.938 191.331 53.8407C191.032 53.7434 190.774 53.5788 190.557 53.3469C190.34 53.1149 190.231 52.7894 190.231 52.3704C190.231 51.8316 190.456 51.4014 190.905 51.0796C191.354 50.7504 191.956 50.5858 192.712 50.5858C193.108 50.5858 193.505 50.6344 193.902 50.7317C194.298 50.829 194.624 50.9599 194.878 51.1245L194.418 51.9775C193.932 51.6633 193.359 51.5061 192.701 51.5061C192.244 51.5061 191.896 51.581 191.657 51.7306C191.417 51.8803 191.298 52.0785 191.298 52.3255C191.298 52.52 191.365 52.6734 191.5 52.7857C191.634 52.8979 191.799 52.9802 191.994 53.0326C192.196 53.085 192.476 53.1448 192.835 53.2122C193.314 53.2945 193.7 53.3843 193.991 53.4815C194.291 53.5713 194.545 53.7285 194.755 53.9529C194.964 54.1774 195.069 54.4917 195.069 54.8958C195.069 55.4345 194.837 55.8648 194.373 56.1865C193.917 56.5008 193.292 56.6579 192.499 56.6579ZM199.43 50.6419H200.507V56.5906H199.43V50.6419ZM199.968 49.497C199.759 49.497 199.583 49.4297 199.441 49.295C199.306 49.1603 199.239 48.9957 199.239 48.8012C199.239 48.6066 199.306 48.442 199.441 48.3073C199.583 48.1651 199.759 48.094 199.968 48.094C200.178 48.094 200.35 48.1614 200.485 48.2961C200.627 48.4233 200.698 48.5842 200.698 48.7787C200.698 48.9807 200.627 49.1528 200.485 49.295C200.35 49.4297 200.178 49.497 199.968 49.497ZM205.741 50.5858C206.497 50.5858 207.095 50.8065 207.537 51.248C207.986 51.682 208.21 52.3217 208.21 53.1673V56.5906H207.133V53.2907C207.133 52.7146 206.994 52.2806 206.717 51.9888C206.441 51.6969 206.044 51.551 205.528 51.551C204.944 51.551 204.484 51.7231 204.147 52.0673C203.81 52.404 203.642 52.8904 203.642 53.5264V56.5906H202.565V50.6419H203.597V51.5398C203.814 51.233 204.106 50.9973 204.473 50.8327C204.847 50.6681 205.27 50.5858 205.741 50.5858ZM296.67 55.1202C296.88 55.1202 297.052 55.1951 297.186 55.3447C297.329 55.4869 297.4 55.6665 297.4 55.8835C297.4 55.9957 297.385 56.1042 297.355 56.209C297.332 56.3137 297.284 56.4746 297.209 56.6916L296.681 58.2517H295.974L296.389 56.5794C296.247 56.527 296.131 56.4409 296.042 56.3212C295.959 56.194 295.918 56.0481 295.918 55.8835C295.918 55.659 295.989 55.4757 296.131 55.3335C296.273 55.1913 296.453 55.1202 296.67 55.1202ZM77.4707 71.6419L75.2483 77.5906H74.2157L72.4985 73.0785L70.7588 77.5906H69.7262L67.515 71.6419H68.5364L70.2649 76.3784L72.0607 71.6419H72.9699L74.732 76.4008L76.5054 71.6419H77.4707ZM83.7759 74.6499C83.7759 74.7322 83.7684 74.8407 83.7535 74.9754H78.9272C78.9945 75.4992 79.2227 75.9219 79.6118 76.2437C80.0084 76.558 80.4985 76.7151 81.0822 76.7151C81.793 76.7151 82.3654 76.4757 82.7994 75.9968L83.3943 76.6927C83.1249 77.0069 82.7882 77.2464 82.3841 77.411C81.9876 77.5756 81.5423 77.6579 81.0485 77.6579C80.4199 77.6579 79.8625 77.5307 79.3761 77.2763C78.8897 77.0144 78.5119 76.6515 78.2425 76.1876C77.9806 75.7237 77.8497 75.1999 77.8497 74.6162C77.8497 74.0401 77.9769 73.52 78.2313 73.0561C78.4932 72.5922 78.8486 72.233 79.2975 71.9786C79.754 71.7167 80.2666 71.5858 80.8352 71.5858C81.4039 71.5858 81.909 71.7167 82.3505 71.9786C82.7994 72.233 83.1474 72.5922 83.3943 73.0561C83.6487 73.52 83.7759 74.0513 83.7759 74.6499ZM80.8352 72.4949C80.3189 72.4949 79.8849 72.652 79.5333 72.9663C79.1891 73.2806 78.987 73.6921 78.9272 74.2009H82.7433C82.6834 73.6996 82.4777 73.2918 82.126 72.9775C81.7818 72.6558 81.3515 72.4949 80.8352 72.4949ZM89.9924 77.6579C89.506 77.6579 89.0384 77.5943 88.5894 77.4671C88.1404 77.3324 87.7888 77.1641 87.5343 76.962L87.9833 76.109C88.2452 76.2961 88.5632 76.4457 88.9373 76.558C89.3115 76.6702 89.6893 76.7263 90.071 76.7263C91.0138 76.7263 91.4852 76.457 91.4852 75.9182C91.4852 75.7386 91.4216 75.5965 91.2944 75.4917C91.1672 75.3869 91.0063 75.3121 90.8117 75.2672C90.6247 75.2148 90.3553 75.1587 90.0036 75.0989C89.5247 75.024 89.1319 74.938 88.8251 74.8407C88.5258 74.7434 88.2676 74.5788 88.0506 74.3469C87.8337 74.1149 87.7252 73.7894 87.7252 73.3704C87.7252 72.8316 87.9496 72.4014 88.3986 72.0796C88.8475 71.7504 89.4499 71.5858 90.2056 71.5858C90.6022 71.5858 90.9988 71.6344 91.3954 71.7317C91.792 71.829 92.1175 71.9599 92.3719 72.1245L91.9117 72.9775C91.4253 72.6633 90.8529 72.5061 90.1944 72.5061C89.738 72.5061 89.39 72.581 89.1506 72.7306C88.9112 72.8803 88.7914 73.0785 88.7914 73.3255C88.7914 73.52 88.8588 73.6734 88.9935 73.7857C89.1281 73.8979 89.2928 73.9802 89.4873 74.0326C89.6893 74.085 89.9699 74.1448 90.3291 74.2122C90.808 74.2945 91.1934 74.3843 91.4852 74.4815C91.7845 74.5713 92.0389 74.7285 92.2484 74.9529C92.4579 75.1774 92.5627 75.4917 92.5627 75.8958C92.5627 76.4345 92.3307 76.8648 91.8668 77.1865C91.4104 77.5008 90.7856 77.6579 89.9924 77.6579ZM99.2856 74.6499C99.2856 74.7322 99.2781 74.8407 99.2631 74.9754H94.4368C94.5042 75.4992 94.7324 75.9219 95.1215 76.2437C95.5181 76.558 96.0082 76.7151 96.5918 76.7151C97.3027 76.7151 97.8751 76.4757 98.3091 75.9968L98.9039 76.6927C98.6346 77.0069 98.2978 77.2464 97.8938 77.411C97.4972 77.5756 97.052 77.6579 96.5581 77.6579C95.9296 77.6579 95.3721 77.5307 94.8858 77.2763C94.3994 77.0144 94.0215 76.6515 93.7522 76.1876C93.4903 75.7237 93.3593 75.1999 93.3593 74.6162C93.3593 74.0401 93.4865 73.52 93.7409 73.0561C94.0028 72.5922 94.3582 72.233 94.8072 71.9786C95.2636 71.7167 95.7762 71.5858 96.3449 71.5858C96.9136 71.5858 97.4186 71.7167 97.8601 71.9786C98.3091 72.233 98.657 72.5922 98.9039 73.0561C99.1584 73.52 99.2856 74.0513 99.2856 74.6499ZM96.3449 72.4949C95.8286 72.4949 95.3946 72.652 95.0429 72.9663C94.6987 73.2806 94.4967 73.6921 94.4368 74.2009H98.253C98.1931 73.6996 97.9873 73.2918 97.6356 72.9775C97.2914 72.6558 96.8612 72.4949 96.3449 72.4949ZM106.158 74.6499C106.158 74.7322 106.151 74.8407 106.136 74.9754H101.309C101.377 75.4992 101.605 75.9219 101.994 76.2437C102.391 76.558 102.881 76.7151 103.464 76.7151C104.175 76.7151 104.748 76.4757 105.182 75.9968L105.776 76.6927C105.507 77.0069 105.17 77.2464 104.766 77.411C104.37 77.5756 103.924 77.6579 103.431 77.6579C102.802 77.6579 102.245 77.5307 101.758 77.2763C101.272 77.0144 100.894 76.6515 100.625 76.1876C100.363 75.7237 100.232 75.1999 100.232 74.6162C100.232 74.0401 100.359 73.52 100.613 73.0561C100.875 72.5922 101.231 72.233 101.68 71.9786C102.136 71.7167 102.649 71.5858 103.217 71.5858C103.786 71.5858 104.291 71.7167 104.733 71.9786C105.182 72.233 105.529 72.5922 105.776 73.0561C106.031 73.52 106.158 74.0513 106.158 74.6499ZM103.217 72.4949C102.701 72.4949 102.267 72.652 101.915 72.9663C101.571 73.2806 101.369 73.6921 101.309 74.2009H105.125C105.066 73.6996 104.86 73.2918 104.508 72.9775C104.164 72.6558 103.734 72.4949 103.217 72.4949ZM169.078 75.907H165.43L164.734 77.5906H162.871L166.373 69.7338H168.168L171.682 77.5906H169.774L169.078 75.907ZM168.505 74.5264L167.259 71.5184L166.013 74.5264H168.505ZM178.049 71.5521L175.501 77.5906H173.694L171.157 71.5521H172.965L174.637 75.6601L176.365 71.5521H178.049ZM184.828 71.5521V76.5804C184.828 77.6879 184.54 78.5109 183.964 79.0497C183.388 79.5884 182.546 79.8578 181.439 79.8578C180.855 79.8578 180.301 79.7867 179.778 79.6446C179.254 79.5024 178.82 79.2966 178.476 79.0272L179.171 77.7702C179.426 77.9797 179.748 78.1443 180.137 78.264C180.526 78.3912 180.915 78.4548 181.304 78.4548C181.91 78.4548 182.355 78.3164 182.64 78.0395C182.931 77.7702 183.077 77.3586 183.077 76.8049V76.5467C182.621 77.0481 181.985 77.2988 181.169 77.2988C180.616 77.2988 180.107 77.179 179.643 76.9396C179.186 76.6927 178.824 76.3485 178.554 75.907C178.285 75.4655 178.15 74.9567 178.15 74.3805C178.15 73.8044 178.285 73.2955 178.554 72.8541C178.824 72.4126 179.186 72.0721 179.643 71.8327C180.107 71.5858 180.616 71.4623 181.169 71.4623C182.045 71.4623 182.711 71.7504 183.167 72.3265V71.5521H184.828ZM181.517 75.8621C181.981 75.8621 182.359 75.7274 182.651 75.458C182.95 75.1812 183.1 74.822 183.1 74.3805C183.1 73.9391 182.95 73.5836 182.651 73.3143C182.359 73.0374 181.981 72.899 181.517 72.899C181.053 72.899 180.672 73.0374 180.372 73.3143C180.073 73.5836 179.923 73.9391 179.923 74.3805C179.923 74.822 180.073 75.1812 180.372 75.458C180.672 75.7274 181.053 75.8621 181.517 75.8621ZM193.52 77.7253C192.72 77.7253 191.994 77.5532 191.343 77.209C190.699 76.8573 190.19 76.3746 189.816 75.7611C189.45 75.14 189.266 74.4404 189.266 73.6622C189.266 72.884 189.45 72.1881 189.816 71.5745C190.19 70.9535 190.699 70.4709 191.343 70.1267C191.994 69.775 192.723 69.5991 193.531 69.5991C194.212 69.5991 194.826 69.7188 195.372 69.9583C195.926 70.1977 196.39 70.5419 196.764 70.9909L195.597 72.0684C195.065 71.4548 194.407 71.148 193.621 71.148C193.135 71.148 192.701 71.2565 192.319 71.4735C191.938 71.683 191.638 71.9786 191.421 72.3602C191.212 72.7418 191.107 73.1758 191.107 73.6622C191.107 74.1486 191.212 74.5826 191.421 74.9642C191.638 75.3458 191.938 75.6451 192.319 75.8621C192.701 76.0716 193.135 76.1764 193.621 76.1764C194.407 76.1764 195.065 75.8658 195.597 75.2448L196.764 76.3223C196.39 76.7787 195.926 77.1267 195.372 77.3661C194.818 77.6055 194.201 77.7253 193.52 77.7253ZM200.26 71.4623C201.195 71.4623 201.914 71.6868 202.415 72.1357C202.916 72.5772 203.167 73.2469 203.167 74.1448V77.5906H201.528V76.8386C201.199 77.3998 200.586 77.6804 199.688 77.6804C199.224 77.6804 198.82 77.6018 198.475 77.4447C198.139 77.2875 197.881 77.0705 197.701 76.7937C197.521 76.5168 197.432 76.2025 197.432 75.8509C197.432 75.2897 197.641 74.8482 198.06 74.5264C198.487 74.2047 199.141 74.0438 200.024 74.0438H201.416C201.416 73.6622 201.3 73.3704 201.068 73.1683C200.836 72.9588 200.488 72.8541 200.024 72.8541C199.703 72.8541 199.385 72.9064 199.07 73.0112C198.764 73.1085 198.502 73.2432 198.285 73.4153L197.656 72.1919C197.985 71.9599 198.378 71.7803 198.835 71.6531C199.299 71.5259 199.774 71.4623 200.26 71.4623ZM200.125 76.5019C200.425 76.5019 200.69 76.4345 200.922 76.2998C201.154 76.1577 201.319 75.9519 201.416 75.6825V75.0652H200.215C199.497 75.0652 199.138 75.3009 199.138 75.7723C199.138 75.9968 199.224 76.1764 199.396 76.311C199.575 76.4383 199.819 76.5019 200.125 76.5019ZM204.752 69.2624H206.503V77.5906H204.752V69.2624ZM208.128 69.2624H209.879V77.5906H208.128V69.2624ZM213.535 77.6804C213.034 77.6804 212.544 77.6205 212.065 77.5008C211.586 77.3736 211.204 77.2164 210.92 77.0294L211.504 75.7723C211.773 75.9444 212.099 76.0866 212.48 76.1988C212.862 76.3036 213.236 76.3559 213.603 76.3559C214.343 76.3559 214.714 76.1726 214.714 75.806C214.714 75.6339 214.613 75.5104 214.411 75.4356C214.209 75.3608 213.898 75.2971 213.479 75.2448C212.985 75.1699 212.577 75.0839 212.256 74.9866C211.934 74.8893 211.653 74.7172 211.414 74.4703C211.182 74.2234 211.066 73.8717 211.066 73.4153C211.066 73.0337 211.174 72.6969 211.391 72.4051C211.616 72.1058 211.938 71.8738 212.357 71.7092C212.783 71.5446 213.285 71.4623 213.861 71.4623C214.287 71.4623 214.71 71.5109 215.129 71.6082C215.555 71.698 215.907 71.8252 216.184 71.9898L215.6 73.2357C215.069 72.9364 214.489 72.7867 213.861 72.7867C213.487 72.7867 213.206 72.8391 213.019 72.9439C212.832 73.0486 212.738 73.1833 212.738 73.3479C212.738 73.535 212.839 73.6659 213.041 73.7408C213.243 73.8156 213.565 73.8867 214.007 73.954C214.5 74.0363 214.904 74.1261 215.219 74.2234C215.533 74.3132 215.806 74.4815 216.038 74.7285C216.27 74.9754 216.386 75.3196 216.386 75.7611C216.386 76.1352 216.274 76.4682 216.049 76.76C215.825 77.0518 215.496 77.28 215.062 77.4447C214.635 77.6018 214.126 77.6804 213.535 77.6804ZM224.214 71.4623C224.775 71.4623 225.284 71.5932 225.741 71.8551C226.205 72.1095 226.568 72.4725 226.829 72.9439C227.091 73.4078 227.222 73.9503 227.222 74.5713C227.222 75.1924 227.091 75.7386 226.829 76.21C226.568 76.674 226.205 77.0369 225.741 77.2988C225.284 77.5532 224.775 77.6804 224.214 77.6804C223.444 77.6804 222.837 77.4372 222.396 76.9508V79.768H220.645V71.5521H222.317V72.248C222.751 71.7242 223.384 71.4623 224.214 71.4623ZM223.911 76.2437C224.36 76.2437 224.727 76.094 225.011 75.7947C225.303 75.488 225.449 75.0802 225.449 74.5713C225.449 74.0625 225.303 73.6585 225.011 73.3591C224.727 73.0524 224.36 72.899 223.911 72.899C223.462 72.899 223.092 73.0524 222.8 73.3591C222.516 73.6585 222.373 74.0625 222.373 74.5713C222.373 75.0802 222.516 75.488 222.8 75.7947C223.092 76.094 223.462 76.2437 223.911 76.2437ZM234.309 74.5938C234.309 74.6162 234.298 74.7734 234.276 75.0652H229.708C229.79 75.4393 229.984 75.7349 230.291 75.9519C230.598 76.1689 230.98 76.2774 231.436 76.2774C231.75 76.2774 232.027 76.2325 232.267 76.1427C232.514 76.0454 232.742 75.8958 232.951 75.6937L233.883 76.7039C233.314 77.3549 232.484 77.6804 231.391 77.6804C230.71 77.6804 230.108 77.5494 229.584 77.2875C229.06 77.0182 228.656 76.6478 228.372 76.1764C228.088 75.705 227.945 75.1699 227.945 74.5713C227.945 73.9802 228.084 73.4489 228.361 72.9775C228.645 72.4986 229.03 72.1283 229.517 71.8664C230.011 71.597 230.561 71.4623 231.167 71.4623C231.758 71.4623 232.293 71.5895 232.772 71.8439C233.251 72.0983 233.625 72.465 233.894 72.9439C234.171 73.4153 234.309 73.9652 234.309 74.5938ZM231.178 72.7867C230.781 72.7867 230.448 72.899 230.179 73.1234C229.91 73.3479 229.745 73.6547 229.685 74.0438H232.659C232.6 73.6622 232.435 73.3591 232.166 73.1347C231.896 72.9027 231.567 72.7867 231.178 72.7867ZM237.147 72.349C237.357 72.0572 237.638 71.8364 237.989 71.6868C238.348 71.5371 238.76 71.4623 239.224 71.4623V73.0785C239.029 73.0636 238.898 73.0561 238.831 73.0561C238.33 73.0561 237.937 73.1983 237.653 73.4826C237.368 73.7595 237.226 74.1785 237.226 74.7397V77.5906H235.475V71.5521H237.147V72.349ZM247.371 77.7253C246.57 77.7253 245.845 77.5532 245.194 77.209C244.55 76.8573 244.041 76.3746 243.667 75.7611C243.3 75.14 243.117 74.4404 243.117 73.6622C243.117 72.884 243.3 72.1881 243.667 71.5745C244.041 70.9535 244.55 70.4709 245.194 70.1267C245.845 69.775 246.574 69.5991 247.382 69.5991C248.063 69.5991 248.677 69.7188 249.223 69.9583C249.777 70.1977 250.241 70.5419 250.615 70.9909L249.447 72.0684C248.916 71.4548 248.258 71.148 247.472 71.148C246.986 71.148 246.552 71.2565 246.17 71.4735C245.788 71.683 245.489 71.9786 245.272 72.3602C245.063 72.7418 244.958 73.1758 244.958 73.6622C244.958 74.1486 245.063 74.5826 245.272 74.9642C245.489 75.3458 245.788 75.6451 246.17 75.8621C246.552 76.0716 246.986 76.1764 247.472 76.1764C248.258 76.1764 248.916 75.8658 249.447 75.2448L250.615 76.3223C250.241 76.7787 249.777 77.1267 249.223 77.3661C248.669 77.6055 248.052 77.7253 247.371 77.7253ZM257.649 71.5521V77.5906H255.988V76.8722C255.756 77.1341 255.479 77.3362 255.157 77.4783C254.836 77.613 254.488 77.6804 254.113 77.6804C253.32 77.6804 252.692 77.4521 252.228 76.9957C251.764 76.5393 251.532 75.8621 251.532 74.9642V71.5521H253.283V74.706C253.283 75.6788 253.691 76.1651 254.506 76.1651C254.925 76.1651 255.262 76.0304 255.516 75.7611C255.771 75.4842 255.898 75.0764 255.898 74.5377V71.5521H257.649ZM261.303 77.6804C260.801 77.6804 260.311 77.6205 259.832 77.5008C259.353 77.3736 258.972 77.2164 258.688 77.0294L259.271 75.7723C259.541 75.9444 259.866 76.0866 260.248 76.1988C260.629 76.3036 261.003 76.3559 261.37 76.3559C262.111 76.3559 262.481 76.1726 262.481 75.806C262.481 75.6339 262.38 75.5104 262.178 75.4356C261.976 75.3608 261.666 75.2971 261.247 75.2448C260.753 75.1699 260.345 75.0839 260.023 74.9866C259.701 74.8893 259.421 74.7172 259.181 74.4703C258.949 74.2234 258.833 73.8717 258.833 73.4153C258.833 73.0337 258.942 72.6969 259.159 72.4051C259.383 72.1058 259.705 71.8738 260.124 71.7092C260.551 71.5446 261.052 71.4623 261.628 71.4623C262.055 71.4623 262.477 71.5109 262.897 71.6082C263.323 71.698 263.675 71.8252 263.952 71.9898L263.368 73.2357C262.837 72.9364 262.257 72.7867 261.628 72.7867C261.254 72.7867 260.973 72.8391 260.786 72.9439C260.599 73.0486 260.506 73.1833 260.506 73.3479C260.506 73.535 260.607 73.6659 260.809 73.7408C261.011 73.8156 261.333 73.8867 261.774 73.954C262.268 74.0363 262.672 74.1261 262.986 74.2234C263.301 74.3132 263.574 74.4815 263.806 74.7285C264.038 74.9754 264.154 75.3196 264.154 75.7611C264.154 76.1352 264.041 76.4682 263.817 76.76C263.592 77.0518 263.263 77.28 262.829 77.4447C262.403 77.6018 261.894 77.6804 261.303 77.6804ZM269.129 77.2988C268.956 77.426 268.743 77.5232 268.489 77.5906C268.242 77.6504 267.98 77.6804 267.703 77.6804C266.985 77.6804 266.427 77.497 266.031 77.1304C265.642 76.7637 265.447 76.225 265.447 75.5141V73.0337H264.516V71.6868H265.447V70.2164H267.198V71.6868H268.702V73.0337H267.198V75.4917C267.198 75.7461 267.262 75.9444 267.389 76.0866C267.524 76.2213 267.711 76.2886 267.95 76.2886C268.227 76.2886 268.463 76.2138 268.657 76.0641L269.129 77.2988ZM272.798 77.6804C272.162 77.6804 271.59 77.5494 271.081 77.2875C270.58 77.0182 270.187 76.6478 269.903 76.1764C269.618 75.705 269.476 75.1699 269.476 74.5713C269.476 73.9727 269.618 73.4377 269.903 72.9663C270.187 72.4949 270.58 72.1283 271.081 71.8664C271.59 71.597 272.162 71.4623 272.798 71.4623C273.434 71.4623 274.003 71.597 274.505 71.8664C275.006 72.1283 275.399 72.4949 275.683 72.9663C275.967 73.4377 276.11 73.9727 276.11 74.5713C276.11 75.1699 275.967 75.705 275.683 76.1764C275.399 76.6478 275.006 77.0182 274.505 77.2875C274.003 77.5494 273.434 77.6804 272.798 77.6804ZM272.798 76.2437C273.247 76.2437 273.614 76.094 273.898 75.7947C274.19 75.488 274.336 75.0802 274.336 74.5713C274.336 74.0625 274.19 73.6585 273.898 73.3591C273.614 73.0524 273.247 72.899 272.798 72.899C272.35 72.899 271.979 73.0524 271.687 73.3591C271.395 73.6585 271.25 74.0625 271.25 74.5713C271.25 75.0802 271.395 75.488 271.687 75.7947C271.979 76.094 272.35 76.2437 272.798 76.2437ZM285.013 71.4623C285.769 71.4623 286.368 71.6868 286.809 72.1357C287.258 72.5772 287.482 73.2432 287.482 74.1336V77.5906H285.732V74.403C285.732 73.9241 285.631 73.5687 285.428 73.3367C285.234 73.0973 284.953 72.9775 284.587 72.9775C284.175 72.9775 283.85 73.1122 283.61 73.3816C283.371 73.6435 283.251 74.0363 283.251 74.5601V77.5906H281.5V74.403C281.5 73.4527 281.118 72.9775 280.355 72.9775C279.951 72.9775 279.629 73.1122 279.39 73.3816C279.151 73.6435 279.031 74.0363 279.031 74.5601V77.5906H277.28V71.5521H278.952V72.248C279.177 71.9936 279.45 71.799 279.772 71.6643C280.101 71.5296 280.46 71.4623 280.849 71.4623C281.276 71.4623 281.661 71.5484 282.005 71.7205C282.349 71.8851 282.626 72.1283 282.836 72.45C283.083 72.1357 283.393 71.8926 283.767 71.7205C284.149 71.5484 284.564 71.4623 285.013 71.4623ZM295.033 74.5938C295.033 74.6162 295.021 74.7734 294.999 75.0652H290.431C290.513 75.4393 290.708 75.7349 291.015 75.9519C291.321 76.1689 291.703 76.2774 292.159 76.2774C292.474 76.2774 292.75 76.2325 292.99 76.1427C293.237 76.0454 293.465 75.8958 293.675 75.6937L294.606 76.7039C294.037 77.3549 293.207 77.6804 292.114 77.6804C291.434 77.6804 290.831 77.5494 290.307 77.2875C289.784 77.0182 289.38 76.6478 289.095 76.1764C288.811 75.705 288.669 75.1699 288.669 74.5713C288.669 73.9802 288.807 73.4489 289.084 72.9775C289.368 72.4986 289.754 72.1283 290.24 71.8664C290.734 71.597 291.284 71.4623 291.89 71.4623C292.481 71.4623 293.016 71.5895 293.495 71.8439C293.974 72.0983 294.348 72.465 294.617 72.9439C294.894 73.4153 295.033 73.9652 295.033 74.5938ZM291.901 72.7867C291.505 72.7867 291.172 72.899 290.902 73.1234C290.633 73.3479 290.468 73.6547 290.408 74.0438H293.383C293.323 73.6622 293.158 73.3591 292.889 73.1347C292.62 72.9027 292.29 72.7867 291.901 72.7867ZM297.871 72.349C298.08 72.0572 298.361 71.8364 298.713 71.6868C299.072 71.5371 299.483 71.4623 299.947 71.4623V73.0785C299.753 73.0636 299.622 73.0561 299.554 73.0561C299.053 73.0561 298.66 73.1983 298.376 73.4826C298.091 73.7595 297.949 74.1785 297.949 74.7397V77.5906H296.198V71.5521H297.871V72.349ZM77.4707 92.6419L75.2483 98.5906H74.2157L72.4985 94.0785L70.7588 98.5906H69.7262L67.515 92.6419H68.5364L70.2649 97.3784L72.0607 92.6419H72.9699L74.732 97.4008L76.5054 92.6419H77.4707ZM81.7404 92.5858C82.4962 92.5858 83.0948 92.8065 83.5363 93.248C83.9852 93.682 84.2097 94.3217 84.2097 95.1673V98.5906H83.1322V95.2907C83.1322 94.7146 82.9938 94.2806 82.7169 93.9888C82.4401 93.6969 82.0435 93.551 81.5272 93.551C80.9435 93.551 80.4833 93.7231 80.1466 94.0673C79.8099 94.404 79.6415 94.8904 79.6415 95.5264V98.5906H78.564V90.2624H79.6415V93.4837C79.866 93.1993 80.1578 92.9786 80.517 92.8215C80.8837 92.6643 81.2915 92.5858 81.7404 92.5858ZM91.6129 95.6499C91.6129 95.7322 91.6055 95.8407 91.5905 95.9754H86.7642C86.8315 96.4992 87.0598 96.9219 87.4489 97.2437C87.8454 97.558 88.3355 97.7151 88.9192 97.7151C89.63 97.7151 90.2025 97.4757 90.6365 96.9968L91.2313 97.6927C90.9619 98.0069 90.6252 98.2464 90.2212 98.411C89.8246 98.5756 89.3794 98.6579 88.8855 98.6579C88.257 98.6579 87.6995 98.5307 87.2132 98.2763C86.7268 98.0144 86.3489 97.6515 86.0795 97.1876C85.8176 96.7237 85.6867 96.1999 85.6867 95.6162C85.6867 95.0401 85.8139 94.52 86.0683 94.0561C86.3302 93.5922 86.6856 93.233 87.1346 92.9786C87.591 92.7167 88.1036 92.5858 88.6723 92.5858C89.2409 92.5858 89.746 92.7167 90.1875 92.9786C90.6365 93.233 90.9844 93.5922 91.2313 94.0561C91.4857 94.52 91.6129 95.0513 91.6129 95.6499ZM88.6723 93.4949C88.156 93.4949 87.722 93.652 87.3703 93.9663C87.0261 94.2806 86.8241 94.6921 86.7642 95.2009H90.5803C90.5205 94.6996 90.3147 94.2918 89.963 93.9775C89.6188 93.6558 89.1886 93.4949 88.6723 93.4949ZM96.2855 92.5858C97.0413 92.5858 97.6399 92.8065 98.0814 93.248C98.5303 93.682 98.7548 94.3217 98.7548 95.1673V98.5906H97.6773V95.2907C97.6773 94.7146 97.5389 94.2806 97.262 93.9888C96.9851 93.6969 96.5886 93.551 96.0723 93.551C95.4886 93.551 95.0284 93.7231 94.6917 94.0673C94.355 94.404 94.1866 94.8904 94.1866 95.5264V98.5906H93.1091V92.6419H94.1417V93.5398C94.3587 93.233 94.6506 92.9973 95.0172 92.8327C95.3913 92.6681 95.8141 92.5858 96.2855 92.5858ZM106.356 98.6579C105.75 98.6579 105.207 98.527 104.728 98.2651C104.257 98.0032 103.887 97.644 103.617 97.1876C103.348 96.7237 103.213 96.1999 103.213 95.6162C103.213 95.0326 103.348 94.5125 103.617 94.0561C103.887 93.5922 104.257 93.233 104.728 92.9786C105.207 92.7167 105.75 92.5858 106.356 92.5858C106.895 92.5858 107.373 92.6943 107.793 92.9113C108.219 93.1283 108.548 93.4425 108.78 93.8541L107.961 94.3816C107.774 94.0973 107.542 93.884 107.265 93.7418C106.988 93.5997 106.681 93.5286 106.345 93.5286C105.956 93.5286 105.604 93.6146 105.29 93.7867C104.983 93.9588 104.74 94.2058 104.56 94.5275C104.388 94.8418 104.302 95.2047 104.302 95.6162C104.302 96.0353 104.388 96.4056 104.56 96.7274C104.74 97.0417 104.983 97.2849 105.29 97.457C105.604 97.6291 105.956 97.7151 106.345 97.7151C106.681 97.7151 106.988 97.644 107.265 97.5019C107.542 97.3597 107.774 97.1464 107.961 96.8621L108.78 97.3784C108.548 97.7899 108.219 98.1079 107.793 98.3324C107.373 98.5494 106.895 98.6579 106.356 98.6579ZM112.635 98.6579C112.044 98.6579 111.513 98.527 111.042 98.2651C110.57 98.0032 110.2 97.644 109.93 97.1876C109.669 96.7237 109.538 96.1999 109.538 95.6162C109.538 95.0326 109.669 94.5125 109.93 94.0561C110.2 93.5922 110.57 93.233 111.042 92.9786C111.513 92.7167 112.044 92.5858 112.635 92.5858C113.227 92.5858 113.754 92.7167 114.218 92.9786C114.689 93.233 115.056 93.5922 115.318 94.0561C115.587 94.5125 115.722 95.0326 115.722 95.6162C115.722 96.1999 115.587 96.7237 115.318 97.1876C115.056 97.644 114.689 98.0032 114.218 98.2651C113.754 98.527 113.227 98.6579 112.635 98.6579ZM112.635 97.7151C113.017 97.7151 113.357 97.6291 113.657 97.457C113.964 97.2774 114.203 97.0304 114.375 96.7162C114.547 96.3944 114.633 96.0278 114.633 95.6162C114.633 95.2047 114.547 94.8418 114.375 94.5275C114.203 94.2058 113.964 93.9588 113.657 93.7867C113.357 93.6146 113.017 93.5286 112.635 93.5286C112.254 93.5286 111.91 93.6146 111.603 93.7867C111.303 93.9588 111.064 94.2058 110.884 94.5275C110.712 94.8418 110.626 95.2047 110.626 95.6162C110.626 96.0278 110.712 96.3944 110.884 96.7162C111.064 97.0304 111.303 97.2774 111.603 97.457C111.91 97.6291 112.254 97.7151 112.635 97.7151ZM124.654 92.5858C125.402 92.5858 125.993 92.8028 126.427 93.2368C126.868 93.6707 127.089 94.3143 127.089 95.1673V98.5906H126.012V95.2907C126.012 94.7146 125.877 94.2806 125.608 93.9888C125.346 93.6969 124.968 93.551 124.474 93.551C123.928 93.551 123.494 93.7231 123.172 94.0673C122.85 94.404 122.689 94.8904 122.689 95.5264V98.5906H121.612V95.2907C121.612 94.7146 121.477 94.2806 121.208 93.9888C120.946 93.6969 120.568 93.551 120.074 93.551C119.528 93.551 119.094 93.7231 118.772 94.0673C118.451 94.404 118.29 94.8904 118.29 95.5264V98.5906H117.212V92.6419H118.245V93.5286C118.462 93.2218 118.746 92.9898 119.098 92.8327C119.449 92.6681 119.85 92.5858 120.299 92.5858C120.763 92.5858 121.174 92.6793 121.533 92.8664C121.893 93.0534 122.169 93.3265 122.364 93.6857C122.588 93.3415 122.899 93.0721 123.296 92.8776C123.7 92.683 124.152 92.5858 124.654 92.5858ZM131.238 92.5858C132.061 92.5858 132.69 92.7878 133.124 93.1919C133.565 93.5959 133.786 94.1983 133.786 94.9989V98.5906H132.764V97.8049C132.585 98.0818 132.327 98.295 131.99 98.4447C131.661 98.5868 131.268 98.6579 130.812 98.6579C130.146 98.6579 129.611 98.497 129.206 98.1753C128.81 97.8535 128.612 97.4308 128.612 96.907C128.612 96.3832 128.802 95.9642 129.184 95.6499C129.566 95.3281 130.172 95.1673 131.002 95.1673H132.708V94.954C132.708 94.4901 132.574 94.1347 132.304 93.8877C132.035 93.6408 131.638 93.5174 131.115 93.5174C130.763 93.5174 130.419 93.5772 130.082 93.6969C129.745 93.8092 129.461 93.9626 129.229 94.1571L128.78 93.349C129.087 93.1021 129.453 92.915 129.88 92.7878C130.306 92.6531 130.759 92.5858 131.238 92.5858ZM130.991 97.8273C131.403 97.8273 131.758 97.7376 132.057 97.558C132.357 97.3709 132.574 97.109 132.708 96.7723V95.9417H131.047C130.134 95.9417 129.678 96.2485 129.678 96.8621C129.678 97.1614 129.794 97.3971 130.026 97.5692C130.258 97.7413 130.58 97.8273 130.991 97.8273ZM138.934 92.5858C139.51 92.5858 140.026 92.713 140.483 92.9674C140.939 93.2218 141.295 93.5772 141.549 94.0337C141.811 94.4901 141.942 95.0176 141.942 95.6162C141.942 96.2148 141.811 96.7461 141.549 97.21C141.295 97.6665 140.939 98.0219 140.483 98.2763C140.026 98.5307 139.51 98.6579 138.934 98.6579C138.507 98.6579 138.114 98.5756 137.755 98.411C137.404 98.2464 137.104 98.0069 136.857 97.6927V100.768H135.78V92.6419H136.812V93.5847C137.052 93.2555 137.355 93.0085 137.722 92.8439C138.088 92.6718 138.492 92.5858 138.934 92.5858ZM138.844 97.7151C139.226 97.7151 139.566 97.6291 139.865 97.457C140.172 97.2774 140.412 97.0304 140.584 96.7162C140.763 96.3944 140.853 96.0278 140.853 95.6162C140.853 95.2047 140.763 94.8418 140.584 94.5275C140.412 94.2058 140.172 93.9588 139.865 93.7867C139.566 93.6146 139.226 93.5286 138.844 93.5286C138.47 93.5286 138.129 93.6184 137.823 93.798C137.523 93.9701 137.284 94.2132 137.104 94.5275C136.932 94.8418 136.846 95.2047 136.846 95.6162C136.846 96.0278 136.932 96.3944 137.104 96.7162C137.276 97.0304 137.516 97.2774 137.823 97.457C138.129 97.6291 138.47 97.7151 138.844 97.7151ZM144.463 93.6408C144.65 93.2966 144.927 93.0347 145.294 92.8551C145.66 92.6756 146.106 92.5858 146.629 92.5858V93.6296C146.57 93.6221 146.487 93.6184 146.382 93.6184C145.799 93.6184 145.339 93.7942 145.002 94.1459C144.673 94.4901 144.508 94.9839 144.508 95.6275V98.5906H143.431V92.6419H144.463V93.6408ZM153.279 95.6499C153.279 95.7322 153.271 95.8407 153.256 95.9754H148.43C148.497 96.4992 148.726 96.9219 149.115 97.2437C149.511 97.558 150.001 97.7151 150.585 97.7151C151.296 97.7151 151.868 97.4757 152.302 96.9968L152.897 97.6927C152.628 98.0069 152.291 98.2464 151.887 98.411C151.491 98.5756 151.045 98.6579 150.551 98.6579C149.923 98.6579 149.365 98.5307 148.879 98.2763C148.393 98.0144 148.015 97.6515 147.745 97.1876C147.484 96.7237 147.353 96.1999 147.353 95.6162C147.353 95.0401 147.48 94.52 147.734 94.0561C147.996 93.5922 148.352 93.233 148.801 92.9786C149.257 92.7167 149.77 92.5858 150.338 92.5858C150.907 92.5858 151.412 92.7167 151.853 92.9786C152.302 93.233 152.65 93.5922 152.897 94.0561C153.152 94.52 153.279 95.0513 153.279 95.6499ZM150.338 93.4949C149.822 93.4949 149.388 93.652 149.036 93.9663C148.692 94.2806 148.49 94.6921 148.43 95.2009H152.246C152.186 94.6996 151.981 94.2918 151.629 93.9775C151.285 93.6558 150.855 93.4949 150.338 93.4949ZM160.387 90.2624V98.5906H159.354V97.6478C159.115 97.977 158.812 98.2277 158.445 98.3998C158.079 98.5719 157.675 98.6579 157.233 98.6579C156.657 98.6579 156.141 98.5307 155.684 98.2763C155.228 98.0219 154.869 97.6665 154.607 97.21C154.352 96.7461 154.225 96.2148 154.225 95.6162C154.225 95.0176 154.352 94.4901 154.607 94.0337C154.869 93.5772 155.228 93.2218 155.684 92.9674C156.141 92.713 156.657 92.5858 157.233 92.5858C157.66 92.5858 158.052 92.6681 158.412 92.8327C158.771 92.9898 159.07 93.2255 159.31 93.5398V90.2624H160.387ZM157.323 97.7151C157.697 97.7151 158.038 97.6291 158.344 97.457C158.651 97.2774 158.891 97.0304 159.063 96.7162C159.235 96.3944 159.321 96.0278 159.321 95.6162C159.321 95.2047 159.235 94.8418 159.063 94.5275C158.891 94.2058 158.651 93.9588 158.344 93.7867C158.038 93.6146 157.697 93.5286 157.323 93.5286C156.941 93.5286 156.597 93.6146 156.29 93.7867C155.991 93.9588 155.752 94.2058 155.572 94.5275C155.4 94.8418 155.314 95.2047 155.314 95.6162C155.314 96.0278 155.4 96.3944 155.572 96.7162C155.752 97.0304 155.991 97.2774 156.29 97.457C156.597 97.6291 156.941 97.7151 157.323 97.7151ZM168.785 98.2426C168.628 98.3773 168.433 98.4821 168.201 98.5569C167.969 98.6242 167.73 98.6579 167.483 98.6579C166.884 98.6579 166.42 98.497 166.091 98.1753C165.762 97.8535 165.597 97.3934 165.597 96.7947V93.5286H164.587V92.6419H165.597V91.3399H166.675V92.6419H168.381V93.5286H166.675V96.7498C166.675 97.0716 166.753 97.3185 166.91 97.4906C167.075 97.6627 167.307 97.7488 167.606 97.7488C167.935 97.7488 168.216 97.6552 168.448 97.4682L168.785 98.2426ZM172.438 98.6579C171.847 98.6579 171.316 98.527 170.844 98.2651C170.373 98.0032 170.002 97.644 169.733 97.1876C169.471 96.7237 169.34 96.1999 169.34 95.6162C169.34 95.0326 169.471 94.5125 169.733 94.0561C170.002 93.5922 170.373 93.233 170.844 92.9786C171.316 92.7167 171.847 92.5858 172.438 92.5858C173.029 92.5858 173.557 92.7167 174.021 92.9786C174.492 93.233 174.859 93.5922 175.121 94.0561C175.39 94.5125 175.525 95.0326 175.525 95.6162C175.525 96.1999 175.39 96.7237 175.121 97.1876C174.859 97.644 174.492 98.0032 174.021 98.2651C173.557 98.527 173.029 98.6579 172.438 98.6579ZM172.438 97.7151C172.82 97.7151 173.16 97.6291 173.459 97.457C173.766 97.2774 174.006 97.0304 174.178 96.7162C174.35 96.3944 174.436 96.0278 174.436 95.6162C174.436 95.2047 174.35 94.8418 174.178 94.5275C174.006 94.2058 173.766 93.9588 173.459 93.7867C173.16 93.6146 172.82 93.5286 172.438 93.5286C172.056 93.5286 171.712 93.6146 171.405 93.7867C171.106 93.9588 170.867 94.2058 170.687 94.5275C170.515 94.8418 170.429 95.2047 170.429 95.6162C170.429 96.0278 170.515 96.3944 170.687 96.7162C170.867 97.0304 171.106 97.2774 171.405 97.457C171.712 97.6291 172.056 97.7151 172.438 97.7151ZM183.733 98.6804C182.94 98.6804 182.225 98.5083 181.589 98.1641C180.953 97.8124 180.452 97.3298 180.085 96.7162C179.726 96.1026 179.546 95.4179 179.546 94.6622C179.546 93.9064 179.726 93.2218 180.085 92.6082C180.452 91.9946 180.953 91.5157 181.589 91.1715C182.225 90.8199 182.94 90.644 183.733 90.644C184.519 90.644 185.229 90.8199 185.865 91.1715C186.501 91.5157 186.999 91.9946 187.358 92.6082C187.717 93.2143 187.897 93.899 187.897 94.6622C187.897 95.4254 187.717 96.1138 187.358 96.7274C186.999 97.3335 186.501 97.8124 185.865 98.1641C185.229 98.5083 184.519 98.6804 183.733 98.6804ZM183.733 97.6814C184.309 97.6814 184.825 97.5505 185.282 97.2886C185.746 97.0267 186.109 96.6675 186.37 96.2111C186.64 95.7472 186.775 95.2309 186.775 94.6622C186.775 94.0935 186.64 93.581 186.37 93.1245C186.109 92.6606 185.746 92.2977 185.282 92.0358C184.825 91.7739 184.309 91.643 183.733 91.643C183.157 91.643 182.633 91.7739 182.162 92.0358C181.698 92.2977 181.331 92.6606 181.062 93.1245C180.8 93.581 180.669 94.0935 180.669 94.6622C180.669 95.2309 180.8 95.7472 181.062 96.2111C181.331 96.6675 181.698 97.0267 182.162 97.2886C182.633 97.5505 183.157 97.6814 183.733 97.6814ZM194.719 92.6419L192.115 98.5906H191.015L188.411 92.6419H189.534L191.577 97.4121L193.664 92.6419H194.719ZM200.937 95.6499C200.937 95.7322 200.929 95.8407 200.914 95.9754H196.088C196.155 96.4992 196.384 96.9219 196.773 97.2437C197.169 97.558 197.659 97.7151 198.243 97.7151C198.954 97.7151 199.526 97.4757 199.96 96.9968L200.555 97.6927C200.286 98.0069 199.949 98.2464 199.545 98.411C199.148 98.5756 198.703 98.6579 198.209 98.6579C197.581 98.6579 197.023 98.5307 196.537 98.2763C196.051 98.0144 195.673 97.6515 195.403 97.1876C195.142 96.7237 195.011 96.1999 195.011 95.6162C195.011 95.0401 195.138 94.52 195.392 94.0561C195.654 93.5922 196.009 93.233 196.458 92.9786C196.915 92.7167 197.427 92.5858 197.996 92.5858C198.565 92.5858 199.07 92.7167 199.511 92.9786C199.96 93.233 200.308 93.5922 200.555 94.0561C200.81 94.52 200.937 95.0513 200.937 95.6499ZM197.996 93.4949C197.48 93.4949 197.046 93.652 196.694 93.9663C196.35 94.2806 196.148 94.6921 196.088 95.2009H199.904C199.844 94.6996 199.639 94.2918 199.287 93.9775C198.943 93.6558 198.512 93.4949 197.996 93.4949ZM203.466 93.6408C203.653 93.2966 203.93 93.0347 204.296 92.8551C204.663 92.6756 205.108 92.5858 205.632 92.5858V93.6296C205.572 93.6221 205.49 93.6184 205.385 93.6184C204.801 93.6184 204.341 93.7942 204.004 94.1459C203.675 94.4901 203.511 94.9839 203.511 95.6275V98.5906H202.433V92.6419H203.466V93.6408ZM209.115 92.5858C209.938 92.5858 210.567 92.7878 211.001 93.1919C211.442 93.5959 211.663 94.1983 211.663 94.9989V98.5906H210.642V97.8049C210.462 98.0818 210.204 98.295 209.867 98.4447C209.538 98.5868 209.145 98.6579 208.689 98.6579C208.023 98.6579 207.488 98.497 207.084 98.1753C206.687 97.8535 206.489 97.4308 206.489 96.907C206.489 96.3832 206.68 95.9642 207.061 95.6499C207.443 95.3281 208.049 95.1673 208.879 95.1673H210.585V94.954C210.585 94.4901 210.451 94.1347 210.181 93.8877C209.912 93.6408 209.515 93.5174 208.992 93.5174C208.64 93.5174 208.296 93.5772 207.959 93.6969C207.622 93.8092 207.338 93.9626 207.106 94.1571L206.657 93.349C206.964 93.1021 207.331 92.915 207.757 92.7878C208.184 92.6531 208.636 92.5858 209.115 92.5858ZM208.868 97.8273C209.28 97.8273 209.635 97.7376 209.934 97.558C210.234 97.3709 210.451 97.109 210.585 96.7723V95.9417H208.924C208.011 95.9417 207.555 96.2485 207.555 96.8621C207.555 97.1614 207.671 97.3971 207.903 97.5692C208.135 97.7413 208.457 97.8273 208.868 97.8273ZM213.657 90.2624H214.734V98.5906H213.657V90.2624ZM216.792 90.2624H217.869V98.5906H216.792V90.2624ZM224.321 100.768C223.895 100.08 223.566 99.2902 223.334 98.3998C223.102 97.5019 222.986 96.5403 222.986 95.5152C222.986 94.4901 223.102 93.5286 223.334 92.6307C223.566 91.7253 223.895 90.9358 224.321 90.2624H225.343C224.894 91.0481 224.565 91.8712 224.355 92.7317C224.146 93.5922 224.041 94.52 224.041 95.5152C224.041 96.5104 224.146 97.4383 224.355 98.2988C224.565 99.1593 224.894 99.9823 225.343 100.768H224.321ZM257.266 100.768C257.715 99.9823 258.044 99.1593 258.253 98.2988C258.47 97.4383 258.579 96.5104 258.579 95.5152C258.579 94.52 258.47 93.5922 258.253 92.7317C258.044 91.8712 257.715 91.0481 257.266 90.2624H258.287C258.721 90.9358 259.054 91.7215 259.286 92.6194C259.518 93.5174 259.634 94.4826 259.634 95.5152C259.634 96.5403 259.518 97.5019 259.286 98.3998C259.054 99.2977 258.721 100.087 258.287 100.768H257.266Z" fill="#312C33"></path><path d="M216.53 48.7338C217.225 48.7338 217.828 48.8498 218.337 49.0818C218.853 49.3137 219.25 49.643 219.526 50.0695C219.803 50.496 219.942 51.0011 219.942 51.5847C219.942 52.1609 219.803 52.6659 219.526 53.0999C219.25 53.5264 218.853 53.8557 218.337 54.0876C217.828 54.3121 217.225 54.4244 216.53 54.4244H214.947V56.5906H213.129V48.7338H216.53ZM216.429 52.9428C216.975 52.9428 217.39 52.8268 217.674 52.5949C217.959 52.3554 218.101 52.0187 218.101 51.5847C218.101 51.1432 217.959 50.8065 217.674 50.5745C217.39 50.3351 216.975 50.2154 216.429 50.2154H214.947V52.9428H216.429ZM227.02 53.5938C227.02 53.6162 227.009 53.7734 226.987 54.0652H222.419C222.501 54.4393 222.695 54.7349 223.002 54.9519C223.309 55.1689 223.691 55.2774 224.147 55.2774C224.461 55.2774 224.738 55.2325 224.978 55.1427C225.225 55.0454 225.453 54.8958 225.662 54.6937L226.594 55.7039C226.025 56.3549 225.195 56.6804 224.102 56.6804C223.421 56.6804 222.819 56.5494 222.295 56.2875C221.771 56.0182 221.367 55.6478 221.083 55.1764C220.799 54.705 220.656 54.1699 220.656 53.5713C220.656 52.9802 220.795 52.4489 221.072 51.9775C221.356 51.4986 221.741 51.1283 222.228 50.8664C222.722 50.597 223.272 50.4623 223.878 50.4623C224.469 50.4623 225.004 50.5895 225.483 50.8439C225.962 51.0983 226.336 51.465 226.605 51.9439C226.882 52.4153 227.02 52.9652 227.02 53.5938ZM223.889 51.7867C223.492 51.7867 223.159 51.899 222.89 52.1234C222.621 52.3479 222.456 52.6547 222.396 53.0438H225.37C225.311 52.6622 225.146 52.3591 224.877 52.1347C224.607 51.9027 224.278 51.7867 223.889 51.7867ZM230.457 50.4623C231.393 50.4623 232.111 50.6868 232.612 51.1357C233.114 51.5772 233.364 52.2469 233.364 53.1448V56.5906H231.726V55.8386C231.396 56.3998 230.783 56.6804 229.885 56.6804C229.421 56.6804 229.017 56.6018 228.673 56.4447C228.336 56.2875 228.078 56.0705 227.898 55.7937C227.719 55.5168 227.629 55.2025 227.629 54.8509C227.629 54.2897 227.838 53.8482 228.257 53.5264C228.684 53.2047 229.339 53.0438 230.222 53.0438H231.613C231.613 52.6622 231.497 52.3704 231.265 52.1683C231.033 51.9588 230.686 51.8541 230.222 51.8541C229.9 51.8541 229.582 51.9064 229.268 52.0112C228.961 52.1085 228.699 52.2432 228.482 52.4153L227.853 51.1919C228.183 50.9599 228.575 50.7803 229.032 50.6531C229.496 50.5259 229.971 50.4623 230.457 50.4623ZM230.323 55.5019C230.622 55.5019 230.888 55.4345 231.119 55.2998C231.351 55.1577 231.516 54.9519 231.613 54.6825V54.0652H230.412C229.694 54.0652 229.335 54.3009 229.335 54.7723C229.335 54.9968 229.421 55.1764 229.593 55.311C229.773 55.4383 230.016 55.5019 230.323 55.5019ZM237.542 54.2223L236.7 55.0529V56.5906H234.949V48.2624H236.7V52.9765L239.259 50.5521H241.347L238.832 53.1112L241.571 56.5906H239.45L237.542 54.2223ZM245.661 48.7338H249.23C250.083 48.7338 250.835 48.8984 251.486 49.2277C252.144 49.5494 252.653 50.0059 253.012 50.597C253.379 51.1881 253.562 51.8765 253.562 52.6622C253.562 53.4479 253.379 54.1363 253.012 54.7274C252.653 55.3185 252.144 55.7787 251.486 56.1079C250.835 56.4297 250.083 56.5906 249.23 56.5906H245.661V48.7338ZM249.14 55.0978C249.926 55.0978 250.551 54.8808 251.014 54.4468C251.486 54.0053 251.722 53.4105 251.722 52.6622C251.722 51.9139 251.486 51.3228 251.014 50.8888C250.551 50.4473 249.926 50.2266 249.14 50.2266H247.479V55.0978H249.14ZM260.725 53.5938C260.725 53.6162 260.714 53.7734 260.691 54.0652H256.123C256.206 54.4393 256.4 54.7349 256.707 54.9519C257.014 55.1689 257.395 55.2774 257.852 55.2774C258.166 55.2774 258.443 55.2325 258.682 55.1427C258.929 55.0454 259.157 54.8958 259.367 54.6937L260.299 55.7039C259.73 56.3549 258.899 56.6804 257.807 56.6804C257.126 56.6804 256.524 56.5494 256 56.2875C255.476 56.0182 255.072 55.6478 254.788 55.1764C254.503 54.705 254.361 54.1699 254.361 53.5713C254.361 52.9802 254.5 52.4489 254.776 51.9775C255.061 51.4986 255.446 51.1283 255.932 50.8664C256.426 50.597 256.976 50.4623 257.582 50.4623C258.174 50.4623 258.709 50.5895 259.187 50.8439C259.666 51.0983 260.04 51.465 260.31 51.9439C260.587 52.4153 260.725 52.9652 260.725 53.5938ZM257.594 51.7867C257.197 51.7867 256.864 51.899 256.595 52.1234C256.325 52.3479 256.161 52.6547 256.101 53.0438H259.075C259.015 52.6622 258.851 52.3591 258.581 52.1347C258.312 51.9027 257.983 51.7867 257.594 51.7867ZM269.624 50.4623C270.38 50.4623 270.978 50.6868 271.42 51.1357C271.869 51.5772 272.093 52.2432 272.093 53.1336V56.5906H270.342V53.403C270.342 52.9241 270.241 52.5687 270.039 52.3367C269.845 52.0973 269.564 51.9775 269.198 51.9775C268.786 51.9775 268.461 52.1122 268.221 52.3816C267.982 52.6435 267.862 53.0363 267.862 53.5601V56.5906H266.111V53.403C266.111 52.4527 265.729 51.9775 264.966 51.9775C264.562 51.9775 264.24 52.1122 264.001 52.3816C263.761 52.6435 263.642 53.0363 263.642 53.5601V56.5906H261.891V50.5521H263.563V51.248C263.788 50.9936 264.061 50.799 264.383 50.6643C264.712 50.5296 265.071 50.4623 265.46 50.4623C265.887 50.4623 266.272 50.5484 266.616 50.7205C266.96 50.8851 267.237 51.1283 267.447 51.45C267.694 51.1357 268.004 50.8926 268.378 50.7205C268.76 50.5484 269.175 50.4623 269.624 50.4623ZM276.098 50.4623C277.034 50.4623 277.752 50.6868 278.253 51.1357C278.755 51.5772 279.005 52.2469 279.005 53.1448V56.5906H277.367V55.8386C277.037 56.3998 276.424 56.6804 275.526 56.6804C275.062 56.6804 274.658 56.6018 274.314 56.4447C273.977 56.2875 273.719 56.0705 273.539 55.7937C273.36 55.5168 273.27 55.2025 273.27 54.8509C273.27 54.2897 273.479 53.8482 273.899 53.5264C274.325 53.2047 274.98 53.0438 275.863 53.0438H277.254C277.254 52.6622 277.138 52.3704 276.907 52.1683C276.675 51.9588 276.327 51.8541 275.863 51.8541C275.541 51.8541 275.223 51.9064 274.909 52.0112C274.602 52.1085 274.34 52.2432 274.123 52.4153L273.494 51.1919C273.824 50.9599 274.217 50.7803 274.673 50.6531C275.137 50.5259 275.612 50.4623 276.098 50.4623ZM275.964 55.5019C276.263 55.5019 276.529 55.4345 276.761 55.2998C276.993 55.1577 277.157 54.9519 277.254 54.6825V54.0652H276.054C275.335 54.0652 274.976 54.3009 274.976 54.7723C274.976 54.9968 275.062 55.1764 275.234 55.311C275.414 55.4383 275.657 55.5019 275.964 55.5019ZM284.26 50.4623C285.009 50.4623 285.611 50.6868 286.067 51.1357C286.531 51.5847 286.763 52.2506 286.763 53.1336V56.5906H285.012V53.403C285.012 52.9241 284.908 52.5687 284.698 52.3367C284.489 52.0973 284.185 51.9775 283.789 51.9775C283.347 51.9775 282.996 52.116 282.734 52.3928C282.472 52.6622 282.341 53.0663 282.341 53.605V56.5906H280.59V50.5521H282.262V51.2592C282.494 51.0048 282.783 50.8102 283.127 50.6756C283.471 50.5334 283.849 50.4623 284.26 50.4623ZM294.567 48.2624V56.5906H292.895V55.8947C292.461 56.4185 291.832 56.6804 291.009 56.6804C290.44 56.6804 289.924 56.5532 289.46 56.2988C289.004 56.0443 288.644 55.6814 288.382 55.21C288.121 54.7386 287.99 54.1924 287.99 53.5713C287.99 52.9503 288.121 52.404 288.382 51.9326C288.644 51.4612 289.004 51.0983 289.46 50.8439C289.924 50.5895 290.44 50.4623 291.009 50.4623C291.78 50.4623 292.382 50.7055 292.816 51.1919V48.2624H294.567ZM291.312 55.2437C291.753 55.2437 292.12 55.094 292.412 54.7947C292.704 54.488 292.85 54.0802 292.85 53.5713C292.85 53.0625 292.704 52.6585 292.412 52.3591C292.12 52.0524 291.753 51.899 291.312 51.899C290.863 51.899 290.493 52.0524 290.201 52.3591C289.909 52.6585 289.763 53.0625 289.763 53.5713C289.763 54.0802 289.909 54.488 290.201 54.7947C290.493 55.094 290.863 55.2437 291.312 55.2437ZM113.755 72.9326C114.443 73.0449 114.971 73.303 115.338 73.7071C115.704 74.1037 115.888 74.5975 115.888 75.1887C115.888 75.6451 115.768 76.0679 115.528 76.457C115.289 76.8386 114.922 77.1454 114.429 77.3773C113.942 77.6093 113.344 77.7253 112.633 77.7253C112.079 77.7253 111.533 77.6542 110.994 77.512C110.463 77.3624 110.01 77.1528 109.636 76.8835L110.343 75.4917C110.642 75.7162 110.986 75.892 111.376 76.0192C111.772 76.1389 112.176 76.1988 112.588 76.1988C113.044 76.1988 113.403 76.1128 113.665 75.9407C113.927 75.7611 114.058 75.5104 114.058 75.1887C114.058 74.5451 113.568 74.2234 112.588 74.2234H111.757V73.0224L113.373 71.1929H110.029V69.7338H115.528V70.9123L113.755 72.9326ZM123.922 75.9407H122.642V77.5906H120.869V75.9407H116.637V74.7172L120.341 69.7338H122.249L118.815 74.4591H120.925V72.9888H122.642V74.4591H123.922V75.9407ZM125.944 73.9765C125.368 73.9765 124.896 73.7819 124.53 73.3928C124.171 72.9962 123.991 72.4687 123.991 71.8102C123.991 71.1518 124.171 70.628 124.53 70.2389C124.896 69.8423 125.368 69.644 125.944 69.644C126.52 69.644 126.988 69.8423 127.347 70.2389C127.706 70.628 127.886 71.1518 127.886 71.8102C127.886 72.4687 127.706 72.9962 127.347 73.3928C126.988 73.7819 126.52 73.9765 125.944 73.9765ZM130.624 69.7338H131.96L126.595 77.5906H125.259L130.624 69.7338ZM125.944 73.0561C126.198 73.0561 126.397 72.9513 126.539 72.7418C126.689 72.5323 126.763 72.2218 126.763 71.8102C126.763 71.3987 126.689 71.0882 126.539 70.8787C126.397 70.6691 126.198 70.5644 125.944 70.5644C125.697 70.5644 125.499 70.6729 125.349 70.8899C125.199 71.0994 125.125 71.4062 125.125 71.8102C125.125 72.2143 125.199 72.5248 125.349 72.7418C125.499 72.9513 125.697 73.0561 125.944 73.0561ZM131.275 77.6804C130.901 77.6804 130.565 77.5943 130.265 77.4222C129.973 77.2426 129.745 76.9882 129.581 76.659C129.416 76.3298 129.334 75.9481 129.334 75.5141C129.334 75.0802 129.416 74.6985 129.581 74.3693C129.745 74.0401 129.973 73.7894 130.265 73.6173C130.565 73.4377 130.901 73.3479 131.275 73.3479C131.852 73.3479 132.319 73.5462 132.678 73.9428C133.045 74.3319 133.228 74.8557 133.228 75.5141C133.228 76.1726 133.045 76.7001 132.678 77.0967C132.319 77.4858 131.852 77.6804 131.275 77.6804ZM131.275 76.76C131.53 76.76 131.728 76.6552 131.87 76.4457C132.02 76.2287 132.095 75.9182 132.095 75.5141C132.095 75.1101 132.02 74.8033 131.87 74.5938C131.728 74.3768 131.53 74.2683 131.275 74.2683C131.028 74.2683 130.83 74.373 130.681 74.5826C130.531 74.7921 130.456 75.1026 130.456 75.5141C130.456 75.9257 130.531 76.2362 130.681 76.4457C130.83 76.6552 131.028 76.76 131.275 76.76ZM137.394 77.5906H139.527V69.2624H137.394V77.5906ZM147.131 74.5601C147.131 72.551 145.672 71.4062 143.876 71.4062C141.956 71.4062 140.531 72.7082 140.531 74.5377C140.531 76.3559 141.934 77.6916 144.1 77.6916C145.256 77.6916 146.109 77.3549 146.693 76.7039L145.571 75.5366C145.155 75.8958 144.762 76.0641 144.168 76.0641C143.382 76.0641 142.854 75.705 142.675 75.0876H147.097C147.108 74.9193 147.131 74.7172 147.131 74.5601ZM143.887 72.9214C144.549 72.9214 145.021 73.3255 145.133 73.9652H142.641C142.765 73.3255 143.225 72.9214 143.887 72.9214ZM150.325 77.6916C152.3 77.6916 153.333 76.8161 153.333 75.6937C153.333 73.2806 149.753 74.1897 149.753 73.3479C149.753 73.1234 150.011 72.9214 150.729 72.9214C151.268 72.9214 151.874 73.0337 152.48 73.3704L153.12 71.9225C152.514 71.5858 151.571 71.4062 150.718 71.4062C148.81 71.4062 147.755 72.2816 147.755 73.4265C147.755 75.8621 151.346 74.9305 151.346 75.7498C151.346 76.008 151.111 76.1651 150.392 76.1651C149.652 76.1651 148.832 75.9519 148.271 75.6039L147.631 77.0631C148.226 77.4334 149.292 77.6916 150.325 77.6916ZM156.463 77.6916C158.439 77.6916 159.471 76.8161 159.471 75.6937C159.471 73.2806 155.891 74.1897 155.891 73.3479C155.891 73.1234 156.149 72.9214 156.867 72.9214C157.406 72.9214 158.012 73.0337 158.618 73.3704L159.258 71.9225C158.652 71.5858 157.709 71.4062 156.856 71.4062C154.948 71.4062 153.893 72.2816 153.893 73.4265C153.893 75.8621 157.485 74.9305 157.485 75.7498C157.485 76.008 157.249 76.1651 156.53 76.1651C155.79 76.1651 154.97 75.9519 154.409 75.6039L153.769 77.0631C154.364 77.4334 155.431 77.6916 156.463 77.6916ZM229.506 98.7253C228.855 98.7253 228.275 98.5644 227.766 98.2426C227.257 97.9209 226.857 97.457 226.565 96.8509C226.281 96.2373 226.139 95.5077 226.139 94.6622C226.139 93.8167 226.281 93.0908 226.565 92.4847C226.857 91.8712 227.257 91.4035 227.766 91.0818C228.275 90.76 228.855 90.5991 229.506 90.5991C230.157 90.5991 230.737 90.76 231.246 91.0818C231.754 91.4035 232.151 91.8712 232.435 92.4847C232.727 93.0908 232.873 93.8167 232.873 94.6622C232.873 95.5077 232.727 96.2373 232.435 96.8509C232.151 97.457 231.754 97.9209 231.246 98.2426C230.737 98.5644 230.157 98.7253 229.506 98.7253ZM229.506 97.1876C229.985 97.1876 230.359 96.9818 230.628 96.5703C230.905 96.1587 231.044 95.5227 231.044 94.6622C231.044 93.8017 230.905 93.1657 230.628 92.7541C230.359 92.3426 229.985 92.1368 229.506 92.1368C229.034 92.1368 228.66 92.3426 228.383 92.7541C228.114 93.1657 227.979 93.8017 227.979 94.6622C227.979 95.5227 228.114 96.1587 228.383 96.5703C228.66 96.9818 229.034 97.1876 229.506 97.1876ZM234.647 98.6804C234.34 98.6804 234.082 98.5756 233.872 98.3661C233.663 98.1566 233.558 97.8947 233.558 97.5804C233.558 97.2587 233.663 97.0005 233.872 96.806C234.082 96.6039 234.34 96.5029 234.647 96.5029C234.953 96.5029 235.212 96.6039 235.421 96.806C235.631 97.0005 235.735 97.2587 235.735 97.5804C235.735 97.8947 235.631 98.1566 235.421 98.3661C235.212 98.5756 234.953 98.6804 234.647 98.6804ZM240.192 93.6633C240.693 93.6633 241.149 93.7643 241.561 93.9663C241.972 94.1683 242.298 94.4564 242.537 94.8306C242.777 95.1972 242.896 95.6237 242.896 96.1101C242.896 96.6339 242.766 97.094 242.504 97.4906C242.242 97.8872 241.883 98.194 241.426 98.411C240.977 98.6205 240.476 98.7253 239.922 98.7253C238.822 98.7253 237.962 98.3885 237.341 97.7151C236.72 97.0417 236.409 96.0802 236.409 94.8306C236.409 93.9401 236.577 93.1769 236.914 92.5409C237.251 91.9048 237.718 91.4222 238.317 91.093C238.923 90.7637 239.623 90.5991 240.416 90.5991C240.835 90.5991 241.235 90.6478 241.617 90.745C242.006 90.8348 242.335 90.9658 242.605 91.1379L241.931 92.4735C241.542 92.2116 241.052 92.0807 240.461 92.0807C239.795 92.0807 239.267 92.2752 238.878 92.6643C238.489 93.0534 238.28 93.6184 238.25 94.3591C238.714 93.8952 239.361 93.6633 240.192 93.6633ZM239.821 97.3672C240.21 97.3672 240.524 97.2624 240.764 97.0529C241.011 96.8434 241.134 96.559 241.134 96.1999C241.134 95.8407 241.011 95.5564 240.764 95.3469C240.524 95.1299 240.203 95.0214 239.799 95.0214C239.402 95.0214 239.077 95.1336 238.822 95.3581C238.568 95.5751 238.441 95.8557 238.441 96.1999C238.441 96.5441 238.564 96.8247 238.811 97.0417C239.058 97.2587 239.395 97.3672 239.821 97.3672ZM247.338 93.6633C247.839 93.6633 248.296 93.7643 248.707 93.9663C249.119 94.1683 249.444 94.4564 249.684 94.8306C249.923 95.1972 250.043 95.6237 250.043 96.1101C250.043 96.6339 249.912 97.094 249.65 97.4906C249.388 97.8872 249.029 98.194 248.573 98.411C248.124 98.6205 247.622 98.7253 247.069 98.7253C245.969 98.7253 245.108 98.3885 244.487 97.7151C243.866 97.0417 243.556 96.0802 243.556 94.8306C243.556 93.9401 243.724 93.1769 244.061 92.5409C244.397 91.9048 244.865 91.4222 245.464 91.093C246.07 90.7637 246.769 90.5991 247.562 90.5991C247.982 90.5991 248.382 90.6478 248.763 90.745C249.153 90.8348 249.482 90.9658 249.751 91.1379L249.078 92.4735C248.689 92.2116 248.199 92.0807 247.607 92.0807C246.941 92.0807 246.414 92.2752 246.025 92.6643C245.636 93.0534 245.426 93.6184 245.396 94.3591C245.86 93.8952 246.507 93.6633 247.338 93.6633ZM246.968 97.3672C247.357 97.3672 247.671 97.2624 247.91 97.0529C248.157 96.8434 248.281 96.559 248.281 96.1999C248.281 95.8407 248.157 95.5564 247.91 95.3469C247.671 95.1299 247.349 95.0214 246.945 95.0214C246.549 95.0214 246.223 95.1336 245.969 95.3581C245.714 95.5751 245.587 95.8557 245.587 96.1999C245.587 96.5441 245.711 96.8247 245.957 97.0417C246.204 97.2587 246.541 97.3672 246.968 97.3672ZM254.372 93.9326C255.061 94.0449 255.588 94.303 255.955 94.7071C256.321 95.1037 256.505 95.5975 256.505 96.1887C256.505 96.6451 256.385 97.0679 256.146 97.457C255.906 97.8386 255.54 98.1454 255.046 98.3773C254.559 98.6093 253.961 98.7253 253.25 98.7253C252.696 98.7253 252.15 98.6542 251.611 98.512C251.08 98.3624 250.627 98.1528 250.253 97.8835L250.96 96.4917C251.259 96.7162 251.604 96.892 251.993 97.0192C252.389 97.1389 252.793 97.1988 253.205 97.1988C253.661 97.1988 254.021 97.1128 254.282 96.9407C254.544 96.7611 254.675 96.5104 254.675 96.1887C254.675 95.5451 254.185 95.2234 253.205 95.2234H252.374V94.0224L253.991 92.1929H250.646V90.7338H256.146V91.9123L254.372 93.9326Z" fill="white"></path><path d="M74.8892 31.585V30.8762C73.2008 30.772 73.034 30.6678 73.034 29.6881V26.1654C73.3467 26.2279 73.7636 26.2696 74.2847 26.2696C76.2858 26.2696 77.5573 25.8944 78.4536 25.1649C79.3916 24.4353 79.8293 23.2263 79.8293 21.9131C79.8293 20.4123 79.2874 19.245 78.3077 18.6405C77.4322 18.0986 76.3691 17.9735 74.7849 17.9735H68.0939V18.7239C69.4488 18.7865 69.6155 18.8907 69.6155 19.8912V29.6881C69.6155 30.6678 69.4488 30.772 68.0939 30.8346V31.585H74.8892ZM73.034 19.6202C73.034 19.0783 73.0757 18.8907 74.0345 18.8907C75.2644 18.8907 76.3066 19.7661 76.3066 22.0382C76.3066 23.8517 75.9731 25.3316 74.2847 25.3316C73.5551 25.3316 73.034 25.1023 73.034 24.3728V19.6202ZM89.7155 24.5812C89.7155 23.3514 89.3403 21.7255 85.7967 21.7255C82.8159 21.7255 81.2526 22.9137 81.2526 24.1852C81.2526 25.1023 82.5866 25.4567 83.1078 25.4567C83.5246 25.4567 83.7748 25.1232 83.9415 24.6438C84.4626 22.8511 85.0671 22.6635 85.5882 22.6635C86.1719 22.6635 86.6722 23.0179 86.6722 24.1226V25.1023C85.9634 25.5609 84.3584 26.082 83.1286 26.4781C81.5444 27.0409 81.0025 27.833 81.0025 28.9586C81.0025 30.4385 81.9822 31.8351 83.9832 31.8351C85.2547 31.8351 86.0677 31.1681 86.7764 30.7095C87.0057 31.3765 87.4434 31.8351 88.4023 31.8351C89.5904 31.8351 90.5701 31.5224 91.1746 31.2514L91.1329 30.5427C90.8827 30.5427 90.445 30.5219 90.2366 30.4177C89.9031 30.2718 89.7155 29.9382 89.7155 28.9794V24.5812ZM86.6722 29.0002C86.6722 29.9799 86.0677 30.2509 85.5674 30.2509C84.8587 30.2509 84.1708 29.6881 84.1708 28.6459C84.1708 27.7287 84.4626 27.2285 84.9838 26.9158C85.5674 26.5614 86.1927 26.3322 86.6722 26.1029V29.0002ZM97.851 22.9762V21.9757H95.8708V19.516H94.6618L92.8692 21.9757H91.6602V22.9762H92.7649V29.2712C92.7649 31.0222 94.0781 31.8351 95.2246 31.8351C95.9958 31.8351 96.9755 31.5016 98.122 30.772L97.9135 30.1467C97.6634 30.2509 97.2673 30.3343 97.0797 30.3343C96.3919 30.3343 95.8708 29.834 95.8708 28.5417V22.9762H97.851ZM104.487 22.9762V21.9757H102.507V19.516H101.298L99.5052 21.9757H98.2962V22.9762H99.401V29.2712C99.401 31.0222 100.714 31.8351 101.861 31.8351C102.632 31.8351 103.612 31.5016 104.758 30.772L104.55 30.1467C104.299 30.2509 103.903 30.3343 103.716 30.3343C103.028 30.3343 102.507 29.834 102.507 28.5417V22.9762H104.487ZM113.804 26.6865C114.554 26.6865 114.888 26.4572 114.888 25.8319C114.888 24.1643 114.283 21.7255 110.469 21.7255C106.883 21.7255 105.591 24.0601 105.591 26.7699C105.591 29.3963 106.717 31.8559 110.427 31.8351C112.761 31.8351 114.054 30.7095 114.742 28.9794L114.012 28.5625C113.428 29.6881 112.574 30.2718 111.427 30.2718C109.551 30.2718 108.864 28.7293 108.864 26.6865H113.804ZM108.843 25.7068C108.843 24.206 109.26 22.6635 110.427 22.6635C111.511 22.6635 111.761 24.1226 111.761 25.0606C111.761 25.6026 111.594 25.7068 111.156 25.7068H108.843ZM120.262 25.5192C120.262 24.5604 120.449 24.0393 120.908 24.0393C121.22 24.0393 121.512 24.2477 121.887 24.5187C122.138 24.7063 122.367 24.9356 122.763 24.9356C123.722 24.9356 124.222 23.9767 124.222 23.1638C124.222 22.2675 123.638 21.7255 122.805 21.7255C121.95 21.7255 121.325 22.2883 120.199 23.4765L119.97 21.7464L116.03 22.33V23.0596L116.697 23.1638C116.989 23.1846 117.156 23.3722 117.156 24.1643V29.8966C117.156 30.6886 116.989 30.772 115.905 30.8346V31.585H121.908V30.8346C120.449 30.7512 120.262 30.6886 120.262 29.8966V25.5192ZM135.472 24.7271C135.472 22.9137 134.534 21.7255 132.513 21.7255C131.408 21.7255 130.491 22.3092 129.177 23.0596L128.927 21.7464L124.925 22.33V23.0596L125.613 23.1638C125.905 23.1846 126.072 23.3722 126.072 24.1643V29.9382C126.072 30.7095 125.884 30.772 124.821 30.8346V31.585H130.157V30.8346C129.594 30.772 129.177 30.772 129.177 29.9799V25.3525C129.177 24.9356 129.24 24.4562 129.386 24.1852C129.594 23.7057 130.074 23.2889 130.887 23.2889C131.825 23.2889 132.346 23.8725 132.346 24.9773V30.0633C132.346 30.8554 131.929 30.772 131.387 30.8346V31.585H136.723V30.8346C135.639 30.772 135.472 30.6886 135.472 29.8966V24.7271ZM150.828 21.7881V18.5155C149.765 17.8693 148.243 17.64 147.076 17.64C143.532 17.64 142.136 19.4743 142.136 21.7881C142.136 24.2269 143.762 25.1649 146.096 26.2071C147.93 27.02 148.535 27.7287 148.535 28.896C148.535 30.3343 147.66 30.9805 146.451 30.9805C144.95 30.9805 143.553 29.6256 142.761 27.1242H142.032L142.302 30.7512C143.345 31.6892 145.2 31.9185 146.492 31.9185C150.494 31.9185 151.682 29.6464 151.682 27.6037C151.682 24.9981 149.848 24.1643 148.076 23.3514C146.492 22.601 145.116 22.059 145.116 20.5791C145.116 19.4326 145.867 18.5572 147.076 18.5572C148.327 18.5572 149.536 19.4535 150.119 21.7881H150.828ZM164.461 31.585V30.8346C163.378 30.772 163.211 30.6886 163.211 29.8966V22.0173L163.086 21.8923L158.979 22.1841V22.9345L159.646 23.0387C159.938 23.0804 160.105 23.3931 160.105 24.1852V28.2915C160.105 28.6042 160.063 29.0836 159.938 29.3754C159.813 29.7715 159.459 30.2301 158.625 30.2301C157.604 30.2301 157.041 29.6464 157.041 28.1039V22.0173L156.895 21.8923L152.789 22.1841V22.9345L153.476 23.0387C153.747 23.0804 153.914 23.3722 153.914 24.1852V28.896C153.914 31.2098 155.352 31.8351 156.77 31.8351C158.437 31.8351 159.396 30.9805 160.105 30.5219L160.251 31.585H164.461ZM166.437 29.8966C166.437 30.6886 166.25 30.772 165.187 30.8346V31.585H170.523V30.8346C169.96 30.772 169.543 30.8554 169.543 30.0633V25.6026C169.543 25.3108 169.564 24.9564 169.606 24.7063C169.814 23.7266 170.502 23.2889 171.273 23.2889C172.128 23.2889 172.628 23.9976 172.628 25.1023V30.0633C172.628 30.8554 172.211 30.772 171.649 30.8346V31.585H176.714V30.8346C176.151 30.772 175.734 30.8554 175.734 30.0633V25.6026C175.734 25.3108 175.755 24.9147 175.817 24.6854C176.047 23.6849 176.693 23.3097 177.36 23.2889C178.215 23.2889 178.819 23.9142 178.819 25.1023V30.0633C178.819 30.8554 178.402 30.772 177.839 30.8346V31.585H183.176V30.8346C182.092 30.772 181.925 30.6886 181.925 29.8966V24.748C181.925 22.8928 180.945 21.7255 178.861 21.7255C177.527 21.7255 176.318 22.6427 175.442 23.1846C175.067 22.5176 174.254 21.7255 172.774 21.7255C171.524 21.7255 170.69 22.3509 169.543 23.0596L169.272 21.7464L165.291 22.33V23.0596L165.979 23.1638C166.271 23.1846 166.437 23.3722 166.437 24.1643V29.8966ZM185.165 29.8966C185.165 30.6886 184.977 30.772 183.914 30.8346V31.585H189.25V30.8346C188.688 30.772 188.271 30.8554 188.271 30.0633V25.6026C188.271 25.3108 188.292 24.9564 188.333 24.7063C188.542 23.7266 189.23 23.2889 190.001 23.2889C190.855 23.2889 191.356 23.9976 191.356 25.1023V30.0633C191.356 30.8554 190.939 30.772 190.376 30.8346V31.585H195.441V30.8346C194.878 30.772 194.462 30.8554 194.462 30.0633V25.6026C194.462 25.3108 194.482 24.9147 194.545 24.6854C194.774 23.6849 195.42 23.3097 196.087 23.2889C196.942 23.2889 197.547 23.9142 197.547 25.1023V30.0633C197.547 30.8554 197.13 30.772 196.567 30.8346V31.585H201.903V30.8346C200.819 30.772 200.652 30.6886 200.652 29.8966V24.748C200.652 22.8928 199.673 21.7255 197.588 21.7255C196.254 21.7255 195.045 22.6427 194.17 23.1846C193.795 22.5176 192.982 21.7255 191.502 21.7255C190.251 21.7255 189.417 22.3509 188.271 23.0596L188 21.7464L184.018 22.33V23.0596L184.706 23.1638C184.998 23.1846 185.165 23.3722 185.165 24.1643V29.8966ZM211.607 24.5812C211.607 23.3514 211.232 21.7255 207.688 21.7255C204.707 21.7255 203.144 22.9137 203.144 24.1852C203.144 25.1023 204.478 25.4567 204.999 25.4567C205.416 25.4567 205.666 25.1232 205.833 24.6438C206.354 22.8511 206.958 22.6635 207.48 22.6635C208.063 22.6635 208.563 23.0179 208.563 24.1226V25.1023C207.855 25.5609 206.25 26.082 205.02 26.4781C203.436 27.0409 202.894 27.833 202.894 28.9586C202.894 30.4385 203.873 31.8351 205.875 31.8351C207.146 31.8351 207.959 31.1681 208.668 30.7095C208.897 31.3765 209.335 31.8351 210.294 31.8351C211.482 31.8351 212.461 31.5224 213.066 31.2514L213.024 30.5427C212.774 30.5427 212.336 30.5219 212.128 30.4177C211.794 30.2718 211.607 29.9382 211.607 28.9794V24.5812ZM208.563 29.0002C208.563 29.9799 207.959 30.2509 207.459 30.2509C206.75 30.2509 206.062 29.6881 206.062 28.6459C206.062 27.7287 206.354 27.2285 206.875 26.9158C207.459 26.5614 208.084 26.3322 208.563 26.1029V29.0002ZM217.95 25.5192C217.95 24.5604 218.137 24.0393 218.596 24.0393C218.909 24.0393 219.2 24.2477 219.576 24.5187C219.826 24.7063 220.055 24.9356 220.451 24.9356C221.41 24.9356 221.91 23.9767 221.91 23.1638C221.91 22.2675 221.326 21.7255 220.493 21.7255C219.638 21.7255 219.013 22.2883 217.887 23.4765L217.658 21.7464L213.718 22.33V23.0596L214.385 23.1638C214.677 23.1846 214.844 23.3722 214.844 24.1643V29.8966C214.844 30.6886 214.677 30.772 213.593 30.8346V31.585H219.596V30.8346C218.137 30.7512 217.95 30.6886 217.95 29.8966V25.5192ZM229.584 21.9757V22.7469L230.542 22.872C230.813 22.8928 230.938 23.0804 230.834 23.4348C230.396 25.2066 229.75 27.2076 229.167 28.9169H229.125C228.5 27.3118 227.582 25.3108 226.978 23.5181C226.853 23.1221 226.915 22.9137 227.207 22.872L227.937 22.7469V21.9757H222.309V22.7469C223.143 22.872 223.309 22.8094 223.685 23.6432C224.518 25.4775 226.144 29.1878 227.27 32.0644C227.416 32.4396 227.582 33.19 227.416 33.5443C227.228 34.0238 227.061 34.2322 226.665 34.2322C226.436 34.2322 226.186 34.1071 225.977 33.9404C225.581 33.6486 225.394 33.5027 225.06 33.5027C224.393 33.5027 223.747 34.399 223.747 35.1702C223.747 35.9623 224.602 36.4209 225.331 36.4209C226.77 36.4209 227.666 35.6079 228.729 32.8148C229.854 29.834 231.105 26.353 232.022 24.1018C232.439 23.0804 232.481 22.8511 233.565 22.7469V21.9757H229.584Z" fill="#312C33"></path></svg>