<svg xmlns="http://www.w3.org/2000/svg" width="1334" height="448" viewBox="0 0 1334 448" fill="none"><g opacity="0.1"><path d="M1007.03 0L326.807 0.971379L0.134277 448L1333.87 446.193L1007.03 0ZM1301.16 404.851L1244.33 404.851L1221.58 370.737L1276.19 370.737L1301.16 404.851ZM684.559 76.6418L685.019 90.7851H648.768L649.228 76.6612L684.559 76.6418ZM649.281 75.787L649.707 62.4014L684.116 62.4014L684.541 75.787H649.281ZM685.586 107.687L686.1 123.521L647.722 123.521L648.236 107.687L685.586 107.687ZM648.271 106.716L648.75 91.7759H685.073L685.551 106.716L648.271 106.716ZM941.953 249.508L933.005 226.292H978.134L988.588 249.606L941.953 249.508ZM989.314 251.024L1000.55 275.969H952.159L942.556 251.024H989.314ZM932.438 224.816L924.093 203.154H967.716L977.461 224.816H932.438ZM923.579 201.775L915.765 181.531H957.97L967.095 201.775H923.579ZM421.388 180.91L428.617 161.909H469.493L463.505 180.91H421.388ZM463.079 182.153L456.701 202.435H413.167L420.892 182.153H463.079ZM604.259 123.618H565.881L568.592 107.784H605.96L604.259 123.618ZM606.687 124.686H645.171L644.551 141.472L604.968 141.472L606.687 124.686ZM566.306 106.832L529.098 106.832L532.642 91.8924L568.964 91.8924L566.306 106.832ZM566.129 107.842L563.347 123.676L524.952 123.676L528.779 107.842L566.129 107.842ZM563.153 124.764L560.194 141.549H520.646L524.704 124.744L563.153 124.764ZM565.686 124.764H604.153L602.381 141.549H562.816L565.686 124.764ZM604.844 142.637L644.497 142.637L643.842 160.472L603.09 160.472L604.844 142.637ZM645.118 203.562H688.74L689.449 225.224H644.409L645.118 203.562ZM767.551 106.58L764.911 91.6399H801.234L804.778 106.58H767.551ZM805.079 107.532L808.906 123.365H770.51L767.729 107.551L805.079 107.532ZM767.994 123.404H729.581L727.809 107.59H765.195L767.994 123.404ZM728.872 141.316H689.307L688.687 124.55H727.154L728.872 141.316ZM689.36 142.501L729.014 142.404L730.786 160.239H690.034L689.36 142.501ZM729.687 124.531H768.172L771.06 141.316H731.477L729.687 124.531ZM770.705 124.531H809.172L813.229 141.297H773.664L770.705 124.531ZM811.706 124.531H850.172L855.381 141.297H815.834L811.706 124.531ZM811.44 123.443L807.542 107.629L844.91 107.629L849.835 123.462L811.44 123.443ZM807.294 106.619L803.626 91.6788L839.949 91.6788L844.591 106.619L807.294 106.619ZM803.396 90.7268L799.852 76.6029L835.324 76.3504L839.718 90.4742L803.396 90.7268ZM801.004 90.7268H764.752L762.254 76.6029H797.584L801.004 90.7268ZM765.089 106.677H727.774L726.179 91.737H762.519L765.089 106.677ZM727.047 123.579H688.652L688.067 107.765H725.435L727.047 123.579ZM688.687 202.222H645.171L645.826 181.959H688.031L688.687 202.222ZM645.206 123.579H606.793L608.405 107.745H645.791L645.206 123.579ZM606.066 106.774H568.769L571.321 91.8924H607.643L606.066 106.774ZM569.124 90.9405L532.872 90.9405L536.274 76.7972L571.604 76.7972L569.124 90.9405ZM530.48 90.9405H494.21L498.605 76.8166H534.041L530.48 90.9405ZM530.25 91.8924L526.564 106.832H489.249L493.909 91.8924H530.25ZM526.316 107.842L522.436 123.676H484.022L488.948 107.842H526.316ZM522.17 124.919L518.042 141.705H478.459L483.774 124.9L522.17 124.919ZM517.758 142.832L513.382 160.686H472.629L478.175 142.832H517.758ZM520.363 142.832H559.999L556.863 160.686H516.11L520.363 142.832ZM562.603 142.832H602.239L600.343 160.686H559.591L562.603 142.832ZM602.895 161.832L643.806 161.832L643.098 180.812L600.964 180.812L602.895 161.832ZM644.373 226.836H689.502L690.246 250.15H643.612L644.373 226.836ZM690.034 161.54H730.91L732.841 180.541H690.725L690.034 161.54ZM731.601 142.404H771.255L774.32 160.239H733.568L731.601 142.404ZM773.859 142.404H813.495L817.801 160.239H777.048L773.859 142.404ZM816.1 142.404H855.736L861.299 160.239H820.547L816.1 142.404ZM858.358 142.404L898.012 142.404L904.798 160.239L864.046 160.239L858.358 142.404ZM857.986 141.258L852.67 124.492H891.155L897.533 141.258L857.986 141.258ZM852.351 123.423L847.373 107.435H884.741L890.783 123.268L852.351 123.423ZM847.036 106.58L842.411 91.5039H878.752L884.439 106.424L847.036 106.58ZM842.022 90.6879L837.574 76.3504H873.011L878.327 90.4742L842.022 90.6879ZM837.273 75.651L833.038 62.2848L867.465 62.2848L872.568 75.6704L837.273 75.651ZM834.952 75.651L799.675 75.651L796.344 62.1876H830.753L834.952 75.651ZM797.354 75.651H762.076L759.72 62.2654L794.111 62.2654L797.354 75.651ZM762.342 90.7462H726.073L724.567 76.6029H759.915L762.342 90.7462ZM725.311 106.696H688.014L687.464 91.7759H723.769L725.311 106.696ZM687.978 180.618H645.862L646.482 161.637H687.358L687.978 180.618ZM645.809 106.793H608.494L610.035 91.8536H646.358L645.809 106.793ZM607.732 90.9405H571.48L573.908 76.7972H609.238L607.732 90.9405ZM571.746 75.9424L536.486 75.9424L539.711 62.5568H574.102L571.746 75.9424ZM534.165 75.9424H498.87L503.034 62.5568L537.443 62.5568L534.165 75.9424ZM496.549 75.9424H461.272L466.375 62.5568L500.766 62.5568L496.549 75.9424ZM496.248 76.8555L491.801 90.9988H455.549L460.865 76.8555H496.248ZM491.588 92.009L486.875 106.949H449.578L455.266 91.9896L491.588 92.009ZM486.556 107.959L481.56 123.793H443.164L449.064 108.017L486.556 107.959ZM481.241 124.88L475.925 141.666H436.378L442.756 124.861L481.241 124.88ZM475.588 142.793L469.954 160.647H429.202L435.988 142.793H475.588ZM472.187 161.832H513.08L508.403 180.832H466.269L472.187 161.832ZM515.774 161.832H556.65L553.301 180.832H511.185L515.774 161.832ZM559.343 161.832H600.219L598.182 180.832H556.065L559.343 161.832ZM600.822 182.056L643.045 182.056L642.3 202.319L598.749 202.319L600.822 182.056ZM643.558 251.607H690.299L691.114 276.571H642.743L643.558 251.607ZM690.813 181.939H733.018L735.091 202.202H691.557L690.813 181.939ZM733.621 161.579H774.532L777.793 180.579H735.658L733.621 161.579ZM777.226 161.579H818.102L822.691 180.56H780.574L777.226 161.579ZM820.795 161.579H861.671L867.572 180.56H825.455L820.795 161.579ZM864.365 161.579L905.258 161.579L912.487 180.56L870.353 180.56L864.365 161.579ZM913.001 181.803L920.709 202.047H877.157L870.761 181.59L913.001 181.803ZM915.269 180.502L907.969 161.249H948.846L957.404 180.23L915.269 180.502ZM907.491 160.297L900.616 142.482H940.252L948.296 160.297H907.491ZM900.173 141.336L893.795 124.298H932.261L939.809 141.064L900.173 141.336ZM893.298 123.501L887.203 107.435H924.571L931.659 123.268L893.298 123.501ZM886.814 106.657L881.073 91.7176H917.378L924.111 106.638L886.814 106.657ZM880.701 90.7657L875.261 76.3504H910.592L916.953 90.4742L880.701 90.7657ZM874.907 75.7287L869.751 62.3625L904.142 62.3625L910.184 75.7481L874.907 75.7287ZM869.414 61.5077L864.524 48.8215H898.047L903.77 61.5077L869.414 61.5077ZM867.164 61.5077L832.79 61.5077L828.786 48.8215L862.327 48.8215L867.164 61.5077ZM830.54 61.5077H796.184L793.066 48.8215H826.589L830.54 61.5077ZM793.934 61.5077L759.596 61.5077L757.363 48.6855L790.887 48.6855L793.934 61.5077ZM757.47 62.4208L759.773 75.8064H724.478L723.061 62.4402L757.47 62.4208ZM723.699 90.7268H687.447L686.915 76.6029H722.246L723.699 90.7268ZM687.323 160.336H646.571L647.155 142.501H686.791L687.323 160.336ZM646.411 90.8239H610.142L611.595 76.7001H646.943L646.411 90.8239ZM609.362 75.8452H574.085L576.388 62.4597L610.779 62.4597L609.362 75.8452ZM574.28 61.6437H539.942L543.007 48.9381H576.512L574.28 61.6437ZM537.674 61.6437L503.318 61.6437L507.269 48.9575L540.792 48.9575L537.674 61.6437ZM501.05 61.6437L466.712 61.6437L471.549 48.9381H505.054L501.05 61.6437ZM464.461 61.6437H430.123L435.828 48.9381L469.352 48.9381L464.461 61.6437ZM464.125 62.4985L458.969 75.9035L423.709 75.9035L429.733 62.5179L464.125 62.4985ZM458.614 76.8166L453.175 90.9405L416.923 90.9405L423.284 76.7972L458.614 76.8166ZM452.803 91.9119L447.062 106.852L409.765 106.852L416.498 91.8924L452.803 91.9119ZM446.672 107.862L440.577 123.695L402.181 123.695L409.269 107.862L446.672 107.862ZM440.205 124.919L433.755 141.724H394.19L401.756 124.919L440.205 124.919ZM433.312 142.851L426.438 160.705H385.686L393.712 142.851H433.312ZM425.924 161.832L418.606 180.832H376.507L385.048 161.832H425.924ZM418.11 182.153L410.314 202.416L366.78 202.416L375.905 182.153H418.11ZM409.783 203.795L401.437 225.477L356.415 225.477L366.16 203.795L409.783 203.795ZM400.923 226.953L391.976 250.266L345.341 250.266L355.795 226.953L400.923 226.953ZM391.373 251.781L381.734 276.804H333.363L344.526 251.917L391.373 251.781ZM381.096 278.436L370.749 305.324H320.517L332.619 278.436H381.096ZM384.304 278.436H432.781L424.258 305.324H374.027L384.304 278.436ZM384.941 276.726L394.438 251.762H441.179L433.312 276.726H384.941ZM395.041 250.188L403.9 226.875H449.029L441.711 250.188H395.041ZM404.449 225.457L412.706 203.795H456.311L449.472 225.457H404.449ZM459.181 203.718H502.822L497.506 225.399H452.448L459.181 203.718ZM459.607 202.338L465.914 182.075H508.137L503.158 202.338H459.607ZM510.99 182.017H553.195L549.651 202.28H506.135L510.99 182.017ZM555.977 182.017H598.164L596.02 202.28H552.486L555.977 182.017ZM598.731 203.582L642.371 203.582L641.574 225.263L596.516 225.263L598.731 203.582ZM642.814 278.145H691.292L692.178 305.013H641.928L642.814 278.145ZM691.735 203.465H735.357L737.572 225.127H692.532L691.735 203.465ZM735.924 181.764H778.147L781.691 202.008H738.139L735.924 181.764ZM780.929 181.764H823.116L828.024 202.027H784.49L780.929 181.764ZM825.898 181.764H868.103L874.304 201.853L830.77 201.853L825.898 181.764ZM874.836 203.348L881.392 224.874L836.352 224.874L831.036 203.212L874.836 203.348ZM877.706 203.348H921.364L929.603 225.01H884.546L877.706 203.348ZM930.17 226.409L939.03 249.625H892.359L885.024 226.312L930.17 226.409ZM939.49 251.199L949.005 276.124H900.581L892.714 251.199H939.49ZM949.643 277.834L959.884 304.702H909.599L901.13 277.834H949.643ZM952.832 277.834H1001.33L1013.43 304.702H963.197L952.832 277.834ZM1004.52 277.834H1053.01L1066.99 304.683H1016.74L1004.52 277.834ZM1003.75 276.124L992.397 251.199H1039.16L1052.13 276.124H1003.75ZM991.689 249.606L981.058 226.39H1026.2L1038.29 249.606H991.689ZM980.455 224.913L970.604 203.271H1014.21L1025.48 224.913H980.455ZM969.984 201.717L960.77 181.473H1002.98L1013.52 201.717H969.984ZM960.185 180.171L951.539 161.191H992.433L1002.3 180.171H960.185ZM950.972 159.889L942.857 142.074H982.493L991.777 159.889H950.972ZM942.343 140.928L934.706 124.162H973.173L981.908 140.928H942.343ZM934.228 123.093L927.034 107.435L964.385 107.435L972.624 123.249L934.228 123.093ZM926.574 106.249L919.77 91.329L956.092 91.329L963.871 106.269L926.574 106.249ZM919.344 90.3771L912.913 76.3504L948.243 76.3504L955.596 90.4742L919.344 90.3771ZM912.505 75.3402L906.41 61.9545H940.819L947.765 75.3207L912.505 75.3402ZM906.02 61.0997L900.244 48.4135L933.767 48.4135L940.359 61.0997H906.02ZM899.872 47.5976L894.397 35.5525L927.07 35.5525L933.342 47.617L899.872 47.5976ZM897.675 47.5976H864.223L859.563 35.533H892.253L897.675 47.5976ZM862.008 47.5976L828.538 47.5976L824.729 35.5525L857.419 35.5525L862.008 47.5976ZM826.323 47.5976H792.871L789.912 35.533H822.585L826.323 47.5976ZM790.674 47.5976L757.204 47.5976L755.078 35.533L787.75 35.533L790.674 47.5976ZM755.149 48.4718L757.363 61.3911H723.007L721.643 48.7049L755.149 48.4718ZM722.157 75.4373H686.88L686.401 62.0517L720.793 62.0517L722.157 75.4373ZM686.72 141.141H647.173L647.722 124.375L686.171 124.375L686.72 141.141ZM646.978 75.787H611.683L613.047 62.4014H647.474L646.978 75.787ZM610.868 61.6048L576.53 61.6048L578.727 48.8992L612.232 48.8992L610.868 61.6048ZM576.636 48.1415H543.184L546.09 36.077H578.762L576.636 48.1415ZM540.987 48.1415L507.499 48.1415L511.256 36.077L543.946 36.077L540.987 48.1415ZM505.302 48.1415H471.85L476.439 36.077H509.094L505.302 48.1415ZM469.635 48.1415L436.183 48.1415L441.622 36.077L474.277 36.077L469.635 48.1415ZM433.986 48.1415L400.498 48.1415L406.77 36.077H439.461L433.986 48.1415ZM433.614 48.9575L427.802 61.8574L393.446 61.8574L400.037 49.1518L433.614 48.9575ZM427.448 62.5568L421.37 75.9424H386.075L393.039 62.5568L427.448 62.5568ZM420.945 76.8555L414.531 90.9988H378.244L385.597 76.8555H420.945ZM414.088 91.9507L407.302 106.91H369.987L377.748 91.9702L414.088 91.9507ZM406.841 107.92L399.648 123.754H361.234L369.456 107.92H406.841ZM399.152 124.822L391.515 141.627L351.95 141.627L360.667 124.822H399.152ZM391.001 142.773L382.886 160.608L342.134 160.608L351.401 142.754L391.001 142.773ZM382.337 161.832L373.708 180.832H331.574L341.443 161.812L382.337 161.832ZM373.123 182.134L364.016 202.63H320.464L331.007 182.367L373.123 182.134ZM363.272 203.776L353.385 225.612H308.345L319.72 203.99L363.272 203.776ZM352.765 226.934L342.134 250.247H295.481L307.548 226.934H352.765ZM341.478 251.762L330.139 276.726H281.732L294.702 251.762H341.478ZM329.359 278.436L317.133 305.324H266.866L280.846 278.436H329.359ZM316.301 307.169L303.1 336.311H250.813L265.91 307.169H316.301ZM319.614 307.169H369.969L358.789 336.311H306.538L319.614 307.169ZM373.283 307.169H423.656L414.478 336.311H362.226L373.283 307.169ZM426.969 307.169H477.36L470.273 336.311H417.986L426.969 307.169ZM427.536 305.324L435.917 278.397H484.501L477.892 305.285L427.536 305.324ZM436.395 276.746L444.156 251.781H490.933L484.802 276.726L436.395 276.746ZM444.652 250.188L451.881 226.875H497.028L491.322 250.188H444.652ZM500.004 226.875H545.115L541.022 250.188H494.388L500.004 226.875ZM500.359 225.399L505.586 203.718H549.208L545.381 225.379L500.359 225.399ZM552.079 203.659H595.683L593.38 225.321H548.34L552.079 203.659ZM596.197 226.739L641.344 226.739L640.493 249.955L593.823 249.955L596.197 226.739ZM641.698 306.859H692.054L693.01 335.903H640.741L641.698 306.859ZM692.408 226.603H737.537L739.911 249.819H693.276L692.408 226.603ZM738.05 203.407H781.691L785.411 225.068H740.354L738.05 203.407ZM784.561 203.407H828.184L833.552 224.952H788.512L784.561 203.407ZM833.765 226.487L839.382 249.703H792.729L788.636 226.39L833.765 226.487ZM836.742 226.487L881.87 226.487L889.099 249.8L842.447 249.8L836.742 226.487ZM889.649 251.199L897.338 276.105H848.95L842.89 251.199L889.649 251.199ZM897.941 277.834L906.304 304.702H856.055L849.499 277.873L897.941 277.834ZM906.8 306.548L915.836 335.592H863.567L856.48 306.548H906.8ZM910.113 306.548H960.504L971.578 335.592H919.274L910.113 306.548ZM963.818 306.548H1014.19L1027.28 335.592H975.016L963.818 306.548ZM1017.5 306.548H1067.88L1082.99 335.573H1030.72L1017.5 306.548ZM1071.19 306.548H1121.6L1138.73 335.573H1086.43L1071.19 306.548ZM1070.23 304.722L1056.06 277.853H1104.57L1120.52 304.702L1070.23 304.722ZM1055.24 276.163L1042.17 251.218H1088.94L1103.65 276.144L1055.24 276.163ZM1041.34 249.644L1029.15 226.428H1074.31L1088.08 249.256L1041.34 249.644ZM1028.45 224.68L1017.1 203.038H1060.74L1073.51 224.699L1028.45 224.68ZM1016.37 201.658L1005.74 181.395L1047.94 181.259L1059.89 201.522L1016.37 201.658ZM1005.05 180.094L995.09 161.113H1036L1047.2 180.074L1005.05 180.094ZM994.417 159.908L985.062 142.093H1024.72L1035.24 159.908H994.417ZM984.459 140.947L975.6 124.181H1014.1L1023.99 140.947H984.459ZM975.104 123.113L966.794 107.279H1004.18L1013.57 122.977L975.104 123.113ZM966.245 106.269L958.413 91.3485H994.754L1003.61 106.288L966.245 106.269ZM957.917 90.3965L950.582 76.3504H986.019L994.346 90.4742L957.917 90.3965ZM950.033 75.3595L942.945 61.9934L977.372 61.9934L985.275 75.3595H950.033ZM942.556 61.1192L935.893 48.4329L969.434 48.4329L976.929 61.1192L942.556 61.1192ZM935.468 47.6364L929.231 35.5525H961.939L969.027 47.5976L935.468 47.6364ZM928.735 34.7947L922.729 23.3325L954.622 23.3325L961.39 34.7947H928.735ZM926.591 34.7947L893.972 34.7947L888.763 23.3325L920.656 23.3325L926.591 34.7947ZM891.828 34.7947H859.208L854.779 23.3325L886.672 23.3325L891.828 34.7947ZM857.047 34.7947L824.41 34.7947L820.866 23.3325L852.759 23.3325L857.047 34.7947ZM822.266 34.7947H789.646L786.829 23.3325L818.722 23.3325L822.266 34.7947ZM787.485 34.7947L754.865 34.7947L752.845 23.3325L784.738 23.3325L787.485 34.7947ZM752.863 35.6302L754.936 47.6947H721.448L720.173 35.6496L752.863 35.6302ZM720.633 61.2552L686.295 61.2552L685.817 48.569L719.34 48.569L720.633 61.2552ZM647.421 61.3523H613.065L614.359 48.6661H647.899L647.421 61.3523ZM612.25 47.889L578.78 47.889L580.853 35.8245L613.526 35.8245L612.25 47.889ZM578.851 35.1056H546.232L548.996 23.6239L580.889 23.6239L578.851 35.1056ZM544.088 35.1056L511.45 35.1056L514.994 23.6239L546.887 23.6239L544.088 35.1056ZM509.289 35.1056H476.669L481.046 23.6239L512.939 23.6239L509.289 35.1056ZM474.525 35.1056L441.977 35.5525L447.151 24.0707L479.044 24.0707L474.525 35.1056ZM439.762 35.1056H407.125L413.096 23.6239L444.989 23.6239L439.762 35.1056ZM404.981 35.1056H372.361L379.13 23.6239L411.023 23.6239L404.981 35.1056ZM404.573 35.9021L398.248 47.9667H364.796L371.883 35.9021H404.573ZM397.893 49.1518L391.231 61.8574H356.893L364.388 49.1518H397.893ZM390.806 62.7511L383.719 76.1367H348.442L356.344 62.7316L390.806 62.7511ZM383.311 77.0497L375.905 91.1931H339.653L347.981 77.0497H383.311ZM375.391 92.145L367.56 107.104H330.351L339.21 92.1645L375.391 92.145ZM367.028 108.114L358.701 123.967H320.305L329.642 108.114H367.028ZM358.169 125.016L349.31 141.821H309.745L319.649 125.016H358.169ZM348.778 142.968L339.423 160.802H298.671L309.178 142.948L348.778 142.968ZM338.785 162.026L328.827 181.026H286.729L297.927 162.026H338.785ZM328.154 182.328L317.523 202.61H274.007L285.949 182.328H328.154ZM316.797 203.99L305.439 225.671H260.417L273.192 203.99H316.797ZM304.677 227.147L292.487 250.46H245.852L259.549 227.147H304.677ZM291.654 251.976L278.578 276.94L230.207 276.94L244.913 251.976H291.654ZM277.692 278.63L263.518 305.538L213.41 305.596L229.268 278.708L277.692 278.63ZM262.632 307.364L247.412 336.505H195.16L212.276 307.364L262.632 307.364ZM246.366 338.448L229.87 369.94H175.422L193.92 338.623L246.366 338.448ZM249.804 338.448H302.232L287.827 369.862L233.361 369.862L249.804 338.448ZM305.669 338.448H358.063L345.926 369.707H291.495L305.669 338.448ZM361.518 338.448H413.893L403.953 369.707H349.505L361.518 338.448ZM417.348 338.448H469.759L462.016 369.707H407.532L417.348 338.448ZM473.214 338.448H525.59L520.062 369.921H465.613L473.214 338.448ZM473.693 336.505L480.78 307.364H531.135L526.015 336.505H473.693ZM481.152 305.596L487.619 278.397H536.114L531.366 305.285L481.152 305.596ZM488.044 276.668L494.069 251.704H540.827L536.433 276.668H488.044ZM543.893 251.645H590.651L587.976 276.454H539.587L543.893 251.645ZM544.176 250.052L548.163 226.739H593.291L590.811 250.052H544.176ZM593.788 251.568L640.564 251.568L639.554 276.454H591.148L593.788 251.568ZM640.83 337.904H693.223L694.251 369.357H639.802L640.83 337.904ZM693.471 251.432H740.212L742.763 276.377H694.392L693.471 251.432ZM740.655 226.545H785.801L789.806 249.858H743.136L740.655 226.545ZM790.071 251.296L794.359 276.241L745.953 276.241L743.189 251.373L790.071 251.296ZM793.154 251.296H839.895L845.92 276.241H797.549L793.154 251.296ZM846.31 277.873L852.794 304.741H802.545L797.814 277.873H846.31ZM853.237 306.587L860.325 335.631H808.056L802.935 306.587H853.237ZM860.732 337.671L868.333 369.124H813.885L808.339 337.671H860.732ZM864.187 337.671H916.58L926.379 369.124H871.913L864.187 337.671ZM920.036 337.671H972.464L984.442 369.124H929.958L920.036 337.671ZM975.902 337.671H1028.29L1042.47 369.124H988.021L975.902 337.671ZM1031.75 337.671H1084.14L1100.51 369.124H1046.07L1031.75 337.671ZM1087.6 337.671H1140.03L1158.58 369.124H1104.09L1087.6 337.671ZM1143.48 337.671H1195.87L1216.62 369.124H1162.17L1143.48 337.671ZM1142.29 335.728L1125.04 306.684H1175.41L1194.56 335.709L1142.29 335.728ZM1123.94 304.858L1107.99 278.009H1156.49L1174.21 304.858H1123.94ZM1106.96 276.299L1092.15 251.373L1138.91 251.373L1155.35 276.299H1106.96ZM1091.16 249.256L1077.36 226.04L1122.49 226.04L1137.81 249.256L1091.16 249.256ZM1076.47 224.583L1063.61 202.921H1107.23L1121.51 224.563L1076.47 224.583ZM1062.79 201.542L1050.74 181.259H1092.97L1106.41 201.522L1062.79 201.542ZM1049.98 179.997L1038.7 161.016H1079.57L1092.1 179.997H1049.98ZM1037.97 159.889L1027.34 142.074H1066.97L1078.77 159.889H1037.97ZM1026.68 140.889L1016.72 124.123H1055.19L1066.25 140.889H1026.68ZM1016.05 122.977L1006.64 107.162H1044.01L1054.5 122.977H1016.05ZM1006.04 106.133L997.181 91.2125H1033.5L1043.36 106.152L1006.04 106.133ZM996.597 90.2605L988.198 76.1367H1023.63L1032.94 90.2411L996.597 90.2605ZM987.737 75.2236L979.782 61.8574H1014.17L1023.03 75.243L987.737 75.2236ZM979.268 61.0026L971.755 48.3941H1005.26L1013.64 61.0803L979.268 61.0026ZM971.242 47.5004L964.154 35.4553L996.827 35.4553L1004.78 47.5198L971.242 47.5004ZM963.623 34.6782L956.801 23.2159L988.694 23.2159L996.26 34.6782L963.623 34.6782ZM956.376 22.4777L949.873 11.5594L980.987 11.5594L988.198 22.4777L956.376 22.4777ZM954.267 22.4777L922.374 22.4777L916.651 11.5788L947.782 11.5788L954.267 22.4777ZM920.337 22.4777L888.444 22.4777L883.465 11.5594L914.578 11.5594L920.337 22.4777ZM886.406 22.4777L854.513 22.4777L850.314 11.5594L881.427 11.5594L886.406 22.4777ZM852.493 22.4777L820.6 22.4777L817.145 11.5594L848.276 11.5594L852.493 22.4777ZM818.545 22.4777L786.652 22.4777L783.976 11.5594L815.09 11.5594L818.545 22.4777ZM784.632 22.4777L752.739 22.4777L750.808 11.5594L781.921 11.5594L784.632 22.4777ZM752.739 34.7365H720.102L718.879 23.2742L750.772 23.2742L752.739 34.7365ZM719.269 47.617L685.817 47.617L685.356 35.5525L718.029 35.5525L719.269 47.617ZM685.338 34.8336L684.913 23.3714L716.806 23.3714L717.975 34.8336L685.338 34.8336ZM648.413 34.8336H615.776L616.945 23.3714L648.838 23.3714L648.413 34.8336ZM648.413 35.6107L647.97 47.6559H614.483L615.723 35.5913L648.413 35.6107ZM613.65 34.8725L581.03 34.8725L582.997 23.4102L614.89 23.4102L613.65 34.8725ZM581.03 22.7108L549.137 22.7108L551.831 12.2394L582.944 12.2394L581.03 22.7108ZM547.117 22.7108L515.224 22.7108L518.626 11.7925L549.74 11.7925L547.117 22.7108ZM513.187 22.7108L481.294 22.7108L485.44 11.7731L516.553 11.7731L513.187 22.7108ZM479.256 22.7108L447.452 22.7108L452.36 11.7925L483.473 11.7925L479.256 22.7108ZM445.343 22.7108L413.45 22.7108L419.138 11.7925L450.269 11.7925L445.343 22.7108ZM411.413 22.7108L379.52 22.7108L385.969 11.7731L417.065 11.7731L411.413 22.7108ZM377.5 22.7108L345.607 22.7108L352.8 11.7925L383.914 11.7925L377.5 22.7108ZM377.057 23.449L370.288 35.5525L337.669 35.5525L345.235 24.0707L377.057 23.449ZM369.792 35.7078L362.705 47.7724L329.235 47.7724L337.19 35.6885L369.792 35.7078ZM362.244 49.2489L354.714 61.9545L320.376 61.9545L328.739 49.2489L362.244 49.2489ZM354.2 62.8482L346.245 76.2533L310.861 76.3504L319.72 62.9647L354.2 62.8482ZM345.713 77.1664L337.314 91.3096L301.063 91.3096L310.383 77.1664L345.713 77.1664ZM336.747 92.2616L327.888 107.221L290.68 107.221L300.531 92.281L336.747 92.2616ZM327.268 108.231L317.877 124.065L279.482 124.065L289.918 108.212L327.268 108.231ZM317.24 125.133L307.264 141.938H267.717L278.773 125.133L317.24 125.133ZM306.609 143.084L295.978 160.919H255.225L266.99 143.065L306.609 143.084ZM295.304 162.143L284.018 181.143L241.759 181.259L254.286 162.259L295.304 162.143ZM283.256 182.444L271.119 202.63H227.602L240.962 182.347L283.256 182.444ZM270.392 204.106L257.529 225.787H212.506L226.787 204.106H270.392ZM256.661 227.264L242.858 250.577H196.223L211.532 227.264H256.661ZM241.759 252.053L226.947 277.018H178.576L195.018 252.053H241.759ZM225.937 278.728L209.99 305.635H159.741L177.46 278.747L225.937 278.728ZM208.945 307.539L191.687 336.68H139.436L158.589 307.539H208.945ZM190.518 338.623L171.825 370.115H117.394L138.125 338.623H190.518ZM170.549 372.271L150.226 406.503H93.4214L115.959 372.252L170.549 372.271ZM174.093 372.271H228.666L210.735 406.503H153.912L174.093 372.271ZM232.262 372.271L286.87 372.271L271.314 406.503L214.473 406.503L232.262 372.271ZM290.467 372.271H345.04L331.875 406.503H275.052L290.467 372.271ZM348.636 372.271H403.209L392.419 406.503H335.613L348.636 372.271ZM406.806 372.271H461.432L453.015 406.483H396.157L406.806 372.271ZM465.011 372.271H519.601L513.577 406.483H456.754L465.011 372.271ZM523.198 372.271H577.788L574.138 406.503H517.315L523.198 372.271ZM523.57 370.115L528.974 338.642H581.367L578.018 370.095L523.57 370.115ZM529.311 336.661L534.307 307.519H584.68L581.58 336.563L529.311 336.661ZM534.626 305.771L539.304 278.397H587.781L584.928 305.285L534.626 305.771ZM587.994 307.519H638.385L637.304 336.563H585.017L587.994 307.519ZM588.171 305.693L590.935 278.805H639.448L638.456 305.674L588.171 305.693ZM639.554 372.116H694.144L695.261 406.328H638.438L639.554 372.116ZM694.286 278.669H742.763L745.51 305.557H695.278L694.286 278.669ZM745.669 307.305L748.646 336.35L696.377 336.35L695.314 307.305H745.669ZM745.917 278.592L794.448 278.592L799.072 305.46H748.788L745.917 278.592ZM799.374 307.228L804.37 336.272H752.083L748.983 307.228H799.374ZM804.689 338.312L810.093 369.765H755.609L752.26 338.312H804.689ZM810.465 371.922L816.348 406.134H759.49L755.84 371.922H810.465ZM814.009 371.922H868.599L876.856 406.134H820.033L814.009 371.922ZM872.178 371.922H926.768L937.399 406.114H880.577L872.178 371.922ZM930.365 371.922H984.991L998.333 405.259H941.457L930.365 371.922ZM988.588 371.922H1043.18L1058.59 406.114H1001.77L988.588 371.922ZM1046.77 371.922H1101.37L1119.17 406.114H1062.33L1046.77 371.922ZM1104.96 371.922H1159.59L1179.77 406.114H1122.91L1104.96 371.922ZM1163.18 371.824H1217.77L1240.35 405.998H1183.51L1163.18 371.824ZM1274.4 369.532L1219.94 369.532L1199.06 338.098L1251.46 338.098L1274.4 369.532ZM1250 336.097L1197.74 336.097L1178.46 307.072H1228.83L1250 336.097ZM1227.7 304.236H1177.45L1159.57 277.445H1208.07L1227.7 304.236ZM1206.88 275.677H1158.49L1141.85 250.81H1188.61L1206.88 275.677ZM1187.53 249.256H1140.88L1125.46 225.943H1170.59L1187.53 249.256ZM1169.51 224.563H1124.47L1110.1 202.921L1153.72 202.921L1169.51 224.563ZM1152.71 201.542L1109.18 201.542L1095.78 181.259L1138.01 181.259L1152.71 201.542ZM1137 179.997L1094.88 179.997L1082.26 161.016L1123.16 161.016L1137 179.997ZM1122.36 159.734L1081.61 159.734L1069.77 141.918H1109.41L1122.36 159.734ZM1108.52 140.772H1068.96L1057.81 124.006L1096.28 124.006L1108.52 140.772ZM1095.41 122.977L1057.02 122.977L1046.51 107.162L1083.88 107.162L1095.41 122.977ZM1083.13 106.152L1045.84 106.152L1035.93 91.2125L1072.25 91.2125L1083.13 106.152ZM1071.55 90.28L1035.29 90.28L1025.92 76.1561L1061.25 76.1561L1071.55 90.28ZM1060.58 75.243L1025.32 75.243L1016.46 61.8768L1050.87 61.8768L1060.58 75.243ZM1050.21 61.022L1015.86 61.022L1007.44 48.3358L1040.95 48.3358L1050.21 61.022ZM1040.36 47.5198L1006.89 47.5198L998.9 35.4747L1031.57 35.4747L1040.36 47.5198ZM1030.99 34.6976L998.368 34.6976L990.767 23.2354L1022.66 23.2354L1030.99 34.6976ZM1022.13 22.4971L990.236 22.4971L982.989 11.5983L1014.1 11.5983L1022.13 22.4971ZM1006.08 0.48569L1013.66 10.8794L982.599 10.8794L975.653 0.582804L1006.08 0.48569ZM973.687 0.48569L980.544 10.8988L949.483 10.8988L943.264 0.582804L973.687 0.48569ZM941.298 0.48569L947.446 10.8988L916.35 10.8988L910.857 0.582804L941.298 0.48569ZM908.891 0.48569L914.313 10.8988L883.234 10.8988L878.468 0.582804L908.891 0.48569ZM876.502 0.48569L881.197 10.8988L850.137 10.8988L846.079 0.582804L876.502 0.48569ZM844.112 0.48569L848.081 10.8794L817.003 10.8794L813.708 0.466243L844.112 0.48569ZM811.706 0.48569L814.948 10.8988L783.888 10.8988L781.336 0.48569L811.706 0.48569ZM779.334 0.48569L781.85 10.8988L750.772 10.8988L749 0.466243L779.334 0.48569ZM750.737 22.5748L718.844 22.5748L717.674 11.6565L748.805 11.6565L750.737 22.5748ZM746.945 0.54397L748.717 10.9571L717.639 10.9571L716.523 0.54397L746.945 0.54397ZM716.824 22.6137L684.931 22.6137L684.541 11.6954L715.637 11.6954L716.824 22.6137ZM714.574 0.582804L715.637 10.996L684.576 10.996L684.187 0.582804L714.574 0.582804ZM651.815 0.679918L682.184 0.679918L682.539 11.1126L651.461 11.1126L651.815 0.679918ZM651.443 11.7925L682.556 11.7925L682.911 22.7108L651.018 22.7108L651.443 11.7925ZM651.071 23.449L682.964 23.449L683.354 34.9114L650.734 34.9114L651.071 23.449ZM650.663 35.7078L683.336 35.7078L683.726 47.7724L650.274 47.7724L650.663 35.7078ZM650.238 48.569L683.761 48.569L684.169 61.2552L649.831 61.2552L650.238 48.569ZM619.408 0.718811L649.813 0.718811L649.423 11.132L618.345 11.132L619.408 0.718811ZM649.405 11.7925L648.998 22.7108L617.105 22.7108L618.221 11.7731L649.405 11.7925ZM587.019 0.757645L617.406 0.757645L616.29 11.1709L585.23 11.1709L587.019 0.757645ZM616.219 11.8508L615.05 22.7691L583.157 22.7691L585.035 11.8508L616.219 11.8508ZM585.017 0.757645L583.245 11.1902L552.185 11.1902L554.701 0.777091L585.017 0.757645ZM552.646 0.757645L550.059 11.5011L518.981 11.5011L522.223 1.06849L552.646 0.757645ZM520.239 0.757645L516.961 11.1902L485.901 11.1902L489.816 1.16561L520.239 0.757645ZM487.867 0.757645L483.845 11.1709L452.785 11.1709L457.48 0.757645L487.867 0.757645ZM455.478 0.757645L450.747 11.1902L419.652 11.1902L425.073 0.757645L455.478 0.757645ZM423.071 0.757645L417.614 11.1902L386.554 11.1902L392.702 0.777091L423.071 0.757645ZM390.7 0.757645L384.516 11.1709L353.456 11.1709L360.313 0.738198L390.7 0.757645ZM327.924 0.757645L358.311 0.757645L351.401 11.1902L320.323 11.1902L327.924 0.757645ZM319.72 12.5308L350.851 12.5308L343.604 23.4685L311.711 23.4685L319.72 12.5308ZM311.233 24.1873L343.126 24.1873L335.525 35.6496H302.888L311.233 24.1873ZM302.374 36.4461H335.064L327.056 48.5107H293.586L302.374 36.4461ZM292.983 49.3266H326.524L318.09 62.0323H283.734L292.983 49.3266ZM283.114 62.9259H317.523L308.664 76.3309H273.369L283.114 62.9259ZM272.696 77.2246H308.044L298.671 91.3679H262.401L272.696 77.2246ZM261.693 92.3198H298.033L288.111 107.26H250.902L261.693 92.3198ZM250.069 108.289H287.437L276.948 124.123H238.535L250.069 108.289ZM237.755 125.211H276.222L265.094 142.016H225.512L237.755 125.211ZM224.697 143.142H264.333L252.39 160.957H211.638L224.697 143.142ZM210.805 162.22H251.699L239.048 181.259H196.914L210.805 162.22ZM196.011 182.522H238.233L224.785 202.804H181.251L196.011 182.522ZM180.241 204.184H223.882L209.512 225.865H164.454L180.241 204.184ZM163.373 227.361H208.52L193.105 250.674H146.452L163.373 227.361ZM145.301 252.189H192.059L175.511 277.154H127.104L145.301 252.189ZM125.811 278.863H174.323L156.499 305.751H106.232L125.811 278.863ZM104.885 307.539H155.276L135.999 336.68H83.7295L104.885 307.539ZM82.2943 338.623H134.705L113.815 370.095H59.349L82.2943 338.623ZM57.7721 372.33H112.38L89.6828 406.503H32.8246L57.7721 372.33ZM3.89057 446.329L31.1237 408.931H88.1236L63.3179 446.329H3.89057ZM67.2337 446.232L91.8622 408.853H148.827L126.59 446.154L67.2337 446.232ZM130.559 446.232L152.583 408.834H209.547L189.951 446.232H130.559ZM193.867 446.232L213.357 408.834L270.357 408.834L253.365 446.213L193.867 446.232ZM257.228 446.232L274.042 408.562H331.024L316.637 445.941L257.228 446.232ZM320.535 446.232L334.71 408.853H391.674L379.963 445.824L320.535 446.232ZM383.861 446.135L395.484 408.756H452.484L443.306 446.135H383.861ZM447.221 446.135L456.24 408.756H513.205L506.631 446.135H447.221ZM510.547 446.135L516.961 408.756H573.943L569.956 445.474L510.547 446.135ZM633.335 445.474H573.89L577.699 408.115H634.717L633.335 445.474ZM634.806 405.764H577.947L581.491 371.533H636.117L634.806 405.764ZM581.65 369.454L584.875 337.982H637.286L636.117 369.435L581.65 369.454ZM637.215 445.474L638.438 408.096H695.42L696.643 445.474H637.215ZM696.572 337.826L748.965 337.826L752.19 369.279L697.741 369.279L696.572 337.826ZM697.812 371.455L752.402 371.455L755.946 405.667L699.123 405.667L697.812 371.455ZM700.558 445.474L699.176 408.115L756.141 408.115L759.968 445.474L700.558 445.474ZM763.884 445.474L759.897 408.115H816.915L823.329 445.474H763.884ZM827.245 445.474L820.653 408.115H877.636L886.707 445.125L827.245 445.474ZM890.57 445.474L881.392 407.765H938.374L949.997 445.125L890.57 445.474ZM953.913 445.474L942.113 408.115H999.13L1013.3 445.474H953.913ZM1017.27 445.474L1002.89 408.135H1059.87L1076.7 445.474H1017.27ZM1080.62 445.474L1063.62 408.135H1120.61L1140.1 445.474H1080.62ZM1143.94 445.474L1124.35 408.115H1181.36L1203.41 445.455L1143.94 445.474ZM1207.32 445.474L1185.12 408.135H1242.1L1266.75 445.474L1207.32 445.474ZM1245.86 408.057L1302.84 408.057L1330.09 445.397H1270.66L1245.86 408.057Z" fill="url(#paint0_angular_133_326)"></path><path d="M1007.03 0L326.807 0.971379L0.134277 448L1333.87 446.193L1007.03 0ZM1301.16 404.851L1244.33 404.851L1221.58 370.737L1276.19 370.737L1301.16 404.851ZM684.559 76.6418L685.019 90.7851H648.768L649.228 76.6612L684.559 76.6418ZM649.281 75.787L649.707 62.4014L684.116 62.4014L684.541 75.787H649.281ZM685.586 107.687L686.1 123.521L647.722 123.521L648.236 107.687L685.586 107.687ZM648.271 106.716L648.75 91.7759H685.073L685.551 106.716L648.271 106.716ZM941.953 249.508L933.005 226.292H978.134L988.588 249.606L941.953 249.508ZM989.314 251.024L1000.55 275.969H952.159L942.556 251.024H989.314ZM932.438 224.816L924.093 203.154H967.716L977.461 224.816H932.438ZM923.579 201.775L915.765 181.531H957.97L967.095 201.775H923.579ZM421.388 180.91L428.617 161.909H469.493L463.505 180.91H421.388ZM463.079 182.153L456.701 202.435H413.167L420.892 182.153H463.079ZM604.259 123.618H565.881L568.592 107.784H605.96L604.259 123.618ZM606.687 124.686H645.171L644.551 141.472L604.968 141.472L606.687 124.686ZM566.306 106.832L529.098 106.832L532.642 91.8924L568.964 91.8924L566.306 106.832ZM566.129 107.842L563.347 123.676L524.952 123.676L528.779 107.842L566.129 107.842ZM563.153 124.764L560.194 141.549H520.646L524.704 124.744L563.153 124.764ZM565.686 124.764H604.153L602.381 141.549H562.816L565.686 124.764ZM604.844 142.637L644.497 142.637L643.842 160.472L603.09 160.472L604.844 142.637ZM645.118 203.562H688.74L689.449 225.224H644.409L645.118 203.562ZM767.551 106.58L764.911 91.6399H801.234L804.778 106.58H767.551ZM805.079 107.532L808.906 123.365H770.51L767.729 107.551L805.079 107.532ZM767.994 123.404H729.581L727.809 107.59H765.195L767.994 123.404ZM728.872 141.316H689.307L688.687 124.55H727.154L728.872 141.316ZM689.36 142.501L729.014 142.404L730.786 160.239H690.034L689.36 142.501ZM729.687 124.531H768.172L771.06 141.316H731.477L729.687 124.531ZM770.705 124.531H809.172L813.229 141.297H773.664L770.705 124.531ZM811.706 124.531H850.172L855.381 141.297H815.834L811.706 124.531ZM811.44 123.443L807.542 107.629L844.91 107.629L849.835 123.462L811.44 123.443ZM807.294 106.619L803.626 91.6788L839.949 91.6788L844.591 106.619L807.294 106.619ZM803.396 90.7268L799.852 76.6029L835.324 76.3504L839.718 90.4742L803.396 90.7268ZM801.004 90.7268H764.752L762.254 76.6029H797.584L801.004 90.7268ZM765.089 106.677H727.774L726.179 91.737H762.519L765.089 106.677ZM727.047 123.579H688.652L688.067 107.765H725.435L727.047 123.579ZM688.687 202.222H645.171L645.826 181.959H688.031L688.687 202.222ZM645.206 123.579H606.793L608.405 107.745H645.791L645.206 123.579ZM606.066 106.774H568.769L571.321 91.8924H607.643L606.066 106.774ZM569.124 90.9405L532.872 90.9405L536.274 76.7972L571.604 76.7972L569.124 90.9405ZM530.48 90.9405H494.21L498.605 76.8166H534.041L530.48 90.9405ZM530.25 91.8924L526.564 106.832H489.249L493.909 91.8924H530.25ZM526.316 107.842L522.436 123.676H484.022L488.948 107.842H526.316ZM522.17 124.919L518.042 141.705H478.459L483.774 124.9L522.17 124.919ZM517.758 142.832L513.382 160.686H472.629L478.175 142.832H517.758ZM520.363 142.832H559.999L556.863 160.686H516.11L520.363 142.832ZM562.603 142.832H602.239L600.343 160.686H559.591L562.603 142.832ZM602.895 161.832L643.806 161.832L643.098 180.812L600.964 180.812L602.895 161.832ZM644.373 226.836H689.502L690.246 250.15H643.612L644.373 226.836ZM690.034 161.54H730.91L732.841 180.541H690.725L690.034 161.54ZM731.601 142.404H771.255L774.32 160.239H733.568L731.601 142.404ZM773.859 142.404H813.495L817.801 160.239H777.048L773.859 142.404ZM816.1 142.404H855.736L861.299 160.239H820.547L816.1 142.404ZM858.358 142.404L898.012 142.404L904.798 160.239L864.046 160.239L858.358 142.404ZM857.986 141.258L852.67 124.492H891.155L897.533 141.258L857.986 141.258ZM852.351 123.423L847.373 107.435H884.741L890.783 123.268L852.351 123.423ZM847.036 106.58L842.411 91.5039H878.752L884.439 106.424L847.036 106.58ZM842.022 90.6879L837.574 76.3504H873.011L878.327 90.4742L842.022 90.6879ZM837.273 75.651L833.038 62.2848L867.465 62.2848L872.568 75.6704L837.273 75.651ZM834.952 75.651L799.675 75.651L796.344 62.1876H830.753L834.952 75.651ZM797.354 75.651H762.076L759.72 62.2654L794.111 62.2654L797.354 75.651ZM762.342 90.7462H726.073L724.567 76.6029H759.915L762.342 90.7462ZM725.311 106.696H688.014L687.464 91.7759H723.769L725.311 106.696ZM687.978 180.618H645.862L646.482 161.637H687.358L687.978 180.618ZM645.809 106.793H608.494L610.035 91.8536H646.358L645.809 106.793ZM607.732 90.9405H571.48L573.908 76.7972H609.238L607.732 90.9405ZM571.746 75.9424L536.486 75.9424L539.711 62.5568H574.102L571.746 75.9424ZM534.165 75.9424H498.87L503.034 62.5568L537.443 62.5568L534.165 75.9424ZM496.549 75.9424H461.272L466.375 62.5568L500.766 62.5568L496.549 75.9424ZM496.248 76.8555L491.801 90.9988H455.549L460.865 76.8555H496.248ZM491.588 92.009L486.875 106.949H449.578L455.266 91.9896L491.588 92.009ZM486.556 107.959L481.56 123.793H443.164L449.064 108.017L486.556 107.959ZM481.241 124.88L475.925 141.666H436.378L442.756 124.861L481.241 124.88ZM475.588 142.793L469.954 160.647H429.202L435.988 142.793H475.588ZM472.187 161.832H513.08L508.403 180.832H466.269L472.187 161.832ZM515.774 161.832H556.65L553.301 180.832H511.185L515.774 161.832ZM559.343 161.832H600.219L598.182 180.832H556.065L559.343 161.832ZM600.822 182.056L643.045 182.056L642.3 202.319L598.749 202.319L600.822 182.056ZM643.558 251.607H690.299L691.114 276.571H642.743L643.558 251.607ZM690.813 181.939H733.018L735.091 202.202H691.557L690.813 181.939ZM733.621 161.579H774.532L777.793 180.579H735.658L733.621 161.579ZM777.226 161.579H818.102L822.691 180.56H780.574L777.226 161.579ZM820.795 161.579H861.671L867.572 180.56H825.455L820.795 161.579ZM864.365 161.579L905.258 161.579L912.487 180.56L870.353 180.56L864.365 161.579ZM913.001 181.803L920.709 202.047H877.157L870.761 181.59L913.001 181.803ZM915.269 180.502L907.969 161.249H948.846L957.404 180.23L915.269 180.502ZM907.491 160.297L900.616 142.482H940.252L948.296 160.297H907.491ZM900.173 141.336L893.795 124.298H932.261L939.809 141.064L900.173 141.336ZM893.298 123.501L887.203 107.435H924.571L931.659 123.268L893.298 123.501ZM886.814 106.657L881.073 91.7176H917.378L924.111 106.638L886.814 106.657ZM880.701 90.7657L875.261 76.3504H910.592L916.953 90.4742L880.701 90.7657ZM874.907 75.7287L869.751 62.3625L904.142 62.3625L910.184 75.7481L874.907 75.7287ZM869.414 61.5077L864.524 48.8215H898.047L903.77 61.5077L869.414 61.5077ZM867.164 61.5077L832.79 61.5077L828.786 48.8215L862.327 48.8215L867.164 61.5077ZM830.54 61.5077H796.184L793.066 48.8215H826.589L830.54 61.5077ZM793.934 61.5077L759.596 61.5077L757.363 48.6855L790.887 48.6855L793.934 61.5077ZM757.47 62.4208L759.773 75.8064H724.478L723.061 62.4402L757.47 62.4208ZM723.699 90.7268H687.447L686.915 76.6029H722.246L723.699 90.7268ZM687.323 160.336H646.571L647.155 142.501H686.791L687.323 160.336ZM646.411 90.8239H610.142L611.595 76.7001H646.943L646.411 90.8239ZM609.362 75.8452H574.085L576.388 62.4597L610.779 62.4597L609.362 75.8452ZM574.28 61.6437H539.942L543.007 48.9381H576.512L574.28 61.6437ZM537.674 61.6437L503.318 61.6437L507.269 48.9575L540.792 48.9575L537.674 61.6437ZM501.05 61.6437L466.712 61.6437L471.549 48.9381H505.054L501.05 61.6437ZM464.461 61.6437H430.123L435.828 48.9381L469.352 48.9381L464.461 61.6437ZM464.125 62.4985L458.969 75.9035L423.709 75.9035L429.733 62.5179L464.125 62.4985ZM458.614 76.8166L453.175 90.9405L416.923 90.9405L423.284 76.7972L458.614 76.8166ZM452.803 91.9119L447.062 106.852L409.765 106.852L416.498 91.8924L452.803 91.9119ZM446.672 107.862L440.577 123.695L402.181 123.695L409.269 107.862L446.672 107.862ZM440.205 124.919L433.755 141.724H394.19L401.756 124.919L440.205 124.919ZM433.312 142.851L426.438 160.705H385.686L393.712 142.851H433.312ZM425.924 161.832L418.606 180.832H376.507L385.048 161.832H425.924ZM418.11 182.153L410.314 202.416L366.78 202.416L375.905 182.153H418.11ZM409.783 203.795L401.437 225.477L356.415 225.477L366.16 203.795L409.783 203.795ZM400.923 226.953L391.976 250.266L345.341 250.266L355.795 226.953L400.923 226.953ZM391.373 251.781L381.734 276.804H333.363L344.526 251.917L391.373 251.781ZM381.096 278.436L370.749 305.324H320.517L332.619 278.436H381.096ZM384.304 278.436H432.781L424.258 305.324H374.027L384.304 278.436ZM384.941 276.726L394.438 251.762H441.179L433.312 276.726H384.941ZM395.041 250.188L403.9 226.875H449.029L441.711 250.188H395.041ZM404.449 225.457L412.706 203.795H456.311L449.472 225.457H404.449ZM459.181 203.718H502.822L497.506 225.399H452.448L459.181 203.718ZM459.607 202.338L465.914 182.075H508.137L503.158 202.338H459.607ZM510.99 182.017H553.195L549.651 202.28H506.135L510.99 182.017ZM555.977 182.017H598.164L596.02 202.28H552.486L555.977 182.017ZM598.731 203.582L642.371 203.582L641.574 225.263L596.516 225.263L598.731 203.582ZM642.814 278.145H691.292L692.178 305.013H641.928L642.814 278.145ZM691.735 203.465H735.357L737.572 225.127H692.532L691.735 203.465ZM735.924 181.764H778.147L781.691 202.008H738.139L735.924 181.764ZM780.929 181.764H823.116L828.024 202.027H784.49L780.929 181.764ZM825.898 181.764H868.103L874.304 201.853L830.77 201.853L825.898 181.764ZM874.836 203.348L881.392 224.874L836.352 224.874L831.036 203.212L874.836 203.348ZM877.706 203.348H921.364L929.603 225.01H884.546L877.706 203.348ZM930.17 226.409L939.03 249.625H892.359L885.024 226.312L930.17 226.409ZM939.49 251.199L949.005 276.124H900.581L892.714 251.199H939.49ZM949.643 277.834L959.884 304.702H909.599L901.13 277.834H949.643ZM952.832 277.834H1001.33L1013.43 304.702H963.197L952.832 277.834ZM1004.52 277.834H1053.01L1066.99 304.683H1016.74L1004.52 277.834ZM1003.75 276.124L992.397 251.199H1039.16L1052.13 276.124H1003.75ZM991.689 249.606L981.058 226.39H1026.2L1038.29 249.606H991.689ZM980.455 224.913L970.604 203.271H1014.21L1025.48 224.913H980.455ZM969.984 201.717L960.77 181.473H1002.98L1013.52 201.717H969.984ZM960.185 180.171L951.539 161.191H992.433L1002.3 180.171H960.185ZM950.972 159.889L942.857 142.074H982.493L991.777 159.889H950.972ZM942.343 140.928L934.706 124.162H973.173L981.908 140.928H942.343ZM934.228 123.093L927.034 107.435L964.385 107.435L972.624 123.249L934.228 123.093ZM926.574 106.249L919.77 91.329L956.092 91.329L963.871 106.269L926.574 106.249ZM919.344 90.3771L912.913 76.3504L948.243 76.3504L955.596 90.4742L919.344 90.3771ZM912.505 75.3402L906.41 61.9545H940.819L947.765 75.3207L912.505 75.3402ZM906.02 61.0997L900.244 48.4135L933.767 48.4135L940.359 61.0997H906.02ZM899.872 47.5976L894.397 35.5525L927.07 35.5525L933.342 47.617L899.872 47.5976ZM897.675 47.5976H864.223L859.563 35.533H892.253L897.675 47.5976ZM862.008 47.5976L828.538 47.5976L824.729 35.5525L857.419 35.5525L862.008 47.5976ZM826.323 47.5976H792.871L789.912 35.533H822.585L826.323 47.5976ZM790.674 47.5976L757.204 47.5976L755.078 35.533L787.75 35.533L790.674 47.5976ZM755.149 48.4718L757.363 61.3911H723.007L721.643 48.7049L755.149 48.4718ZM722.157 75.4373H686.88L686.401 62.0517L720.793 62.0517L722.157 75.4373ZM686.72 141.141H647.173L647.722 124.375L686.171 124.375L686.72 141.141ZM646.978 75.787H611.683L613.047 62.4014H647.474L646.978 75.787ZM610.868 61.6048L576.53 61.6048L578.727 48.8992L612.232 48.8992L610.868 61.6048ZM576.636 48.1415H543.184L546.09 36.077H578.762L576.636 48.1415ZM540.987 48.1415L507.499 48.1415L511.256 36.077L543.946 36.077L540.987 48.1415ZM505.302 48.1415H471.85L476.439 36.077H509.094L505.302 48.1415ZM469.635 48.1415L436.183 48.1415L441.622 36.077L474.277 36.077L469.635 48.1415ZM433.986 48.1415L400.498 48.1415L406.77 36.077H439.461L433.986 48.1415ZM433.614 48.9575L427.802 61.8574L393.446 61.8574L400.037 49.1518L433.614 48.9575ZM427.448 62.5568L421.37 75.9424H386.075L393.039 62.5568L427.448 62.5568ZM420.945 76.8555L414.531 90.9988H378.244L385.597 76.8555H420.945ZM414.088 91.9507L407.302 106.91H369.987L377.748 91.9702L414.088 91.9507ZM406.841 107.92L399.648 123.754H361.234L369.456 107.92H406.841ZM399.152 124.822L391.515 141.627L351.95 141.627L360.667 124.822H399.152ZM391.001 142.773L382.886 160.608L342.134 160.608L351.401 142.754L391.001 142.773ZM382.337 161.832L373.708 180.832H331.574L341.443 161.812L382.337 161.832ZM373.123 182.134L364.016 202.63H320.464L331.007 182.367L373.123 182.134ZM363.272 203.776L353.385 225.612H308.345L319.72 203.99L363.272 203.776ZM352.765 226.934L342.134 250.247H295.481L307.548 226.934H352.765ZM341.478 251.762L330.139 276.726H281.732L294.702 251.762H341.478ZM329.359 278.436L317.133 305.324H266.866L280.846 278.436H329.359ZM316.301 307.169L303.1 336.311H250.813L265.91 307.169H316.301ZM319.614 307.169H369.969L358.789 336.311H306.538L319.614 307.169ZM373.283 307.169H423.656L414.478 336.311H362.226L373.283 307.169ZM426.969 307.169H477.36L470.273 336.311H417.986L426.969 307.169ZM427.536 305.324L435.917 278.397H484.501L477.892 305.285L427.536 305.324ZM436.395 276.746L444.156 251.781H490.933L484.802 276.726L436.395 276.746ZM444.652 250.188L451.881 226.875H497.028L491.322 250.188H444.652ZM500.004 226.875H545.115L541.022 250.188H494.388L500.004 226.875ZM500.359 225.399L505.586 203.718H549.208L545.381 225.379L500.359 225.399ZM552.079 203.659H595.683L593.38 225.321H548.34L552.079 203.659ZM596.197 226.739L641.344 226.739L640.493 249.955L593.823 249.955L596.197 226.739ZM641.698 306.859H692.054L693.01 335.903H640.741L641.698 306.859ZM692.408 226.603H737.537L739.911 249.819H693.276L692.408 226.603ZM738.05 203.407H781.691L785.411 225.068H740.354L738.05 203.407ZM784.561 203.407H828.184L833.552 224.952H788.512L784.561 203.407ZM833.765 226.487L839.382 249.703H792.729L788.636 226.39L833.765 226.487ZM836.742 226.487L881.87 226.487L889.099 249.8L842.447 249.8L836.742 226.487ZM889.649 251.199L897.338 276.105H848.95L842.89 251.199L889.649 251.199ZM897.941 277.834L906.304 304.702H856.055L849.499 277.873L897.941 277.834ZM906.8 306.548L915.836 335.592H863.567L856.48 306.548H906.8ZM910.113 306.548H960.504L971.578 335.592H919.274L910.113 306.548ZM963.818 306.548H1014.19L1027.28 335.592H975.016L963.818 306.548ZM1017.5 306.548H1067.88L1082.99 335.573H1030.72L1017.5 306.548ZM1071.19 306.548H1121.6L1138.73 335.573H1086.43L1071.19 306.548ZM1070.23 304.722L1056.06 277.853H1104.57L1120.52 304.702L1070.23 304.722ZM1055.24 276.163L1042.17 251.218H1088.94L1103.65 276.144L1055.24 276.163ZM1041.34 249.644L1029.15 226.428H1074.31L1088.08 249.256L1041.34 249.644ZM1028.45 224.68L1017.1 203.038H1060.74L1073.51 224.699L1028.45 224.68ZM1016.37 201.658L1005.74 181.395L1047.94 181.259L1059.89 201.522L1016.37 201.658ZM1005.05 180.094L995.09 161.113H1036L1047.2 180.074L1005.05 180.094ZM994.417 159.908L985.062 142.093H1024.72L1035.24 159.908H994.417ZM984.459 140.947L975.6 124.181H1014.1L1023.99 140.947H984.459ZM975.104 123.113L966.794 107.279H1004.18L1013.57 122.977L975.104 123.113ZM966.245 106.269L958.413 91.3485H994.754L1003.61 106.288L966.245 106.269ZM957.917 90.3965L950.582 76.3504H986.019L994.346 90.4742L957.917 90.3965ZM950.033 75.3595L942.945 61.9934L977.372 61.9934L985.275 75.3595H950.033ZM942.556 61.1192L935.893 48.4329L969.434 48.4329L976.929 61.1192L942.556 61.1192ZM935.468 47.6364L929.231 35.5525H961.939L969.027 47.5976L935.468 47.6364ZM928.735 34.7947L922.729 23.3325L954.622 23.3325L961.39 34.7947H928.735ZM926.591 34.7947L893.972 34.7947L888.763 23.3325L920.656 23.3325L926.591 34.7947ZM891.828 34.7947H859.208L854.779 23.3325L886.672 23.3325L891.828 34.7947ZM857.047 34.7947L824.41 34.7947L820.866 23.3325L852.759 23.3325L857.047 34.7947ZM822.266 34.7947H789.646L786.829 23.3325L818.722 23.3325L822.266 34.7947ZM787.485 34.7947L754.865 34.7947L752.845 23.3325L784.738 23.3325L787.485 34.7947ZM752.863 35.6302L754.936 47.6947H721.448L720.173 35.6496L752.863 35.6302ZM720.633 61.2552L686.295 61.2552L685.817 48.569L719.34 48.569L720.633 61.2552ZM647.421 61.3523H613.065L614.359 48.6661H647.899L647.421 61.3523ZM612.25 47.889L578.78 47.889L580.853 35.8245L613.526 35.8245L612.25 47.889ZM578.851 35.1056H546.232L548.996 23.6239L580.889 23.6239L578.851 35.1056ZM544.088 35.1056L511.45 35.1056L514.994 23.6239L546.887 23.6239L544.088 35.1056ZM509.289 35.1056H476.669L481.046 23.6239L512.939 23.6239L509.289 35.1056ZM474.525 35.1056L441.977 35.5525L447.151 24.0707L479.044 24.0707L474.525 35.1056ZM439.762 35.1056H407.125L413.096 23.6239L444.989 23.6239L439.762 35.1056ZM404.981 35.1056H372.361L379.13 23.6239L411.023 23.6239L404.981 35.1056ZM404.573 35.9021L398.248 47.9667H364.796L371.883 35.9021H404.573ZM397.893 49.1518L391.231 61.8574H356.893L364.388 49.1518H397.893ZM390.806 62.7511L383.719 76.1367H348.442L356.344 62.7316L390.806 62.7511ZM383.311 77.0497L375.905 91.1931H339.653L347.981 77.0497H383.311ZM375.391 92.145L367.56 107.104H330.351L339.21 92.1645L375.391 92.145ZM367.028 108.114L358.701 123.967H320.305L329.642 108.114H367.028ZM358.169 125.016L349.31 141.821H309.745L319.649 125.016H358.169ZM348.778 142.968L339.423 160.802H298.671L309.178 142.948L348.778 142.968ZM338.785 162.026L328.827 181.026H286.729L297.927 162.026H338.785ZM328.154 182.328L317.523 202.61H274.007L285.949 182.328H328.154ZM316.797 203.99L305.439 225.671H260.417L273.192 203.99H316.797ZM304.677 227.147L292.487 250.46H245.852L259.549 227.147H304.677ZM291.654 251.976L278.578 276.94L230.207 276.94L244.913 251.976H291.654ZM277.692 278.63L263.518 305.538L213.41 305.596L229.268 278.708L277.692 278.63ZM262.632 307.364L247.412 336.505H195.16L212.276 307.364L262.632 307.364ZM246.366 338.448L229.87 369.94H175.422L193.92 338.623L246.366 338.448ZM249.804 338.448H302.232L287.827 369.862L233.361 369.862L249.804 338.448ZM305.669 338.448H358.063L345.926 369.707H291.495L305.669 338.448ZM361.518 338.448H413.893L403.953 369.707H349.505L361.518 338.448ZM417.348 338.448H469.759L462.016 369.707H407.532L417.348 338.448ZM473.214 338.448H525.59L520.062 369.921H465.613L473.214 338.448ZM473.693 336.505L480.78 307.364H531.135L526.015 336.505H473.693ZM481.152 305.596L487.619 278.397H536.114L531.366 305.285L481.152 305.596ZM488.044 276.668L494.069 251.704H540.827L536.433 276.668H488.044ZM543.893 251.645H590.651L587.976 276.454H539.587L543.893 251.645ZM544.176 250.052L548.163 226.739H593.291L590.811 250.052H544.176ZM593.788 251.568L640.564 251.568L639.554 276.454H591.148L593.788 251.568ZM640.83 337.904H693.223L694.251 369.357H639.802L640.83 337.904ZM693.471 251.432H740.212L742.763 276.377H694.392L693.471 251.432ZM740.655 226.545H785.801L789.806 249.858H743.136L740.655 226.545ZM790.071 251.296L794.359 276.241L745.953 276.241L743.189 251.373L790.071 251.296ZM793.154 251.296H839.895L845.92 276.241H797.549L793.154 251.296ZM846.31 277.873L852.794 304.741H802.545L797.814 277.873H846.31ZM853.237 306.587L860.325 335.631H808.056L802.935 306.587H853.237ZM860.732 337.671L868.333 369.124H813.885L808.339 337.671H860.732ZM864.187 337.671H916.58L926.379 369.124H871.913L864.187 337.671ZM920.036 337.671H972.464L984.442 369.124H929.958L920.036 337.671ZM975.902 337.671H1028.29L1042.47 369.124H988.021L975.902 337.671ZM1031.75 337.671H1084.14L1100.51 369.124H1046.07L1031.75 337.671ZM1087.6 337.671H1140.03L1158.58 369.124H1104.09L1087.6 337.671ZM1143.48 337.671H1195.87L1216.62 369.124H1162.17L1143.48 337.671ZM1142.29 335.728L1125.04 306.684H1175.41L1194.56 335.709L1142.29 335.728ZM1123.94 304.858L1107.99 278.009H1156.49L1174.21 304.858H1123.94ZM1106.96 276.299L1092.15 251.373L1138.91 251.373L1155.35 276.299H1106.96ZM1091.16 249.256L1077.36 226.04L1122.49 226.04L1137.81 249.256L1091.16 249.256ZM1076.47 224.583L1063.61 202.921H1107.23L1121.51 224.563L1076.47 224.583ZM1062.79 201.542L1050.74 181.259H1092.97L1106.41 201.522L1062.79 201.542ZM1049.98 179.997L1038.7 161.016H1079.57L1092.1 179.997H1049.98ZM1037.97 159.889L1027.34 142.074H1066.97L1078.77 159.889H1037.97ZM1026.68 140.889L1016.72 124.123H1055.19L1066.25 140.889H1026.68ZM1016.05 122.977L1006.64 107.162H1044.01L1054.5 122.977H1016.05ZM1006.04 106.133L997.181 91.2125H1033.5L1043.36 106.152L1006.04 106.133ZM996.597 90.2605L988.198 76.1367H1023.63L1032.94 90.2411L996.597 90.2605ZM987.737 75.2236L979.782 61.8574H1014.17L1023.03 75.243L987.737 75.2236ZM979.268 61.0026L971.755 48.3941H1005.26L1013.64 61.0803L979.268 61.0026ZM971.242 47.5004L964.154 35.4553L996.827 35.4553L1004.78 47.5198L971.242 47.5004ZM963.623 34.6782L956.801 23.2159L988.694 23.2159L996.26 34.6782L963.623 34.6782ZM956.376 22.4777L949.873 11.5594L980.987 11.5594L988.198 22.4777L956.376 22.4777ZM954.267 22.4777L922.374 22.4777L916.651 11.5788L947.782 11.5788L954.267 22.4777ZM920.337 22.4777L888.444 22.4777L883.465 11.5594L914.578 11.5594L920.337 22.4777ZM886.406 22.4777L854.513 22.4777L850.314 11.5594L881.427 11.5594L886.406 22.4777ZM852.493 22.4777L820.6 22.4777L817.145 11.5594L848.276 11.5594L852.493 22.4777ZM818.545 22.4777L786.652 22.4777L783.976 11.5594L815.09 11.5594L818.545 22.4777ZM784.632 22.4777L752.739 22.4777L750.808 11.5594L781.921 11.5594L784.632 22.4777ZM752.739 34.7365H720.102L718.879 23.2742L750.772 23.2742L752.739 34.7365ZM719.269 47.617L685.817 47.617L685.356 35.5525L718.029 35.5525L719.269 47.617ZM685.338 34.8336L684.913 23.3714L716.806 23.3714L717.975 34.8336L685.338 34.8336ZM648.413 34.8336H615.776L616.945 23.3714L648.838 23.3714L648.413 34.8336ZM648.413 35.6107L647.97 47.6559H614.483L615.723 35.5913L648.413 35.6107ZM613.65 34.8725L581.03 34.8725L582.997 23.4102L614.89 23.4102L613.65 34.8725ZM581.03 22.7108L549.137 22.7108L551.831 12.2394L582.944 12.2394L581.03 22.7108ZM547.117 22.7108L515.224 22.7108L518.626 11.7925L549.74 11.7925L547.117 22.7108ZM513.187 22.7108L481.294 22.7108L485.44 11.7731L516.553 11.7731L513.187 22.7108ZM479.256 22.7108L447.452 22.7108L452.36 11.7925L483.473 11.7925L479.256 22.7108ZM445.343 22.7108L413.45 22.7108L419.138 11.7925L450.269 11.7925L445.343 22.7108ZM411.413 22.7108L379.52 22.7108L385.969 11.7731L417.065 11.7731L411.413 22.7108ZM377.5 22.7108L345.607 22.7108L352.8 11.7925L383.914 11.7925L377.5 22.7108ZM377.057 23.449L370.288 35.5525L337.669 35.5525L345.235 24.0707L377.057 23.449ZM369.792 35.7078L362.705 47.7724L329.235 47.7724L337.19 35.6885L369.792 35.7078ZM362.244 49.2489L354.714 61.9545L320.376 61.9545L328.739 49.2489L362.244 49.2489ZM354.2 62.8482L346.245 76.2533L310.861 76.3504L319.72 62.9647L354.2 62.8482ZM345.713 77.1664L337.314 91.3096L301.063 91.3096L310.383 77.1664L345.713 77.1664ZM336.747 92.2616L327.888 107.221L290.68 107.221L300.531 92.281L336.747 92.2616ZM327.268 108.231L317.877 124.065L279.482 124.065L289.918 108.212L327.268 108.231ZM317.24 125.133L307.264 141.938H267.717L278.773 125.133L317.24 125.133ZM306.609 143.084L295.978 160.919H255.225L266.99 143.065L306.609 143.084ZM295.304 162.143L284.018 181.143L241.759 181.259L254.286 162.259L295.304 162.143ZM283.256 182.444L271.119 202.63H227.602L240.962 182.347L283.256 182.444ZM270.392 204.106L257.529 225.787H212.506L226.787 204.106H270.392ZM256.661 227.264L242.858 250.577H196.223L211.532 227.264H256.661ZM241.759 252.053L226.947 277.018H178.576L195.018 252.053H241.759ZM225.937 278.728L209.99 305.635H159.741L177.46 278.747L225.937 278.728ZM208.945 307.539L191.687 336.68H139.436L158.589 307.539H208.945ZM190.518 338.623L171.825 370.115H117.394L138.125 338.623H190.518ZM170.549 372.271L150.226 406.503H93.4214L115.959 372.252L170.549 372.271ZM174.093 372.271H228.666L210.735 406.503H153.912L174.093 372.271ZM232.262 372.271L286.87 372.271L271.314 406.503L214.473 406.503L232.262 372.271ZM290.467 372.271H345.04L331.875 406.503H275.052L290.467 372.271ZM348.636 372.271H403.209L392.419 406.503H335.613L348.636 372.271ZM406.806 372.271H461.432L453.015 406.483H396.157L406.806 372.271ZM465.011 372.271H519.601L513.577 406.483H456.754L465.011 372.271ZM523.198 372.271H577.788L574.138 406.503H517.315L523.198 372.271ZM523.57 370.115L528.974 338.642H581.367L578.018 370.095L523.57 370.115ZM529.311 336.661L534.307 307.519H584.68L581.58 336.563L529.311 336.661ZM534.626 305.771L539.304 278.397H587.781L584.928 305.285L534.626 305.771ZM587.994 307.519H638.385L637.304 336.563H585.017L587.994 307.519ZM588.171 305.693L590.935 278.805H639.448L638.456 305.674L588.171 305.693ZM639.554 372.116H694.144L695.261 406.328H638.438L639.554 372.116ZM694.286 278.669H742.763L745.51 305.557H695.278L694.286 278.669ZM745.669 307.305L748.646 336.35L696.377 336.35L695.314 307.305H745.669ZM745.917 278.592L794.448 278.592L799.072 305.46H748.788L745.917 278.592ZM799.374 307.228L804.37 336.272H752.083L748.983 307.228H799.374ZM804.689 338.312L810.093 369.765H755.609L752.26 338.312H804.689ZM810.465 371.922L816.348 406.134H759.49L755.84 371.922H810.465ZM814.009 371.922H868.599L876.856 406.134H820.033L814.009 371.922ZM872.178 371.922H926.768L937.399 406.114H880.577L872.178 371.922ZM930.365 371.922H984.991L998.333 405.259H941.457L930.365 371.922ZM988.588 371.922H1043.18L1058.59 406.114H1001.77L988.588 371.922ZM1046.77 371.922H1101.37L1119.17 406.114H1062.33L1046.77 371.922ZM1104.96 371.922H1159.59L1179.77 406.114H1122.91L1104.96 371.922ZM1163.18 371.824H1217.77L1240.35 405.998H1183.51L1163.18 371.824ZM1274.4 369.532L1219.94 369.532L1199.06 338.098L1251.46 338.098L1274.4 369.532ZM1250 336.097L1197.74 336.097L1178.46 307.072H1228.83L1250 336.097ZM1227.7 304.236H1177.45L1159.57 277.445H1208.07L1227.7 304.236ZM1206.88 275.677H1158.49L1141.85 250.81H1188.61L1206.88 275.677ZM1187.53 249.256H1140.88L1125.46 225.943H1170.59L1187.53 249.256ZM1169.51 224.563H1124.47L1110.1 202.921L1153.72 202.921L1169.51 224.563ZM1152.71 201.542L1109.18 201.542L1095.78 181.259L1138.01 181.259L1152.71 201.542ZM1137 179.997L1094.88 179.997L1082.26 161.016L1123.16 161.016L1137 179.997ZM1122.36 159.734L1081.61 159.734L1069.77 141.918H1109.41L1122.36 159.734ZM1108.52 140.772H1068.96L1057.81 124.006L1096.28 124.006L1108.52 140.772ZM1095.41 122.977L1057.02 122.977L1046.51 107.162L1083.88 107.162L1095.41 122.977ZM1083.13 106.152L1045.84 106.152L1035.93 91.2125L1072.25 91.2125L1083.13 106.152ZM1071.55 90.28L1035.29 90.28L1025.92 76.1561L1061.25 76.1561L1071.55 90.28ZM1060.58 75.243L1025.32 75.243L1016.46 61.8768L1050.87 61.8768L1060.58 75.243ZM1050.21 61.022L1015.86 61.022L1007.44 48.3358L1040.95 48.3358L1050.21 61.022ZM1040.36 47.5198L1006.89 47.5198L998.9 35.4747L1031.57 35.4747L1040.36 47.5198ZM1030.99 34.6976L998.368 34.6976L990.767 23.2354L1022.66 23.2354L1030.99 34.6976ZM1022.13 22.4971L990.236 22.4971L982.989 11.5983L1014.1 11.5983L1022.13 22.4971ZM1006.08 0.48569L1013.66 10.8794L982.599 10.8794L975.653 0.582804L1006.08 0.48569ZM973.687 0.48569L980.544 10.8988L949.483 10.8988L943.264 0.582804L973.687 0.48569ZM941.298 0.48569L947.446 10.8988L916.35 10.8988L910.857 0.582804L941.298 0.48569ZM908.891 0.48569L914.313 10.8988L883.234 10.8988L878.468 0.582804L908.891 0.48569ZM876.502 0.48569L881.197 10.8988L850.137 10.8988L846.079 0.582804L876.502 0.48569ZM844.112 0.48569L848.081 10.8794L817.003 10.8794L813.708 0.466243L844.112 0.48569ZM811.706 0.48569L814.948 10.8988L783.888 10.8988L781.336 0.48569L811.706 0.48569ZM779.334 0.48569L781.85 10.8988L750.772 10.8988L749 0.466243L779.334 0.48569ZM750.737 22.5748L718.844 22.5748L717.674 11.6565L748.805 11.6565L750.737 22.5748ZM746.945 0.54397L748.717 10.9571L717.639 10.9571L716.523 0.54397L746.945 0.54397ZM716.824 22.6137L684.931 22.6137L684.541 11.6954L715.637 11.6954L716.824 22.6137ZM714.574 0.582804L715.637 10.996L684.576 10.996L684.187 0.582804L714.574 0.582804ZM651.815 0.679918L682.184 0.679918L682.539 11.1126L651.461 11.1126L651.815 0.679918ZM651.443 11.7925L682.556 11.7925L682.911 22.7108L651.018 22.7108L651.443 11.7925ZM651.071 23.449L682.964 23.449L683.354 34.9114L650.734 34.9114L651.071 23.449ZM650.663 35.7078L683.336 35.7078L683.726 47.7724L650.274 47.7724L650.663 35.7078ZM650.238 48.569L683.761 48.569L684.169 61.2552L649.831 61.2552L650.238 48.569ZM619.408 0.718811L649.813 0.718811L649.423 11.132L618.345 11.132L619.408 0.718811ZM649.405 11.7925L648.998 22.7108L617.105 22.7108L618.221 11.7731L649.405 11.7925ZM587.019 0.757645L617.406 0.757645L616.29 11.1709L585.23 11.1709L587.019 0.757645ZM616.219 11.8508L615.05 22.7691L583.157 22.7691L585.035 11.8508L616.219 11.8508ZM585.017 0.757645L583.245 11.1902L552.185 11.1902L554.701 0.777091L585.017 0.757645ZM552.646 0.757645L550.059 11.5011L518.981 11.5011L522.223 1.06849L552.646 0.757645ZM520.239 0.757645L516.961 11.1902L485.901 11.1902L489.816 1.16561L520.239 0.757645ZM487.867 0.757645L483.845 11.1709L452.785 11.1709L457.48 0.757645L487.867 0.757645ZM455.478 0.757645L450.747 11.1902L419.652 11.1902L425.073 0.757645L455.478 0.757645ZM423.071 0.757645L417.614 11.1902L386.554 11.1902L392.702 0.777091L423.071 0.757645ZM390.7 0.757645L384.516 11.1709L353.456 11.1709L360.313 0.738198L390.7 0.757645ZM327.924 0.757645L358.311 0.757645L351.401 11.1902L320.323 11.1902L327.924 0.757645ZM319.72 12.5308L350.851 12.5308L343.604 23.4685L311.711 23.4685L319.72 12.5308ZM311.233 24.1873L343.126 24.1873L335.525 35.6496H302.888L311.233 24.1873ZM302.374 36.4461H335.064L327.056 48.5107H293.586L302.374 36.4461ZM292.983 49.3266H326.524L318.09 62.0323H283.734L292.983 49.3266ZM283.114 62.9259H317.523L308.664 76.3309H273.369L283.114 62.9259ZM272.696 77.2246H308.044L298.671 91.3679H262.401L272.696 77.2246ZM261.693 92.3198H298.033L288.111 107.26H250.902L261.693 92.3198ZM250.069 108.289H287.437L276.948 124.123H238.535L250.069 108.289ZM237.755 125.211H276.222L265.094 142.016H225.512L237.755 125.211ZM224.697 143.142H264.333L252.39 160.957H211.638L224.697 143.142ZM210.805 162.22H251.699L239.048 181.259H196.914L210.805 162.22ZM196.011 182.522H238.233L224.785 202.804H181.251L196.011 182.522ZM180.241 204.184H223.882L209.512 225.865H164.454L180.241 204.184ZM163.373 227.361H208.52L193.105 250.674H146.452L163.373 227.361ZM145.301 252.189H192.059L175.511 277.154H127.104L145.301 252.189ZM125.811 278.863H174.323L156.499 305.751H106.232L125.811 278.863ZM104.885 307.539H155.276L135.999 336.68H83.7295L104.885 307.539ZM82.2943 338.623H134.705L113.815 370.095H59.349L82.2943 338.623ZM57.7721 372.33H112.38L89.6828 406.503H32.8246L57.7721 372.33ZM3.89057 446.329L31.1237 408.931H88.1236L63.3179 446.329H3.89057ZM67.2337 446.232L91.8622 408.853H148.827L126.59 446.154L67.2337 446.232ZM130.559 446.232L152.583 408.834H209.547L189.951 446.232H130.559ZM193.867 446.232L213.357 408.834L270.357 408.834L253.365 446.213L193.867 446.232ZM257.228 446.232L274.042 408.562H331.024L316.637 445.941L257.228 446.232ZM320.535 446.232L334.71 408.853H391.674L379.963 445.824L320.535 446.232ZM383.861 446.135L395.484 408.756H452.484L443.306 446.135H383.861ZM447.221 446.135L456.24 408.756H513.205L506.631 446.135H447.221ZM510.547 446.135L516.961 408.756H573.943L569.956 445.474L510.547 446.135ZM633.335 445.474H573.89L577.699 408.115H634.717L633.335 445.474ZM634.806 405.764H577.947L581.491 371.533H636.117L634.806 405.764ZM581.65 369.454L584.875 337.982H637.286L636.117 369.435L581.65 369.454ZM637.215 445.474L638.438 408.096H695.42L696.643 445.474H637.215ZM696.572 337.826L748.965 337.826L752.19 369.279L697.741 369.279L696.572 337.826ZM697.812 371.455L752.402 371.455L755.946 405.667L699.123 405.667L697.812 371.455ZM700.558 445.474L699.176 408.115L756.141 408.115L759.968 445.474L700.558 445.474ZM763.884 445.474L759.897 408.115H816.915L823.329 445.474H763.884ZM827.245 445.474L820.653 408.115H877.636L886.707 445.125L827.245 445.474ZM890.57 445.474L881.392 407.765H938.374L949.997 445.125L890.57 445.474ZM953.913 445.474L942.113 408.115H999.13L1013.3 445.474H953.913ZM1017.27 445.474L1002.89 408.135H1059.87L1076.7 445.474H1017.27ZM1080.62 445.474L1063.62 408.135H1120.61L1140.1 445.474H1080.62ZM1143.94 445.474L1124.35 408.115H1181.36L1203.41 445.455L1143.94 445.474ZM1207.32 445.474L1185.12 408.135H1242.1L1266.75 445.474L1207.32 445.474ZM1245.86 408.057L1302.84 408.057L1330.09 445.397H1270.66L1245.86 408.057Z" fill="#B1B1B1"></path></g><defs><radialGradient id="paint0_angular_133_326" cx="0" cy="0" r="1" gradientUnits="userSpaceOnUse" gradientTransform="translate(667.004 223.713) scale(666.041 892.829)"><stop stop-color="#010E43"></stop><stop offset="0.0293297" stop-color="#061B6B"></stop><stop offset="0.0971067" stop-color="#032495"></stop><stop offset="0.30636" stop-color="#104ED3"></stop><stop offset="0.438695" stop-color="#005DE9"></stop><stop offset="0.776356" stop-color="#973CA5"></stop><stop offset="1" stop-color="#DC267F"></stop></radialGradient></defs></svg>