<svg width="11" height="8" viewBox="0 0 11 8" fill="none" xmlns="http://www.w3.org/2000/svg">
<path d="M10.3296 0.273051C10.5223 0.455218 10.6347 0.706453 10.6422 0.971517C10.6497 1.23658 10.5517 1.49377 10.3696 1.68655L4.70226 7.68724C4.61041 7.78432 4.50004 7.86201 4.37766 7.91571C4.25527 7.96941 4.12337 7.99804 3.98974 7.9999C3.85611 8.00177 3.72346 7.97683 3.59962 7.92656C3.47579 7.8763 3.36329 7.80172 3.26877 7.70724L0.26842 4.7069C0.0917597 4.51731 -0.00441567 4.26655 0.000155814 4.00745C0.0047273 3.74835 0.109689 3.50115 0.292927 3.31791C0.476166 3.13467 0.723374 3.02971 0.982472 3.02514C1.24157 3.02056 1.49233 3.11674 1.68192 3.2934L3.95551 5.56566L8.91608 0.313056C9.09825 0.120363 9.34949 0.00790258 9.61455 0.000400771C9.87961 -0.00710104 10.1368 0.0909701 10.3296 0.273051Z" fill="url(#paint0_angular_728_6534)"/>
<defs>
<radialGradient id="paint0_angular_728_6534" cx="0" cy="0" r="1" gradientUnits="userSpaceOnUse" gradientTransform="translate(5.32132 4) rotate(90) scale(4 5.32132)">
<stop stop-color="#312D33"/>
<stop offset="1" stop-color="#170028"/>
</radialGradient>
</defs>
</svg>
