<svg width="15" height="14" viewBox="0 0 15 14" fill="none" xmlns="http://www.w3.org/2000/svg">
<path d="M7.0096 6.57727e-06C5.69996 -0.00178841 4.41608 0.363851 3.30388 1.05536C2.19169 1.74688 1.29579 2.73653 0.718024 3.91184C0.140255 5.08715 -0.0962153 6.40097 0.0354918 7.70397C0.167199 9.00697 0.6618 10.2469 1.46308 11.2828C2.26436 12.3187 3.34018 13.1091 4.56825 13.564C5.79633 14.019 7.12741 14.1203 8.4102 13.8565C9.693 13.5926 10.876 12.9742 11.8249 12.0715C12.7737 11.1688 13.4503 10.0181 13.7777 8.75001H11.9568C11.636 9.65755 11.0718 10.4594 10.3259 11.0679C9.58005 11.6764 8.68124 12.0682 7.72776 12.2003C6.77427 12.3324 5.80281 12.1999 4.91957 11.8171C4.03634 11.4344 3.27534 10.8162 2.71977 10.0301C2.1642 9.24398 1.83545 8.32028 1.76945 7.35994C1.70346 6.39961 1.90276 5.43961 2.34557 4.58491C2.78839 3.73021 3.45766 3.01371 4.28023 2.51373C5.1028 2.01375 6.047 1.74955 7.0096 1.75001C7.69811 1.75101 8.37952 1.88927 9.01398 2.1567C9.64845 2.42412 10.2232 2.81535 10.7047 3.30751L7.88897 6.12501H14.014V6.57727e-06L11.9568 2.05626C11.3086 1.4041 10.5378 0.886664 9.6887 0.533756C8.83962 0.180849 7.9291 -0.000552086 7.0096 6.57727e-06Z" fill="#DC267F"/>
</svg>
