<svg width="300" height="278" viewBox="0 0 300 278" fill="none" xmlns="http://www.w3.org/2000/svg">
<g opacity="0.55">
<path d="M288.333 77.0873L286.747 77.4635L287.644 74.1362L289.23 73.7601L288.333 77.0873Z" fill="white" fill-opacity="0.34"/>
<path d="M296.54 75.1391L294.954 75.5152L295.851 72.1879L297.437 71.8118L296.54 75.1391Z" fill="white" fill-opacity="0.34"/>
<path d="M290.686 79.7533L289.101 80.1295L289.998 76.8019L291.583 76.426L290.686 79.7533Z" fill="white" fill-opacity="0.34"/>
<path d="M289.046 80.143L287.46 80.5194L288.357 77.1922L289.942 76.8157L289.046 80.143Z" fill="white" fill-opacity="0.34"/>
<path d="M297.468 71.6938L295.883 72.0703L296.78 68.7426L298.366 68.3666L297.468 71.6938Z" fill="white" fill-opacity="0.34"/>
<path d="M292.329 79.3642L290.744 79.7404L291.64 76.413L293.226 76.0369L292.329 79.3642Z" fill="white" fill-opacity="0.34"/>
<path d="M295.611 78.5844L294.026 78.9609L294.923 75.6336L296.508 75.2571L295.611 78.5844Z" fill="white" fill-opacity="0.34"/>
<path d="M293.969 78.9739L292.384 79.3501L293.281 76.0228L294.866 75.6462L293.969 78.9739Z" fill="white" fill-opacity="0.34"/>
<path d="M295.827 72.0834L294.242 72.46L295.138 69.1327L296.724 68.7562L295.827 72.0834Z" fill="white" fill-opacity="0.34"/>
<path d="M291.615 76.3085L290.03 76.6848L290.927 73.3576L292.512 72.9813L291.615 76.3085Z" fill="white" fill-opacity="0.34"/>
<path d="M289.974 76.6977L288.389 77.0739L289.286 73.7465L290.872 73.3705L289.974 76.6977Z" fill="white" fill-opacity="0.34"/>
<path d="M293.258 75.9189L291.672 76.2951L292.569 72.9678L294.155 72.5916L293.258 75.9189Z" fill="white" fill-opacity="0.34"/>
<path d="M294.186 72.4731L292.601 72.8496L293.498 69.5223L295.083 69.1458L294.186 72.4731Z" fill="white" fill-opacity="0.34"/>
<path d="M294.898 75.5287L293.313 75.9048L294.21 72.5776L295.795 72.2014L294.898 75.5287Z" fill="white" fill-opacity="0.34"/>
<path d="M288.117 83.5872L286.532 83.9634L287.428 80.6372L289.014 80.261L288.117 83.5872Z" fill="white" fill-opacity="0.34"/>
<path d="M289.262 73.642L287.677 74.0186L288.574 70.6912L290.159 70.3147L289.262 73.642Z" fill="white" fill-opacity="0.34"/>
<path d="M292.544 72.8627L290.959 73.239L291.856 69.9117L293.44 69.5354L292.544 72.8627Z" fill="white" fill-opacity="0.34"/>
<path d="M290.903 73.2529L289.318 73.629L290.215 70.3017L291.8 69.9256L290.903 73.2529Z" fill="white" fill-opacity="0.34"/>
<path d="M292.826 88.9184L291.24 89.2948L292.137 85.9672L293.723 85.5911L292.826 88.9184Z" fill="white" fill-opacity="0.34"/>
<path d="M287.405 80.5326L285.819 80.9091L286.716 77.5819L288.302 77.2053L287.405 80.5326Z" fill="white" fill-opacity="0.34"/>
<path d="M289.542 89.6982L287.956 90.0746L288.853 86.7474L290.439 86.3708L289.542 89.6982Z" fill="white" fill-opacity="0.34"/>
<path d="M291.184 89.3085L289.599 89.685L290.496 86.3577L292.081 85.9812L291.184 89.3085Z" fill="white" fill-opacity="0.34"/>
<path d="M286.259 90.477L284.674 90.8532L285.571 87.5258L287.157 87.1498L286.259 90.477Z" fill="white" fill-opacity="0.34"/>
<path d="M287.9 90.0878L286.315 90.4637L287.213 87.1365L288.797 86.7606L287.9 90.0878Z" fill="white" fill-opacity="0.34"/>
<path d="M286.476 83.9768L284.89 84.3529L285.787 81.0268L287.372 80.6506L286.476 83.9768Z" fill="white" fill-opacity="0.34"/>
<path d="M285.547 87.4218L283.961 87.798L284.858 84.4707L286.443 84.0945L285.547 87.4218Z" fill="white" fill-opacity="0.34"/>
<path d="M284.618 90.8666L283.033 91.2432L283.929 87.9155L285.515 87.5394L284.618 90.8666Z" fill="white" fill-opacity="0.34"/>
<path d="M292.113 85.8632L290.528 86.2394L291.425 82.9121L293.01 82.536L292.113 85.8632Z" fill="white" fill-opacity="0.34"/>
<path d="M294.683 82.0286L293.097 82.4048L293.994 79.0786L295.579 78.7024L294.683 82.0286Z" fill="white" fill-opacity="0.34"/>
<path d="M293.041 82.4182L291.456 82.7944L292.352 79.4682L293.938 79.092L293.041 82.4182Z" fill="white" fill-opacity="0.34"/>
<path d="M287.188 87.032L285.603 87.4082L286.5 84.0809L288.085 83.7043L287.188 87.032Z" fill="white" fill-opacity="0.34"/>
<path d="M291.399 82.8074L289.814 83.184L290.711 79.8574L292.296 79.4812L291.399 82.8074Z" fill="white" fill-opacity="0.34"/>
<path d="M293.754 85.4734L292.168 85.8496L293.065 82.5224L294.651 82.1458L293.754 85.4734Z" fill="white" fill-opacity="0.34"/>
<path d="M289.758 83.1971L288.173 83.5733L289.069 80.2471L290.654 79.8708L289.758 83.1971Z" fill="white" fill-opacity="0.34"/>
<path d="M288.829 86.6425L287.244 87.0188L288.141 83.6915L289.726 83.3152L288.829 86.6425Z" fill="white" fill-opacity="0.34"/>
<path d="M290.47 86.2529L288.885 86.629L289.782 83.3017L291.368 82.9256L290.47 86.2529Z" fill="white" fill-opacity="0.34"/>
<path d="M276.751 88.5851L273.788 87.3156L274.686 83.9884L277.648 85.2578L276.751 88.5851Z" fill="white" fill-opacity="0.5"/>
<path d="M277.398 73.4913L274.434 72.2217L275.331 68.8944L278.295 70.1641L277.398 73.4913Z" fill="white" fill-opacity="0.5"/>
<path d="M276.469 76.9367L273.506 75.667L274.402 72.3397L277.366 73.6094L276.469 76.9367Z" fill="white" fill-opacity="0.5"/>
<path d="M274.613 83.8257L271.65 82.5559L272.547 79.2283L275.51 80.4984L274.613 83.8257Z" fill="white" fill-opacity="0.5"/>
<path d="M273.685 87.2706L270.721 86.001L271.618 82.6737L274.582 83.9433L273.685 87.2706Z" fill="white" fill-opacity="0.5"/>
<path d="M278.609 81.6948L275.646 80.4257L276.543 77.0992L279.506 78.3686L278.609 81.6948Z" fill="white" fill-opacity="0.5"/>
<path d="M275.541 80.3809L272.577 79.1111L273.473 75.7849L276.437 77.0547L275.541 80.3809Z" fill="white" fill-opacity="0.5"/>
<path d="M283.818 87.7697L280.854 86.5L281.751 83.1727L284.715 84.4424L283.818 87.7697Z" fill="white" fill-opacity="0.5"/>
<path d="M282.606 79.5656L279.642 78.2958L280.539 74.9686L283.503 76.2382L282.606 79.5656Z" fill="white" fill-opacity="0.5"/>
<path d="M283.534 76.1207L280.571 74.8506L281.468 71.5238L284.431 72.7934L283.534 76.1207Z" fill="white" fill-opacity="0.5"/>
<path d="M281.677 83.0098L278.714 81.7401L279.61 78.4139L282.574 79.6837L281.677 83.0098Z" fill="white" fill-opacity="0.5"/>
<path d="M282.889 91.215L279.925 89.9453L280.822 86.618L283.786 87.8878L282.889 91.215Z" fill="white" fill-opacity="0.5"/>
<path d="M280.467 74.8058L277.504 73.5363L278.401 70.2091L281.364 71.4785L280.467 74.8058Z" fill="white" fill-opacity="0.5"/>
<path d="M274.33 72.1764L271.367 70.9067L272.264 67.5794L275.228 68.8492L274.33 72.1764Z" fill="white" fill-opacity="0.5"/>
<path d="M280.749 86.4551L277.786 85.1851L278.683 81.8577L281.646 83.1279L280.749 86.4551Z" fill="white" fill-opacity="0.5"/>
<path d="M279.821 89.9L276.857 88.6303L277.754 85.3031L280.717 86.5727L279.821 89.9Z" fill="white" fill-opacity="0.5"/>
<path d="M277.68 85.1403L274.717 83.8708L275.614 80.5435L278.577 81.813L277.68 85.1403Z" fill="white" fill-opacity="0.5"/>
<path d="M278.327 70.0469L275.364 68.7768L276.261 65.4495L279.224 66.7196L278.327 70.0469Z" fill="white" fill-opacity="0.5"/>
<path d="M284.464 72.6754L281.5 71.4057L282.397 68.0783L285.361 69.3481L284.464 72.6754Z" fill="white" fill-opacity="0.5"/>
<path d="M281.396 71.361L278.433 70.0915L279.33 66.7642L282.293 68.0337L281.396 71.361Z" fill="white" fill-opacity="0.5"/>
<path d="M273.088 64.0893L272.191 67.4166L269.227 66.1469L270.124 62.8196L273.088 64.0893Z" fill="white" fill-opacity="0.5"/>
<path d="M275.258 68.7311L272.295 67.4614L273.191 64.1341L276.155 65.4039L275.258 68.7311Z" fill="white" fill-opacity="0.5"/>
<path d="M284.747 84.3246L281.783 83.0545L282.68 79.7283L285.643 80.998L284.747 84.3246Z" fill="white" fill-opacity="0.5"/>
<path d="M287.533 73.9904L284.569 72.7207L285.466 69.3934L288.43 70.6632L287.533 73.9904Z" fill="white" fill-opacity="0.5"/>
<path d="M286.604 77.4352L283.64 76.1655L284.537 72.8382L287.501 74.1083L286.604 77.4352Z" fill="white" fill-opacity="0.5"/>
<path d="M267.546 84.6413L264.582 83.3715L265.479 80.0443L268.443 81.3139L267.546 84.6413Z" fill="white" fill-opacity="0.5"/>
<path d="M271.262 70.862L268.298 69.5918L269.195 66.265L272.159 67.5346L271.262 70.862Z" fill="white" fill-opacity="0.5"/>
<path d="M270.615 85.9566L267.652 84.6869L268.549 81.3592L271.513 82.6293L270.615 85.9566Z" fill="white" fill-opacity="0.5"/>
<path d="M273.402 75.6217L270.438 74.352L271.335 71.0247L274.298 72.2944L273.402 75.6217Z" fill="white" fill-opacity="0.5"/>
<path d="M272.472 79.0658L269.508 77.7957L270.405 74.4696L273.369 75.7392L272.472 79.0658Z" fill="white" fill-opacity="0.5"/>
<path d="M271.544 82.5109L268.581 81.2412L269.478 77.9139L272.441 79.1837L271.544 82.5109Z" fill="white" fill-opacity="0.5"/>
<path d="M268.475 81.1963L265.511 79.9263L266.408 76.599L269.372 77.8687L268.475 81.1963Z" fill="white" fill-opacity="0.5"/>
<path d="M270.333 74.3073L267.37 73.0376L268.267 69.7103L271.23 70.9799L270.333 74.3073Z" fill="white" fill-opacity="0.5"/>
<path d="M269.404 77.7513L266.44 76.4817L267.337 73.1551L270.301 74.4252L269.404 77.7513Z" fill="white" fill-opacity="0.5"/>
<path d="M279.537 78.2511L276.575 76.9817L277.472 73.6544L280.435 74.9235L279.537 78.2511Z" fill="white" fill-opacity="0.5"/>
<path d="M285.675 80.8804L282.711 79.6106L283.608 76.283L286.572 77.5531L285.675 80.8804Z" fill="white" fill-opacity="0.5"/>
<path d="M291.948 67.6864L290.363 68.0626L287.4 66.7929L288.985 66.4167L291.948 67.6864Z" fill="white" fill-opacity="0.75"/>
<path d="M296.658 68.6112L295.073 68.9877L292.109 67.7176L293.695 67.3415L296.658 68.6112Z" fill="white" fill-opacity="0.75"/>
<path d="M284.116 67.572L285.702 67.1955L288.665 68.4652L287.08 68.8417L284.116 67.572Z" fill="white" fill-opacity="0.75"/>
<path d="M290.681 66.0135L292.266 65.6369L295.23 66.9066L293.644 67.2831L290.681 66.0135Z" fill="white" fill-opacity="0.75"/>
<path d="M293.751 67.3284L295.336 66.9523L298.3 68.222L296.715 68.5982L293.751 67.3284Z" fill="white" fill-opacity="0.75"/>
<path d="M281.262 64.1634L282.848 63.7872L285.812 65.057L284.226 65.4331L281.262 64.1634Z" fill="white" fill-opacity="0.75"/>
<path d="M287.614 64.6988L289.199 64.3227L292.162 65.5921L290.577 65.9683L287.614 64.6988Z" fill="white" fill-opacity="0.75"/>
<path d="M285.757 67.1823L287.342 66.8064L290.306 68.076L288.721 68.4523L285.757 67.1823Z" fill="white" fill-opacity="0.75"/>
<path d="M284.546 63.385L286.131 63.0084L289.095 64.2785L287.509 64.6547L284.546 63.385Z" fill="white" fill-opacity="0.75"/>
<path d="M281.048 66.2575L282.633 65.8814L285.596 67.1507L284.011 67.5269L281.048 66.2575Z" fill="white" fill-opacity="0.75"/>
<path d="M287.453 64.6678L285.868 65.0439L282.904 63.7742L284.489 63.398L287.453 64.6678Z" fill="white" fill-opacity="0.75"/>
<path d="M282.691 65.8684L284.276 65.4921L287.238 66.7616L285.653 67.1377L282.691 65.8684Z" fill="white" fill-opacity="0.75"/>
<path d="M290.521 65.9818L288.935 66.358L285.972 65.0889L287.558 64.7123L290.521 65.9818Z" fill="white" fill-opacity="0.75"/>
<path d="M288.88 66.3714L287.294 66.7475L284.332 65.4785L285.917 65.102L288.88 66.3714Z" fill="white" fill-opacity="0.75"/>
<path d="M293.589 67.2961L292.004 67.6723L289.04 66.4026L290.625 66.0261L293.589 67.2961Z" fill="white" fill-opacity="0.75"/>
<path d="M274.806 63.5834L271.843 62.3133L273.428 61.9372L276.392 63.2069L274.806 63.5834Z" fill="white" fill-opacity="0.75"/>
<path d="M271.787 62.3264L274.75 63.596L273.165 63.9726L270.201 62.7028L271.787 62.3264Z" fill="white" fill-opacity="0.75"/>
<path d="M290.467 68.1072L292.052 67.7311L295.016 69.0008L293.43 69.3774L290.467 68.1072Z" fill="white" fill-opacity="0.75"/>
<path d="M278.089 62.8041L275.125 61.5344L276.71 61.1579L279.674 62.428L278.089 62.8041Z" fill="white" fill-opacity="0.75"/>
<path d="M274.856 63.6417L277.819 64.9115L276.234 65.288L273.27 64.0179L274.856 63.6417Z" fill="white" fill-opacity="0.75"/>
<path d="M278.408 60.7552L279.994 60.3786L282.957 61.6483L281.372 62.0248L278.408 60.7552Z" fill="white" fill-opacity="0.75"/>
<path d="M276.448 63.1935L273.485 61.9235L275.07 61.5476L278.033 62.8172L276.448 63.1935Z" fill="white" fill-opacity="0.75"/>
<path d="M287.185 68.887L288.771 68.5108L291.734 69.7806L290.149 70.1568L287.185 68.887Z" fill="white" fill-opacity="0.75"/>
<path d="M287.128 68.9L290.092 70.1698L288.506 70.5462L285.543 69.2762L287.128 68.9Z" fill="white" fill-opacity="0.75"/>
<path d="M288.826 68.497L290.411 68.1207L293.375 69.3908L291.79 69.7668L288.826 68.497Z" fill="white" fill-opacity="0.75"/>
<path d="M280.993 66.271L283.955 67.5404L282.37 67.9166L279.407 66.6475L280.993 66.271Z" fill="white" fill-opacity="0.75"/>
<path d="M277.924 64.9562L280.888 66.2263L279.302 66.6024L276.339 65.3327L277.924 64.9562Z" fill="white" fill-opacity="0.75"/>
<path d="M284.06 67.5852L287.023 68.8552L285.438 69.2314L282.474 67.9616L284.06 67.5852Z" fill="white" fill-opacity="0.75"/>
<path d="M279.73 62.414L276.767 61.1443L278.352 60.7678L281.315 62.0378L279.73 62.414Z" fill="white" fill-opacity="0.75"/>
<path d="M284.384 63.3524L282.799 63.7289L279.835 62.4588L281.42 62.0826L284.384 63.3524Z" fill="white" fill-opacity="0.75"/>
<path d="M279.622 64.5527L281.206 64.1765L284.17 65.4461L282.585 65.8224L279.622 64.5527Z" fill="white" fill-opacity="0.75"/>
<path d="M281.477 62.0696L283.063 61.6936L286.026 62.9632L284.441 63.3394L281.477 62.0696Z" fill="white" fill-opacity="0.75"/>
<path d="M277.98 64.9426L279.565 64.566L282.529 65.8362L280.944 66.2122L277.98 64.9426Z" fill="white" fill-opacity="0.75"/>
<path d="M276.552 63.2382L278.137 62.8619L281.101 64.1317L279.516 64.508L276.552 63.2382Z" fill="white" fill-opacity="0.75"/>
<path d="M282.743 63.7425L281.158 64.1191L278.194 62.8489L279.779 62.4728L282.743 63.7425Z" fill="white" fill-opacity="0.75"/>
<path d="M274.91 63.6282L276.495 63.2521L279.459 64.5218L277.874 64.898L274.91 63.6282Z" fill="white" fill-opacity="0.75"/>
</g>
<g opacity="0.4">
<path d="M184.896 128.456L201.812 166.176L239.676 166.983L222.761 129.264L184.896 128.456Z" fill="white" fill-opacity="0.8"/>
<path d="M239.677 166.982L249.69 154.505L232.774 116.786L222.761 129.262L239.677 166.982Z" fill="white" fill-opacity="0.5"/>
<path d="M222.762 129.263L232.775 116.787L194.911 115.98L184.897 128.456L222.762 129.263Z" fill="white" fill-opacity="0.3"/>
</g>
<g opacity="0.4">
<path d="M71.7499 135.487L62.0172 124.959L62.5514 130.485C62.8654 131.572 63.2242 132.694 63.6279 133.853L72.5251 143.477L71.7499 135.487Z" fill="white" fill-opacity="0.6"/>
<path d="M69.8434 115.629C69.1864 115.386 68.5118 115.195 67.8254 115.056L70.016 117.425L69.8434 115.629Z" fill="white" fill-opacity="0.6"/>
<path d="M72.5862 144.17L63.9881 134.868C65.5792 139.225 67.7713 144.012 70.4142 148.969L73.3535 152.149L72.5862 144.17Z" fill="white" fill-opacity="0.6"/>
<path d="M70.08 118.123L67.135 114.947C64.9479 114.673 63.2748 115.277 62.2489 116.802L70.8469 126.104L70.08 118.123Z" fill="white" fill-opacity="0.6"/>
<path d="M70.9159 126.807L62.0187 117.183C61.7557 117.672 61.555 118.193 61.4213 118.732L61.9463 124.254L71.6801 134.782L70.9159 126.807Z" fill="white" fill-opacity="0.6"/>
<path d="M71.2323 150.485C71.9882 151.864 72.7754 153.252 73.594 154.647L73.4222 152.853L71.2323 150.485Z" fill="white" fill-opacity="0.6"/>
<path d="M95.4614 176.694L96.2278 184.667L102.958 191.948C103.961 192.862 104.941 193.716 105.898 194.51L105.195 187.221L95.4614 176.694Z" fill="white" fill-opacity="0.6"/>
<path d="M84.8639 165.232L85.5626 172.52C86.5699 173.852 87.5939 175.165 88.6346 176.46L95.3655 183.741L94.5973 175.761L84.8639 165.232Z" fill="white" fill-opacity="0.6"/>
<path d="M74.2768 153.775L74.508 156.183C77.5585 161.261 80.9993 166.4 84.6905 171.353L84.0138 164.307L74.2768 153.775Z" fill="white" fill-opacity="0.6"/>
<path d="M106.053 188.148L106.73 195.194C110.219 198 113.354 199.982 116.021 201.089L115.789 198.681L106.053 188.148Z" fill="white" fill-opacity="0.6"/>
<path d="M80.605 128.88L79.9275 121.833C76.4394 119.029 73.304 117.045 70.6372 115.94L70.8726 118.346L80.605 128.88Z" fill="white" fill-opacity="0.6"/>
<path d="M114.067 172.861L122.666 182.163C121.075 177.806 118.886 173.024 116.241 168.062L113.301 164.883L114.067 172.861Z" fill="white" fill-opacity="0.6"/>
<path d="M115.743 190.224L124.639 199.846C124.905 199.356 125.108 198.833 125.242 198.291L124.712 192.776L114.979 182.248L115.743 190.224Z" fill="white" fill-opacity="0.6"/>
<path d="M124.408 200.226L115.81 190.924L116.577 198.904L119.516 202.082C121.712 202.359 123.382 201.75 124.408 200.226Z" fill="white" fill-opacity="0.6"/>
<path d="M114.907 181.54L124.641 192.068L124.114 186.557C123.799 185.469 123.44 184.345 123.036 183.183L114.141 173.561L114.907 181.54Z" fill="white" fill-opacity="0.6"/>
<path d="M101.796 151.794L101.091 144.505C100.085 143.175 99.0616 141.863 98.0215 140.568L91.2882 133.284L92.0563 141.264L101.796 151.794Z" fill="white" fill-opacity="0.6"/>
<path d="M91.2017 140.339L90.4336 132.359L83.6989 125.078C82.6959 124.164 81.7167 123.31 80.7614 122.517L81.4602 129.81L91.2017 140.339Z" fill="white" fill-opacity="0.6"/>
<path d="M115.425 166.546C114.668 165.167 113.881 163.779 113.063 162.383L113.235 164.178L115.425 166.546Z" fill="white" fill-opacity="0.6"/>
<path d="M112.379 163.259L112.146 160.849C109.096 155.771 105.655 150.632 101.964 145.679L102.642 152.727L112.379 163.259Z" fill="white" fill-opacity="0.6"/>
<path d="M83.1089 154.924L82.3419 146.943L72.6049 136.412L73.3719 144.393L83.1089 154.924Z" fill="white" fill-opacity="0.6"/>
<path d="M81.5278 130.507L82.2951 138.486L92.031 149.019L91.2648 141.039L81.5278 130.507Z" fill="white" fill-opacity="0.6"/>
<path d="M83.944 163.605L83.1778 155.625L73.4409 145.094L74.2082 153.073L83.944 163.605Z" fill="white" fill-opacity="0.6"/>
<path d="M82.2751 146.242L81.507 138.262L71.7711 127.73L72.5381 135.711L82.2751 146.242Z" fill="white" fill-opacity="0.6"/>
<path d="M70.9391 119.05L71.7053 127.03L81.4422 137.561L80.6749 129.583L70.9391 119.05Z" fill="white" fill-opacity="0.6"/>
<path d="M116.818 201.401C117.474 201.643 118.147 201.835 118.833 201.974L116.646 199.608L116.818 201.401Z" fill="white" fill-opacity="0.6"/>
<path d="M94.5348 175.063L93.7667 167.083L84.0297 156.551L84.7979 164.531L94.5348 175.063Z" fill="white" fill-opacity="0.6"/>
<path d="M115.722 197.98L114.955 190L105.218 179.468L105.986 187.448L115.722 197.98Z" fill="white" fill-opacity="0.6"/>
<path d="M105.128 186.523L104.359 178.542L94.6236 168.01L95.3906 175.991L105.128 186.523Z" fill="white" fill-opacity="0.6"/>
<path d="M104.294 177.84L103.528 169.86L99.0395 165.003C99.052 167.075 96.9908 166.488 94.2055 163.628L94.5583 167.307L104.294 177.84Z" fill="white" fill-opacity="0.6"/>
<path d="M82.3647 139.193L83.1328 147.173L87.6214 152.023C87.6086 149.953 89.6698 150.54 92.4551 153.4L92.0985 149.721L82.3647 139.193Z" fill="white" fill-opacity="0.6"/>
<path d="M98.9728 164.304L103.462 169.158L102.694 161.18L92.9615 150.652L93.3142 154.331C96.1307 157.528 98.5428 161.782 98.9728 164.304Z" fill="white" fill-opacity="0.6"/>
<path d="M92.1186 141.965L92.8867 149.945L102.624 160.477L101.856 152.497L92.1186 141.965Z" fill="white" fill-opacity="0.6"/>
<path d="M93.7013 166.382L93.3486 162.703C90.5301 159.501 88.1139 155.253 87.6876 152.727L83.1981 147.871L83.9655 155.85L93.7013 166.382Z" fill="white" fill-opacity="0.6"/>
<path d="M114.885 189.298L114.118 181.317L104.381 170.785L105.149 178.765L114.885 189.298Z" fill="white" fill-opacity="0.6"/>
<path d="M102.713 153.424L103.481 161.404L113.217 171.936L112.45 163.956L102.713 153.424Z" fill="white" fill-opacity="0.6"/>
<path d="M103.545 162.104L104.313 170.082L114.049 180.615L113.282 172.635L103.545 162.104Z" fill="white" fill-opacity="0.6"/>
<path d="M29.4793 139.378L63.3398 115.681C61.5788 116.913 60.7799 119.577 61.1766 123.741C62.5746 138.293 78.1027 165.659 95.8623 184.863C108.535 198.58 118.925 204.422 123.319 201.348L89.4589 225.045C85.0658 228.12 74.6813 222.277 62.0019 208.561C44.2464 189.355 28.7183 161.989 27.3161 147.439C26.9205 143.274 27.7191 140.612 29.4793 139.378Z" fill="white" fill-opacity="0.8"/>
</g>
</svg>
