<svg width="289" height="307" viewBox="0 0 289 307" fill="none" xmlns="http://www.w3.org/2000/svg">
<g opacity="0.55">
<path d="M10.8293 72.032L12.4145 72.4082L11.5177 69.0809L9.93208 68.7048L10.8293 72.032Z" fill="white" fill-opacity="0.34"/>
<path d="M2.62198 70.0839L4.20758 70.46L3.31041 67.1328L1.72518 66.7566L2.62198 70.0839Z" fill="white" fill-opacity="0.34"/>
<path d="M8.47537 74.6979L10.0606 75.0741L9.16333 71.7465L7.57857 71.3706L8.47537 74.6979Z" fill="white" fill-opacity="0.34"/>
<path d="M10.1158 75.0873L11.7015 75.4638L10.8043 72.1366L9.21895 71.76L10.1158 75.0873Z" fill="white" fill-opacity="0.34"/>
<path d="M1.69315 66.6384L3.27848 67.0149L2.38158 63.6872L0.795975 63.3111L1.69315 66.6384Z" fill="white" fill-opacity="0.34"/>
<path d="M6.83328 74.3086L8.41852 74.6848L7.52172 71.3575L5.93648 70.9813L6.83328 74.3086Z" fill="white" fill-opacity="0.34"/>
<path d="M3.55057 73.5289L5.1359 73.9054L4.2391 70.5781L2.65377 70.2015L3.55057 73.5289Z" fill="white" fill-opacity="0.34"/>
<path d="M5.19191 73.9188L6.77714 74.2949L5.88034 70.9676L4.295 70.5911L5.19191 73.9188Z" fill="white" fill-opacity="0.34"/>
<path d="M3.3345 67.028L4.91984 67.4046L4.02304 64.0772L2.43733 63.7008L3.3345 67.028Z" fill="white" fill-opacity="0.34"/>
<path d="M7.54679 71.2529L9.13165 71.6291L8.23448 68.3019L6.64961 67.9256L7.54679 71.2529Z" fill="white" fill-opacity="0.34"/>
<path d="M9.18717 71.6424L10.7724 72.0186L9.8756 68.6912L8.28999 68.3152L9.18717 71.6424Z" fill="white" fill-opacity="0.34"/>
<path d="M5.90457 70.8632L7.48981 71.2394L6.59263 67.9122L5.0074 67.536L5.90457 70.8632Z" fill="white" fill-opacity="0.34"/>
<path d="M4.97574 67.4174L6.56107 67.794L5.66427 64.4666L4.07857 64.0902L4.97574 67.4174Z" fill="white" fill-opacity="0.34"/>
<path d="M4.26322 70.4733L5.84882 70.8494L4.95165 67.5222L3.36641 67.146L4.26322 70.4733Z" fill="white" fill-opacity="0.34"/>
<path d="M11.0442 78.5316L12.6294 78.9078L11.7329 75.5816L10.1477 75.2054L11.0442 78.5316Z" fill="white" fill-opacity="0.34"/>
<path d="M9.89969 68.5868L11.485 68.9634L10.5882 65.6361L9.00289 65.2595L9.89969 68.5868Z" fill="white" fill-opacity="0.34"/>
<path d="M6.61795 67.8071L8.20281 68.1833L7.30601 64.856L5.72115 64.4797L6.61795 67.8071Z" fill="white" fill-opacity="0.34"/>
<path d="M8.25845 68.1974L9.84369 68.5736L8.94689 65.2463L7.36128 64.8702L8.25845 68.1974Z" fill="white" fill-opacity="0.34"/>
<path d="M6.33621 83.8631L7.92192 84.2395L7.02465 80.9119L5.43941 80.5358L6.33621 83.8631Z" fill="white" fill-opacity="0.34"/>
<path d="M11.7571 75.4772L13.3428 75.8537L12.4456 72.5265L10.8603 72.1499L11.7571 75.4772Z" fill="white" fill-opacity="0.34"/>
<path d="M9.61978 84.6427L11.2055 85.0192L10.3083 81.692L8.72298 81.3154L9.61978 84.6427Z" fill="white" fill-opacity="0.34"/>
<path d="M7.97757 84.2529L9.56328 84.6293L8.6661 81.3021L7.08077 80.9255L7.97757 84.2529Z" fill="white" fill-opacity="0.34"/>
<path d="M12.9023 85.4217L14.4875 85.7979L13.5907 82.4705L12.0051 82.0945L12.9023 85.4217Z" fill="white" fill-opacity="0.34"/>
<path d="M11.2611 85.0326L12.8459 85.4085L11.9487 82.0813L10.364 81.7054L11.2611 85.0326Z" fill="white" fill-opacity="0.34"/>
<path d="M12.6864 78.9213L14.272 79.2974L13.3751 75.9713L11.7899 75.5951L12.6864 78.9213Z" fill="white" fill-opacity="0.34"/>
<path d="M13.615 82.3666L15.2003 82.7428L14.3035 79.4155L12.7182 79.0393L13.615 82.3666Z" fill="white" fill-opacity="0.34"/>
<path d="M14.5436 85.8112L16.1289 86.1878L15.232 82.8601L13.6464 82.484L14.5436 85.8112Z" fill="white" fill-opacity="0.34"/>
<path d="M7.04898 80.8079L8.63422 81.1841L7.73741 77.8568L6.15181 77.4807L7.04898 80.8079Z" fill="white" fill-opacity="0.34"/>
<path d="M4.47898 76.9731L6.06421 77.3492L5.16771 74.023L3.58248 73.6468L4.47898 76.9731Z" fill="white" fill-opacity="0.34"/>
<path d="M6.12021 77.3626L7.70545 77.7388L6.80895 74.4126L5.22371 74.0364L6.12021 77.3626Z" fill="white" fill-opacity="0.34"/>
<path d="M11.9736 81.9767L13.5589 82.3529L12.6621 79.0256L11.0767 78.649L11.9736 81.9767Z" fill="white" fill-opacity="0.34"/>
<path d="M7.7623 77.7519L9.34764 78.1284L8.45104 74.8018L6.8658 74.4257L7.7623 77.7519Z" fill="white" fill-opacity="0.34"/>
<path d="M5.40834 80.4178L6.99357 80.794L6.0964 77.4667L4.51106 77.0902L5.40834 80.4178Z" fill="white" fill-opacity="0.34"/>
<path d="M9.40366 78.1418L10.9885 78.518L10.092 75.1918L8.50716 74.8155L9.40366 78.1418Z" fill="white" fill-opacity="0.34"/>
<path d="M10.3324 81.5872L11.9173 81.9635L11.0205 78.6362L9.43563 78.2599L10.3324 81.5872Z" fill="white" fill-opacity="0.34"/>
<path d="M8.69107 81.1974L10.2763 81.5736L9.3795 78.2463L7.7939 77.8702L8.69107 81.1974Z" fill="white" fill-opacity="0.34"/>
<path d="M22.4105 83.5298L25.3733 82.2603L24.4761 78.9331L21.5137 80.2025L22.4105 83.5298Z" fill="white" fill-opacity="0.5"/>
<path d="M21.7641 68.436L24.7276 67.1664L23.8308 63.8391L20.8669 65.1088L21.7641 68.436Z" fill="white" fill-opacity="0.5"/>
<path d="M22.6928 71.8812L25.6564 70.6116L24.7595 67.2843L21.7956 68.554L22.6928 71.8812Z" fill="white" fill-opacity="0.5"/>
<path d="M24.549 78.7704L27.5129 77.5006L26.6156 74.173L23.6522 75.4431L24.549 78.7704Z" fill="white" fill-opacity="0.5"/>
<path d="M25.4776 82.2155L28.4411 80.9458L27.5443 77.6185L24.5808 78.8882L25.4776 82.2155Z" fill="white" fill-opacity="0.5"/>
<path d="M20.5531 76.6392L23.516 75.3701L22.6194 72.0435L19.6566 73.313L20.5531 76.6392Z" fill="white" fill-opacity="0.5"/>
<path d="M23.6211 75.3253L26.585 74.0555L25.6885 70.7293L22.7246 71.9991L23.6211 75.3253Z" fill="white" fill-opacity="0.5"/>
<path d="M15.3445 82.7144L18.3081 81.4447L17.4113 78.1174L14.4474 79.3872L15.3445 82.7144Z" fill="white" fill-opacity="0.5"/>
<path d="M16.5561 74.5101L19.52 73.2404L18.6228 69.9132L15.6593 71.1828L16.5561 74.5101Z" fill="white" fill-opacity="0.5"/>
<path d="M15.6275 71.0652L18.5913 69.7951L17.6942 66.4682L14.7307 67.7379L15.6275 71.0652Z" fill="white" fill-opacity="0.5"/>
<path d="M17.4845 77.9545L20.448 76.6848L19.5515 73.3586L16.5876 74.6284L17.4845 77.9545Z" fill="white" fill-opacity="0.5"/>
<path d="M16.2732 86.1596L19.2368 84.8899L18.34 81.5626L15.3761 82.8323L16.2732 86.1596Z" fill="white" fill-opacity="0.5"/>
<path d="M18.6952 69.7504L21.658 68.4809L20.7609 65.1537L17.7984 66.4231L18.6952 69.7504Z" fill="white" fill-opacity="0.5"/>
<path d="M24.8317 67.1209L27.7953 65.8512L26.8985 62.5239L23.9345 63.7936L24.8317 67.1209Z" fill="white" fill-opacity="0.5"/>
<path d="M18.4132 81.3997L21.3767 80.1296L20.4799 76.8023L17.5161 78.0725L18.4132 81.3997Z" fill="white" fill-opacity="0.5"/>
<path d="M19.3418 84.8447L22.3058 83.575L21.4086 80.2478L18.445 81.5174L19.3418 84.8447Z" fill="white" fill-opacity="0.5"/>
<path d="M21.4819 80.0846L24.4447 78.8151L23.5479 75.4878L20.5851 76.7573L21.4819 80.0846Z" fill="white" fill-opacity="0.5"/>
<path d="M20.8346 64.9914L23.7984 63.7212L22.9013 60.394L19.9378 61.664L20.8346 64.9914Z" fill="white" fill-opacity="0.5"/>
<path d="M14.6979 67.62L17.6618 66.3502L16.765 63.0229L13.8011 64.2927L14.6979 67.62Z" fill="white" fill-opacity="0.5"/>
<path d="M17.7667 66.3053L20.7295 65.0358L19.8327 61.7085L16.8699 62.978L17.7667 66.3053Z" fill="white" fill-opacity="0.5"/>
<path d="M26.0751 59.0339L26.9719 62.3612L29.9358 61.0915L29.039 57.7641L26.0751 59.0339Z" fill="white" fill-opacity="0.5"/>
<path d="M23.904 63.6759L26.8675 62.4063L25.9707 59.0789L23.0068 60.3487L23.904 63.6759Z" fill="white" fill-opacity="0.5"/>
<path d="M14.4159 79.2692L17.3797 77.999L16.4828 74.6729L13.5193 75.9426L14.4159 79.2692Z" fill="white" fill-opacity="0.5"/>
<path d="M11.6302 68.9348L14.5937 67.6652L13.6969 64.3378L10.733 65.6076L11.6302 68.9348Z" fill="white" fill-opacity="0.5"/>
<path d="M12.5588 72.3798L15.5223 71.1101L14.6255 67.7828L11.6617 69.0529L12.5588 72.3798Z" fill="white" fill-opacity="0.5"/>
<path d="M31.6157 79.5857L34.5796 78.3159L33.6824 74.9887L30.7189 76.2584L31.6157 79.5857Z" fill="white" fill-opacity="0.5"/>
<path d="M27.9006 65.8067L30.8644 64.5365L29.9673 61.2097L27.0038 62.4793L27.9006 65.8067Z" fill="white" fill-opacity="0.5"/>
<path d="M28.5464 80.9011L31.51 79.6315L30.6131 76.3038L27.6492 77.5739L28.5464 80.9011Z" fill="white" fill-opacity="0.5"/>
<path d="M25.7605 70.5664L28.7245 69.2967L27.8273 65.9694L24.8637 67.2391L25.7605 70.5664Z" fill="white" fill-opacity="0.5"/>
<path d="M26.6898 74.0105L29.6536 72.7404L28.7567 69.4143L25.7932 70.6839L26.6898 74.0105Z" fill="white" fill-opacity="0.5"/>
<path d="M27.6185 77.4556L30.582 76.1859L29.6852 72.8586L26.7213 74.1284L27.6185 77.4556Z" fill="white" fill-opacity="0.5"/>
<path d="M30.6872 76.141L33.6506 74.871L32.7538 71.5437L29.7899 72.8134L30.6872 76.141Z" fill="white" fill-opacity="0.5"/>
<path d="M28.8292 69.2516L31.7927 67.9819L30.8959 64.6546L27.9324 65.9243L28.8292 69.2516Z" fill="white" fill-opacity="0.5"/>
<path d="M29.7585 72.6958L32.7221 71.4261L31.8255 68.0996L28.8616 69.3697L29.7585 72.6958Z" fill="white" fill-opacity="0.5"/>
<path d="M19.6248 73.1957L22.5872 71.9263L21.6904 68.599L18.7275 69.8681L19.6248 73.1957Z" fill="white" fill-opacity="0.5"/>
<path d="M13.4875 75.8251L16.4514 74.5553L15.5541 71.2277L12.5907 72.4978L13.4875 75.8251Z" fill="white" fill-opacity="0.5"/>
<path d="M7.21389 62.6311L8.79912 63.0073L11.7627 61.7376L10.1774 61.3614L7.21389 62.6311Z" fill="white" fill-opacity="0.75"/>
<path d="M2.5038 63.5559L4.08914 63.9324L7.05296 62.6623L5.46735 62.2862L2.5038 63.5559Z" fill="white" fill-opacity="0.75"/>
<path d="M15.0463 62.5165L13.4606 62.1401L10.4971 63.4098L12.0824 63.7863L15.0463 62.5165Z" fill="white" fill-opacity="0.75"/>
<path d="M8.48079 60.958L6.89545 60.5815L3.9319 61.8512L5.51724 62.2277L8.48079 60.958Z" fill="white" fill-opacity="0.75"/>
<path d="M5.41172 62.2728L3.82612 61.8967L0.862568 63.1664L2.4478 63.5425L5.41172 62.2728Z" fill="white" fill-opacity="0.75"/>
<path d="M17.8995 59.1081L16.3143 58.7319L13.3504 60.0017L14.936 60.3778L17.8995 59.1081Z" fill="white" fill-opacity="0.75"/>
<path d="M11.5478 59.6434L9.96258 59.2672L6.99978 60.5367L8.58501 60.9129L11.5478 59.6434Z" fill="white" fill-opacity="0.75"/>
<path d="M13.4042 62.1266L11.8194 61.7507L8.85585 63.0204L10.4407 63.3966L13.4042 62.1266Z" fill="white" fill-opacity="0.75"/>
<path d="M14.6162 58.3293L13.0308 57.9527L10.067 59.2229L11.6522 59.5991L14.6162 58.3293Z" fill="white" fill-opacity="0.75"/>
<path d="M18.1136 61.2022L16.5284 60.8261L13.5659 62.0954L15.1512 62.4716L18.1136 61.2022Z" fill="white" fill-opacity="0.75"/>
<path d="M11.7083 59.6124L13.2939 59.9885L16.2574 58.7188L14.6722 58.3426L11.7083 59.6124Z" fill="white" fill-opacity="0.75"/>
<path d="M16.4715 60.8127L14.8867 60.4364L11.9238 61.7059L13.5091 62.0821L16.4715 60.8127Z" fill="white" fill-opacity="0.75"/>
<path d="M8.64113 60.9266L10.2264 61.3028L13.1893 60.0337L11.6039 59.6571L8.64113 60.9266Z" fill="white" fill-opacity="0.75"/>
<path d="M10.2825 61.3161L11.8681 61.6922L14.8306 60.4232L13.2453 60.0467L10.2825 61.3161Z" fill="white" fill-opacity="0.75"/>
<path d="M5.57324 62.2409L7.15847 62.6171L10.122 61.3475L8.53669 60.9709L5.57324 62.2409Z" fill="white" fill-opacity="0.75"/>
<path d="M24.3556 58.5281L27.3194 57.258L25.7338 56.8819L22.7703 58.1516L24.3556 58.5281Z" fill="white" fill-opacity="0.75"/>
<path d="M27.3759 57.2711L24.4124 58.5407L25.9977 58.9173L28.9616 57.6475L27.3759 57.2711Z" fill="white" fill-opacity="0.75"/>
<path d="M8.69505 63.0519L7.10981 62.6758L4.14589 63.9455L5.73123 64.3221L8.69505 63.0519Z" fill="white" fill-opacity="0.75"/>
<path d="M21.073 57.7485L24.0369 56.4787L22.4512 56.1022L19.4878 57.3723L21.073 57.7485Z" fill="white" fill-opacity="0.75"/>
<path d="M24.3068 58.5863L21.3429 59.856L22.9282 60.2326L25.8921 58.9625L24.3068 58.5863Z" fill="white" fill-opacity="0.75"/>
<path d="M20.7539 55.6995L19.1685 55.323L16.205 56.5926L17.7903 56.9692L20.7539 55.6995Z" fill="white" fill-opacity="0.75"/>
<path d="M22.7139 58.1381L25.6774 56.8681L24.0926 56.4921L21.129 57.7618L22.7139 58.1381Z" fill="white" fill-opacity="0.75"/>
<path d="M11.9769 63.8314L10.3917 63.4552L7.42775 64.7249L9.01299 65.1011L11.9769 63.8314Z" fill="white" fill-opacity="0.75"/>
<path d="M12.0338 63.8448L9.06984 65.1146L10.6555 65.491L13.619 64.221L12.0338 63.8448Z" fill="white" fill-opacity="0.75"/>
<path d="M10.3359 63.4414L8.75105 63.0652L5.78723 64.3353L7.37199 64.7112L10.3359 63.4414Z" fill="white" fill-opacity="0.75"/>
<path d="M18.1696 61.2155L15.2072 62.4848L16.7924 62.861L19.7553 61.5919L18.1696 61.2155Z" fill="white" fill-opacity="0.75"/>
<path d="M21.2381 59.9006L18.2743 61.1708L19.8599 61.5468L22.8234 60.2772L21.2381 59.9006Z" fill="white" fill-opacity="0.75"/>
<path d="M15.102 62.5296L12.1385 63.7997L13.7238 64.1758L16.6877 62.9061L15.102 62.5296Z" fill="white" fill-opacity="0.75"/>
<path d="M19.4317 57.3587L22.3952 56.089L20.8099 55.7125L17.8464 56.9825L19.4317 57.3587Z" fill="white" fill-opacity="0.75"/>
<path d="M14.7777 58.2971L16.3631 58.6736L19.3269 57.4035L17.7416 57.0273L14.7777 58.2971Z" fill="white" fill-opacity="0.75"/>
<path d="M19.5407 59.4975L17.9559 59.1212L14.9923 60.3908L16.5772 60.7671L19.5407 59.4975Z" fill="white" fill-opacity="0.75"/>
<path d="M17.6847 57.0141L16.0991 56.638L13.1355 57.9077L14.7208 58.2839L17.6847 57.0141Z" fill="white" fill-opacity="0.75"/>
<path d="M21.1821 59.8874L19.5968 59.5108L16.6329 60.781L18.2185 61.1571L21.1821 59.8874Z" fill="white" fill-opacity="0.75"/>
<path d="M22.61 58.1829L21.0251 57.8066L18.0612 59.0764L19.646 59.4527L22.61 58.1829Z" fill="white" fill-opacity="0.75"/>
<path d="M16.4191 58.6872L18.0044 59.0638L20.9682 57.7936L19.383 57.4175L16.4191 58.6872Z" fill="white" fill-opacity="0.75"/>
<path d="M24.2517 58.5728L22.6665 58.1966L19.7025 59.4664L21.2878 59.8426L24.2517 58.5728Z" fill="white" fill-opacity="0.75"/>
</g>
<g opacity="0.4">
<path d="M114.266 123.401L97.3495 161.12L59.4854 161.928L76.4011 124.208L114.266 123.401Z" fill="white" fill-opacity="0.8"/>
<path d="M59.485 161.926L49.4712 149.45L66.3877 111.73L76.4007 124.206L59.485 161.926Z" fill="white" fill-opacity="0.5"/>
<path d="M76.4006 124.207L66.3875 111.731L104.252 110.924L114.265 123.4L76.4006 124.207Z" fill="white" fill-opacity="0.3"/>
</g>
<g opacity="0.4">
<path d="M217.042 169.893L226.775 159.365L226.241 164.891C225.927 165.977 225.568 167.1 225.164 168.258L216.267 177.883L217.042 169.893Z" fill="white" fill-opacity="0.6"/>
<path d="M218.949 150.034C219.606 149.792 220.28 149.6 220.967 149.461L218.776 151.83L218.949 150.034Z" fill="white" fill-opacity="0.6"/>
<path d="M216.206 178.575L224.804 169.273C223.213 173.63 221.021 178.417 218.378 183.374L215.439 186.554L216.206 178.575Z" fill="white" fill-opacity="0.6"/>
<path d="M218.713 152.528L221.657 149.352C223.845 149.078 225.518 149.682 226.544 151.207L217.946 160.509L218.713 152.528Z" fill="white" fill-opacity="0.6"/>
<path d="M217.876 161.213L226.773 151.588C227.036 152.078 227.237 152.598 227.371 153.138L226.846 158.66L217.112 169.187L217.876 161.213Z" fill="white" fill-opacity="0.6"/>
<path d="M217.56 184.89C216.804 186.27 216.017 187.657 215.198 189.053L215.37 187.258L217.56 184.89Z" fill="white" fill-opacity="0.6"/>
<path d="M193.331 211.099L192.564 219.072L185.834 226.353C184.831 227.267 183.851 228.121 182.894 228.915L183.597 221.626L193.331 211.099Z" fill="white" fill-opacity="0.6"/>
<path d="M203.928 199.637L203.229 206.926C202.222 208.257 201.198 209.57 200.157 210.866L193.427 218.146L194.195 210.166L203.928 199.637Z" fill="white" fill-opacity="0.6"/>
<path d="M214.515 188.181L214.284 190.588C211.233 195.666 207.793 200.805 204.101 205.758L204.778 198.712L214.515 188.181Z" fill="white" fill-opacity="0.6"/>
<path d="M182.739 222.554L182.062 229.6C178.573 232.405 175.439 234.388 172.771 235.494L173.003 233.086L182.739 222.554Z" fill="white" fill-opacity="0.6"/>
<path d="M208.187 163.286L208.864 156.238C212.352 153.434 215.488 151.45 218.155 150.345L217.919 152.751L208.187 163.286Z" fill="white" fill-opacity="0.6"/>
<path d="M174.725 207.266L166.127 216.568C167.718 212.212 169.906 207.43 172.552 202.467L175.491 199.289L174.725 207.266Z" fill="white" fill-opacity="0.6"/>
<path d="M173.05 224.629L164.154 234.252C163.888 233.761 163.685 233.238 163.551 232.696L164.081 227.181L173.813 216.653L173.05 224.629Z" fill="white" fill-opacity="0.6"/>
<path d="M164.384 234.631L172.982 225.33L172.216 233.309L169.276 236.487C167.081 236.764 165.411 236.155 164.384 234.631Z" fill="white" fill-opacity="0.6"/>
<path d="M173.885 215.946L164.151 226.473L164.678 220.962C164.993 219.875 165.352 218.75 165.755 217.588L174.651 207.966L173.885 215.946Z" fill="white" fill-opacity="0.6"/>
<path d="M186.996 186.2L187.701 178.91C188.707 177.581 189.73 176.268 190.77 174.974L197.504 167.69L196.736 175.67L186.996 186.2Z" fill="white" fill-opacity="0.6"/>
<path d="M197.591 174.744L198.359 166.764L205.094 159.483C206.097 158.569 207.076 157.715 208.031 156.922L207.332 164.216L197.591 174.744Z" fill="white" fill-opacity="0.6"/>
<path d="M173.368 200.951C174.124 199.572 174.912 198.184 175.729 196.788L175.558 198.583L173.368 200.951Z" fill="white" fill-opacity="0.6"/>
<path d="M176.413 197.664L176.646 195.254C179.696 190.176 183.137 185.037 186.828 180.084L186.15 187.132L176.413 197.664Z" fill="white" fill-opacity="0.6"/>
<path d="M205.684 189.33L206.451 181.349L216.188 170.817L215.421 178.798L205.684 189.33Z" fill="white" fill-opacity="0.6"/>
<path d="M207.265 164.913L206.497 172.892L196.761 183.424L197.528 175.444L207.265 164.913Z" fill="white" fill-opacity="0.6"/>
<path d="M204.848 198.01L205.614 190.031L215.351 179.499L214.584 187.478L204.848 198.01Z" fill="white" fill-opacity="0.6"/>
<path d="M206.518 180.648L207.286 172.667L217.021 162.135L216.255 170.116L206.518 180.648Z" fill="white" fill-opacity="0.6"/>
<path d="M217.854 153.455L217.087 161.435L207.35 171.966L208.118 163.988L217.854 153.455Z" fill="white" fill-opacity="0.6"/>
<path d="M171.974 235.806C171.318 236.048 170.645 236.24 169.959 236.38L172.147 234.013L171.974 235.806Z" fill="white" fill-opacity="0.6"/>
<path d="M194.258 209.468L195.026 201.488L204.763 190.956L203.995 198.936L194.258 209.468Z" fill="white" fill-opacity="0.6"/>
<path d="M173.07 232.386L173.837 224.405L183.574 213.873L182.806 221.853L173.07 232.386Z" fill="white" fill-opacity="0.6"/>
<path d="M183.664 220.928L184.432 212.948L194.168 202.415L193.401 210.396L183.664 220.928Z" fill="white" fill-opacity="0.6"/>
<path d="M184.499 212.245L185.265 204.265L189.753 199.409C189.741 201.48 191.802 200.894 194.587 198.034L194.234 201.713L184.499 212.245Z" fill="white" fill-opacity="0.6"/>
<path d="M206.428 173.599L205.66 181.579L201.171 186.429C201.184 184.359 199.123 184.945 196.337 187.805L196.694 184.126L206.428 173.599Z" fill="white" fill-opacity="0.6"/>
<path d="M189.819 198.709L185.33 203.564L186.098 195.585L195.83 185.057L195.478 188.736C192.661 191.933 190.249 196.187 189.819 198.709Z" fill="white" fill-opacity="0.6"/>
<path d="M196.674 176.37L195.905 184.35L186.168 194.882L186.937 186.902L196.674 176.37Z" fill="white" fill-opacity="0.6"/>
<path d="M195.091 200.788L195.443 197.109C198.262 193.906 200.678 189.659 201.104 187.133L205.594 182.276L204.827 190.255L195.091 200.788Z" fill="white" fill-opacity="0.6"/>
<path d="M173.907 223.703L174.674 215.722L184.411 205.191L183.642 213.171L173.907 223.703Z" fill="white" fill-opacity="0.6"/>
<path d="M186.079 187.829L185.31 195.809L175.575 206.342L176.342 198.361L186.079 187.829Z" fill="white" fill-opacity="0.6"/>
<path d="M185.246 196.509L184.479 204.488L174.743 215.02L175.51 207.041L185.246 196.509Z" fill="white" fill-opacity="0.6"/>
<path d="M259.313 173.784L225.453 150.086C227.214 151.318 228.013 153.982 227.616 158.146C226.218 172.698 210.69 200.065 192.93 219.269C180.258 232.985 169.867 238.827 165.473 235.753L199.334 259.451C203.727 262.526 214.111 256.683 226.791 242.966C244.546 223.761 260.074 196.394 261.477 181.844C261.872 177.679 261.074 175.017 259.313 173.784Z" fill="white" fill-opacity="0.8"/>
</g>
</svg>
